<svg width="93" height="30" viewBox="0 0 93 30" fill="none" xmlns="http://www.w3.org/2000/svg">
<g clip-path="url(#clip0_923_809)">
<path d="M19.2376 20.3857H9.61914V25.4935H19.2376V20.3857Z" fill="white"/>
<path d="M19.2376 26.6504H9.61914V30H19.2376V26.6504Z" fill="white"/>
<path d="M19.2369 9.61435V0H9.61846V9.61435H0V19.2287H9.61846H19.2369H28.8554V9.61435H19.2369Z" fill="white"/>
<path d="M90.818 18.6379V18.269H90.9292L91.1415 18.6379H91.3234L91.0909 18.264C91.2173 18.2539 91.3184 18.1933 91.3184 18.0316C91.3184 17.8447 91.1971 17.7739 90.9797 17.7739H90.6562V18.6379H90.8281H90.818ZM90.818 18.1377V17.9103H90.9646C91.0404 17.9103 91.1415 17.9255 91.1415 18.0215C91.1415 18.1276 91.0707 18.1427 90.9696 18.1427H90.818V18.1377Z" fill="white"/>
<path d="M73.9008 13.0549H68.993V11.7767L74.0625 11.7716V9.56885H66.5921L66.582 18.9407H74.0625V16.7177H68.993V15.4143H73.9008V13.0549Z" fill="white"/>
<path d="M50.3066 9.56885V11.8019H53.4403V18.9407H56.0484V11.8019H60.1273V18.9407H62.7353V11.8019H65.6214V9.56885H50.3066Z" fill="white"/>
<path d="M86.1467 18.9407H88.9114V15.4041L92.2827 9.56885H89.4775L87.5265 13.1054L85.5755 9.56885H82.7754L86.1467 15.4041V18.9407Z" fill="white"/>
<path d="M45.7278 9.56885L41.8359 18.9407H44.7574L45.187 17.7686H48.7806L49.2103 18.9407H52.1317L48.2398 9.56885H45.7278ZM47.9163 15.4143H46.0513L46.9863 12.8629L47.9214 15.4143H47.9163Z" fill="white"/>
<path d="M75.2188 9.56902V18.9409H77.5791V15.3942H78.777L80.8746 18.9409H83.5433L81.2587 15.081C82.2393 14.6768 82.9064 13.7472 82.9165 12.4336C82.9014 10.6502 81.6732 9.56396 80.0861 9.56396C80.0204 9.56396 75.2188 9.56396 75.2188 9.56396V9.56902ZM79.7626 11.8021C80.1063 11.8021 80.3843 12.08 80.3843 12.4235C80.3843 12.7671 80.1063 13.0449 79.7626 13.0449H77.5791V11.797H79.7626V11.8021Z" fill="white"/>
<path d="M41.6887 16.3843C41.6887 15.5203 41.34 14.7069 40.784 14.232C41.3096 13.7622 41.6533 13.0246 41.6533 12.196C41.6533 10.0134 39.9854 9.56885 39.1312 9.56885H32.4746V18.9407H39.7074C41.0923 18.9407 41.6887 17.6625 41.6887 16.3843ZM34.7592 13.0347V11.7969H38.4691C38.7622 11.7969 39.0048 12.1 39.0048 12.4132C39.0048 12.7265 38.7673 13.0347 38.4691 13.0347H34.7592ZM34.7592 16.7127V15.4749H38.4691C38.7572 15.4749 39.0048 15.778 39.0048 16.0912C39.0048 16.4045 38.7673 16.7127 38.4691 16.7127H34.7592Z" fill="white"/>
<path d="M90.1602 18.2084C90.1602 18.6782 90.5342 18.9864 90.9537 18.9864C91.3732 18.9864 91.7472 18.6782 91.7472 18.2084C91.7472 17.7385 91.3732 17.4404 90.9537 17.4404C90.5342 17.4404 90.1602 17.7436 90.1602 18.2084ZM91.5349 18.2084C91.5349 18.562 91.2721 18.8197 90.9537 18.8197C90.6353 18.8197 90.3724 18.562 90.3724 18.2084C90.3724 17.8547 90.6302 17.6021 90.9537 17.6021C91.2772 17.6021 91.5349 17.8598 91.5349 18.2084Z" fill="white"/>
<path d="M32.6914 22.3356H35.7847V23.1995H33.6366V24.1494H35.3753V25.0032H33.6366V26.0591H35.7847V26.923H32.6914V22.3306V22.3356Z" fill="white"/>
<path d="M37.6641 22.3354H38.6497L40.3884 25.296V22.3354H41.3083V26.9279H40.3884L38.584 23.8663V26.9279H37.6641V22.3354Z" fill="white"/>
<path d="M43.3906 22.3356H46.4839V23.1995H44.3358V24.1494H46.0745V25.0032H44.3358V26.0591H46.4839V26.923H43.3906V22.3306V22.3356Z" fill="white"/>
<path d="M51.8469 26.9279H50.831L50.0677 25.3061H49.3045V26.9279H48.3594V22.3354H50.7804C51.4021 22.3354 51.7003 22.6285 51.7003 23.255V24.3614C51.7003 24.8818 51.4981 25.1748 51.0635 25.2556L51.8418 26.9279H51.8469ZM50.6237 24.4675C50.7198 24.4675 50.7551 24.4372 50.7551 24.3361V23.3206C50.7551 23.2246 50.7248 23.1893 50.6237 23.1893H49.3045V24.4675H50.6237Z" fill="white"/>
<path d="M53.5664 26.0138V23.2603C53.5664 22.6389 53.8596 22.3408 54.4863 22.3408H56.0683C56.69 22.3408 56.9882 22.6338 56.9882 23.2603V23.8615H56.043V23.3361C56.043 23.2401 56.0127 23.2047 55.9116 23.2047H54.643C54.547 23.2047 54.5116 23.2351 54.5116 23.3361V25.9329C54.5116 26.0289 54.5419 26.0643 54.643 26.0643H55.9116C56.0077 26.0643 56.043 26.034 56.043 25.9329V25.2256H55.1787V24.3971H56.9882V26.0087C56.9882 26.6301 56.6951 26.9282 56.0683 26.9282H54.4863C53.8646 26.9282 53.5664 26.6352 53.5664 26.0087V26.0138Z" fill="white"/>
<path d="M59.8633 25.3617L58.3672 22.3354H59.3932L60.3434 24.3816L61.2937 22.3354H62.3045L60.8084 25.3617V26.9279H59.8633V25.3617Z" fill="white"/>
<path d="M66.4199 22.3354H68.9319C69.5536 22.3354 69.8518 22.6285 69.8518 23.255V26.0084C69.8518 26.6298 69.5587 26.9279 68.9319 26.9279H66.4199V22.3354ZM68.7753 26.064C68.8713 26.064 68.9067 26.0337 68.9067 25.9326V23.3358C68.9067 23.2398 68.8763 23.2044 68.7753 23.2044H67.3651V26.064H68.7753Z" fill="white"/>
<path d="M75.3098 26.9279H74.2938L73.5306 25.3061H72.7674V26.9279H71.8223V22.3354H74.2433C74.865 22.3354 75.1632 22.6285 75.1632 23.255V24.3614C75.1632 24.8818 74.961 25.1748 74.5263 25.2556L75.3047 26.9279H75.3098ZM74.0866 24.4675C74.1827 24.4675 74.218 24.4372 74.218 24.3361V23.3206C74.218 23.2246 74.1877 23.1893 74.0866 23.1893H72.7674V24.4675H74.0866Z" fill="white"/>
<path d="M77.1387 22.3354H78.0838V26.9279H77.1387V22.3354Z" fill="white"/>
<path d="M80.1719 22.3354H81.1575L82.8962 25.296V22.3354H83.8161V26.9279H82.8962L81.0918 23.8663V26.9279H80.1719V22.3354Z" fill="white"/>
<path d="M88.5831 26.9282L87.5015 24.9427L86.8343 25.7915V26.9333H85.9043V22.3408H86.8343V24.4931L88.4669 22.3408H89.5738L88.1383 24.1495L89.6496 26.9333H88.5882L88.5831 26.9282Z" fill="white"/>
</g>
<defs>
<clipPath id="clip0_923_809">
<rect width="92.2826" height="30" fill="white"/>
</clipPath>
</defs>
</svg>
