<svg width="140" height="22" viewBox="0 0 140 22" fill="none" xmlns="http://www.w3.org/2000/svg">
<g clip-path="url(#clip0_1284_3130)">
<path d="M0.699219 0L11.5632 10.747L22.4271 0H0.699219Z" fill="#1B3E6C"/>
<path d="M0.699219 21.494L11.5632 10.747L0.699219 0V21.494Z" fill="#F7941D"/>
<path d="M22.4284 21.4941V10.7471L11.5645 21.4941H22.4284Z" fill="#40C4E0"/>
<path d="M16.9951 16.1206L11.5632 21.4941H0.699219L6.13119 16.1206H16.9951Z" fill="#725BA7"/>
<path d="M11.5648 10.7471L6.13281 16.1206H16.9968L11.5648 10.7471Z" fill="#DC4E3A"/>
<path d="M16.9941 5.3735L22.4261 10.747V0L16.9941 5.3735Z" fill="#00B388"/>
<path d="M22.4261 10.7475L16.9941 5.37402L11.5622 10.7475L16.9941 16.121L22.4261 10.7475Z" fill="#F5DF2E"/>
<path d="M38.0667 0H31.1504V21.494H37.8533C42.3281 21.494 48.8145 18.756 48.8145 10.7967C48.8145 2.83731 41.8104 0 38.0667 0ZM37.7058 17.3374H36.1117V4.15662H37.9349C39.5133 4.15662 43.621 5.22449 43.621 10.7967C43.621 16.3688 39.1022 17.3374 37.7058 17.3374Z" fill="white"/>
<path d="M61.9838 7.47583V9.44083L61.3907 8.78273C60.7882 8.1122 59.4545 6.98535 57.2736 6.98535C55.3593 6.98535 53.4891 7.72417 52.2621 8.95967C51.4587 9.76989 50.1094 11.5828 50.1094 14.6095C50.1094 16.6924 50.7244 18.2849 52.1052 19.775C53.4922 21.2526 55.1742 22.0038 57.1072 22.0038C58.171 22.0038 60.1386 21.7493 61.3656 20.0388L61.9806 19.1821V21.5103H66.0664V7.47583H61.9806H61.9838ZM58.0235 18.1856C55.9964 18.1856 54.352 16.5248 54.352 14.476C54.352 12.4271 55.9964 10.7664 58.0235 10.7664C60.0507 10.7664 61.6951 12.4271 61.6951 14.476C61.6951 16.5248 60.0507 18.1856 58.0235 18.1856Z" fill="white"/>
<path d="M90.7287 7.47583V9.44083L90.1356 8.78273C89.5331 8.1122 88.1994 6.98535 86.0185 6.98535C84.1042 6.98535 82.234 7.72417 81.0101 8.95967C80.2068 9.76989 78.8574 11.5828 78.8574 14.6095C78.8574 16.6924 79.4725 18.2849 80.8532 19.775C82.2402 21.2526 83.9254 22.0038 85.8553 22.0038C86.9191 22.0038 88.8835 21.7493 90.1136 20.0388L90.7287 19.1821V21.5103H94.8144V7.47583H90.7287ZM86.7685 18.1856C84.7413 18.1856 83.0969 16.5248 83.0969 14.476C83.0969 12.4271 84.7413 10.7664 86.7685 10.7664C88.7956 10.7664 90.44 12.4271 90.44 14.476C90.44 16.5248 88.7956 18.1856 86.7685 18.1856Z" fill="white"/>
<path d="M70.4495 0.00634766V7.47834H68.7832V11.1072H70.4495V21.5066H74.9871V11.1072H77.9557V7.47834H74.9871V0.00634766H70.4495Z" fill="white"/>
<path d="M131.889 0V21.5095H136.429V11.1102H139.395V7.4782H136.429V0H131.889Z" fill="white"/>
<path d="M110.904 14.2114H104.694L107.757 5.06307L110.904 14.2114ZM113.481 21.494H118.649L110.634 0H104.986L96.8145 21.4909H101.923L103.42 17.7285H112.116L113.481 21.4909V21.494Z" fill="white"/>
<path d="M120.297 21.5095H124.834V15.5586C124.834 14.9595 124.835 13.1373 126.115 11.9545C126.758 11.3616 127.612 11.076 128.729 11.076C129.498 11.076 130.339 11.0946 130.64 11.1009V7.49059C130.43 7.47817 129.736 7.44092 129.736 7.44092C128.857 7.44092 128.029 7.44092 127.392 7.7886C126.576 8.20147 125.914 8.85647 125.475 9.69152L124.834 10.9022V7.47817H120.297V21.5095Z" fill="white"/>
</g>
<defs>
<clipPath id="clip0_1284_3130">
<rect width="138.696" height="22" fill="white" transform="translate(0.699219)"/>
</clipPath>
</defs>
</svg>
