<svg width="103" height="32" viewBox="0 0 103 32" fill="none" xmlns="http://www.w3.org/2000/svg">
<path d="M17.5219 7.51214L17.5137 7.50391L17.5219 7.51214Z" fill="white"/>
<path d="M17.491 30.0073C17.513 30.0224 17.5496 30.0526 17.5788 30.0752C17.5496 30.0526 17.5203 30.0299 17.491 30.0073Z" fill="white"/>
<path d="M20.9754 0C19.0652 0 17.521 1.58487 17.521 3.54529V6.80516C17.521 7.05303 17.3161 7.25583 17.0745 7.25583C17.016 7.25583 16.9648 7.24832 16.9135 7.22579C16.9135 7.22579 16.9209 7.22579 16.9282 7.22579C15.4791 6.60987 13.8982 6.26435 12.2296 6.26435C5.5037 6.26435 0.0585938 11.8302 0.0585938 18.7029C0.0585938 25.5757 5.5037 31.134 12.2223 31.134C13.4884 31.134 14.7106 31.0438 15.8523 30.6758C16.3207 30.5256 16.7818 30.3453 17.2282 30.135C17.2502 30.1275 17.3819 30.0599 17.4624 30.0599C17.5356 30.0599 17.6015 30.0824 17.6527 30.12C17.6527 30.12 17.6527 30.12 17.6454 30.12C18.8749 30.9687 20.4192 31.0063 20.6461 31.0063C20.7412 31.0063 20.7339 31.0063 20.7339 31.0063C20.7339 31.0063 20.7339 31.0063 20.7412 31.0063C22.6807 31.0063 24.364 29.444 24.4225 27.461V3.54529C24.4225 1.59238 22.8783 0 20.9681 0H20.9754ZM17.499 30.0073C17.4185 30.0524 17.3307 30.0899 17.2502 30.1275C17.3307 30.0899 17.4185 30.0448 17.499 30.0073C17.5283 30.0298 17.5576 30.0524 17.5869 30.0749C17.5576 30.0524 17.521 30.0223 17.499 30.0073ZM18.5602 25.4104C15.3107 26.9803 13.1517 25.3804 13.7811 24.1185C14.2422 23.1946 15.6401 21.2192 15.3107 19.5892C14.9155 17.6513 13.1225 16.1491 11.1976 15.1576C9.27282 14.1737 7.66271 13.1521 8.04328 10.7636C8.38726 8.63038 10.7146 7.90931 12.8077 7.90931C12.8077 7.90931 14.4691 7.91682 15.2668 8.11962C15.7718 8.24731 15.9328 8.32242 15.5157 8.68296C15.1717 8.9759 14.3666 9.65942 15.1205 10.5758C16.3793 12.1081 19.2116 11.9428 21.2242 14.2713C22.1025 15.2853 22.7173 16.9303 22.7173 18.3274C22.7173 18.3274 23.171 23.1946 18.5676 25.4104H18.5602Z" fill="white"/>
<path d="M42.7108 0.750977V20.0848C42.7108 21.5045 42.7401 23.1269 42.8426 24.216H40.2957L40.1639 21.4369H40.0981C39.2272 23.2245 37.3609 24.5765 34.814 24.5765C31.0449 24.5765 28.1174 21.3017 28.1174 16.4494C28.0881 11.0939 31.3376 7.85658 35.1067 7.85658C37.5219 7.85658 39.132 9.01331 39.8053 10.2677H39.8712V0.750977H42.7035H42.7108ZM39.8785 14.7293C39.8785 14.3312 39.8492 13.8731 39.7468 13.475C39.3296 11.6573 37.7854 10.14 35.6556 10.14C32.7282 10.14 30.9863 12.7839 30.9863 16.2842C30.9863 19.5591 32.5671 22.233 35.5898 22.233C37.4926 22.233 39.2272 20.9111 39.7468 18.7629C39.8419 18.3648 39.8785 17.9667 39.8785 17.5085V14.7293Z" fill="white"/>
<path d="M47.3082 5.28044C46.247 5.28044 45.5371 4.42416 45.5371 3.39512C45.5371 2.36609 46.2763 1.54736 47.3741 1.54736C48.4719 1.54736 49.1745 2.3736 49.1745 3.39512C49.1745 4.41665 48.4646 5.28044 47.3375 5.28044H47.3082ZM45.9543 24.2162V8.22483H48.7866V24.2237H45.9543V24.2162Z" fill="white"/>
<path d="M63.4234 20.3858C63.4234 21.7754 63.4893 23.1274 63.6503 24.2165H61.1107L60.8545 22.2035H60.7594C59.9251 23.4579 58.2198 24.5846 55.9949 24.5846C52.8406 24.5846 51.2305 22.3012 51.2305 19.9877C51.2305 16.1195 54.5824 14.0088 60.5984 14.0388V13.7084C60.5984 12.3864 60.2471 9.97528 57.0561 10.0053C55.5778 10.0053 54.0628 10.4335 52.965 11.1921L52.321 9.23918C53.609 8.41295 55.5119 7.84961 57.4733 7.84961C62.2744 7.84961 63.4307 11.1846 63.4307 14.3919V20.3708L63.4234 20.3858ZM60.6569 16.0519C57.5685 15.9843 54.0555 16.5476 54.0555 19.6572C54.0555 21.5726 55.2777 22.4364 56.6975 22.4364C58.7541 22.4364 60.0788 21.1144 60.5325 19.7624C60.6277 19.4619 60.6569 19.1315 60.6569 18.8385V16.0594V16.0519Z" fill="white"/>
<path d="M66.2773 0.750977H69.1097V24.216H66.2773V0.750977Z" fill="white"/>
<path d="M78.8728 24.5844C74.6865 24.5844 71.4004 21.4147 71.4004 16.3521C71.4004 10.9966 74.8475 7.85693 79.1289 7.85693C83.4104 7.85693 86.6306 11.1919 86.6306 16.0517C86.6306 22.0005 82.6053 24.5769 78.902 24.5769H78.8728V24.5844ZM78.9679 22.4061C81.6758 22.4061 83.7031 19.7922 83.7031 16.1568C83.7031 13.4453 82.3857 10.0427 79.0338 10.0427C75.6818 10.0427 74.2693 13.2124 74.2693 16.2545C74.2693 19.7622 76.2014 22.3986 78.9386 22.3986H78.9679V22.4061Z" fill="white"/>
<path d="M102.673 21.8732C102.673 25.5762 101.934 27.792 100.448 29.2116C98.904 30.6312 96.7158 31.127 94.747 31.127C92.7783 31.127 90.8169 30.6613 89.5654 29.805L90.2753 27.5591C91.3072 28.2502 92.9174 28.8511 94.8495 28.8511C97.7477 28.8511 99.8774 27.2963 99.8774 23.2327V21.4826H99.8116C98.9772 22.9698 97.2647 24.1566 94.8495 24.1566C90.9852 24.1566 88.2188 20.784 88.2188 16.3224C88.2188 10.8993 91.6658 7.86475 95.2666 7.86475C97.9746 7.86475 99.4237 9.28436 100.126 10.6063H100.192L100.287 8.22528H102.798C102.702 9.35197 102.666 10.6364 102.666 12.5893V21.8732H102.673ZM99.8408 14.5047C99.8408 14.039 99.8115 13.6108 99.6798 13.2127C99.1675 11.4927 97.8136 10.1031 95.7204 10.1031C93.0125 10.1031 91.0804 12.4466 91.0804 16.1872C91.0804 19.2968 92.6612 21.9408 95.6838 21.9408C97.4549 21.9408 99.0358 20.8141 99.6139 18.9363C99.775 18.4706 99.8408 17.9072 99.8408 17.3815V14.5047Z" fill="white"/>
</svg>
