<svg width="124" height="30" viewBox="0 0 124 30" fill="none" xmlns="http://www.w3.org/2000/svg">
<g clip-path="url(#clip0_923_927)">
<path d="M100.889 16.3404C100.481 17.9249 98.6924 18.648 97.309 17.8795C96.7527 17.5706 96.2554 16.9446 96.1084 16.2913C96.0701 16.1219 96.051 15.851 96.051 15.4785C96.0506 11.212 96.0508 6.9456 96.0515 2.67916C96.0515 2.32264 96.0753 2.05186 96.1229 1.86681C96.4489 0.595857 97.6915 -0.125186 98.9527 0.0730745C99.8801 0.219162 100.662 0.970988 100.89 1.8736C100.942 2.0802 100.967 2.42507 100.967 2.90821C100.967 7.04629 100.967 11.1844 100.967 15.3225C100.967 15.7983 100.941 16.1376 100.889 16.3404Z" fill="white"/>
<path d="M107.27 16.3639C107.013 17.3458 106.119 18.1065 105.104 18.1764C103.896 18.2594 102.779 17.4981 102.496 16.2992C102.452 16.111 102.43 15.7649 102.43 15.2609C102.43 11.1301 102.43 6.99953 102.43 2.8691C102.43 2.41623 102.455 2.08823 102.506 1.8851C102.759 0.880229 103.655 0.119533 104.692 0.0397074C105.885 -0.0521187 106.976 0.70962 107.274 1.8731C107.322 2.06266 107.346 2.34666 107.346 2.7251C107.346 6.95118 107.346 11.1769 107.346 15.4023C107.346 15.8472 107.321 16.1677 107.27 16.3639Z" fill="white"/>
<path d="M78.5631 8.31203C78.5587 10.7719 78.5547 13.2317 78.5512 15.6915C78.5497 17.0736 77.4934 18.1619 76.1204 18.1828C74.999 18.2 73.9495 17.4326 73.6834 16.2957C73.6407 16.112 73.6191 15.8117 73.6188 15.3946C73.617 13.0343 73.6169 10.6738 73.6182 8.31308C73.6182 8.29569 73.6096 8.28664 73.5924 8.28595C73.4771 8.28142 73.365 8.2776 73.256 8.27447C71.9032 8.23534 70.8474 7.03221 70.9282 5.66056C70.973 4.90612 71.2863 4.29586 71.868 3.82977C72.2565 3.51812 72.6774 3.34786 73.1307 3.31899C73.2066 3.31412 73.3598 3.31221 73.5903 3.31325C73.6089 3.31325 73.6182 3.30386 73.6182 3.28508C73.6162 3.01064 73.6074 2.70543 73.642 2.45864C73.9215 0.488034 76.2617 -0.340487 77.7253 0.958121C78.2525 1.42595 78.5293 1.99847 78.5559 2.67569C78.5597 2.76856 78.5611 2.97099 78.56 3.28299C78.5597 3.30073 78.5683 3.30995 78.5859 3.31064C78.7005 3.31482 78.8126 3.31847 78.9223 3.3216C79.3953 3.33412 79.8221 3.47969 80.2026 3.75829C80.9703 4.32108 81.3183 5.08351 81.2465 6.0456C81.2097 6.5376 81.0115 6.99882 80.6953 7.38438C80.1726 8.02125 79.4712 8.32142 78.5911 8.2849C78.5725 8.28421 78.5631 8.29325 78.5631 8.31203Z" fill="white"/>
<path d="M15.8223 0.692378C18.4901 0.944899 20.7579 2.45168 22.2556 4.65186C22.9998 5.74507 23.4547 6.94229 23.6203 8.24351C23.9251 10.6393 23.3103 12.9517 21.7903 14.8211C20.0804 16.9232 17.7231 18.1873 15.0201 18.1936C13.4683 18.1967 11.9159 18.1962 10.363 18.192C9.00809 18.1884 7.83591 17.2169 7.53678 15.9042C7.48882 15.6948 7.46484 15.3856 7.46484 14.9766C7.46484 10.2065 7.46484 5.43916 7.46484 0.674638C7.46484 0.671966 7.46538 0.66932 7.46642 0.666852C7.46746 0.664383 7.46898 0.66214 7.47091 0.66025C7.47283 0.658361 7.47511 0.656862 7.47762 0.655839C7.48013 0.654817 7.48283 0.654291 7.48554 0.654291C9.92876 0.649073 12.3709 0.63916 14.8136 0.63916C15.1138 0.63916 15.45 0.656899 15.8223 0.692378ZM19.3383 11.4606L13.7268 8.10159C13.7261 8.10111 13.7253 8.10078 13.7244 8.10063C13.7235 8.10047 13.7226 8.10049 13.7217 8.10068C13.7209 8.10088 13.7201 8.10124 13.7193 8.10176C13.7186 8.10227 13.718 8.10293 13.7175 8.10368L13.717 8.1042C13.4992 8.47409 13.3556 8.88355 13.2946 9.30921C13.2336 9.73486 13.2562 10.1684 13.3613 10.585C13.4663 11.0016 13.6517 11.3931 13.9069 11.7373C14.162 12.0814 14.4819 12.3714 14.8483 12.5906L14.8918 12.6167C15.2581 12.8361 15.6638 12.9804 16.0856 13.0415C16.5074 13.1026 16.9372 13.0793 17.3502 12.9728C17.7633 12.8664 18.1517 12.6789 18.4932 12.4211C18.8346 12.1634 19.1225 11.8403 19.3404 11.4705V11.4699C19.3409 11.4692 19.3412 11.4683 19.3413 11.4675C19.3415 11.4666 19.3415 11.4657 19.3413 11.4648C19.3411 11.4639 19.3407 11.4631 19.3402 11.4624C19.3397 11.4617 19.3391 11.461 19.3383 11.4606Z" fill="#088C08"/>
<path d="M2.28566 3.92274C2.28921 3.91877 2.29113 3.91357 2.29103 3.90817C2.29093 3.90276 2.28883 3.89753 2.28514 3.89352C1.61789 3.15996 0.950977 2.42552 0.28441 1.69022C0.0577366 1.44083 -0.0488726 1.21856 0.113111 0.912825C0.200745 0.746912 0.34427 0.663608 0.543688 0.662912C2.51924 0.655608 4.49375 0.651434 6.46722 0.650391C6.4712 0.650391 6.47502 0.651985 6.47784 0.654822C6.48065 0.65766 6.48223 0.661508 6.48223 0.665521V7.13404C6.48223 7.15109 6.47361 7.15961 6.45636 7.15961C4.506 7.1617 2.55701 7.16187 0.609413 7.16013C0.475203 7.15978 0.374459 7.14135 0.307181 7.10483C0.0830951 6.98222 -0.00902351 6.67491 0.069122 6.44222C0.0963781 6.36048 0.171591 6.25248 0.294761 6.11822C0.963397 5.38848 1.62703 4.65665 2.28566 3.92274Z" fill="#088C08"/>
<path d="M65.764 3.97862C66.1642 3.59531 66.6088 3.37792 67.0976 3.32644C68.1658 3.2141 68.9821 3.59184 69.5465 4.45966C69.7915 4.83601 69.9142 5.27549 69.9145 5.7781C69.9169 8.95271 69.9174 12.1275 69.916 15.3024C69.916 15.7845 69.8898 16.1285 69.8374 16.3344C69.4151 17.9904 67.5417 18.6724 66.1299 17.8016C66.0654 17.7619 65.9391 17.6598 65.751 17.4953C65.7369 17.4831 65.7214 17.4811 65.7045 17.4891C64.9389 17.8539 64.1343 18.0744 63.2908 18.1506C61.2621 18.3332 59.3338 17.7875 57.7854 16.443C56.3234 15.1731 55.3893 13.5218 55.1962 11.5689C54.9385 8.95914 55.8742 6.64888 57.8583 4.98245C59.098 3.9414 60.5429 3.38575 62.1931 3.31549C63.4424 3.26227 64.618 3.48592 65.72 3.98645C65.7362 3.99375 65.7509 3.99114 65.764 3.97862ZM61.0147 8.60488C60.9498 8.57413 60.8782 8.5604 60.8066 8.56498C60.735 8.56955 60.6658 8.59227 60.6052 8.63104C60.5447 8.66981 60.4948 8.72337 60.4603 8.78674C60.4257 8.85012 60.4076 8.92126 60.4077 8.99358V12.6092C60.4076 12.6815 60.4257 12.7527 60.4603 12.8161C60.4948 12.8794 60.5447 12.933 60.6052 12.9718C60.6658 13.0105 60.735 13.0333 60.8066 13.0378C60.8782 13.0424 60.9498 13.0287 61.0147 12.9979L64.8324 11.1901C64.9057 11.1554 64.9676 11.1005 65.011 11.0317C65.0543 10.9628 65.0774 10.883 65.0774 10.8014C65.0774 10.7199 65.0543 10.64 65.011 10.5712C64.9676 10.5023 64.9057 10.4474 64.8324 10.4127L61.0147 8.60488Z" fill="white"/>
<path d="M108.747 11.8951C108.359 9.18257 109.305 6.69283 111.395 4.95439C112.525 4.01457 113.824 3.47735 115.291 3.34274C117.391 3.1497 119.33 3.72883 120.903 5.12918C122.409 6.47109 123.311 8.24187 123.406 10.2829C123.477 11.8288 123.188 13.2813 122.377 14.6008C121.116 16.6513 119.04 17.9947 116.639 18.1612C114.843 18.2853 113.145 17.858 111.699 16.7681C110.112 15.5728 109.033 13.8892 108.747 11.8951ZM118.224 9.39231C118.255 9.32661 118.268 9.2542 118.264 9.18178C118.259 9.10936 118.237 9.03927 118.198 8.97802C118.159 8.91678 118.106 8.86635 118.043 8.83142C117.98 8.79649 117.909 8.77819 117.837 8.77822H114.251C114.179 8.77819 114.108 8.79649 114.045 8.83142C113.982 8.86635 113.928 8.91678 113.89 8.97802C113.851 9.03927 113.829 9.10936 113.824 9.18178C113.819 9.2542 113.833 9.32661 113.864 9.39231L115.657 13.2386C115.691 13.3127 115.746 13.3755 115.815 13.4194C115.883 13.4634 115.963 13.4867 116.044 13.4867C116.125 13.4867 116.205 13.4634 116.273 13.4194C116.342 13.3755 116.397 13.3127 116.431 13.2386L118.224 9.39231Z" fill="white"/>
<path d="M24.8758 11.2308C24.7413 8.92627 25.5429 6.81114 27.2482 5.24331C28.8737 3.74853 30.8615 3.14592 33.0423 3.34574C36.356 3.64992 39.1102 6.35305 39.5455 9.66557C39.7835 11.4807 39.4368 13.3167 38.4204 14.8381C37.2327 16.6151 35.395 17.8464 33.2628 18.1172C31.2315 18.3755 29.236 17.885 27.6399 16.5724C25.9952 15.22 25.0021 13.3986 24.8758 11.2308ZM34.7103 8.05496L29.1066 11.4228C29.1058 11.4233 29.1052 11.4239 29.1047 11.4246C29.1042 11.4254 29.1038 11.4262 29.1036 11.427C29.1034 11.4279 29.1034 11.4288 29.1035 11.4297C29.1037 11.4306 29.104 11.4314 29.1045 11.4322L29.105 11.4327C29.5467 12.1797 30.2647 12.7192 31.1011 12.9325C31.9375 13.1458 32.8238 13.0154 33.565 12.5701L33.5909 12.5544C33.9579 12.3339 34.2783 12.0426 34.5336 11.6973C34.789 11.3519 34.9744 10.9593 35.0793 10.5418C35.1842 10.1242 35.2064 9.68999 35.1448 9.26384C35.0831 8.8377 34.9388 8.42798 34.7201 8.05809L34.7196 8.05705C34.7191 8.05629 34.7185 8.05564 34.7178 8.05512C34.7171 8.05461 34.7162 8.05425 34.7154 8.05405C34.7145 8.05386 34.7136 8.05384 34.7127 8.05399C34.7119 8.05415 34.711 8.05448 34.7103 8.05496Z" fill="#088C08"/>
<path d="M44.8405 3.73906C45.5202 3.4935 46.2211 3.35315 46.9432 3.31802C49.2203 3.20793 51.2236 3.94411 52.6199 5.7775C53.2951 6.66411 53.6915 7.66185 53.8091 8.77071C53.8319 8.98498 53.844 9.33245 53.8453 9.81315C53.8536 12.9363 53.8536 14.9391 53.8453 15.8215C53.8412 16.2486 53.7075 16.661 53.4443 17.0585C52.8978 17.8834 52.033 18.281 51.0657 18.1651C50.0721 18.0462 49.2094 17.2855 48.9801 16.2749C48.9405 16.0996 48.9203 15.8189 48.9196 15.4328C48.9179 13.5104 48.9177 11.5878 48.9191 9.66498C48.9196 9.00498 48.5216 8.44828 47.8685 8.3168C47.2966 8.2015 46.5949 8.2568 46.1793 8.73002C45.9045 9.04202 45.8538 9.46619 45.8533 9.92689C45.8516 11.7394 45.8514 13.5521 45.8528 15.365C45.8531 15.8032 45.8283 16.1232 45.7782 16.325C45.5117 17.394 44.561 18.1636 43.4525 18.1813C42.3347 18.1996 41.2815 17.4624 41.0015 16.3245C40.9584 16.1491 40.9368 15.8902 40.9368 15.5476C40.9351 12.349 40.9351 9.15037 40.9368 5.95176C40.9368 5.35124 41.0088 4.88689 41.3203 4.4335C41.8851 3.61193 42.6624 3.23941 43.6523 3.31593C44.0514 3.34689 44.4315 3.48585 44.7924 3.7328C44.7992 3.73764 44.8072 3.74073 44.8156 3.74182C44.8239 3.74291 44.8325 3.74197 44.8405 3.73906Z" fill="white"/>
<path d="M88.0784 13.1682C88.7558 13.3398 89.559 13.1228 90.1288 12.7669C90.1298 12.7666 90.2777 12.6563 90.5723 12.4362C91.1333 12.0183 91.803 11.7819 92.5001 11.8085C93.7126 11.8549 94.744 12.8003 94.846 14.0478C94.8936 14.6343 94.7917 15.1789 94.4527 15.6699C94.1867 16.0549 93.9165 16.3763 93.5336 16.6565C91.9598 17.8069 90.0682 18.2713 88.1312 18.1706C86.428 18.0819 84.8936 17.4349 83.6324 16.2626C82.3458 15.0668 81.5162 13.6049 81.2797 11.8429C80.9211 9.16747 81.8278 6.7419 83.8751 5.00608C85.1009 3.96712 86.5196 3.40608 88.1312 3.32295C89.9549 3.22851 91.7952 3.59269 93.3209 4.63408C94.005 5.10103 94.596 5.91547 94.6623 6.76069C94.7016 7.2579 94.6405 7.80625 94.3399 8.22573C94.2498 8.3513 94.0702 8.51738 93.8011 8.72399C91.8894 10.1936 89.9799 11.6664 88.0727 13.1426C88.0572 13.1548 88.0591 13.1633 88.0784 13.1682ZM87.8988 7.23495C85.9379 7.10869 84.7202 9.38921 85.9545 10.9623C85.957 10.9655 85.9602 10.9682 85.9638 10.9702C85.9674 10.9722 85.9714 10.9734 85.9755 10.9739C85.9796 10.9743 85.9837 10.9739 85.9877 10.9727C85.9916 10.9715 85.9953 10.9696 85.9985 10.9669L89.4886 8.09425C89.4924 8.0911 89.4955 8.0872 89.4977 8.08281C89.5 8.07842 89.5013 8.07361 89.5016 8.06869C89.502 8.06376 89.5013 8.05882 89.4997 8.05415C89.4981 8.04949 89.4955 8.04521 89.4922 8.04156C89.0506 7.54417 88.5195 7.2753 87.8988 7.23495Z" fill="white"/>
<path d="M65.6853 27.7474C65.3557 28.2556 64.8438 28.4346 64.2487 28.3506C63.135 28.1935 62.6019 27.1459 62.7976 26.0873C62.9038 25.513 63.2038 25.097 63.6975 24.8393C64.3641 24.4913 65.2537 24.5935 65.6827 25.2733C65.7021 25.304 65.7117 25.3012 65.7117 25.265V22.278C65.7117 22.2606 65.7204 22.252 65.7376 22.252H66.3198C66.3371 22.252 66.3457 22.2606 66.3457 22.278V28.265C66.3457 28.2824 66.3371 28.2911 66.3198 28.2911H65.7376C65.7204 28.2911 65.7117 28.2824 65.7117 28.265L65.7122 27.7558C65.7121 27.7526 65.711 27.7495 65.7091 27.7469C65.7072 27.7443 65.7045 27.7424 65.7015 27.7415C65.6985 27.7406 65.6953 27.7406 65.6924 27.7417C65.6895 27.7428 65.687 27.7448 65.6853 27.7474ZM64.5561 27.7855C64.8669 27.7855 65.1649 27.6512 65.3846 27.4122C65.6043 27.1732 65.7278 26.849 65.7278 26.5109C65.7278 26.1729 65.6043 25.8487 65.3846 25.6096C65.1649 25.3706 64.8669 25.2363 64.5561 25.2363C64.2454 25.2363 63.9473 25.3706 63.7276 25.6096C63.5079 25.8487 63.3844 26.1729 63.3844 26.5109C63.3844 26.849 63.5079 27.1732 63.7276 27.4122C63.9473 27.6512 64.2454 27.7855 64.5561 27.7855Z" fill="white"/>
<path d="M71.9955 22.2529H71.4107C71.4007 22.2529 71.3926 22.2611 71.3926 22.2712V28.2733C71.3926 28.2834 71.4007 28.2915 71.4107 28.2915H71.9955C72.0055 28.2915 72.0136 28.2834 72.0136 28.2733V22.2712C72.0136 22.2611 72.0055 22.2529 71.9955 22.2529Z" fill="white"/>
<path d="M48.2323 23.6967C48.4695 23.6967 48.6618 23.5028 48.6618 23.2636C48.6618 23.0244 48.4695 22.8306 48.2323 22.8306C47.995 22.8306 47.8027 23.0244 47.8027 23.2636C47.8027 23.5028 47.995 23.6967 48.2323 23.6967Z" fill="white"/>
<path d="M73.5833 23.6971C73.8203 23.6971 74.0123 23.5034 74.0123 23.2646C74.0123 23.0257 73.8203 22.832 73.5833 22.832C73.3464 22.832 73.1543 23.0257 73.1543 23.2646C73.1543 23.5034 73.3464 23.6971 73.5833 23.6971Z" fill="white"/>
<path d="M44.0105 30H43.3926L43.3931 24.7575C43.3931 24.7394 43.4021 24.7304 43.42 24.7304H43.9882C44.0055 24.7304 44.0141 24.7391 44.0141 24.7565V25.2641C44.0141 25.2833 44.02 25.2854 44.0317 25.2704C44.3233 24.9073 44.659 24.706 45.0388 24.6667C46.0138 24.566 46.8253 25.1989 46.9521 26.1782C47.1094 27.3918 46.3688 28.4614 45.0885 28.3596C44.6379 28.3241 44.2906 28.1182 44.0467 27.7419C44.024 27.7067 44.0126 27.7102 44.0126 27.7523L44.0105 30ZM45.1763 27.7873C45.3301 27.7875 45.4825 27.7548 45.6247 27.6909C45.7669 27.627 45.8961 27.5333 46.0051 27.4149C46.1141 27.2966 46.2006 27.1561 46.2597 27.0014C46.3188 26.8466 46.3494 26.6807 46.3497 26.5132C46.35 26.3456 46.32 26.1796 46.2614 26.0246C46.2028 25.8697 46.1168 25.7289 46.0082 25.6102C45.8997 25.4915 45.7707 25.3972 45.6288 25.3329C45.4868 25.2685 45.3345 25.2352 45.1808 25.2349C45.027 25.2346 44.8746 25.2674 44.7324 25.3313C44.5902 25.3952 44.4609 25.4889 44.352 25.6072C44.243 25.7256 44.1565 25.8661 44.0974 26.0208C44.0383 26.1755 44.0077 26.3414 44.0074 26.509C44.0071 26.6766 44.0371 26.8426 44.0957 26.9976C44.1543 27.1525 44.2403 27.2933 44.3489 27.412C44.4574 27.5307 44.5863 27.625 44.7283 27.6893C44.8703 27.7537 45.0225 27.787 45.1763 27.7873Z" fill="white"/>
<path d="M59.1082 27.8803C58.7491 28.2618 58.3021 28.4213 57.7673 28.3587C56.4642 28.2069 56.3488 26.4069 57.639 26.1267C58.1679 26.0119 58.6124 26.0672 59.0963 26.3051C59.1149 26.3142 59.1244 26.3083 59.1248 26.2874C59.1351 25.833 59.2008 25.3284 58.6078 25.2309C58.1248 25.1512 57.6862 25.2583 57.2922 25.5523C57.2897 25.5541 57.2868 25.5555 57.2838 25.5562C57.2807 25.5569 57.2776 25.557 57.2745 25.5565C57.2714 25.556 57.2684 25.5548 57.2658 25.5531C57.2631 25.5514 57.2609 25.5491 57.2591 25.5465L56.9838 25.1281C56.9669 25.1027 56.9712 25.0816 56.9967 25.065C57.6267 24.6531 58.2974 24.5467 59.0088 24.7456C59.339 24.8378 59.5607 25.0333 59.6739 25.3321C59.7235 25.4629 59.7484 25.6731 59.7484 25.9629C59.7474 26.7309 59.747 27.498 59.7474 28.2643C59.7474 28.2823 59.7384 28.2914 59.7204 28.2914H59.1522C59.135 28.2914 59.1263 28.2827 59.1263 28.2653V27.8876C59.1263 27.8695 59.1203 27.867 59.1082 27.8803ZM58.5995 27.7217C58.9704 27.5411 59.1437 27.231 59.1196 26.7914C59.1189 26.775 59.1111 26.7634 59.0963 26.7564C58.6916 26.5717 57.875 26.4262 57.522 26.7976C57.2933 27.0382 57.3243 27.4519 57.5789 27.657C57.8465 27.873 58.2942 27.8709 58.5995 27.7217Z" fill="white"/>
<path d="M67.7851 26.7007C67.812 27.3127 68.195 27.7358 68.8083 27.777C69.3072 27.8104 69.6981 27.604 69.981 27.1577C69.9906 27.1431 70.0027 27.1405 70.0172 27.1499L70.4907 27.4515C70.4994 27.4567 70.5009 27.4636 70.4954 27.4723C70.0964 28.1339 69.4174 28.4256 68.6618 28.3666C67.4953 28.2753 66.9773 27.1431 67.1703 26.0892C67.2702 25.544 67.5543 25.0937 68.0413 24.8428C68.6421 24.5323 69.5478 24.5762 70.0534 25.0676C70.4592 25.4621 70.6056 26.0976 70.5497 26.6511C70.5483 26.6664 70.5401 26.6741 70.5249 26.6741H67.81C67.7927 26.6741 67.7844 26.6829 67.7851 26.7007ZM67.8281 26.1487L69.8785 26.1414C69.881 26.1414 69.8833 26.1404 69.8851 26.1386C69.8868 26.1369 69.8878 26.1345 69.8878 26.132V26.1299C69.887 25.8828 69.7776 25.6462 69.5838 25.4721C69.39 25.2981 69.1276 25.2008 68.8543 25.2017H68.8461C68.7107 25.2022 68.5768 25.2268 68.4519 25.274C68.3271 25.3213 68.2137 25.3903 68.1183 25.4772C68.0229 25.5641 67.9474 25.6671 67.896 25.7803C67.8446 25.8936 67.8183 26.0148 67.8188 26.1372V26.1393C67.8188 26.1418 67.8198 26.1442 67.8215 26.1459C67.8232 26.1477 67.8256 26.1487 67.8281 26.1487Z" fill="white"/>
<path d="M78.7484 26.6967C78.7893 27.2633 79.0905 27.6839 79.6711 27.7653C80.2086 27.8407 80.6335 27.639 80.9458 27.16C80.9558 27.1444 80.9687 27.1416 80.9846 27.1517L81.454 27.4486C81.4566 27.4503 81.4589 27.4525 81.4608 27.4551C81.4626 27.4577 81.4638 27.4606 81.4645 27.4637C81.4652 27.4668 81.4652 27.47 81.4647 27.4732C81.4641 27.4763 81.4629 27.4793 81.4612 27.4819C81.0562 28.0997 80.4815 28.3995 79.7374 28.3814C78.8695 28.3606 78.2479 27.7282 78.1289 26.896C77.9566 25.6913 78.6045 24.6025 79.9154 24.6468C81.0638 24.6859 81.5947 25.5557 81.5187 26.6524C81.5176 26.6666 81.51 26.6738 81.4959 26.6738H78.7696C78.7544 26.6738 78.7473 26.6814 78.7484 26.6967ZM80.022 25.2139C79.8405 25.1809 79.6632 25.1929 79.49 25.2499C79.0839 25.3832 78.8464 25.6727 78.7774 26.1186C78.7753 26.1322 78.781 26.139 78.7944 26.139H80.8122C80.8316 26.139 80.8404 26.1293 80.8386 26.1098C80.7962 25.6251 80.4852 25.2979 80.022 25.2139Z" fill="white"/>
<path d="M83.0105 25.0797C83.1657 24.8584 83.4141 24.6586 83.6858 24.6498C83.941 24.6414 84.1801 24.6946 84.37 24.8793C84.3831 24.8918 84.3847 24.9058 84.3747 24.9211L84.0595 25.3995C84.0471 25.4186 84.0321 25.4211 84.0145 25.4068C83.6941 25.1491 83.2051 25.1658 83.0519 25.6045C83.0058 25.735 82.9846 25.904 82.9841 26.059C82.9837 26.7939 82.9836 27.5291 82.9836 28.2644C82.9836 28.2824 82.9746 28.2915 82.9567 28.2915H82.3755C82.3582 28.2915 82.3496 28.2828 82.3496 28.2654V24.7567C82.3496 24.7393 82.3582 24.7306 82.3755 24.7306H82.9577C82.9749 24.7306 82.9836 24.7393 82.9836 24.7567V25.0708C82.9836 25.1021 82.9925 25.1051 83.0105 25.0797Z" fill="white"/>
<path d="M48.5206 24.731H47.9441C47.9318 24.731 47.9219 24.741 47.9219 24.7534V28.2689C47.9219 28.2813 47.9318 28.2913 47.9441 28.2913H48.5206C48.5329 28.2913 48.5429 28.2813 48.5429 28.2689V24.7534C48.5429 24.741 48.5329 24.731 48.5206 24.731Z" fill="white"/>
<path d="M49.5657 25.3007V24.7472C49.5657 24.7427 49.5674 24.7385 49.5705 24.7354C49.5736 24.7322 49.5778 24.7305 49.5822 24.7305H52.6211C52.6242 24.7304 52.6272 24.7313 52.6298 24.7329C52.6325 24.7345 52.6346 24.7368 52.636 24.7396C52.6374 24.7423 52.638 24.7454 52.6377 24.7485C52.6375 24.7516 52.6364 24.7546 52.6346 24.7571L50.4894 27.6778C50.4876 27.6803 50.4865 27.6832 50.4863 27.6863C50.486 27.6894 50.4866 27.6925 50.488 27.6953C50.4894 27.698 50.4915 27.7003 50.4942 27.702C50.4968 27.7036 50.4998 27.7044 50.5029 27.7044H52.4731C52.4753 27.7044 52.4774 27.7048 52.4794 27.7057C52.4814 27.7065 52.4833 27.7077 52.4848 27.7093C52.4863 27.7108 52.4876 27.7127 52.4884 27.7147C52.4892 27.7167 52.4897 27.7189 52.4897 27.7211V28.2746C52.4897 28.2768 52.4892 28.279 52.4884 28.281C52.4876 28.2831 52.4863 28.2849 52.4848 28.2864C52.4833 28.288 52.4814 28.2892 52.4794 28.2901C52.4774 28.2909 52.4753 28.2913 52.4731 28.2913H49.3638C49.3608 28.2913 49.3578 28.2904 49.3553 28.2887C49.3527 28.2871 49.3507 28.2847 49.3493 28.282C49.348 28.2793 49.3475 28.2762 49.3477 28.2731C49.348 28.2701 49.3491 28.2672 49.3509 28.2647L51.495 25.344C51.4968 25.3416 51.4979 25.3387 51.4982 25.3356C51.4984 25.3326 51.4979 25.3295 51.4965 25.3268C51.4952 25.324 51.4931 25.3217 51.4906 25.3201C51.488 25.3184 51.4851 25.3175 51.482 25.3174H49.5822C49.5778 25.3174 49.5736 25.3157 49.5705 25.3125C49.5674 25.3094 49.5657 25.3052 49.5657 25.3007Z" fill="white"/>
<path d="M53.318 25.3002V24.7477C53.318 24.7431 53.3198 24.7387 53.323 24.7355C53.3262 24.7323 53.3306 24.7305 53.3351 24.7305H56.3781C56.3813 24.7305 56.3844 24.7314 56.3871 24.7331C56.3898 24.7348 56.3919 24.7372 56.3933 24.7401C56.3947 24.743 56.3953 24.7462 56.395 24.7494C56.3947 24.7525 56.3935 24.7556 56.3916 24.7581L54.248 27.6767C54.2461 27.6793 54.2449 27.6823 54.2446 27.6855C54.2443 27.6887 54.2449 27.6919 54.2463 27.6947C54.2477 27.6976 54.2498 27.7 54.2525 27.7017C54.2552 27.7034 54.2583 27.7044 54.2615 27.7044H56.2379C56.2401 27.7044 56.2424 27.7048 56.2444 27.7057C56.2465 27.7066 56.2484 27.7078 56.25 27.7094C56.2516 27.711 56.2528 27.7129 56.2537 27.715C56.2545 27.7171 56.255 27.7193 56.255 27.7216V28.2741C56.255 28.2787 56.2532 28.2831 56.25 28.2863C56.2468 28.2895 56.2424 28.2913 56.2379 28.2913H53.1224C53.1192 28.2913 53.1161 28.2904 53.1135 28.2887C53.1108 28.287 53.1086 28.2846 53.1072 28.2817C53.1058 28.2788 53.1052 28.2756 53.1055 28.2724C53.1059 28.2693 53.107 28.2662 53.109 28.2637L55.252 25.3451C55.2539 25.3425 55.2551 25.3395 55.2554 25.3363C55.2557 25.3331 55.2552 25.3299 55.2538 25.3271C55.2524 25.3242 55.2502 25.3218 55.2475 25.3201C55.2448 25.3184 55.2417 25.3174 55.2386 25.3174H53.3351C53.3306 25.3174 53.3262 25.3156 53.323 25.3124C53.3198 25.3092 53.318 25.3048 53.318 25.3002Z" fill="white"/>
<path d="M73.8865 24.731H73.2831C73.2745 24.731 73.2676 24.738 73.2676 24.7466V28.2757C73.2676 28.2843 73.2745 28.2913 73.2831 28.2913H73.8865C73.8951 28.2913 73.9021 28.2843 73.9021 28.2757V24.7466C73.9021 24.738 73.8951 24.731 73.8865 24.731Z" fill="white"/>
<path d="M76.2805 27.1894L77.2519 24.7404C77.253 24.7375 77.255 24.7349 77.2576 24.7332C77.2602 24.7314 77.2633 24.7305 77.2664 24.7305H77.9412C77.9438 24.7305 77.9463 24.7312 77.9485 24.7324C77.9508 24.7337 77.9527 24.7355 77.954 24.7377C77.9554 24.7398 77.9562 24.7423 77.9565 24.7449C77.9567 24.7474 77.9562 24.75 77.9552 24.7524L76.281 28.5486C76.2798 28.5512 76.2778 28.5534 76.2753 28.555C76.2728 28.5566 76.27 28.5574 76.2671 28.5574C76.2641 28.5574 76.2613 28.5566 76.2588 28.555C76.2563 28.5534 76.2544 28.5512 76.2531 28.5486L74.5794 24.7524C74.5784 24.75 74.578 24.7474 74.5782 24.7449C74.5784 24.7423 74.5792 24.7398 74.5806 24.7377C74.582 24.7355 74.5839 24.7337 74.5861 24.7324C74.5883 24.7312 74.5908 24.7305 74.5934 24.7305H75.2667C75.2698 24.7305 75.2729 24.7314 75.2754 24.7332C75.278 24.7349 75.28 24.7375 75.2812 24.7404L76.2515 27.1894C76.2527 27.1924 76.2546 27.1949 76.2572 27.1967C76.2598 27.1985 76.2629 27.1995 76.266 27.1995C76.2692 27.1995 76.2722 27.1985 76.2748 27.1967C76.2774 27.1949 76.2794 27.1924 76.2805 27.1894Z" fill="white"/>
<path d="M85.7247 30H85.0224L85.9788 27.8093C85.9819 27.8022 85.9835 27.7945 85.9835 27.7868C85.9835 27.7791 85.9819 27.7714 85.9788 27.7644L84.6503 24.7586C84.6417 24.7399 84.6477 24.7305 84.6684 24.7305H85.3608C85.3764 24.7305 85.3869 24.7376 85.3924 24.7519L86.3415 27.1117C86.3553 27.1458 86.369 27.1458 86.3824 27.1117L87.316 24.7508C87.3212 24.7373 87.331 24.7305 87.3455 24.7305H88.0059C88.0086 24.7305 88.0113 24.7312 88.0137 24.7325C88.0162 24.7339 88.0182 24.7358 88.0197 24.7381C88.0212 24.7404 88.0221 24.7431 88.0223 24.7459C88.0225 24.7486 88.022 24.7514 88.0209 24.7539L85.7247 30Z" fill="white"/>
</g>
<defs>
<clipPath id="clip0_923_927">
<rect width="123.429" height="30" fill="white"/>
</clipPath>
</defs>
</svg>
