<svg width="78" height="60" viewBox="0 0 78 60" fill="none" xmlns="http://www.w3.org/2000/svg">
<g clip-path="url(#clip0_923_666)">
<path d="M39.1244 7.50879C34.9589 7.50879 31.582 10.8682 31.582 15.0121C31.582 19.156 34.9589 22.5206 39.1244 22.5206C43.29 22.5206 46.6721 25.88 46.6721 30.0239C46.6721 34.1679 43.2953 37.5325 39.1244 37.5325C47.4608 37.5325 54.2146 30.8137 54.2146 22.5206C54.2146 14.2275 47.4608 7.50879 39.1244 7.50879Z" fill="#CEDC72"/>
<path d="M39.1253 22.5206C34.9597 22.5206 31.5829 19.1613 31.5829 15.0121C31.5829 10.8629 34.9597 7.50879 39.1253 7.50879C30.7889 7.50879 24.0352 14.2275 24.0352 22.5206C24.0352 30.8137 30.7889 37.5325 39.1253 37.5325C43.2908 37.5325 46.673 34.1731 46.673 30.0239C46.673 25.8747 43.2961 22.5206 39.1253 22.5206Z" fill="#9EC950"/>
<path d="M38.5963 4.74429C38.4799 4.44416 38.3423 4.15456 38.1835 3.87549C37.7759 3.9808 37.3948 4.14929 37.0508 4.37571C37.326 4.56 37.5801 4.77588 37.7971 5.02336C38.3846 5.68154 38.7445 6.55035 38.7498 7.49813C38.8768 7.5034 38.9986 7.50866 39.1256 7.50866C39.1256 6.53455 38.9351 5.60256 38.5963 4.74429Z" fill="#543839"/>
<path d="M39.1257 31.5243C39.9588 31.5243 40.6341 30.8524 40.6341 30.0236C40.6341 29.1948 39.9588 28.5229 39.1257 28.5229C38.2926 28.5229 37.6172 29.1948 37.6172 30.0236C37.6172 30.8524 38.2926 31.5243 39.1257 31.5243Z" fill="#543839"/>
<path d="M46.6727 0C42.5072 0 39.125 3.35937 39.125 7.50856C43.2905 7.50856 46.6727 4.14919 46.6727 0Z" fill="#9FCC4F"/>
<path d="M77.1973 55.4734C77.065 55.6735 76.9485 55.9368 76.795 56.121C76.2816 56.5844 75.4189 56.5002 75.1542 55.6577C74.6408 55.8578 74.1221 56.1684 73.5769 56.3053C72.2484 56.6213 71.0099 56.2369 69.9936 55.2786C69.0938 54.4256 68.6651 53.3303 68.6863 52.1035C68.7339 50.0868 70.1683 48.3387 72.0843 48.0543C73.1853 47.8753 74.2227 48.1017 75.0748 48.8336C75.2072 48.4545 75.4083 48.1228 75.837 48.0543C76.4192 47.9385 76.938 48.2334 77.1444 48.8126C77.1444 48.86 77.192 48.881 77.2132 48.9442C77.192 51.0609 77.192 53.304 77.192 55.4734H77.1973ZM70.6711 52.1667C70.6711 53.4883 71.6662 54.5151 72.963 54.5625C74.2227 54.5625 75.2389 53.5357 75.2389 52.2351C75.2389 50.8292 74.2756 49.8235 72.963 49.8393C71.6821 49.8604 70.6711 50.8661 70.6711 52.1667Z" fill="#5D3D3A"/>
<path d="M43.115 56.3951V58.9909C43.115 59.4385 42.8663 59.7018 42.5328 59.9124C42.1993 60.0914 41.8553 60.044 41.5377 59.7965C41.2678 59.5965 41.1355 59.349 41.1355 59.0173V56.4214C38.6425 56.0212 37.0652 54.7417 37.0176 52.0774C37.0176 50.9822 37.4198 50.0449 38.2614 49.234C39.0448 48.4758 40.0398 48.1125 41.1461 47.9966V45.127C41.1461 44.6636 41.4636 44.2055 41.8235 44.1002C42.337 43.9686 42.8186 44.1686 43.0674 44.6425C43.1362 44.7742 43.1838 44.9585 43.1838 45.1059C43.1838 45.9589 43.2315 46.8066 43.1838 47.6596C43.1838 47.9282 43.3003 47.9914 43.5173 48.0388C44.8934 48.2178 45.9891 48.8654 46.7354 50.008C47.794 51.7088 47.4976 54.3047 45.4915 55.5578C44.8776 55.937 44.2318 56.2055 43.512 56.2687C43.2632 56.3161 43.1944 56.3529 43.1097 56.3845L43.115 56.3951ZM43.115 54.5153C44.597 54.3363 45.4757 53.041 45.2057 51.7193C45.0046 50.7294 44.0413 49.8869 43.115 49.9027V54.51V54.5153ZM41.0402 49.9238C40.0081 49.9712 38.9971 50.9137 38.9019 51.8931C38.833 53.3306 39.664 54.3521 41.0402 54.5153V49.9238Z" fill="#5D3D3A"/>
<path d="M60.7245 48.7179C61.2696 48.5178 61.783 48.2072 62.3653 48.0703C64.3924 47.6227 66.3032 48.7179 66.933 50.6925C67.5153 52.4617 67.203 54.0729 65.8321 55.3682C64.5248 56.6214 62.2964 56.7741 60.9203 55.6157C60.8727 55.5683 60.8515 55.5683 60.788 55.5472V58.9224C60.788 59.5279 60.3381 59.9755 59.7558 59.9755C59.1736 59.9755 58.6973 59.5279 58.6973 58.9224V49.0286C58.6973 48.5652 59.1472 48.0018 59.6235 47.9755C60.1846 47.9281 60.571 48.2019 60.7245 48.7179ZM65.2234 52.2037C65.2922 51.1506 64.4401 49.8553 62.9316 49.8553C61.5184 49.8553 60.5921 50.9505 60.6398 52.3142C60.6874 53.5516 61.6719 54.5257 62.9316 54.5257C64.3924 54.5047 65.2922 53.2515 65.2234 52.1984V52.2037Z" fill="#5D3D3A"/>
<path d="M50.8961 52.9464C50.9649 53.4887 51.2983 53.7994 51.6582 54.1048C52.4416 54.7524 53.8813 54.6155 54.5164 54.2364C54.7864 54.0574 55.0616 53.9889 55.3739 53.9889C55.755 54.0363 55.9826 54.189 56.1572 54.5313C56.2895 54.8472 56.2737 55.1421 56.0408 55.4527C55.7073 55.9003 55.1833 56.0635 54.6646 56.211C53.2885 56.5269 51.9229 56.5427 50.6632 55.7476C49.287 54.8946 48.5037 53.1938 48.7736 51.5879C49.0912 49.7555 50.1868 48.5444 51.9652 48.1179C54.3047 47.5387 56.2843 48.8972 56.9141 51.0245C56.9829 51.2719 57.0306 51.4878 57.0306 51.7353C57.0306 52.4461 56.5648 52.9727 55.8344 52.9727H51.3142C51.1131 52.9464 51.0284 52.9464 50.8961 52.9464ZM50.8961 51.4246H54.9663C54.8975 50.5716 53.8654 49.7923 52.8756 49.8081C51.9494 49.8081 50.9172 50.6348 50.8961 51.4246Z" fill="#5D3D3A"/>
<path d="M2.1695 52.9464C2.23831 53.4887 2.57176 53.7994 2.93168 54.1048C3.71503 54.7524 5.1547 54.6155 5.78985 54.2364C6.05979 54.0574 6.33503 53.9889 6.64731 53.9889C7.0284 54.0363 7.26129 54.189 7.43066 54.5313C7.56298 54.8472 7.5471 55.1421 7.31422 55.4527C6.98076 55.9003 6.45676 56.0635 5.93806 56.211C4.5619 56.5269 3.19632 56.5427 1.93661 55.7476C0.560451 54.8946 -0.222901 53.1938 0.0470379 51.5879C0.364613 49.7555 1.46025 48.5444 3.23867 48.1179C5.57814 47.5387 7.55769 48.8972 8.18755 51.0245C8.25636 51.2719 8.30399 51.4878 8.30399 51.7353C8.30399 52.4461 7.83821 52.9727 7.10779 52.9727H2.59293C2.40239 52.9464 2.30711 52.9464 2.17479 52.9464H2.1695ZM2.1695 51.4246H6.23975C6.17095 50.5716 5.13883 49.7923 4.14905 49.8081C3.23338 49.8081 2.20126 50.6348 2.1695 51.4246Z" fill="#A0CC4F"/>
<path d="M18.6035 52.1671C18.5347 49.9714 20.3131 47.96 22.9013 47.96C25.3096 47.96 27.2204 49.7923 27.2204 52.1671C27.2204 54.5418 25.3308 56.3952 22.9225 56.3952C20.3607 56.3952 18.54 54.3786 18.6035 52.1671ZM20.5619 52.1671C20.5619 53.4676 21.594 54.5155 22.8537 54.5629C24.1134 54.5629 25.1455 53.5098 25.1455 52.2145C25.1455 50.9192 24.1134 49.9345 22.8537 49.8871C21.6205 49.8608 20.5619 50.9139 20.5619 52.1671Z" fill="#A0CC4F"/>
<path d="M14.3476 52.0034C15.2474 52.8985 16.1737 53.7515 17.0205 54.6256C17.2217 54.8257 17.354 55.089 17.4016 55.3838C17.4704 55.784 17.2693 56.1421 16.8565 56.3422C16.4754 56.5212 15.9567 56.4106 15.692 56.1421C14.6969 55.1522 13.7125 54.1254 12.6751 53.1407C12.5586 53.0249 12.4051 53.0091 12.2093 52.8722V55.3522C12.2093 55.9314 11.7594 56.379 11.2142 56.4053C10.632 56.4527 10.1133 55.9578 10.1133 55.3786V48.9336C10.1133 48.3913 10.6267 47.9437 11.2142 47.9437C11.7594 47.9437 12.2093 48.4071 12.2093 48.9705V50.9398C12.4792 51.0082 12.6751 51.0082 12.8603 50.7608C13.4055 50.1131 13.9612 49.5076 14.5487 48.881C14.8663 48.5651 15.1998 48.2702 15.6073 48.028C16.0096 47.7805 16.5706 47.8963 16.8512 48.2281C17.2323 48.6914 17.1846 49.2548 16.6712 49.6339C15.7714 50.3185 15.1151 51.1715 14.3476 51.9981V52.0034Z" fill="#A0CC4F"/>
<path d="M28.6609 52.167C28.5921 50.1503 30.1694 48.339 32.1966 48.0547C33.0964 47.923 34.0226 47.9862 34.8695 48.3232C35.2717 48.5022 35.6317 48.7234 35.6528 49.2183C35.7005 49.5974 35.5364 49.8923 35.2506 50.1398C34.8695 50.3873 34.4884 50.3188 34.1232 50.1398C33.1969 49.7396 32.3448 49.7607 31.5138 50.3873C30.8363 50.9296 30.4817 52.0038 30.6828 52.7988C30.9315 53.7203 31.7149 54.368 32.5935 54.4996C33.1757 54.568 33.6521 54.4522 34.1708 54.1837C34.6895 53.9151 35.2029 53.9836 35.547 54.4311C35.8646 54.8787 35.7957 55.3526 35.2982 55.7528C35.1182 55.8844 34.8959 56.0213 34.6842 56.1319C34.0332 56.4004 33.3081 56.4004 32.6412 56.3794C31.7837 56.332 31.0162 56.0634 30.3652 55.6001C29.3807 54.8313 28.6185 53.6624 28.6556 52.167H28.6609Z" fill="#5D3D3A"/>
</g>
<defs>
<clipPath id="clip0_923_666">
<rect width="77.2131" height="60" fill="white"/>
</clipPath>
</defs>
</svg>
