<svg width="107" height="45" viewBox="0 0 107 45" fill="none" xmlns="http://www.w3.org/2000/svg">
<g clip-path="url(#clip0_923_635)">
<path d="M7.35023 7.10587C5.45974 7.91445 3.58483 10.2573 3.55367 12.643C3.53117 14.2011 3.54415 18.0344 3.59263 24.143C3.59609 24.5183 3.62552 24.8725 3.68092 25.2059C3.68477 25.2308 3.69623 25.2536 3.71341 25.2704C3.73059 25.2873 3.75247 25.2972 3.77544 25.2985C3.79841 25.2998 3.82111 25.2925 3.8398 25.2777C3.85849 25.263 3.87206 25.2417 3.87828 25.2173C4.43919 23.0954 5.07541 20.9992 5.78694 18.9287C6.72699 16.1887 7.68262 14.2973 10.1756 13.523C10.7555 13.3421 12.3266 13.2468 14.8888 13.2373C16.2807 13.2316 17.6735 13.2287 19.0671 13.2287C21.09 13.2287 22.5313 12.8144 23.261 10.7202C23.6167 9.70016 23.5025 8.33159 23.5258 7.16302C23.5269 7.11915 23.5199 7.0755 23.5054 7.03464C23.4908 6.99379 23.469 6.95655 23.4412 6.92512C23.4133 6.8937 23.3801 6.86872 23.3433 6.85168C23.3066 6.83463 23.2671 6.82586 23.2272 6.82587C18.5772 6.80492 13.9687 6.77921 9.40172 6.74873C8.60536 6.74302 7.92153 6.86206 7.35023 7.10587Z" stroke="#809DC1" stroke-width="2"/>
<path d="M14.0505 22.4572C15.233 22.4172 16.4526 22.4077 17.7095 22.4287C19.4104 22.4601 20.6205 21.9315 21.3995 20.3115C22.0306 18.9972 21.841 16.9258 21.8462 15.3687C21.8462 15.3277 21.8312 15.2885 21.8044 15.2596C21.7776 15.2306 21.7413 15.2144 21.7034 15.2144C18.6859 15.2201 15.6571 15.2201 12.6171 15.2144C11.0148 15.2115 9.92937 15.4601 8.88545 16.6687C8.46303 17.1563 8.02504 18.0868 7.57146 19.4601C6.26785 23.4201 4.94953 27.4096 3.6165 31.4287C3.60812 31.4542 3.60549 31.4816 3.60882 31.5086C3.61216 31.5355 3.62136 31.5611 3.63564 31.5833C3.64992 31.6055 3.66887 31.6235 3.69085 31.6359C3.71284 31.6483 3.73722 31.6546 3.76192 31.6544C5.30616 31.6449 6.86945 31.6401 8.45178 31.6401C9.66709 31.6401 10.8642 31.343 11.2849 30.0772C12.0259 27.8563 12.8084 25.4296 13.6324 22.7972C13.6629 22.7005 13.7191 22.6161 13.7938 22.5554C13.8685 22.4947 13.958 22.4605 14.0505 22.4572Z" stroke="#809DC1" stroke-width="2"/>
<path d="M30.6227 24.9688L36.224 24.9717C36.2901 24.9717 36.3536 24.9428 36.4003 24.8913C36.4471 24.8399 36.4733 24.7701 36.4733 24.6974L36.4759 21.8231C36.4759 21.7746 36.4584 21.7281 36.4272 21.6938C36.3961 21.6595 36.3538 21.6402 36.3097 21.6402L30.7629 21.6459C30.6851 21.6457 30.6102 21.6141 30.5527 21.5571C30.4951 21.5001 30.459 21.4218 30.4513 21.3374C30.3838 20.5945 30.2721 18.6002 31.3446 18.5802C33.3095 18.544 35.2242 18.5383 37.0888 18.5631C37.3502 18.5669 37.4792 18.425 37.4757 18.1374L37.4471 15.5174C37.4465 15.4638 37.4268 15.4126 37.3924 15.3747C37.3579 15.3369 37.3114 15.3153 37.2628 15.3145C34.4547 15.2917 31.6372 15.2879 28.8101 15.3031C27.619 15.3107 26.7716 15.8488 26.2678 16.9174C26.0306 17.4183 25.9112 18.164 25.9094 19.1545C25.9025 23.2364 25.9068 27.3383 25.9224 31.4602C25.9231 31.531 25.9489 31.5985 25.9941 31.6483C26.0393 31.698 26.1003 31.7259 26.1639 31.7259H30.2306C30.2645 31.7259 30.2982 31.7185 30.3295 31.7041C30.3609 31.6898 30.3894 31.6687 30.4133 31.6421C30.4372 31.6155 30.4561 31.584 30.4688 31.5494C30.4816 31.5147 30.488 31.4776 30.4876 31.4402L30.4461 25.1659C30.4457 25.1402 30.4501 25.1146 30.4588 25.0907C30.4675 25.0668 30.4805 25.0451 30.4969 25.0267C30.5133 25.0084 30.5329 24.9938 30.5545 24.9839C30.5761 24.9739 30.5993 24.9688 30.6227 24.9688Z" stroke="#809DC1" stroke-width="2"/>
<path d="M51.0863 15.3001C50.9447 15.3001 50.8087 15.3617 50.7081 15.4714C50.6074 15.581 50.5502 15.73 50.5488 15.8859L50.5176 18.2887C50.5165 18.3719 50.5314 18.4544 50.5613 18.5309C50.5912 18.6073 50.6354 18.6759 50.691 18.7323C50.7467 18.7887 50.8125 18.8315 50.8842 18.8579C50.9559 18.8844 51.0318 18.8939 51.1071 18.8859L53.7715 18.6001C53.8877 18.5881 53.9971 18.5347 54.0833 18.4481C54.1696 18.3615 54.2278 18.2464 54.2493 18.1201L54.6154 15.9944C54.6299 15.9089 54.6271 15.8209 54.6072 15.7368C54.5873 15.6526 54.5507 15.5743 54.5001 15.5074C54.4495 15.4406 54.3861 15.3868 54.3145 15.35C54.2429 15.3132 54.1647 15.2942 54.0857 15.2944L51.0863 15.3001Z" stroke="#809DC1" stroke-width="2"/>
<path d="M59.9054 18.6545C60.0136 18.6455 60.116 18.5971 60.1964 18.5169C60.2769 18.4367 60.3307 18.3293 60.3494 18.2117L60.713 15.9259C60.7251 15.8486 60.7217 15.7693 60.703 15.6936C60.6843 15.6179 60.6508 15.5476 60.6047 15.4877C60.5587 15.4278 60.5013 15.3797 60.4365 15.3468C60.3718 15.3139 60.3013 15.2971 60.23 15.2974H57.3345C57.2064 15.2973 57.0834 15.3528 56.992 15.4517C56.9007 15.5505 56.8484 15.685 56.8463 15.8259L56.8048 18.3174C56.8035 18.3921 56.8164 18.4663 56.8427 18.5353C56.869 18.6042 56.9081 18.6664 56.9575 18.7177C57.0068 18.7691 57.0654 18.8086 57.1295 18.8336C57.1935 18.8586 57.2616 18.8687 57.3293 18.8631L59.9054 18.6545Z" stroke="#809DC1" stroke-width="2"/>
<path d="M67.0814 23.0575C66.8806 23.1318 66.7802 23.0518 66.7802 22.8175L66.7724 15.4889C66.7724 15.4617 66.7675 15.4347 66.7581 15.4095C66.7487 15.3844 66.7349 15.3616 66.7175 15.3425C66.7001 15.3233 66.6794 15.3082 66.6568 15.2981C66.6341 15.2879 66.6098 15.2828 66.5854 15.2832L63.1057 15.3061C63.0641 15.3068 63.0245 15.3255 62.9953 15.3581C62.9662 15.3907 62.9499 15.4346 62.9499 15.4804L62.9473 31.5004C62.9473 31.6527 63.0165 31.7299 63.155 31.7318H66.6218C66.7343 31.7318 66.7906 31.6689 66.7906 31.5432L66.775 27.2175C66.7747 27.1604 66.7854 27.1039 66.8064 27.0517C66.8274 26.9994 66.8583 26.9526 66.897 26.9143C66.9358 26.876 66.9814 26.8471 67.0311 26.8294C67.0808 26.8118 67.1333 26.8058 67.1853 26.8118L68.6421 26.9832C68.7599 26.9973 68.8688 27.0591 68.9479 27.1567C69.027 27.2542 69.0707 27.3807 69.0706 27.5118V31.3718C69.0706 31.4688 69.1053 31.5618 69.1672 31.6304C69.229 31.699 69.3129 31.7375 69.4004 31.7375H72.6282C72.8394 31.7375 72.9442 31.6213 72.9424 31.3889C72.9338 29.888 72.9095 28.468 72.8697 27.1289C72.8204 25.4604 71.322 25.1918 70.1171 25.0318C70.0854 25.0278 70.0555 25.0139 70.0306 24.9919C70.0058 24.9699 69.9872 24.9406 69.9768 24.9075C69.9665 24.8743 69.9649 24.8386 69.9723 24.8044C69.9797 24.7703 69.9956 24.7392 70.0184 24.7146L73.2229 21.1689C73.5224 20.8375 73.4601 20.6766 73.0359 20.6861L69.5873 20.7546C69.5533 20.7547 69.5202 20.7645 69.4913 20.7832C68.5426 21.3756 67.9617 21.8947 67.7488 22.3404C67.5653 22.7232 67.3428 22.9623 67.0814 23.0575Z" stroke="#809DC1" stroke-width="2"/>
<path d="M98.2808 24.7089C98.2304 24.8152 98.1572 24.9062 98.0675 24.974C97.9779 25.0417 97.8745 25.0841 97.7666 25.0974C96.7608 25.2212 95.7402 25.3641 94.705 25.526C93.5087 25.7108 92.8526 26.4536 92.7366 27.7546C92.5418 29.9517 92.7418 31.486 95.0399 31.8917C96.6474 32.1774 102.347 32.6689 102.358 30.0003C102.368 27.6422 102.381 25.2851 102.397 22.9289C102.415 19.8403 95.8891 20.4546 94.2219 20.8117C94.0973 20.8384 94.0324 20.9203 94.0272 21.0574L93.9285 23.2374C93.9276 23.2652 93.9322 23.2928 93.9418 23.3185C93.9515 23.3442 93.966 23.3673 93.9845 23.3862C94.003 23.4052 94.0249 23.4196 94.0488 23.4284C94.0728 23.4372 94.0982 23.4403 94.1233 23.4374C95.1897 23.3117 96.2561 23.2222 97.3226 23.1689C97.7311 23.1479 98.028 23.2298 98.2133 23.4146C98.518 23.7193 98.5405 24.1508 98.2808 24.7089Z" stroke="#809DC1" stroke-width="2"/>
<path d="M90.526 23.4171H92.5412C92.5839 23.4171 92.6248 23.3984 92.655 23.3652C92.6852 23.332 92.7022 23.2869 92.7022 23.24L92.671 20.8685C92.6705 20.8191 92.6534 20.7717 92.6231 20.7358C92.5928 20.6998 92.5515 20.6778 92.5074 20.6742C90.6507 20.4971 87.802 20.1 86.7243 22.4114C86.4958 22.9009 86.3841 23.64 86.3893 24.6285C86.4014 26.9123 86.3979 29.198 86.3789 31.4857C86.3789 31.5443 86.3999 31.6005 86.4373 31.6422C86.4747 31.684 86.5256 31.7078 86.5789 31.7085L89.9184 31.7571C89.9449 31.7575 89.9711 31.7521 89.9957 31.7412C90.0203 31.7303 90.0426 31.7141 90.0615 31.6937C90.0803 31.6732 90.0953 31.6488 90.1055 31.6219C90.1157 31.5951 90.1209 31.5662 90.1209 31.5371C90.114 29.2609 90.1157 26.96 90.1261 24.6342C90.1279 24.2209 90.1781 23.8771 90.2767 23.6028C90.2966 23.5479 90.3309 23.5008 90.3754 23.4677C90.4198 23.4346 90.4723 23.4169 90.526 23.4171Z" stroke="#809DC1" stroke-width="2"/>
<path d="M44.363 28.0858C44.3475 29.6886 42.3297 29.7515 42.2986 28.2829C42.2639 26.6048 42.2501 24.1534 42.257 20.9286C42.257 20.8258 42.2111 20.7743 42.1194 20.7743L38.4215 20.7401C38.4039 20.7397 38.3864 20.7432 38.37 20.7503C38.3537 20.7575 38.3387 20.7682 38.3262 20.7817C38.3136 20.7953 38.3036 20.8115 38.2968 20.8293C38.29 20.8472 38.2865 20.8664 38.2865 20.8858C38.257 23.5429 38.2588 26.2096 38.2917 28.8858C38.3436 33.0858 48.344 33.2544 48.344 28.7229C48.3457 26.1477 48.3448 23.5582 48.3414 20.9543C48.3414 20.8382 48.2886 20.7791 48.183 20.7772L44.5864 20.7315C44.4825 20.7296 44.4306 20.7858 44.4306 20.9001C44.408 23.3039 44.3855 25.6991 44.363 28.0858Z" stroke="#809DC1" stroke-width="2"/>
<path d="M50.5197 31.2828C50.5223 33.0514 49.7433 32.7428 48.5513 32.7971C48.4457 32.8028 48.3877 32.8638 48.3774 32.9799L48.2709 34.2685C48.2666 34.3233 48.2725 34.3785 48.2882 34.4306C48.3039 34.4828 48.329 34.5308 48.3621 34.5718C48.3952 34.6127 48.4355 34.6457 48.4806 34.6687C48.5256 34.6918 48.5744 34.7043 48.6241 34.7057C49.7476 34.738 50.8314 34.7457 51.8753 34.7285C52.9841 34.7114 53.7424 34.3085 54.2176 33.2542C54.408 32.8314 54.5041 32.1199 54.5059 31.1199C54.5162 27.7028 54.5171 24.2771 54.5085 20.8428C54.5085 20.7685 54.4747 20.7314 54.4072 20.7314L50.6704 20.7285C50.6366 20.7285 50.6042 20.7433 50.5804 20.7695C50.5565 20.7958 50.5431 20.8314 50.5431 20.8685C50.5241 24.3504 50.5163 27.8218 50.5197 31.2828Z" stroke="#809DC1" stroke-width="2"/>
<path d="M60.6007 20.8773C60.6007 20.8402 60.5873 20.8046 60.5634 20.7783C60.5395 20.7521 60.5072 20.7373 60.4734 20.7373H56.9573C56.9406 20.7373 56.9241 20.7409 56.9086 20.748C56.8932 20.755 56.8792 20.7653 56.8673 20.7783C56.8555 20.7913 56.8462 20.8067 56.8398 20.8237C56.8334 20.8407 56.8301 20.8589 56.8301 20.8773V31.5916C56.8301 31.61 56.8334 31.6282 56.8398 31.6452C56.8462 31.6622 56.8555 31.6776 56.8673 31.6906C56.8792 31.7036 56.8932 31.7139 56.9086 31.7209C56.9241 31.728 56.9406 31.7316 56.9573 31.7316H60.4734C60.5072 31.7316 60.5395 31.7168 60.5634 31.6906C60.5873 31.6643 60.6007 31.6287 60.6007 31.5916V20.8773Z" stroke="#809DC1" stroke-width="2"/>
<path d="M80.6424 27.8545C80.6554 29.8288 78.4429 29.5373 78.4351 28.3602C78.4178 25.8688 78.4135 23.3764 78.4222 20.8831C78.4222 20.784 78.3771 20.7345 78.2871 20.7345L74.7217 20.7173C74.6369 20.7154 74.5936 20.7621 74.5918 20.8573C74.552 23.6192 74.559 26.3812 74.6126 29.1431C74.6386 30.4773 75.8227 31.2373 76.8563 31.6031C78.8766 32.3145 82.9432 32.4116 84.239 30.0631C84.471 29.644 84.5879 29.0097 84.5896 28.1602C84.5965 25.7259 84.5974 23.3011 84.5922 20.8859C84.5922 20.8442 84.5769 20.8043 84.5496 20.7748C84.5223 20.7453 84.4854 20.7288 84.4468 20.7288L80.7515 20.7231C80.6719 20.7231 80.6312 20.7669 80.6295 20.8545C80.6191 23.1973 80.6234 25.5307 80.6424 27.8545Z" stroke="#809DC1" stroke-width="2"/>
<path d="M96.9882 27.6601C96.8892 27.6922 96.7996 27.7523 96.7285 27.8346C96.6573 27.9169 96.6072 28.0183 96.5831 28.1287L96.487 28.5773C96.4672 28.6676 96.4654 28.7615 96.4817 28.8527C96.4979 28.9438 96.5319 29.03 96.5812 29.1054C96.6305 29.1808 96.694 29.2436 96.7674 29.2895C96.8407 29.3355 96.9223 29.3635 97.0064 29.3716L97.7854 29.4458C97.8631 29.4533 97.9414 29.4435 98.0157 29.4173C98.09 29.391 98.1588 29.3487 98.218 29.2928C98.2772 29.2369 98.3258 29.1686 98.3607 29.0919C98.3957 29.0151 98.4164 28.9315 98.4216 28.8458L98.4684 28.0858C98.4747 27.9821 98.4581 27.8783 98.4202 27.7831C98.3822 27.6879 98.3239 27.6042 98.2502 27.5391C98.1765 27.4741 98.0896 27.4295 97.997 27.4093C97.9043 27.3891 97.8086 27.3938 97.7179 27.423L96.9882 27.6601Z" stroke="#809DC1" stroke-width="2"/>
<path d="M0.443359 4.5C0.443359 2.29086 2.23422 0.5 4.44336 0.5H102.134C104.343 0.5 106.134 2.29086 106.134 4.5V40.5C106.134 42.7091 104.343 44.5 102.134 44.5H4.44336C2.23422 44.5 0.443359 42.7091 0.443359 40.5V4.5ZM7.35091 7.10571C5.46042 7.91429 3.58552 10.2571 3.55435 12.6429C3.53185 14.201 3.54483 18.0343 3.59331 24.1429C3.59677 24.5181 3.6262 24.8724 3.6816 25.2057C3.68545 25.2307 3.69691 25.2534 3.71409 25.2703C3.73127 25.2871 3.75315 25.297 3.77612 25.2983C3.79909 25.2997 3.82179 25.2923 3.84048 25.2776C3.85918 25.2628 3.87274 25.2415 3.87896 25.2171C4.43987 23.0952 5.07609 20.999 5.78762 18.9286C6.72767 16.1886 7.6833 14.2971 10.1763 13.5229C10.7562 13.3419 12.3273 13.2467 14.8895 13.2371C16.2814 13.2314 17.6741 13.2286 19.0678 13.2286C21.0907 13.2286 22.5319 12.8143 23.2616 10.72C23.6174 9.7 23.5031 8.33143 23.5265 7.16286C23.5276 7.11899 23.5206 7.07534 23.5061 7.03448C23.4915 6.99363 23.4697 6.95639 23.4419 6.92496C23.414 6.89354 23.3807 6.86857 23.344 6.85152C23.3072 6.83447 23.2678 6.8257 23.2279 6.82571C18.5778 6.80476 13.9693 6.77905 9.4024 6.74857C8.60604 6.74286 7.92221 6.86191 7.35091 7.10571ZM14.0507 22.4571C15.2331 22.4171 16.4528 22.4076 17.7096 22.4286C19.4106 22.46 20.6207 21.9314 21.3997 20.3114C22.0307 18.9971 21.8412 16.9257 21.8464 15.3686C21.8464 15.3277 21.8313 15.2884 21.8045 15.2595C21.7778 15.2305 21.7414 15.2143 21.7036 15.2143C18.686 15.22 15.6573 15.22 12.6173 15.2143C11.015 15.2114 9.92955 15.46 8.88563 16.6686C8.46321 17.1562 8.02522 18.0867 7.57164 19.46C6.26803 23.42 4.94971 27.4095 3.61668 31.4286C3.6083 31.4541 3.60567 31.4816 3.60901 31.5085C3.61234 31.5354 3.62154 31.561 3.63582 31.5832C3.6501 31.6054 3.66905 31.6234 3.69103 31.6358C3.71302 31.6482 3.7374 31.6545 3.7621 31.6543C5.30634 31.6448 6.86963 31.64 8.45196 31.64C9.66727 31.64 10.8644 31.3429 11.2851 30.0771C12.0261 27.8562 12.8086 25.4295 13.6326 22.7971C13.6631 22.7004 13.7193 22.616 13.794 22.5553C13.8686 22.4946 13.9582 22.4604 14.0507 22.4571ZM30.6236 24.9686L36.225 24.9714C36.2911 24.9714 36.3545 24.9425 36.4013 24.8911C36.448 24.8397 36.4743 24.7699 36.4743 24.6971L36.4769 21.8229C36.4769 21.7744 36.4594 21.7279 36.4282 21.6936C36.397 21.6593 36.3548 21.64 36.3107 21.64L30.7639 21.6457C30.6861 21.6455 30.6112 21.6138 30.5536 21.5568C30.4961 21.4998 30.46 21.4216 30.4522 21.3371C30.3847 20.5943 30.2731 18.6 31.3456 18.58C33.3105 18.5438 35.2252 18.5381 37.0897 18.5629C37.3511 18.5667 37.4801 18.4248 37.4767 18.1371L37.4481 15.5171C37.4474 15.4636 37.4278 15.4124 37.3933 15.3745C37.3589 15.3366 37.3124 15.315 37.2637 15.3143C34.4557 15.2914 31.6381 15.2876 28.8111 15.3029C27.62 15.3105 26.7725 15.8486 26.2688 16.9171C26.0316 17.4181 25.9121 18.1638 25.9104 19.1543C25.9035 23.2362 25.9078 27.3381 25.9234 31.46C25.9241 31.5307 25.9498 31.5983 25.995 31.6481C26.0402 31.6978 26.1013 31.7257 26.1649 31.7257H30.2315C30.2655 31.7257 30.2991 31.7183 30.3305 31.7039C30.3619 31.6895 30.3903 31.6684 30.4142 31.6419C30.4381 31.6153 30.457 31.5838 30.4698 31.5491C30.4825 31.5145 30.4889 31.4774 30.4886 31.44L30.4471 25.1657C30.4467 25.14 30.451 25.1144 30.4597 25.0905C30.4685 25.0666 30.4814 25.0448 30.4978 25.0265C30.5143 25.0081 30.5339 24.9936 30.5555 24.9836C30.577 24.9737 30.6002 24.9686 30.6236 24.9686ZM51.0866 15.3C50.9449 15.3 50.809 15.3615 50.7083 15.4712C50.6077 15.5809 50.5504 15.7298 50.5491 15.8857L50.5179 18.2886C50.5168 18.3718 50.5317 18.4543 50.5616 18.5307C50.5914 18.6072 50.6357 18.6758 50.6913 18.7322C50.7469 18.7885 50.8127 18.8313 50.8844 18.8578C50.9561 18.8842 51.0321 18.8938 51.1074 18.8857L53.7717 18.6C53.8879 18.5879 53.9974 18.5346 54.0836 18.448C54.1698 18.3614 54.2281 18.2462 54.2495 18.12L54.6157 15.9943C54.6302 15.9088 54.6274 15.8208 54.6075 15.7366C54.5875 15.6524 54.551 15.5741 54.5004 15.5073C54.4498 15.4404 54.3864 15.3867 54.3148 15.3499C54.2431 15.313 54.165 15.2941 54.0859 15.2943L51.0866 15.3ZM59.9054 18.6543C60.0136 18.6453 60.1161 18.5969 60.1965 18.5167C60.2769 18.4365 60.3307 18.3291 60.3495 18.2114L60.713 15.9257C60.7252 15.8484 60.7218 15.7691 60.7031 15.6934C60.6844 15.6177 60.6508 15.5474 60.6048 15.4875C60.5587 15.4276 60.5013 15.3795 60.4366 15.3466C60.3718 15.3137 60.3013 15.2968 60.23 15.2971H57.3346C57.2064 15.2971 57.0834 15.3525 56.9921 15.4514C56.9007 15.5503 56.8484 15.6847 56.8464 15.8257L56.8048 18.3171C56.8035 18.3919 56.8165 18.4661 56.8427 18.5351C56.869 18.604 56.9081 18.6661 56.9575 18.7175C57.0069 18.7689 57.0655 18.8083 57.1295 18.8334C57.1935 18.8584 57.2616 18.8684 57.3294 18.8629L59.9054 18.6543ZM67.083 23.0571C66.8822 23.1314 66.7818 23.0514 66.7818 22.8171L66.774 15.4886C66.774 15.4613 66.7691 15.4343 66.7597 15.4092C66.7503 15.384 66.7365 15.3612 66.7191 15.3421C66.7017 15.323 66.6811 15.3079 66.6584 15.2977C66.6357 15.2875 66.6115 15.2825 66.587 15.2829L63.1073 15.3057C63.0657 15.3065 63.0261 15.3252 62.997 15.3578C62.9678 15.3904 62.9515 15.4343 62.9515 15.48L62.9489 31.5C62.9489 31.6524 63.0181 31.7295 63.1566 31.7314H66.6234C66.7359 31.7314 66.7922 31.6686 66.7922 31.5429L66.7766 27.2171C66.7763 27.1601 66.787 27.1035 66.808 27.0513C66.829 26.9991 66.8599 26.9523 66.8987 26.914C66.9374 26.8757 66.9831 26.8468 67.0327 26.8291C67.0824 26.8114 67.1349 26.8054 67.1869 26.8114L68.6437 26.9829C68.7615 26.997 68.8705 27.0587 68.9495 27.1563C69.0286 27.2539 69.0723 27.3803 69.0722 27.5114V31.3714C69.0722 31.4684 69.1069 31.5614 69.1688 31.63C69.2306 31.6986 69.3145 31.7371 69.402 31.7371H72.6298C72.8411 31.7371 72.9458 31.621 72.9441 31.3886C72.9354 29.8876 72.9112 28.4676 72.8714 27.1286C72.822 25.46 71.3236 25.1914 70.1187 25.0314C70.0871 25.0274 70.0571 25.0136 70.0323 24.9916C70.0074 24.9696 69.9888 24.9403 69.9785 24.9071C69.9681 24.8739 69.9666 24.8382 69.9739 24.8041C69.9813 24.77 69.9973 24.7388 70.02 24.7143L73.2245 21.1686C73.524 20.8371 73.4617 20.6762 73.0375 20.6857L69.589 20.7543C69.555 20.7543 69.5218 20.7642 69.4929 20.7829C68.5442 21.3752 67.9634 21.8943 67.7504 22.34C67.5669 22.7229 67.3444 22.9619 67.083 23.0571ZM98.2813 24.7086C98.2309 24.8149 98.1577 24.9059 98.068 24.9737C97.9784 25.0414 97.875 25.0838 97.7671 25.0971C96.7613 25.221 95.7407 25.3638 94.7054 25.5257C93.5092 25.7105 92.853 26.4533 92.737 27.7543C92.5423 29.9514 92.7422 31.4857 95.0404 31.8914C96.6479 32.1771 102.348 32.6686 102.358 30C102.369 27.6419 102.382 25.2848 102.397 22.9286C102.415 19.84 95.8896 20.4543 94.2224 20.8114C94.0978 20.8381 94.0329 20.92 94.0277 21.0571L93.929 23.2371C93.9281 23.2649 93.9326 23.2926 93.9423 23.3182C93.952 23.3439 93.9665 23.367 93.985 23.3859C94.0034 23.4049 94.0254 23.4193 94.0493 23.4281C94.0732 23.4369 94.0986 23.44 94.1237 23.4371C95.1902 23.3114 96.2566 23.2219 97.323 23.1686C97.7316 23.1476 98.0285 23.2295 98.2137 23.4143C98.5184 23.719 98.5409 24.1505 98.2813 24.7086ZM90.5271 23.4171H92.5423C92.585 23.4171 92.6259 23.3985 92.6561 23.3653C92.6863 23.332 92.7033 23.287 92.7033 23.24L92.6721 20.8686C92.6716 20.8192 92.6546 20.7718 92.6243 20.7358C92.594 20.6998 92.5527 20.6779 92.5085 20.6743C90.6518 20.4971 87.8031 20.1 86.7254 22.4114C86.4969 22.901 86.3852 23.64 86.3904 24.6286C86.4025 26.9124 86.3991 29.1981 86.38 31.4857C86.38 31.5443 86.401 31.6006 86.4384 31.6423C86.4759 31.684 86.5267 31.7078 86.58 31.7086L89.9195 31.7571C89.946 31.7575 89.9722 31.7521 89.9968 31.7412C90.0214 31.7303 90.0437 31.7142 90.0626 31.6937C90.0814 31.6733 90.0964 31.6489 90.1066 31.622C90.1168 31.5951 90.122 31.5663 90.122 31.5371C90.1151 29.261 90.1168 26.96 90.1272 24.6343C90.129 24.221 90.1792 23.8771 90.2779 23.6029C90.2977 23.5479 90.332 23.5009 90.3765 23.4677C90.421 23.4346 90.4734 23.417 90.5271 23.4171ZM44.3634 28.0857C44.3478 29.6886 42.3301 29.7514 42.299 28.2829C42.2643 26.6048 42.2505 24.1533 42.2574 20.9286C42.2574 20.8257 42.2115 20.7743 42.1198 20.7743L38.4219 20.74C38.4043 20.7396 38.3868 20.7431 38.3704 20.7503C38.354 20.7574 38.3391 20.7681 38.3266 20.7817C38.314 20.7952 38.304 20.8114 38.2972 20.8293C38.2904 20.8472 38.2869 20.8663 38.2869 20.8857C38.2574 23.5429 38.2592 26.2095 38.2921 28.8857C38.344 33.0857 48.3444 33.2543 48.3444 28.7229C48.3461 26.1476 48.3452 23.5581 48.3418 20.9543C48.3418 20.8381 48.289 20.779 48.1834 20.7771L44.5868 20.7314C44.4829 20.7295 44.4309 20.7857 44.4309 20.9C44.4084 23.3038 44.3859 25.699 44.3634 28.0857ZM50.5205 31.2829C50.5231 33.0514 49.744 32.7429 48.5521 32.7971C48.4465 32.8029 48.3885 32.8638 48.3781 32.98L48.2716 34.2686C48.2674 34.3234 48.2733 34.3785 48.2889 34.4307C48.3046 34.4828 48.3298 34.5309 48.3629 34.5718C48.396 34.6128 48.4363 34.6458 48.4813 34.6688C48.5264 34.6918 48.5752 34.7044 48.6248 34.7057C49.7484 34.7381 50.8321 34.7457 51.876 34.7286C52.9849 34.7114 53.7432 34.3086 54.2184 33.2543C54.4088 32.8314 54.5049 32.12 54.5066 31.12C54.517 27.7029 54.5179 24.2771 54.5092 20.8429C54.5092 20.7686 54.4755 20.7314 54.4079 20.7314L50.6711 20.7286C50.6374 20.7286 50.605 20.7433 50.5811 20.7696C50.5573 20.7958 50.5439 20.8314 50.5439 20.8686C50.5248 24.3505 50.517 27.8219 50.5205 31.2829ZM60.6014 20.8771C60.6014 20.84 60.588 20.8044 60.5641 20.7781C60.5402 20.7519 60.5079 20.7371 60.4741 20.7371H56.958C56.9413 20.7371 56.9248 20.7408 56.9093 20.7478C56.8939 20.7548 56.8799 20.7651 56.868 20.7781C56.8562 20.7911 56.8469 20.8066 56.8405 20.8236C56.8341 20.8406 56.8308 20.8588 56.8308 20.8771V31.5914C56.8308 31.6098 56.8341 31.628 56.8405 31.645C56.8469 31.662 56.8562 31.6774 56.868 31.6904C56.8799 31.7034 56.8939 31.7137 56.9093 31.7208C56.9248 31.7278 56.9413 31.7314 56.958 31.7314H60.4741C60.5079 31.7314 60.5402 31.7167 60.5641 31.6904C60.588 31.6642 60.6014 31.6286 60.6014 31.5914V20.8771ZM80.6436 27.8543C80.6566 29.8286 78.4441 29.5371 78.4363 28.36C78.419 25.8686 78.4147 23.3762 78.4234 20.8829C78.4234 20.7838 78.3783 20.7343 78.2883 20.7343L74.7229 20.7171C74.6381 20.7152 74.5948 20.7619 74.593 20.8571C74.5532 23.619 74.5602 26.381 74.6138 29.1429C74.6398 30.4771 75.8239 31.2371 76.8575 31.6029C78.8778 32.3143 82.9444 32.4114 84.2402 30.0629C84.4722 29.6438 84.5891 29.0095 84.5908 28.16C84.5977 25.7257 84.5986 23.301 84.5934 20.8857C84.5934 20.844 84.5781 20.8041 84.5508 20.7746C84.5235 20.7451 84.4865 20.7286 84.448 20.7286L80.7527 20.7229C80.6731 20.7229 80.6324 20.7667 80.6307 20.8543C80.6203 23.1971 80.6246 25.5305 80.6436 27.8543Z" fill="#003B83"/>
<path d="M3.55367 12.643C3.58483 10.2573 5.45974 7.91445 7.35023 7.10587C7.92153 6.86206 8.60536 6.74302 9.40172 6.74873C13.9687 6.77921 18.5772 6.80492 23.2272 6.82587C23.2671 6.82586 23.3066 6.83463 23.3433 6.85168C23.3801 6.86872 23.4133 6.8937 23.4412 6.92512C23.469 6.95655 23.4908 6.99379 23.5054 7.03464C23.5199 7.0755 23.5269 7.11915 23.5258 7.16302C23.5025 8.33159 23.6167 9.70016 23.261 10.7202C22.5313 12.8144 21.09 13.2287 19.0671 13.2287C17.6735 13.2287 16.2807 13.2316 14.8888 13.2373C12.3266 13.2468 10.7555 13.3421 10.1756 13.523C7.68262 14.2973 6.72699 16.1887 5.78694 18.9287C5.07541 20.9992 4.43919 23.0954 3.87828 25.2173C3.87206 25.2417 3.85849 25.263 3.8398 25.2777C3.82111 25.2925 3.79841 25.2998 3.77544 25.2985C3.75247 25.2972 3.73059 25.2873 3.71341 25.2704C3.69623 25.2536 3.68477 25.2308 3.68092 25.2059C3.62552 24.8725 3.59609 24.5183 3.59263 24.143C3.54415 18.0344 3.53117 14.2011 3.55367 12.643Z" fill="white"/>
<path d="M14.0505 22.4572C13.958 22.4605 13.8685 22.4947 13.7938 22.5554C13.7191 22.6161 13.6629 22.7005 13.6324 22.7972C12.8084 25.4296 12.0259 27.8563 11.2849 30.0772C10.8642 31.343 9.66709 31.6401 8.45178 31.6401C6.86945 31.6401 5.30616 31.6449 3.76192 31.6544C3.73722 31.6546 3.71284 31.6483 3.69085 31.6359C3.66887 31.6235 3.64992 31.6055 3.63564 31.5833C3.62136 31.5611 3.61216 31.5355 3.60882 31.5086C3.60549 31.4816 3.60812 31.4542 3.6165 31.4287C4.94953 27.4096 6.26785 23.4201 7.57146 19.4601C8.02504 18.0868 8.46303 17.1563 8.88545 16.6687C9.92937 15.4601 11.0148 15.2115 12.6171 15.2144C15.6571 15.2201 18.6859 15.2201 21.7034 15.2144C21.7413 15.2144 21.7776 15.2306 21.8044 15.2596C21.8312 15.2885 21.8462 15.3277 21.8462 15.3687C21.841 16.9258 22.0306 18.9972 21.3995 20.3115C20.6205 21.9315 19.4104 22.4601 17.7095 22.4287C16.4526 22.4077 15.233 22.4172 14.0505 22.4572Z" fill="white"/>
<path d="M30.4461 25.1659L30.4876 31.4402C30.488 31.4776 30.4816 31.5147 30.4688 31.5494C30.4561 31.584 30.4372 31.6155 30.4133 31.6421C30.3894 31.6687 30.3609 31.6898 30.3295 31.7041C30.2982 31.7185 30.2645 31.7259 30.2306 31.7259H26.1639C26.1003 31.7259 26.0393 31.698 25.9941 31.6483C25.9489 31.5985 25.9231 31.531 25.9224 31.4602C25.9068 27.3383 25.9025 23.2364 25.9094 19.1545C25.9112 18.164 26.0306 17.4183 26.2678 16.9174C26.7716 15.8488 27.619 15.3107 28.8101 15.3031C31.6372 15.2879 34.4547 15.2917 37.2628 15.3145C37.3114 15.3153 37.3579 15.3369 37.3924 15.3747C37.4268 15.4126 37.4465 15.4638 37.4471 15.5174L37.4757 18.1374C37.4792 18.425 37.3502 18.5669 37.0888 18.5631C35.2242 18.5383 33.3095 18.544 31.3446 18.5802C30.2721 18.6002 30.3838 20.5945 30.4513 21.3374C30.459 21.4218 30.4951 21.5001 30.5527 21.5571C30.6102 21.6141 30.6851 21.6457 30.7629 21.6459L36.3097 21.6402C36.3538 21.6402 36.3961 21.6595 36.4272 21.6938C36.4584 21.7281 36.4759 21.7746 36.4759 21.8231L36.4733 24.6974C36.4733 24.7701 36.4471 24.8399 36.4003 24.8913C36.3535 24.9428 36.2901 24.9717 36.224 24.9717L30.6227 24.9688C30.5993 24.9688 30.5761 24.9739 30.5545 24.9839C30.5329 24.9938 30.5133 25.0084 30.4969 25.0267C30.4805 25.0451 30.4675 25.0668 30.4588 25.0907C30.4501 25.1146 30.4457 25.1402 30.4461 25.1659Z" fill="white"/>
<path d="M51.0863 15.3001L54.0857 15.2944C54.1647 15.2942 54.2429 15.3132 54.3145 15.35C54.3861 15.3868 54.4495 15.4406 54.5001 15.5074C54.5507 15.5743 54.5873 15.6526 54.6072 15.7368C54.6271 15.8209 54.6299 15.9089 54.6154 15.9944L54.2493 18.1201C54.2278 18.2464 54.1696 18.3615 54.0833 18.4481C53.9971 18.5347 53.8877 18.5881 53.7715 18.6001L51.1071 18.8859C51.0318 18.8939 50.9559 18.8844 50.8842 18.8579C50.8125 18.8315 50.7467 18.7887 50.691 18.7323C50.6354 18.6759 50.5912 18.6073 50.5613 18.5309C50.5314 18.4544 50.5165 18.3719 50.5176 18.2887L50.5488 15.8859C50.5502 15.73 50.6074 15.581 50.7081 15.4714C50.8087 15.3617 50.9447 15.3001 51.0863 15.3001Z" fill="white"/>
<path d="M59.9054 18.6545L57.3293 18.8631C57.2616 18.8687 57.1935 18.8586 57.1295 18.8336C57.0654 18.8086 57.0068 18.7691 56.9575 18.7177C56.9081 18.6664 56.869 18.6042 56.8427 18.5353C56.8164 18.4663 56.8035 18.3921 56.8048 18.3174L56.8463 15.8259C56.8484 15.685 56.9007 15.5505 56.992 15.4517C57.0834 15.3528 57.2064 15.2973 57.3345 15.2974H60.23C60.3013 15.2971 60.3718 15.3139 60.4365 15.3468C60.5013 15.3797 60.5587 15.4278 60.6047 15.4877C60.6508 15.5476 60.6843 15.6179 60.703 15.6936C60.7217 15.7693 60.7251 15.8486 60.713 15.9259L60.3494 18.2117C60.3307 18.3293 60.2769 18.4367 60.1964 18.5169C60.116 18.5971 60.0136 18.6455 59.9054 18.6545Z" fill="white"/>
<path d="M67.0814 23.0575C67.3428 22.9623 67.5653 22.7232 67.7488 22.3404C67.9617 21.8947 68.5426 21.3756 69.4913 20.7832C69.5202 20.7645 69.5533 20.7547 69.5873 20.7546L73.0359 20.6861C73.4601 20.6766 73.5224 20.8375 73.2229 21.1689L70.0184 24.7146C69.9956 24.7392 69.9797 24.7703 69.9723 24.8044C69.9649 24.8386 69.9665 24.8743 69.9768 24.9075C69.9872 24.9406 70.0058 24.9699 70.0306 24.9919C70.0555 25.0139 70.0854 25.0278 70.1171 25.0318C71.322 25.1918 72.8204 25.4604 72.8697 27.1289C72.9095 28.468 72.9338 29.888 72.9424 31.3889C72.9442 31.6213 72.8394 31.7375 72.6282 31.7375H69.4004C69.3129 31.7375 69.229 31.699 69.1672 31.6304C69.1053 31.5618 69.0706 31.4688 69.0706 31.3718V27.5118C69.0707 27.3807 69.027 27.2542 68.9479 27.1567C68.8688 27.0591 68.7599 26.9973 68.6421 26.9832L67.1853 26.8118C67.1333 26.8058 67.0808 26.8118 67.0311 26.8294C66.9814 26.8471 66.9358 26.876 66.897 26.9143C66.8583 26.9526 66.8274 26.9994 66.8064 27.0517C66.7854 27.1039 66.7747 27.1604 66.775 27.2175L66.7906 31.5432C66.7906 31.6689 66.7343 31.7318 66.6218 31.7318H63.155C63.0165 31.7299 62.9473 31.6527 62.9473 31.5004L62.9499 15.4804C62.9499 15.4346 62.9662 15.3907 62.9953 15.3581C63.0245 15.3255 63.0641 15.3068 63.1057 15.3061L66.5854 15.2832C66.6098 15.2828 66.6341 15.2879 66.6568 15.2981C66.6794 15.3082 66.7001 15.3233 66.7175 15.3425C66.7349 15.3616 66.7487 15.3844 66.7581 15.4095C66.7675 15.4347 66.7724 15.4617 66.7724 15.4889L66.7802 22.8175C66.7802 23.0518 66.8806 23.1318 67.0814 23.0575Z" fill="white"/>
<path d="M98.2808 24.7089C98.5405 24.1508 98.518 23.7193 98.2133 23.4146C98.028 23.2298 97.7311 23.1479 97.3226 23.1689C96.2561 23.2222 95.1897 23.3117 94.1233 23.4374C94.0982 23.4403 94.0728 23.4372 94.0488 23.4284C94.0249 23.4196 94.003 23.4052 93.9845 23.3862C93.966 23.3673 93.9515 23.3442 93.9418 23.3185C93.9322 23.2928 93.9276 23.2652 93.9285 23.2374L94.0272 21.0574C94.0324 20.9203 94.0973 20.8384 94.2219 20.8117C95.8891 20.4546 102.415 19.8403 102.397 22.9289C102.381 25.2851 102.368 27.6422 102.358 30.0003C102.347 32.6689 96.6474 32.1774 95.0399 31.8917C92.7418 31.486 92.5418 29.9517 92.7366 27.7546C92.8526 26.4536 93.5087 25.7108 94.705 25.526C95.7402 25.3641 96.7608 25.2212 97.7666 25.0974C97.8745 25.0841 97.9779 25.0417 98.0675 24.974C98.1572 24.9062 98.2304 24.8152 98.2808 24.7089ZM96.9876 27.6603C96.8886 27.6923 96.799 27.7525 96.7279 27.8348C96.6567 27.917 96.6066 28.0185 96.5825 28.1289L96.4864 28.5774C96.4666 28.6677 96.4648 28.7617 96.4811 28.8528C96.4973 28.944 96.5313 29.0302 96.5806 29.1056C96.6299 29.181 96.6934 29.2438 96.7668 29.2897C96.8401 29.3356 96.9216 29.3636 97.0057 29.3717L97.7848 29.446C97.8625 29.4534 97.9408 29.4437 98.0151 29.4174C98.0894 29.3911 98.1581 29.3488 98.2174 29.293C98.2766 29.2371 98.3251 29.1688 98.3601 29.0921C98.3951 29.0153 98.4158 28.9317 98.421 28.846L98.4678 28.086C98.4741 27.9823 98.4575 27.8784 98.4195 27.7833C98.3816 27.6881 98.3233 27.6044 98.2496 27.5393C98.1759 27.4742 98.089 27.4297 97.9964 27.4095C97.9037 27.3892 97.8079 27.3939 97.7173 27.4232L96.9876 27.6603Z" fill="white"/>
<path d="M90.2767 23.6028C90.1781 23.8771 90.1279 24.2209 90.1261 24.6342C90.1157 26.96 90.114 29.2609 90.1209 31.5371C90.1209 31.5662 90.1157 31.5951 90.1055 31.6219C90.0953 31.6488 90.0803 31.6732 90.0615 31.6937C90.0426 31.7141 90.0203 31.7303 89.9957 31.7412C89.9711 31.7521 89.9449 31.7575 89.9184 31.7571L86.5789 31.7085C86.5256 31.7078 86.4747 31.684 86.4373 31.6422C86.3999 31.6005 86.3789 31.5443 86.3789 31.4857C86.3979 29.198 86.4014 26.9123 86.3893 24.6285C86.3841 23.64 86.4958 22.9009 86.7243 22.4114C87.802 20.1 90.6507 20.4971 92.5074 20.6742C92.5515 20.6778 92.5928 20.6998 92.6231 20.7358C92.6534 20.7717 92.6705 20.8191 92.671 20.8685L92.7022 23.24C92.7022 23.2869 92.6852 23.332 92.655 23.3652C92.6248 23.3984 92.5839 23.4171 92.5412 23.4171H90.526C90.4723 23.4169 90.4198 23.4346 90.3754 23.4677C90.3309 23.5008 90.2966 23.5479 90.2767 23.6028Z" fill="white"/>
<path d="M42.2986 28.2829C42.3297 29.7515 44.3475 29.6886 44.363 28.0858C44.3855 25.6991 44.408 23.3039 44.4306 20.9001C44.4306 20.7858 44.4825 20.7296 44.5864 20.7315L48.183 20.7772C48.2886 20.7791 48.3414 20.8382 48.3414 20.9543C48.3448 23.5582 48.3457 26.1477 48.344 28.7229C48.344 33.2543 38.3436 33.0858 38.2917 28.8858C38.2588 26.2096 38.257 23.5429 38.2865 20.8858C38.2865 20.8664 38.29 20.8472 38.2968 20.8293C38.3036 20.8115 38.3136 20.7953 38.3262 20.7817C38.3387 20.7682 38.3537 20.7575 38.37 20.7503C38.3864 20.7432 38.4039 20.7397 38.4215 20.7401L42.1194 20.7743C42.2111 20.7743 42.257 20.8258 42.257 20.9286C42.2501 24.1534 42.2639 26.6048 42.2986 28.2829Z" fill="white"/>
<path d="M48.5513 32.7971C49.7433 32.7428 50.5223 33.0514 50.5197 31.2828C50.5163 27.8218 50.5241 24.3504 50.5431 20.8685C50.5431 20.8314 50.5565 20.7958 50.5804 20.7695C50.6042 20.7433 50.6366 20.7285 50.6704 20.7285L54.4072 20.7314C54.4747 20.7314 54.5085 20.7685 54.5085 20.8428C54.5171 24.2771 54.5162 27.7028 54.5059 31.1199C54.5041 32.1199 54.408 32.8314 54.2176 33.2542C53.7424 34.3085 52.9841 34.7114 51.8753 34.7285C50.8314 34.7457 49.7476 34.738 48.6241 34.7057C48.5744 34.7043 48.5256 34.6918 48.4806 34.6687C48.4355 34.6457 48.3952 34.6127 48.3621 34.5718C48.329 34.5308 48.3039 34.4828 48.2882 34.4306C48.2725 34.3785 48.2666 34.3233 48.2709 34.2685L48.3774 32.9799C48.3877 32.8638 48.4457 32.8028 48.5513 32.7971Z" fill="white"/>
<path d="M60.4734 20.7373H56.9573C56.887 20.7373 56.8301 20.8 56.8301 20.8773V31.5916C56.8301 31.6689 56.887 31.7316 56.9573 31.7316H60.4734C60.5437 31.7316 60.6007 31.6689 60.6007 31.5916V20.8773C60.6007 20.8 60.5437 20.7373 60.4734 20.7373Z" fill="white"/>
<path d="M78.4351 28.3602C78.4429 29.5373 80.6554 29.8288 80.6424 27.8545C80.6234 25.5307 80.6191 23.1973 80.6295 20.8545C80.6312 20.7669 80.6719 20.7231 80.7515 20.7231L84.4468 20.7288C84.4854 20.7288 84.5223 20.7453 84.5496 20.7748C84.5769 20.8043 84.5922 20.8442 84.5922 20.8859C84.5974 23.3011 84.5965 25.7259 84.5896 28.1602C84.5879 29.0097 84.471 29.644 84.239 30.0631C82.9432 32.4116 78.8766 32.3145 76.8563 31.6031C75.8227 31.2373 74.6386 30.4773 74.6126 29.1431C74.559 26.3812 74.552 23.6192 74.5918 20.8573C74.5936 20.7621 74.6369 20.7154 74.7217 20.7173L78.2871 20.7345C78.3771 20.7345 78.4222 20.784 78.4222 20.8831C78.4135 23.3764 78.4178 25.8688 78.4351 28.3602Z" fill="white"/>
<path d="M96.9882 27.6601L97.7179 27.423C97.8086 27.3938 97.9043 27.3891 97.997 27.4093C98.0896 27.4295 98.1765 27.4741 98.2502 27.5391C98.3239 27.6042 98.3822 27.6879 98.4202 27.7831C98.4581 27.8783 98.4747 27.9821 98.4684 28.0858L98.4216 28.8458C98.4164 28.9315 98.3957 29.0151 98.3607 29.0919C98.3258 29.1686 98.2772 29.2369 98.218 29.2928C98.1588 29.3487 98.09 29.391 98.0157 29.4173C97.9414 29.4435 97.8631 29.4533 97.7854 29.4458L97.0064 29.3716C96.9223 29.3635 96.8407 29.3355 96.7674 29.2895C96.694 29.2436 96.6305 29.1808 96.5812 29.1054C96.5319 29.03 96.4979 28.9438 96.4817 28.8527C96.4654 28.7615 96.4672 28.6676 96.487 28.5773L96.5831 28.1287C96.6072 28.0183 96.6573 27.9169 96.7285 27.8346C96.7996 27.7523 96.8892 27.6922 96.9882 27.6601Z" fill="#003B83"/>
</g>
<defs>
<clipPath id="clip0_923_635">
<rect x="0.443359" y="0.5" width="105.691" height="44" rx="4" fill="white"/>
</clipPath>
</defs>
</svg>
