<svg width="143" height="30" viewBox="0 0 143 30" fill="none" xmlns="http://www.w3.org/2000/svg">
<path d="M9.17869 17.02H15.1238C14.3555 19.7636 11.842 21.7756 8.86614 21.7756C5.28472 21.7756 2.3675 18.8491 2.3675 15.2563C2.3675 11.6635 5.28472 8.7305 8.86614 8.7305C11.575 8.7305 13.9062 10.4028 14.8764 12.774H16.6411C15.5927 9.46866 12.5062 7.07129 8.86614 7.07129C4.37309 7.07129 0.707031 10.7425 0.707031 15.2563C0.707031 19.7701 4.37309 23.4413 8.86614 23.4413C11.4382 23.4413 13.828 22.1479 15.228 20.2797V23.0886H16.7387V15.387H9.17869V17.02Z" fill="white"/>
<path d="M21.1279 7.58057H19.5V23.0818H21.1279V7.58057Z" fill="white"/>
<path d="M69.2158 7.58057H67.5879V23.0687H69.2158V7.58057Z" fill="white"/>
<path d="M29.6132 21.9645C27.1127 21.9645 25.081 19.8088 25.081 17.3069C25.081 14.805 27.1127 12.6624 29.6132 12.6624C32.1136 12.6624 34.1453 14.7985 34.1453 17.3069C34.1453 19.8153 32.1071 21.9645 29.6132 21.9645ZM29.6132 11.1143C26.2076 11.1143 23.4336 13.8905 23.4336 17.3069C23.4336 20.7233 26.2076 23.4996 29.6132 23.4996C33.0188 23.4996 35.7927 20.7168 35.7927 17.3069C35.7927 13.897 33.0188 11.1143 29.6132 11.1143Z" fill="white"/>
<path d="M43.8592 21.9648C41.3523 21.9648 39.3271 19.8091 39.3271 17.3072C39.3271 14.8053 41.3588 12.6627 43.8592 12.6627C46.3597 12.6627 48.3914 14.7988 48.3914 17.3072C48.3914 19.8156 46.3597 21.9648 43.8592 21.9648ZM43.9309 10.997C42.1011 10.997 40.4602 11.8005 39.3271 13.0808V7.58057H37.6992V23.0818H39.3271V21.5271C40.4667 22.8009 42.1011 23.6044 43.9309 23.6044C47.3625 23.6044 50.1495 20.7824 50.1495 17.3007C50.1495 13.8189 47.3625 10.9904 43.9309 10.9904" fill="white"/>
<path d="M58.552 21.9583C56.0515 21.9583 54.0199 19.8027 54.0199 17.2942C54.0199 14.7858 56.0515 12.6498 58.552 12.6498C61.0525 12.6498 63.0841 14.7858 63.0841 17.2942C63.0841 19.8027 61.0525 21.9583 58.552 21.9583ZM63.0971 13.1005C61.9446 11.8071 60.2776 10.9971 58.4153 10.9971C54.938 10.9971 52.125 13.819 52.125 17.3073C52.125 20.7956 54.938 23.611 58.4153 23.611C60.2776 23.611 61.9446 22.7945 63.0971 21.5076V23.0884H64.7446V11.7352H63.0971V13.107V13.1005Z" fill="white"/>
<path d="M114.941 6H112.057V8.74358H114.941V6Z" fill="white"/>
<path d="M75.0187 7.58057H72.375V20.5799V23.0687H81.042V20.5799H75.0187V7.58057Z" fill="white"/>
<path d="M114.941 10.8799H112.057V23.0496H114.941V10.8799Z" fill="white"/>
<path d="M88.3677 20.9589C86.4403 20.9589 84.871 19.2736 84.871 17.1963C84.871 15.119 86.4403 13.4402 88.3677 13.4402C90.2952 13.4402 91.8645 15.1255 91.8645 17.1963C91.8645 19.267 90.2952 20.9589 88.3677 20.9589ZM88.3677 10.8403C84.871 10.8403 82.0254 13.6884 82.0254 17.1963C82.0254 20.7042 84.8645 23.5523 88.3677 23.5523C91.871 23.5523 94.7036 20.7107 94.7036 17.1963C94.7036 13.6819 91.8645 10.8403 88.3677 10.8403Z" fill="white"/>
<path d="M126.976 18.9089C126.396 20.1435 125.218 20.9861 123.844 20.9861C121.91 20.9861 120.34 19.2943 120.34 17.217C120.34 14.9503 121.91 13.4544 123.844 13.4544C125.146 13.4544 126.286 14.2186 126.885 15.3553H129.906C129.112 12.7554 126.696 10.8545 123.837 10.8545C120.334 10.8545 117.488 13.7026 117.488 17.2235C117.488 20.7444 120.334 23.5795 123.837 23.5795C126.761 23.5795 129.216 21.6002 129.952 18.9023H126.969L126.976 18.9089Z" fill="white"/>
<path d="M102.466 27.276C101.177 27.276 99.9394 26.5967 99.1906 25.5776L96.625 26.8318C97.8362 28.7328 99.8548 30 102.466 30C105.845 30 108.613 27.3218 108.886 24.0752H105.989C105.741 25.8912 104.257 27.2826 102.466 27.2826" fill="white"/>
<path d="M102.598 21.0182C100.677 21.0182 99.1138 19.3328 99.1138 17.2686C99.1138 15.2044 100.677 13.5256 102.598 13.5256C104.519 13.5256 106.088 15.1979 106.088 17.2686C106.088 19.3394 104.525 21.0182 102.598 21.0182ZM106.303 12.1473C105.261 11.3895 103.985 10.9388 102.598 10.9388C99.1138 10.9388 96.2812 13.7738 96.2812 17.2686C96.2812 20.7634 99.1073 23.5985 102.598 23.5985C106.088 23.5985 108.894 20.7765 108.914 17.2948V10.8931H106.303V12.1473Z" fill="white"/>
<path d="M140.726 1.26611C140.832 1.26611 140.921 1.28244 141.003 1.3151C141.084 1.34777 141.157 1.39676 141.214 1.45392C141.271 1.51108 141.32 1.5764 141.353 1.65805C141.385 1.73154 141.401 1.82136 141.401 1.90302C141.401 2.04183 141.377 2.15614 141.32 2.25413C141.263 2.35212 141.165 2.4256 141.043 2.48276C141.108 2.50726 141.157 2.53175 141.198 2.57258C141.239 2.60524 141.271 2.65424 141.296 2.69506C141.32 2.74406 141.344 2.80122 141.353 2.85837C141.361 2.91553 141.369 2.97269 141.377 3.02985C141.377 3.06251 141.377 3.1115 141.377 3.16049C141.377 3.20949 141.377 3.25848 141.385 3.31564C141.385 3.36463 141.401 3.41362 141.41 3.46261C141.426 3.51161 141.442 3.55243 141.467 3.5851H140.962C140.937 3.51161 140.913 3.42179 140.913 3.3238C140.913 3.22582 140.897 3.12783 140.88 3.02985C140.864 2.90737 140.824 2.81754 140.767 2.76039C140.71 2.70323 140.62 2.67873 140.49 2.67873H139.985V3.5851H139.48V1.26611H140.726ZM140.547 2.31129C140.661 2.31129 140.75 2.28679 140.807 2.22963C140.864 2.18064 140.897 2.09082 140.897 1.97651C140.897 1.86219 140.864 1.78054 140.807 1.73154C140.75 1.68255 140.661 1.65805 140.547 1.65805H139.993V2.31129H140.547Z" fill="white"/>
<path d="M140.426 4.8666C139.091 4.8666 138 3.77243 138 2.4333C138 1.09417 139.091 0 140.426 0C141.76 0 142.851 1.09417 142.851 2.4333C142.851 3.77243 141.76 4.8666 140.426 4.8666ZM140.426 0.400104C139.31 0.400104 138.399 1.31463 138.399 2.4333C138.399 3.55196 139.31 4.46649 140.426 4.46649C141.541 4.46649 142.452 3.55196 142.452 2.4333C142.452 1.31463 141.541 0.400104 140.426 0.400104Z" fill="white"/>
</svg>
