<svg width="61" height="60" viewBox="0 0 61 60" fill="none" xmlns="http://www.w3.org/2000/svg">
<g clip-path="url(#clip0_923_712)">
<path fill-rule="evenodd" clip-rule="evenodd" d="M0.0898438 40.403L30.0843 40.3988L43.5287 40.3975H60.0898V24.3975L41.7148 24.3988L35.0065 24.4002H32.8037L30.0968 24.3988L0.0898438 24.3975V40.403Z" fill="white"/>
<path fill-rule="evenodd" clip-rule="evenodd" d="M7.40373 13.9515H0.0898438V15.6709H30.051C30.0496 16.0265 30.0926 23.6848 30.0926 24.3973H32.8037V24.3667C33.1273 24.1695 33.3746 23.9667 33.9037 23.9667C34.3385 23.9667 34.7996 24.1681 35.0065 24.3987H41.7148C41.876 24.1848 42.0496 23.9681 42.2246 23.7279C42.3954 23.4931 42.5301 23.2765 42.6954 23.0237C43.4996 21.7959 44.094 20.3723 44.494 18.9417C44.5732 18.6556 44.6343 18.2779 44.7301 18.0042L51.0037 23.3167C51.1454 23.4279 51.2732 23.5695 51.4329 23.6473V5.95008C51.2204 6.0348 44.9982 11.4473 44.6565 11.6292C44.419 10.2431 43.6162 8.40563 42.9871 7.35008C42.2635 6.13758 41.3648 4.94035 40.3593 4.01952C39.7148 3.42924 39.4912 3.20841 38.7273 2.65424C37.2482 1.58063 35.4732 0.751465 33.6579 0.283409L32.5718 0.050076C32.5607 0.0472982 32.5496 0.0431315 32.5398 0.0403537C32.5301 0.037576 32.5162 0.0320204 32.5079 0.0292426C32.4996 0.0264648 32.4829 0.0292426 32.4773 0.0153537C32.4718 0.00146484 32.4565 0.0070204 32.4468 0.00146484H30.0773V6.3848C28.7565 6.45702 27.9815 6.57508 26.8732 7.0473C24.744 7.95424 23.0329 9.92785 22.4829 12.264C22.3371 12.8806 22.3621 13.3473 22.2732 13.9515H7.40373Z" fill="black"/>
<path fill-rule="evenodd" clip-rule="evenodd" d="M30.0862 54.7877L30.082 60.0002H60.0904V40.3975H43.5293C43.614 40.6961 43.5543 42.8877 43.5543 43.378C43.5543 44.3377 43.6084 45.4711 43.5473 46.41L36.1862 46.4127L36.1834 54.7905H30.0862V54.7877Z" fill="#FCB45A"/>
<path fill-rule="evenodd" clip-rule="evenodd" d="M25.494 59.9998H30.0815L30.0857 54.7873V40.397L0.0898438 40.4026V40.3887L1.50095 40.3942C1.55651 40.7067 2.11346 42.0206 2.27179 42.372C3.09401 44.1942 4.10651 46.0109 5.23568 47.5665C5.43846 47.8456 5.61068 48.0706 5.81762 48.3512C6.3704 49.0984 6.85929 49.5901 7.36623 50.2178L9.40234 52.2803C10.3787 53.2415 12.5037 54.7859 13.6398 55.5192C14.7454 56.2331 15.8787 56.8151 17.1496 57.4373C18.9843 58.3359 21.2107 59.0665 23.244 59.5401C23.6051 59.6248 25.344 59.9234 25.4926 59.9998H25.494Z" fill="#DF523A"/>
<path fill-rule="evenodd" clip-rule="evenodd" d="M41.7148 24.3986H60.0898V0H32.4453C32.455 0.00555556 32.4703 0 32.4759 0.0138889C32.4814 0.0277778 32.4995 0.025 32.5064 0.0277778C32.5148 0.0305556 32.5286 0.0361111 32.5384 0.0388889C32.5481 0.0416667 32.5592 0.0458333 32.5703 0.0486111L33.6564 0.281944C35.4717 0.751389 37.2453 1.58056 38.7259 2.65278C39.4911 3.20694 39.7148 3.42917 40.3578 4.01806C41.3634 4.93889 42.262 6.13611 42.9856 7.34861C43.6148 8.40278 44.4175 10.2403 44.655 11.6278C44.9967 11.4458 51.2203 6.03333 51.4328 5.94861V23.6458C51.2731 23.5681 51.1453 23.4264 51.0036 23.3153L44.73 18.0028C44.6342 18.2764 44.5731 18.6542 44.4939 18.9403C44.0939 20.3722 43.4995 21.7944 42.6953 23.0222C42.53 23.275 42.3953 23.4917 42.2245 23.7264C42.0495 23.9667 41.8759 24.1833 41.7148 24.3958V24.3986Z" fill="#DF523A"/>
<path fill-rule="evenodd" clip-rule="evenodd" d="M0.0898438 13.9528H7.40234C7.41901 13.6472 8.61901 11.6278 8.82179 11.3139C9.38568 10.4444 9.9204 9.67778 10.5357 8.92916C17.2482 0.768056 25.6926 0.276389 26.2051 0H0.0898438V13.9528Z" fill="#2E60AD"/>
<path fill-rule="evenodd" clip-rule="evenodd" d="M7.4043 13.9514H22.2737C22.3626 13.3472 22.3376 12.8806 22.4835 12.2639C23.0335 9.92778 24.7446 7.95417 26.8737 7.04722C27.9835 6.575 28.7571 6.45694 30.0779 6.38472V0H26.2085C25.696 0.276389 17.2501 0.768056 10.5404 8.92917C9.92513 9.67778 9.39041 10.4444 8.82652 11.3139C8.62374 11.6278 7.42235 13.6472 7.40707 13.9514H7.4043Z" fill="white"/>
<path fill-rule="evenodd" clip-rule="evenodd" d="M0.0898438 60.0002H25.494C25.3454 59.9238 23.6065 59.6238 23.2454 59.5405C21.2107 59.0669 18.9857 58.3363 17.151 57.4377C15.8815 56.8155 14.7468 56.2335 13.6412 55.5196C10.4662 53.471 7.46346 50.6377 5.23568 47.5682C4.10651 46.0113 3.09262 44.1946 2.27179 42.3738C2.11346 42.021 1.55651 40.7085 1.50095 40.396L0.0898438 40.3877V60.0002Z" fill="#2E60AD"/>
<path fill-rule="evenodd" clip-rule="evenodd" d="M30.0854 54.7877H36.1826L36.1854 46.4113L43.5465 46.4085C43.6076 45.4696 43.5534 44.3377 43.5534 43.3766C43.5534 42.8863 43.6132 40.6946 43.5284 40.396H30.084V54.7863L30.0854 54.7877Z" fill="#009463"/>
<path fill-rule="evenodd" clip-rule="evenodd" d="M37.8562 6.63049C35.7535 7.10966 36.4799 10.268 38.5757 9.79577C39.3507 9.62077 40.0215 8.84021 39.7993 7.8416C39.6299 7.0791 38.8396 6.40688 37.8562 6.63049Z" fill="#DF523A"/>
<path fill-rule="evenodd" clip-rule="evenodd" d="M39.1185 19.6904C36.9421 20.0571 37.5101 23.2252 39.6101 22.9002C40.4157 22.7752 41.1143 21.9904 40.956 21.0293C40.824 20.2265 40.0463 19.5349 39.1185 19.6918V19.6904Z" fill="#DF523A"/>
<path fill-rule="evenodd" clip-rule="evenodd" d="M33.2741 2.91655C32.4477 3.05405 31.7491 3.7735 31.9046 4.77627C32.0296 5.58461 32.7963 6.2735 33.7644 6.12627C34.5727 6.00266 35.2658 5.21933 35.113 4.25544C34.988 3.45961 34.2088 2.76239 33.2741 2.91655Z" fill="#DF523A"/>
<path fill-rule="evenodd" clip-rule="evenodd" d="M40.2029 12.8848C39.3695 12.9821 38.6543 13.7321 38.7751 14.7098C38.8779 15.546 39.6543 16.2307 40.6084 16.1098C41.4251 16.0071 42.1182 15.2376 41.9987 14.2848C41.8987 13.4807 41.1418 12.7751 40.2015 12.8848H40.2029Z" fill="#DF523A"/>
<path fill-rule="evenodd" clip-rule="evenodd" d="M32.8041 24.3682V24.4001H35.0055C34.8 24.1682 34.3375 23.9668 33.9027 23.9668C33.3736 23.9668 33.1263 24.1696 32.8027 24.3668L32.8041 24.3682Z" fill="#DF523A"/>
<path d="M30.1635 15.6709H0.0898438V17.4167H30.1635V15.6709Z" fill="#009463"/>
<path d="M30.1635 17.4165H0.0898438V19.1623H30.1635V17.4165Z" fill="black"/>
<path d="M30.1635 19.1611H0.0898438V20.907H30.1635V19.1611Z" fill="#009463"/>
<path d="M30.1635 20.9067H0.0898438V22.6526H30.1635V20.9067Z" fill="black"/>
<path d="M30.1635 22.6528H0.0898438V24.3987H30.1635V22.6528Z" fill="#009463"/>
<path fill-rule="evenodd" clip-rule="evenodd" d="M6.87617 29.1432H2.46645L2.45534 33.5793H2.07617V27.6626H6.87617V29.1432Z" fill="black"/>
<path fill-rule="evenodd" clip-rule="evenodd" d="M12.4601 31.9931C12.5379 31.9639 12.6143 31.9306 12.6879 31.8931C13.1782 31.65 13.7559 31.1722 13.7559 30.575C13.7559 30.2875 13.6254 30.0209 13.3671 29.775C13.1073 29.5292 12.9059 29.3764 12.4657 29.232C12.0254 29.0875 11.5462 29.0167 11.0268 29.0167H10.5698C10.0504 29.0167 9.56984 29.0889 9.12678 29.232C8.68372 29.3764 8.46011 29.5709 8.20039 29.8167C7.94067 30.0625 7.8115 30.3292 7.8115 30.6167C7.8115 30.9042 7.94067 31.1792 8.20039 31.425C8.46011 31.6709 8.67956 31.8584 9.12678 32.0097C9.56845 32.1584 10.0504 32.225 10.5698 32.225H11.0268C11.5059 32.225 12.0046 32.1681 12.4601 31.9931ZM12.5643 27.95C13.0462 28.2264 13.4282 28.6 13.7073 29.0722C13.9865 29.5431 14.1268 30.0584 14.1268 30.6167C14.1268 31.175 13.9865 31.6986 13.7073 32.1695C13.4282 32.6403 13.0476 33.0153 12.5643 33.2917C12.0823 33.5681 11.5462 33.707 10.9601 33.707H10.6379C10.0448 33.707 9.50595 33.5695 9.02122 33.2917C8.5365 33.0153 8.15456 32.6417 7.87817 32.1695C7.60178 31.6986 7.46289 31.1806 7.46289 30.6167C7.46289 30.0528 7.60178 29.5361 7.87817 29.0681C8.15456 28.6 8.53511 28.2278 9.02122 27.9514C9.50595 27.675 10.0462 27.5361 10.6379 27.5361H10.9601C11.5476 27.5361 12.0823 27.675 12.5643 27.9514V27.95Z" fill="black"/>
<path fill-rule="evenodd" clip-rule="evenodd" d="M20.0764 30.5181C20.2972 30.3653 20.3944 30.2403 20.3944 29.9639C20.3944 29.6709 20.3167 29.4667 20.075 29.3334C19.8319 29.2014 19.5278 29.1348 19.1611 29.1348L15.7569 29.1251L15.7528 30.7098H19.3514C19.6333 30.7098 19.8583 30.6695 20.0792 30.5181H20.0764ZM15.375 27.6528H18.4139C19.125 27.6528 19.6431 27.7292 19.9667 27.882C20.2917 28.0348 20.4917 28.2348 20.5681 28.4834C20.6444 28.732 20.6819 29.0903 20.6819 29.5584V29.9473C20.6819 30.1681 20.6208 30.3653 20.5 30.5403C20.3792 30.7153 20.2167 30.8514 20.0139 30.9473C19.8111 31.0431 19.5903 31.0917 19.3542 31.0917H15.7542L15.7611 33.5806H15.375V27.6542V27.6528Z" fill="black"/>
<path fill-rule="evenodd" clip-rule="evenodd" d="M22.344 27.6529L22.3343 33.5793H21.951V27.6529H22.344ZM22.7551 26.3918C22.7551 26.5779 22.6885 26.7376 22.5565 26.8695C22.4246 27.0029 22.2648 27.0681 22.0787 27.0681C21.8926 27.0681 21.7329 27.0015 21.601 26.8695C21.4676 26.7376 21.4023 26.5779 21.4023 26.3918C21.4023 26.2056 21.469 26.0376 21.601 25.9056C21.7329 25.7737 21.8926 25.707 22.0787 25.707C22.2648 25.707 22.4246 25.7737 22.5565 25.9056C22.6885 26.0376 22.7551 26.2001 22.7551 26.3918Z" fill="black"/>
<path fill-rule="evenodd" clip-rule="evenodd" d="M26.1879 29.8903L27.7893 27.6528H29.5171L27.131 30.9695L29.4102 33.5792H28.9074L26.8921 31.2598L25.199 33.5792H23.4727L25.9518 30.1848L23.7518 27.6528H24.2435L26.1879 29.8903Z" fill="black"/>
<path fill-rule="evenodd" clip-rule="evenodd" d="M42.4089 31.9112C42.6353 31.7876 42.7478 31.6237 42.7478 31.4209C42.7478 31.2626 42.6853 31.1334 42.5617 31.032C42.4381 30.9306 42.3436 30.9014 42.177 30.857C42.0103 30.8126 41.8131 30.8167 41.6894 30.8167H37.8242V32.0987H41.4867C41.8756 32.0987 42.1839 32.0362 42.4089 31.9126V31.9112ZM41.4186 30.4334C41.6672 30.4334 41.9033 30.4389 42.1297 30.3195C42.3561 30.2014 42.4686 30.0292 42.4686 29.8028C42.4686 29.5653 42.3408 29.3959 42.0839 29.2903C41.8269 29.1862 41.5381 29.1334 41.2158 29.1334H37.8242V30.432H41.4186V30.4334ZM42.9006 32.6903C42.827 32.9556 42.6297 33.1695 42.3075 33.3334C41.9853 33.4973 41.4658 33.5792 40.7492 33.5792H37.4395V27.6528H40.4783C41.195 27.6528 41.7117 27.7251 42.0283 27.8681C42.3436 28.0126 42.5422 28.2195 42.6214 28.4903C42.7006 28.7612 42.7394 29.1848 42.7394 29.7598C42.7394 29.8834 42.6908 30.0251 42.595 30.1834C42.4992 30.3417 42.3603 30.4681 42.1797 30.5639C42.4061 30.632 42.6006 30.7473 42.7645 30.9112C42.9283 31.0751 43.0103 31.2778 43.0103 31.5209C43.0103 32.0348 42.9728 32.4237 42.9006 32.6889V32.6903Z" fill="black"/>
<path fill-rule="evenodd" clip-rule="evenodd" d="M50.3071 27.6528V33.5792H49.9252V28.5209L45.5835 33.5792H44.1016V27.6528H44.4835V32.7112L48.8266 27.6528H50.3071Z" fill="black"/>
<path fill-rule="evenodd" clip-rule="evenodd" d="M55.0476 26.8709C54.9143 27.0043 54.7559 27.0695 54.5698 27.0695C54.3837 27.0695 54.2157 27.0029 54.0837 26.8709C53.9518 26.739 53.8851 26.5793 53.8851 26.3931C53.8851 26.207 53.9518 26.039 54.0837 25.9056C54.2157 25.7737 54.3782 25.707 54.5698 25.707C54.7615 25.707 54.9157 25.7737 55.0476 25.9056C55.1796 26.039 55.2462 26.2001 55.2462 26.3931C55.2462 26.5862 55.1796 26.739 55.0476 26.8709ZM57.6684 27.6543V33.5806H57.2865L57.2921 28.5056L52.9448 33.5806H51.4629V27.6543H51.8448L51.8504 32.7279L56.1865 27.6543H57.6684Z" fill="black"/>
<path fill-rule="evenodd" clip-rule="evenodd" d="M34.6671 31.9931C34.7449 31.9639 34.8213 31.9306 34.8949 31.8931C35.3852 31.65 35.963 31.1722 35.963 30.575C35.963 30.2875 35.8324 30.0209 35.5741 29.775C35.3144 29.5292 35.113 29.3764 34.6727 29.232C34.2324 29.0875 33.7533 29.0167 33.2338 29.0167H32.7769C32.2574 29.0167 31.7769 29.0889 31.3338 29.232C30.8908 29.3764 30.6671 29.5709 30.4074 29.8167C30.1477 30.0625 30.0185 30.3292 30.0185 30.6167C30.0185 30.9042 30.1477 31.1792 30.4074 31.425C30.6671 31.6709 30.8866 31.8584 31.3338 32.0097C31.7755 32.1584 32.2574 32.225 32.7769 32.225H33.2338C33.713 32.225 34.2116 32.1681 34.6671 31.9931ZM34.7713 27.95C35.2533 28.2264 35.6352 28.6 35.9144 29.0722C36.1935 29.5431 36.3338 30.0584 36.3338 30.6167C36.3338 31.175 36.1935 31.6986 35.9144 32.1695C35.6352 32.6403 35.2546 33.0153 34.7713 33.2917C34.2894 33.5681 33.7533 33.707 33.1671 33.707H32.8449C32.2519 33.707 31.713 33.5695 31.2283 33.2917C30.7435 33.0153 30.3616 32.6417 30.0852 32.1695C29.8088 31.6986 29.6699 31.1806 29.6699 30.6167C29.6699 30.0528 29.8074 29.5361 30.0852 29.0681C30.3616 28.6 30.7421 28.2278 31.2283 27.9514C31.713 27.675 32.2533 27.5361 32.8449 27.5361H33.1671C33.7546 27.5361 34.2894 27.675 34.7713 27.9514V27.95Z" fill="black"/>
<path fill-rule="evenodd" clip-rule="evenodd" d="M2.52999 37.8848H2.32444V38.3376H2.06055V37.207H2.32444V37.664H2.53694L2.87166 37.207H3.15499L2.74388 37.7515L3.18277 38.3376H2.87166L2.52999 37.8848Z" fill="black"/>
<path fill-rule="evenodd" clip-rule="evenodd" d="M8.9033 37.2068H9.16719V38.3374H8.9033V37.2068ZM8.9158 36.9749C8.88385 36.9443 8.86719 36.9068 8.86719 36.8624C8.86719 36.8179 8.88385 36.779 8.9158 36.7485C8.94774 36.7179 8.98802 36.7026 9.03663 36.7026C9.08524 36.7026 9.12413 36.7165 9.15747 36.7457C9.18941 36.7749 9.20608 36.811 9.20608 36.854C9.20608 36.9012 9.1908 36.9401 9.15885 36.9721C9.12691 37.004 9.08663 37.0193 9.03663 37.0193C8.98663 37.0193 8.94913 37.004 8.9158 36.9735V36.9749Z" fill="black"/>
<path fill-rule="evenodd" clip-rule="evenodd" d="M15.0605 37.207H15.3258V37.6668H15.8953V37.207H16.1592V38.3376H15.8953V37.8904H15.3258V38.3376H15.0605V37.207Z" fill="black"/>
<path fill-rule="evenodd" clip-rule="evenodd" d="M22.7962 38.0281C22.8601 37.9628 22.892 37.8781 22.892 37.7725C22.892 37.667 22.8601 37.5809 22.7962 37.517C22.7323 37.4517 22.6517 37.4197 22.5545 37.4197C22.4573 37.4197 22.3767 37.4517 22.3142 37.517C22.2517 37.5822 22.2198 37.667 22.2198 37.7725C22.2198 37.8781 22.2517 37.9642 22.3142 38.0281C22.3767 38.0934 22.4573 38.1253 22.5545 38.1253C22.6517 38.1253 22.7323 38.0934 22.7962 38.0281ZM22.2462 38.2781C22.1545 38.2281 22.0823 38.16 22.0309 38.0711C21.9795 37.9822 21.9531 37.8836 21.9531 37.7711C21.9531 37.6586 21.9795 37.56 22.0309 37.4725C22.0823 37.385 22.1545 37.317 22.2462 37.267C22.3378 37.2184 22.4406 37.1934 22.5545 37.1934C22.6684 37.1934 22.774 37.2184 22.8656 37.267C22.9573 37.317 23.0295 37.385 23.0809 37.4725C23.1323 37.56 23.1587 37.66 23.1587 37.7711C23.1587 37.8822 23.1337 37.9822 23.0809 38.0711C23.0295 38.16 22.9573 38.2281 22.8656 38.2781C22.774 38.3281 22.6698 38.3517 22.5545 38.3517C22.4392 38.3517 22.3378 38.3267 22.2462 38.2781Z" fill="black"/>
<path fill-rule="evenodd" clip-rule="evenodd" d="M30.1934 38.1126V38.5973H29.9462V38.3376H28.9531V37.207H29.2184V38.1126H29.7573V37.207H30.0226V38.1126H30.1934Z" fill="black"/>
<path fill-rule="evenodd" clip-rule="evenodd" d="M36.2347 37.4804C36.1763 37.5304 36.1402 37.5971 36.1277 37.6804H36.7694C36.7583 37.5985 36.7236 37.5318 36.6652 37.4818C36.6069 37.4304 36.5347 37.4054 36.4486 37.4054C36.3625 37.4054 36.293 37.4304 36.2333 37.4804H36.2347ZM37.0166 37.8554H36.1305C36.1458 37.9388 36.1861 38.0041 36.2527 38.0541C36.318 38.1027 36.4 38.1277 36.4972 38.1277C36.6208 38.1277 36.7236 38.0874 36.8041 38.0055L36.9458 38.1679C36.8944 38.2291 36.8305 38.2749 36.7527 38.3054C36.675 38.336 36.5875 38.3527 36.4902 38.3527C36.3666 38.3527 36.2569 38.3277 36.1625 38.2791C36.068 38.2291 35.9944 38.161 35.943 38.0721C35.8916 37.9832 35.8652 37.8846 35.8652 37.7721C35.8652 37.6596 35.8902 37.5624 35.9402 37.4749C35.9902 37.386 36.0597 37.3179 36.1486 37.2679C36.2375 37.2179 36.3375 37.1943 36.4486 37.1943C36.5597 37.1943 36.6569 37.2179 36.7444 37.2679C36.8305 37.3166 36.8986 37.3846 36.9472 37.4735C36.9958 37.5624 37.0208 37.6638 37.0208 37.7791C37.0208 37.7971 37.0194 37.8235 37.0166 37.8568V37.8554Z" fill="black"/>
<path fill-rule="evenodd" clip-rule="evenodd" d="M42.8457 37.207H43.111V37.6668H43.6804V37.207H43.9443V38.3376H43.6804V37.8904H43.111V38.3376H42.8457V37.207Z" fill="black"/>
<path fill-rule="evenodd" clip-rule="evenodd" d="M50.7302 37.4306H50.3344V38.3376H50.0705V37.4306H49.6719V37.207H50.7302V37.4306Z" fill="black"/>
<path fill-rule="evenodd" clip-rule="evenodd" d="M57.2959 38.0277C57.3584 37.9624 57.3904 37.8777 57.3904 37.7721C57.3904 37.6666 57.3584 37.5804 57.2959 37.5166C57.2334 37.4513 57.1529 37.4193 57.0556 37.4193C56.9918 37.4193 56.9348 37.4332 56.8848 37.4624C56.8334 37.4916 56.7931 37.5332 56.764 37.586C56.7348 37.6402 56.7195 37.7013 56.7195 37.7721C56.7195 37.8429 56.7348 37.9054 56.764 37.9582C56.7931 38.0124 56.8334 38.0527 56.8848 38.0818C56.9362 38.111 56.9931 38.1249 57.0556 38.1249C57.1529 38.1249 57.2334 38.0929 57.2959 38.0277ZM57.3806 37.2652C57.4681 37.3138 57.5348 37.3804 57.5848 37.4679C57.6334 37.5554 57.6584 37.6568 57.6584 37.7707C57.6584 37.8846 57.6334 37.986 57.5848 38.0749C57.5348 38.1624 57.4668 38.2318 57.3806 38.2791C57.2945 38.3277 57.1959 38.3513 57.0848 38.3513C56.932 38.3513 56.8112 38.2999 56.7223 38.1985V38.7471H56.457V37.2068H56.7084V37.3554C56.7529 37.3013 56.8056 37.261 56.8709 37.2346C56.9348 37.2082 57.0056 37.1943 57.0834 37.1943C57.1931 37.1943 57.2918 37.2179 57.3793 37.2666L57.3806 37.2652Z" fill="black"/>
</g>
<defs>
<clipPath id="clip0_923_712">
<rect width="60" height="60" fill="white" transform="translate(0.0898438)"/>
</clipPath>
</defs>
</svg>
