<svg width="45" height="60" viewBox="0 0 45 60" fill="none" xmlns="http://www.w3.org/2000/svg">
<g clip-path="url(#clip0_1284_3148)">
<path d="M44.816 30.1733L41.9575 22.614L44.0705 17.7629L44.226 17.6444L41.9392 17.1885L43.4622 15.3647L39.2226 9.66109L39.9818 7.01672L40.0367 6.82523L33.748 4.69605L30.8941 0.0683891V0H30.8667L30.7889 0.0592705L25.8998 2.17021L22.6206 0.0273556L19.2682 2.17021L14.5986 0.113982L14.4934 0.0683891H14.3882C14.3882 0.0683891 14.347 0.0866261 14.3333 0.104863L14.3013 0.136778L14.1641 0.360182C14.1641 0.360182 14.1367 0.401216 14.1229 0.428571L14.0772 0.506079L14.0177 0.597264L13.8119 0.925532C13.7891 0.966565 13.7662 1.0076 13.7388 1.04863L13.6244 1.23556L13.5741 1.32219L13.5009 1.43161L13.3866 1.61854C13.3683 1.65046 13.35 1.68237 13.3271 1.71429L13.0985 2.08359C13.0664 2.1383 13.0344 2.19301 12.9978 2.24316L12.7966 2.57599L12.7006 2.72644L12.4673 3.10486C12.449 3.13678 12.4307 3.16869 12.4079 3.20061L12.3164 3.35106C12.2889 3.40122 12.2569 3.44681 12.2249 3.49696L12.138 3.6383L12.0557 3.77508L11.9734 3.90274L11.9002 4.02584L11.8316 4.13982L11.763 4.24468L11.7035 4.34043L11.6578 4.41793L11.6441 4.44985V4.51368L11.6029 4.58207V4.61398L5.36917 6.66565L5.29142 6.70213L5.24111 6.72948L6.09179 9.6383L1.80637 15.3921L3.34766 17.2158L1.68746 17.5486L1.34902 17.6079L1.41305 17.7264L3.24247 22.5821L0.416016 30.1459V30.2188L4.26694 36.1869V36.2234L4.37671 36.3192L4.4133 36.3784L9.67745 41.1976L9.76435 41.2614L9.86039 41.3389L13.2585 44.1976L13.9857 37.883H17.3198L20.1051 41.2568V41.307H25.2504V41.2796L28.0677 37.8693H31.2692L31.9964 44.1839L35.3442 41.3663L35.5043 41.234L40.9376 36.2462L40.9971 36.1824L44.816 30.1733ZM33.3318 4.78267L28.2323 11.421L30.853 0.775076L33.3318 4.78267ZM40.119 35.5076L40.4986 36.1413L35.5363 40.7006L34.0041 25.1991L40.119 35.5076ZM28.0128 37.4909L26.5721 34.6869H29.0739L30.6243 32.1702L31.2371 37.4818L28.0128 37.4909ZM22.4605 33.0137V34.2766H19.9542L22.4605 33.0137ZM14.0315 37.4909L14.6397 32.1793L16.1948 34.696H18.7148L17.2512 37.4909H14.0315ZM22.6526 9.2234L19.5243 2.50304L22.6206 0.510638L25.662 2.50304L22.6526 9.2234ZM22.4605 19.076V25.7234H21.1388L22.4605 19.076ZM11.9093 24.0547L17.7315 19.4954L14.4797 30.9301L11.9093 24.0547ZM11.2645 25.1763L9.81465 39.8982L9.73233 40.6961L4.78375 36.1413L11.2645 25.1763ZM5.77621 7.24468L16.7527 12.3191L7.34037 12.7751L6.53085 9.87994L5.77621 7.24468ZM14.1412 16.9149L11.6441 23.3617L8.76731 16.1398H8.71243L7.52788 13.2264L14.1412 16.9149ZM14.6809 16.7599L8.1636 13.1125L17.3107 12.693L17.6766 16.7462L14.6809 16.7599ZM17.8824 18.5836L15.3624 17.2158H17.7589L17.8824 18.5836ZM18.2483 18.5836L18.1522 17.1565L17.7543 12.7796L22.2867 16.7097L18.2483 18.5836ZM14.4888 17.2158H14.5208L17.7543 18.9939L12.0374 23.4392L14.4888 17.2158ZM2.32318 15.3921L6.20155 10.1489L7.01564 13.0395L8.29624 16.231L3.76843 17.1109L2.32318 15.3921ZM11.7172 24.7158L14.283 31.5547L10.272 39.4878L11.7172 24.7158ZM14.8456 31.1535L18.2666 19.1125V19.0395L22.3828 17.1383L20.6494 25.8784L14.8456 31.1535ZM20.7912 26.3343L22.4559 29.772V32.5076L18.9023 34.2994H16.4189L14.8456 31.7553L20.7912 26.3343ZM22.3325 9.48784L17.7589 12.0638L19.3505 3.08207L22.3325 9.48784ZM22.4559 9.87082V16.2538L18.0013 12.3967L20.2378 11.1429C21.6144 10.3769 22.209 10.0304 22.4605 9.87538H22.4559V9.87082ZM2.29117 17.8359L8.51577 16.6003L11.3102 23.6444L2.29117 17.8359ZM4.78375 35.3024L4.49105 35.7903L0.832208 30.114L11.2965 24.3009L4.78375 35.3024ZM22.4468 26.1839V28.7325L21.2485 26.1793H22.4468V26.1839ZM25.3098 34.2812H22.9041V33.0684L25.3098 34.2812ZM22.9041 28.7234V26.1793H24.1207L22.9041 28.7234ZM22.9041 32.5578V29.7766L24.5369 26.3663L30.4322 31.7052L28.8315 34.2994H26.3617L22.9041 32.5578ZM24.2488 25.7188H22.9041V19.0395L24.2488 25.7188ZM36.4053 16.5046L33.6428 23.3799L31.1411 16.9514L37.7087 13.304L36.4098 16.4954V16.5046H36.4053ZM29.9383 17.1885L27.4182 18.5562L27.5417 17.1885H29.9383ZM30.7752 17.1885H30.8072L33.2404 23.4392L27.5463 18.9666L30.7752 17.1885ZM37.1782 13.117L30.6014 16.7872H27.56L27.9305 12.6839L37.1782 13.117ZM27.0706 18.6109L23.0779 16.6869L27.5097 12.8024L27.1392 16.8602L27.0706 18.6109ZM24.7839 25.9468L23.0185 17.1474L27.0295 19.0897L30.3499 30.9894L24.7839 25.9468ZM33.9859 23.6672L36.8397 16.6003L43.2015 17.8222L33.9859 23.6672ZM41.5002 17.079L36.9724 16.1991L38.2255 13.1125L39.0854 10.1353L42.9454 15.3921L41.5002 17.079ZM37.9145 12.7432L30.4322 12.4149L28.6028 12.3237L39.4512 7.39514L37.9145 12.7432ZM27.7521 11.503L26.1468 2.51672L30.4368 0.615502L27.7521 11.503ZM22.9636 9.50608L25.8221 3.08207L27.4182 12.0182L22.9636 9.50608ZM22.9179 16.2401V9.94377L27.2902 12.4012L22.9179 16.2401ZM33.3776 24.114L30.7752 31.0669L27.5737 19.5046L33.3776 24.114ZM33.5605 24.962L34.992 39.4696L31.0451 31.6869L33.5605 24.962ZM34.7405 23.6444L43.4577 18.1733L41.6008 22.4407L34.7405 23.6444ZM34.3243 24.1231L41.6054 22.8237L44.1163 29.5258L34.3243 24.1231ZM34.0499 24.4331L44.3678 30.1277L40.7638 35.7994L34.0499 24.4331ZM28.1957 12.0547L33.5971 5.07447L39.314 7.0076L28.1957 12.0547ZM19.0486 2.52128L17.4433 11.4711L14.7678 0.629179L19.0486 2.52128ZM5.98202 6.88906L11.6441 5.02432L16.9814 11.9681L5.98202 6.88906ZM10.798 24.1231L1.0929 29.5258L3.59006 22.8283L10.798 24.1231ZM10.6333 23.6672L3.63122 22.4225L1.99846 18.1277L10.6333 23.6672ZM10.1028 41.0152L10.144 40.5821L14.1778 32.6535L12.943 43.3951L10.1028 41.0152ZM19.131 34.7143H22.4605V40.8784H20.3064L17.6354 37.6413L19.131 34.7143ZM22.9179 40.8602V34.7325H26.1194L27.6744 37.7508L25.0857 40.8784L22.9179 40.8602ZM11.9414 4.73252L14.3882 0.802432L16.9768 11.2888L11.9414 4.73252ZM32.3348 43.3951L31.0954 32.7173L35.1247 40.6459L35.1658 41.038L32.3348 43.3951ZM7.34037 51.1459V57.8936H10.0479V59.7994H5.07646V51.1368L7.34037 51.1459ZM17.1826 57.2827H12.8378C12.8378 57.6383 12.9658 57.9802 13.1991 58.2492C13.4369 58.4544 13.7479 58.5547 14.0589 58.5319C14.2922 58.5319 14.5254 58.4772 14.7358 58.3769C14.8913 58.2857 15.0194 58.1489 15.1017 57.9894H17.0957C16.9723 58.4453 16.7299 58.8556 16.3914 59.1839C15.7465 59.7629 14.8913 60.0547 14.0223 59.9863C13.135 60.0274 12.2661 59.7082 11.6121 59.1064C11.0404 58.5182 10.7294 57.7249 10.7522 56.9088C10.7339 56.0745 11.0587 55.2675 11.6441 54.6748C12.2935 54.0866 13.1533 53.7812 14.0269 53.8313C14.8456 53.7994 15.6505 54.0821 16.2679 54.6201C16.8991 55.272 17.2329 56.1565 17.1826 57.0638V57.2827ZM15.2663 56.0881C15.2114 55.8556 15.0925 55.6413 14.9279 55.4681C14.6946 55.2538 14.3836 55.1444 14.0681 55.1535C13.7525 55.1353 13.4461 55.2492 13.2219 55.4681C13.0573 55.6368 12.9475 55.8556 12.9109 56.0881H15.2663ZM24.2396 59.038C22.7441 60.3146 20.5396 60.3146 19.0441 59.038C17.8595 57.8799 17.8412 55.9878 19.0029 54.807C19.0166 54.7933 19.0304 54.7796 19.0441 54.766C19.7438 54.1185 20.6768 53.772 21.6327 53.804C22.5931 53.772 23.5307 54.1185 24.2396 54.766C24.8296 55.3176 25.1635 56.0882 25.1543 56.8951C25.1589 57.7067 24.825 58.4818 24.2305 59.038H24.2396ZM20.6997 55.9696C20.1692 56.4711 20.1509 57.31 20.654 57.8389C20.9055 58.0988 21.2531 58.2492 21.6144 58.2492C21.9574 58.2447 22.2867 58.1033 22.5291 57.8617C22.7807 57.6246 22.927 57.2964 22.9316 56.9499C22.9316 56.2204 22.337 55.6277 21.6053 55.6231C21.2714 55.6277 20.9512 55.7508 20.6997 55.9696ZM28.4061 50.3617V54.579C28.8498 54.0912 29.4809 53.8176 30.1395 53.8267C30.8987 53.8131 31.6396 54.0912 32.1976 54.6064C32.8104 55.2082 33.1535 56.0289 33.1489 56.886C33.1718 57.7477 32.8379 58.5821 32.2342 59.1976C31.6899 59.731 30.9536 60.0228 30.1898 60C29.5038 60.0228 28.8498 59.7128 28.429 59.1702V59.804H26.3252V50.3389L28.4061 50.3617ZM30.606 57.8663C30.8575 57.6292 31.0039 57.3009 31.013 56.9544C31.013 56.5851 30.8667 56.234 30.606 55.9696C30.3636 55.7234 30.0343 55.5866 29.6913 55.5912C29.3346 55.5866 28.987 55.728 28.74 55.9833C28.5067 56.2432 28.3695 56.5714 28.3512 56.9179C28.3604 57.2964 28.525 57.652 28.8086 57.9027C29.0601 58.1261 29.3849 58.2492 29.7233 58.2538C30.0617 58.2356 30.3773 58.0897 30.606 57.8435V57.8663ZM35.3854 50.4392C36.0348 50.4392 36.5608 50.959 36.5653 51.6064C36.5699 52.2538 36.0439 52.7781 35.3945 52.7827C34.7451 52.7827 34.2191 52.2629 34.2145 51.6155C34.2145 51.6155 34.2145 51.6109 34.2145 51.6064C34.2008 50.9635 34.7085 50.4301 35.3533 50.4164C35.3625 50.4164 35.3762 50.4164 35.3854 50.4164V50.4392ZM36.4281 54.0228V59.7994H34.3426V54L36.4281 54.0228ZM40.151 55.7234V59.8268H38.07V55.7234H37.4023V54.0228H38.07V52.1125H40.151V54.0228H41.3355V55.7234H40.151Z" fill="white"/>
</g>
<defs>
<clipPath id="clip0_1284_3148">
<rect width="44.4" height="60" fill="white" transform="translate(0.416016)"/>
</clipPath>
</defs>
</svg>
