<svg width="115" height="60" viewBox="0 0 115 60" fill="none" xmlns="http://www.w3.org/2000/svg">
<g clip-path="url(#clip0_923_682)">
<path d="M10.9805 8.20403L13.6772 7.10303L13.9996 7.89224L13.0909 8.26249L15.0451 13.0075L14.1755 13.368L12.2213 8.623L11.3127 8.99325L10.9902 8.20403H10.9805Z" fill="#E62143"/>
<path d="M21.6994 10.6786L20.7907 10.9709L20.3022 9.98684L19.1981 10.3376L19.374 11.4191L18.5532 11.6822L17.625 5.69973L18.9343 5.28076L21.6896 10.6786H21.6994ZM19.0711 9.52889L19.9309 9.25608L18.5728 6.51818L19.0711 9.53864V9.52889Z" fill="#E62143"/>
<path d="M24.6593 3.61498C25.5484 3.39088 26.1444 3.80985 26.3692 4.73547L26.418 4.9206L25.5484 5.13495L25.4898 4.89137C25.3823 4.4724 25.1771 4.35548 24.8938 4.43343C24.6104 4.51137 24.4737 4.70624 24.5811 5.11546C24.884 6.31391 26.7209 6.08981 27.1411 7.74619C27.3756 8.67181 27.0434 9.32462 26.1444 9.54872C25.2455 9.77282 24.6495 9.35385 24.415 8.42823L24.3271 8.06772L25.1967 7.85337L25.3042 8.27233C25.4116 8.6913 25.6266 8.78873 25.9197 8.72053C26.2128 8.65233 26.3594 8.45746 26.2519 8.03849C25.949 6.84005 24.1121 7.06415 23.692 5.40777C23.4575 4.48214 23.7897 3.82933 24.6788 3.61498H24.6593Z" fill="#E62143"/>
<path d="M29.5059 2.58225L32.3687 2.03662L32.525 2.87456L31.5577 3.05968L32.5152 8.09703L31.587 8.27241L30.6295 3.23506L29.6622 3.42019L29.5059 2.58225Z" fill="#E62143"/>
<path d="M37.2546 3.82923L38.5345 3.65385L38.6518 4.50153L37.3718 4.67691L37.6063 6.41124L39.2185 6.18714L39.3357 7.03482L36.7856 7.38558L35.9746 1.45184L38.5248 1.10107L38.642 1.94875L37.0298 2.17285L37.2546 3.82923Z" fill="#E62143"/>
<path d="M46.4189 1.78308C46.3603 0.828229 46.839 0.253367 47.7575 0.194907C48.6857 0.136446 49.2231 0.652848 49.2719 1.6077L49.4576 4.71586C49.5162 5.67071 49.0472 6.24557 48.119 6.30403C47.1908 6.36249 46.6534 5.84609 46.6045 4.89124L46.4189 1.78308ZM47.5523 4.89124C47.5816 5.31995 47.777 5.4661 48.0799 5.44661C48.3828 5.42713 48.5587 5.25174 48.5293 4.83278L48.3339 1.6077C48.3046 1.17899 48.1092 1.03284 47.8063 1.05233C47.5034 1.07181 47.3275 1.2472 47.3569 1.66616L47.5523 4.89124Z" fill="#E62143"/>
<path d="M53.8833 2.68923L55.1047 2.66974V3.52716L53.9029 3.54665L53.942 6.02148L52.9942 6.04097L52.8867 0.0585049L55.3782 0.0195312L55.3978 0.876953L53.8442 0.906183L53.8736 2.70872L53.8833 2.68923Z" fill="#E62143"/>
<path d="M62.9899 1.559C63.0387 0.604145 63.5761 0.0877437 64.4946 0.136461C65.4228 0.185178 65.8918 0.76004 65.8429 1.7149L65.6768 4.82305C65.6573 5.15432 65.5889 5.43688 65.4521 5.65124C65.4912 5.76816 65.5596 5.78765 65.7061 5.79739H65.7941L65.755 6.63532H65.628C65.2078 6.60609 64.9538 6.44046 64.8365 6.17738C64.6411 6.23584 64.4164 6.26507 64.1721 6.25533C63.2439 6.20661 62.7749 5.63175 62.8238 4.6769L62.9899 1.56874V1.559ZM63.7618 4.77433C63.7422 5.20304 63.9181 5.36868 64.221 5.38817C64.5239 5.40765 64.7193 5.25176 64.7388 4.82305L64.9049 1.59797C64.9245 1.16926 64.7486 1.00363 64.4457 0.984139C64.1428 0.964652 63.9474 1.12055 63.9279 1.54926L63.7618 4.77433Z" fill="#E62143"/>
<path d="M70.5534 0.642867L70.1039 5.23202C70.0648 5.66073 70.2309 5.82637 70.5338 5.8556C70.8367 5.88483 71.0321 5.74842 71.081 5.32945L71.5304 0.740301L72.4196 0.827992L71.9701 5.35868C71.8724 6.31354 71.3448 6.81045 70.4264 6.72276C69.5079 6.63507 69.078 6.04072 69.1757 5.08587L69.6252 0.555176L70.5631 0.642867H70.5534Z" fill="#E62143"/>
<path d="M78.3396 7.64883L77.4016 7.51242V6.41142L76.2584 6.24578L75.936 7.29807L75.0762 7.1714L76.9033 1.39355L78.2712 1.59817L78.3494 7.65858L78.3396 7.64883ZM76.4929 5.45656L77.3918 5.59297V2.53354L76.4929 5.46631V5.45656Z" fill="#E62143"/>
<path d="M82.7955 2.35791L83.7237 2.54304L82.7076 7.57064L84.2318 7.87269L84.0657 8.71062L81.623 8.22345L82.8053 2.35791H82.7955Z" fill="#E62143"/>
<path d="M88.7742 3.68311L89.6926 3.91695L88.2173 9.71428L87.3086 9.48044L88.784 3.68311H88.7742Z" fill="#E62143"/>
<path d="M93.2505 4.89111L96.0253 5.75828L95.7713 6.57673L94.8333 6.28442L93.2895 11.1756L92.3906 10.8931L93.9344 6.00186L92.9964 5.70956L93.2505 4.89111Z" fill="#E62143"/>
<path d="M99.0336 11.1077L99.4342 6.95703L100.353 7.32728L100.001 10.1236L101.691 7.86317L102.522 8.19445L99.9129 11.4585L99.1704 13.3L98.3008 12.9492L99.0434 11.1077H99.0336Z" fill="#E62143"/>
<path d="M57.0291 58.9286C26.1732 58.8702 1.21885 48.1427 1.28725 34.9696C1.34587 21.7965 26.398 11.1664 57.2538 11.2248C88.1097 11.2833 113.064 22.0206 113.025 35.1937C112.927 48.3765 87.8948 58.9969 57.0291 58.9286Z" fill="#E62143"/>
<path d="M57.313 60.0002C57.2153 60.0002 57.1176 60.0002 57.0199 60.0002C34.3617 59.9515 13.9214 54.1152 4.96163 45.1123C1.79592 41.9262 0.193526 38.516 0.213067 34.9596C0.271691 21.0363 25.187 10.1626 56.9808 10.1626C57.0688 10.1626 57.1665 10.1626 57.2544 10.1626C72.3208 10.1918 86.4884 12.7349 97.1482 17.3143C108.101 22.0203 114.11 28.3731 114.091 35.1934C113.993 49.1265 89.0776 59.9905 57.313 59.9905V60.0002ZM56.9808 12.2964C26.8871 12.2964 2.4017 22.4491 2.35285 34.9694C2.33331 37.9314 3.73052 40.8349 6.48586 43.602C15.0645 52.2152 34.9088 57.8177 57.0297 57.8567H57.313C87.3775 57.8567 111.873 47.704 111.961 35.174C111.98 29.2597 106.421 23.6085 96.3079 19.263C85.9021 14.7907 72.0375 12.3159 57.2544 12.2867H56.9906L56.9808 12.2964Z" fill="#E62143"/>
<path d="M57.0291 58.9286C26.1732 58.8702 1.21885 48.1427 1.28725 34.9696C1.34587 21.7965 26.398 11.1664 57.2538 11.2248C88.1097 11.2833 113.064 22.0206 113.025 35.1937C112.927 48.3765 87.8948 58.9969 57.0291 58.9286Z" fill="white"/>
<path d="M10.7165 34.9207C10.7165 35.8073 9.99349 36.5283 9.10435 36.5283C8.21522 36.5283 7.49219 35.8073 7.49219 34.9207C7.49219 34.034 8.21522 33.313 9.10435 33.313C9.99349 33.313 10.7165 34.034 10.7165 34.9207Z" fill="#E62143"/>
<path d="M106.822 34.9207C106.822 35.8073 106.099 36.5283 105.21 36.5283C104.321 36.5283 103.598 35.8073 103.598 34.9207C103.598 34.034 104.321 33.313 105.21 33.313C106.099 33.313 106.822 34.034 106.822 34.9207Z" fill="#E62143"/>
<path d="M24.2006 20.3735C21.6406 21.1725 20.3607 21.6109 17.8398 22.5658V47.5967C21.8947 49.1361 23.9563 49.7987 28.1089 50.9289V44.5859C26.5358 44.3326 25.7541 44.1962 24.1908 43.9039V20.3735H24.2006Z" fill="#E62143"/>
<path d="M38.4458 43.6703C38.4458 45.4826 38.3871 46.6226 38.2699 47.0903C38.1527 47.558 37.8791 47.7723 37.4687 47.7139C37.1072 47.6651 36.8629 47.4216 36.7457 46.9734C36.6284 46.5252 36.5698 45.5216 36.5698 43.9724V17.2852C33.9415 17.7821 32.642 18.0744 30.043 18.7272V38.0776C30.043 41.7704 30.0918 44.1965 30.1993 45.3657C30.3068 46.5349 30.639 47.6944 31.2057 48.8636C31.7724 50.0328 32.6322 51.0851 33.7754 52.0107C34.9283 52.9363 36.2474 53.5697 37.7618 53.8522C39.1297 54.1055 40.312 53.9984 41.3184 53.5209C42.3247 53.0435 43.1455 52.2251 43.761 51.0656C44.3766 49.9061 44.7479 48.7369 44.8749 47.5775C45.0019 46.418 45.0605 44.3914 45.0605 41.4976V15.999C42.4127 16.2913 41.0936 16.4862 38.4555 16.9344V43.6703H38.4458Z" fill="#E62143"/>
<path d="M63.5473 15.4532C61.0558 15.3266 59.8051 15.2876 57.3038 15.2973C56.1216 21.4454 55.5256 24.5341 54.3433 30.6822V15.346C51.6857 15.424 50.3471 15.5019 47.6992 15.7358V54.4172C50.3568 54.651 51.6857 54.729 54.3433 54.8069V37.8923C55.4181 44.664 55.9555 48.0645 57.04 54.8556C59.7953 54.8751 61.1632 54.8361 63.9186 54.6802C62.2478 46.1742 61.4075 41.8287 59.7367 33.157C61.261 26.0248 62.0231 22.4587 63.5473 15.4435V15.4532Z" fill="#E62143"/>
<path d="M68.4236 15.814C67.2805 28.7435 66.1568 41.6828 65.0332 54.622C67.7788 54.4369 69.1467 54.3102 71.8825 53.9595C72.0388 51.2216 72.117 49.8575 72.2831 47.1391C73.2308 47.0611 73.6998 47.0124 74.6476 46.9247C74.7941 49.5652 74.8625 50.8903 74.9993 53.521C77.696 53.102 79.0346 52.8487 81.7118 52.2641C80.4123 40.5623 79.1616 28.8604 77.9598 17.1488C74.159 16.457 72.2538 16.1842 68.4139 15.8237L68.4236 15.814ZM72.2049 40.4648C72.3808 37.1228 72.8009 31.8321 73.4751 24.7389C73.8073 30.9942 74.1493 36.1972 74.4815 40.3771C73.5728 40.4161 73.1136 40.4356 72.2049 40.4648Z" fill="#E62143"/>
<path d="M97.4217 41.1951C97.4217 38.7398 97.0602 37.0054 96.3274 35.885C95.5946 34.7645 93.8261 33.2835 90.973 31.0132C89.9764 30.224 89.3706 29.5322 89.1557 28.9964C88.9407 28.4605 88.8235 27.6615 88.8235 26.6384C88.8235 25.8395 88.9212 25.2646 89.1264 24.9139C89.3218 24.5631 89.6149 24.4267 90.0057 24.5144C90.3575 24.5923 90.6115 24.7872 90.7678 25.099C90.9242 25.4108 90.9926 26.0733 90.9926 27.0964C90.9926 27.9733 90.9926 28.402 90.9926 29.2789C93.3766 29.5712 94.5589 29.7271 96.8941 30.0779C96.8941 29.6784 96.8941 29.4738 96.8941 29.0743C96.8941 28.5579 96.8843 28.0707 96.855 27.6225C96.8354 26.921 96.7475 26.2585 96.6107 25.6349C96.5814 25.4887 96.3176 24.5826 96.3078 24.5631C93.8261 17.4699 83.6743 16.5053 83.0099 23.1113C82.834 24.1344 82.7461 25.4108 82.7461 26.96C82.7461 28.7625 82.922 30.2533 83.2639 31.4225C83.6059 32.5917 84.0456 33.4978 84.5732 34.1409C85.1008 34.7839 86.1658 35.8362 87.778 37.1126C89.3804 38.389 90.3868 39.188 90.7874 39.6849C91.188 40.1818 91.3834 41.2828 91.3834 42.9977C91.3834 43.7771 91.2759 44.391 91.0707 44.8294C90.8655 45.2679 90.5431 45.5407 90.123 45.6381C89.7028 45.7355 89.3999 45.6381 89.2338 45.3361C89.0677 45.0438 88.9798 44.3228 88.9798 43.173C88.9798 41.6823 88.9798 40.932 88.9798 39.4413C86.586 39.6362 85.3842 39.7239 82.9611 39.8895C82.9611 40.7761 82.9611 41.2146 82.9611 42.1013C82.9611 44.6345 83.1565 46.5637 83.5375 47.8694C83.7427 48.5611 84.0651 49.1457 84.5146 49.6232C84.5928 49.7109 85.0422 50.1103 85.1985 50.2175C88.5987 52.7021 94.6077 50.1396 96.6498 45.7161C96.7182 45.5894 97.0406 44.693 97.1188 44.3228C97.1579 44.1669 97.3533 42.9684 97.3533 42.9684C97.3826 42.6859 97.4022 42.3936 97.4119 42.072C97.4119 42.072 97.4412 41.3802 97.4412 41.2049L97.4217 41.1951Z" fill="#E62143"/>
</g>
<defs>
<clipPath id="clip0_923_682">
<rect width="113.878" height="60" fill="white" transform="translate(0.212891)"/>
</clipPath>
</defs>
</svg>
