<svg width="120" height="32" viewBox="0 0 120 32" fill="none" xmlns="http://www.w3.org/2000/svg">
<path d="M54.017 12.4088L58.1306 6.26791C58.1366 6.25918 58.1445 6.25205 58.1537 6.2471C58.1628 6.24216 58.173 6.23954 58.1833 6.23945H64.0394C64.0516 6.23914 64.0636 6.24235 64.074 6.24871C64.0845 6.25508 64.0931 6.26435 64.0988 6.27549C64.1045 6.28663 64.1071 6.29919 64.1063 6.31178C64.1055 6.32436 64.1013 6.33646 64.0943 6.34673L59.0904 13.764C59.0825 13.7755 59.0783 13.7893 59.0783 13.8034C59.0783 13.8175 59.0825 13.8313 59.0904 13.8428L65.1047 22.7226C65.1118 22.7328 65.116 22.7449 65.1168 22.7575C65.1176 22.7701 65.115 22.7827 65.1093 22.7938C65.1036 22.8049 65.095 22.8142 65.0845 22.8206C65.074 22.8269 65.062 22.8301 65.0499 22.8298L59.1706 22.8189C59.1603 22.8188 59.1501 22.8162 59.1409 22.8112C59.1318 22.8063 59.1239 22.7991 59.1179 22.7904L54.017 15.2089C54.0089 15.1974 53.9975 15.1889 53.9844 15.1845C53.9714 15.1801 53.9573 15.1801 53.9442 15.1845C53.9312 15.1888 53.9197 15.1973 53.9116 15.2088C53.9035 15.2203 53.899 15.2341 53.8989 15.2484V22.7554C53.8989 22.7734 53.892 22.7907 53.8797 22.8034C53.8674 22.8161 53.8508 22.8233 53.8334 22.8233H48.7431C48.7258 22.8233 48.7092 22.8161 48.6969 22.8034C48.6846 22.7907 48.6777 22.7734 48.6777 22.7554V0.0678672C48.6777 0.0498676 48.6846 0.0326041 48.6969 0.0198764C48.7092 0.00714878 48.7258 0 48.7431 0H53.8334C53.8508 0 53.8674 0.00714878 53.8797 0.0198764C53.892 0.0326041 53.8989 0.0498676 53.8989 0.0678672V12.3694C53.899 12.3837 53.9035 12.3975 53.9116 12.409C53.9197 12.4205 53.9312 12.429 53.9442 12.4333C53.9573 12.4377 53.9714 12.4377 53.9844 12.4333C53.9975 12.4289 54.0089 12.4203 54.017 12.4088Z" fill="white"/>
<path d="M96.6703 11.3952V22.7576C96.6703 22.775 96.6637 22.7917 96.6518 22.804C96.6399 22.8163 96.6238 22.8233 96.607 22.8233H91.5125C91.4957 22.8233 91.4796 22.8163 91.4678 22.804C91.4559 22.7917 91.4492 22.775 91.4492 22.7576V0.0656758C91.4492 0.0482568 91.4559 0.0315521 91.4678 0.0192351C91.4796 0.00691795 91.4957 0 91.5125 0H96.607C96.6238 0 96.6399 0.00691795 96.6518 0.0192351C96.6637 0.0315521 96.6703 0.0482568 96.6703 0.0656758V6.17378C96.6703 6.1912 96.677 6.2079 96.6889 6.22022C96.7007 6.23253 96.7168 6.23945 96.7336 6.23945H102.391C102.402 6.23947 102.413 6.24229 102.422 6.24767C102.431 6.25305 102.439 6.2608 102.445 6.27021C102.451 6.27961 102.454 6.29035 102.455 6.30144C102.455 6.31252 102.453 6.32358 102.448 6.33359L100.208 11.2923C100.203 11.3034 100.195 11.3128 100.185 11.3194C100.175 11.326 100.163 11.3295 100.151 11.3295H96.7336C96.7168 11.3295 96.7007 11.3364 96.6889 11.3488C96.677 11.3611 96.6703 11.3778 96.6703 11.3952Z" fill="white"/>
<path d="M29.143 18.9396C25.8458 25.26 15.9246 24.6558 13.8066 17.4049C12.3004 12.2469 14.9774 6.74966 20.3356 5.87833C27.5798 4.70268 32.5984 12.3192 29.143 18.9396ZM19.1142 17.175C19.785 19.014 21.7786 19.6796 23.2953 18.6834C25.8437 17.0086 25.6032 9.97885 21.8672 9.93287C18.3337 9.88909 18.2493 14.8084 19.1142 17.175Z" fill="white"/>
<path d="M5.2823 11.1827L8.59639 6.26772C8.60238 6.25899 8.61029 6.25185 8.61946 6.24691C8.62863 6.24196 8.63879 6.23934 8.64912 6.23926H14.4862C14.4982 6.23935 14.5099 6.24286 14.5201 6.24939C14.5303 6.25591 14.5385 6.26521 14.544 6.27628C14.5494 6.28734 14.5518 6.29975 14.551 6.31214C14.5501 6.32452 14.5459 6.33642 14.539 6.34653L9.87898 13.2712C9.87298 13.28 9.86507 13.2871 9.85591 13.292C9.84674 13.297 9.83657 13.2996 9.82624 13.2997H5.27386C5.25651 13.2997 5.23987 13.3068 5.22761 13.3196C5.21534 13.3323 5.20845 13.3496 5.20845 13.3676L5.16204 22.7552C5.16204 22.7732 5.15515 22.7905 5.14289 22.8032C5.13062 22.8159 5.11401 22.8231 5.09666 22.8231H0.0654082C0.0480641 22.8231 0.031423 22.8159 0.0191589 22.8032C0.00689484 22.7905 0 22.7732 0 22.7552V6.30713C0 6.28913 0.00689484 6.27186 0.0191589 6.25913C0.031423 6.24641 0.0480641 6.23926 0.0654082 6.23926H5.11353C5.13087 6.23926 5.14751 6.24641 5.15978 6.25913C5.17204 6.27186 5.17894 6.28913 5.17894 6.30713L5.16204 11.1432C5.16151 11.1581 5.16569 11.1727 5.17394 11.1849C5.18219 11.197 5.19405 11.206 5.2077 11.2105C5.22135 11.215 5.23605 11.2147 5.24952 11.2096C5.263 11.2046 5.27452 11.1951 5.2823 11.1827Z" fill="white"/>
<path d="M32.1172 10.3245V6.31369C32.1172 6.29395 32.1248 6.27502 32.1383 6.26106C32.1517 6.2471 32.1699 6.23926 32.189 6.23926H45.6014C45.6205 6.23926 45.6387 6.2471 45.6521 6.26106C45.6656 6.27502 45.6732 6.29395 45.6732 6.31369L45.6816 10.342C45.6821 10.3614 45.6753 10.3802 45.6626 10.3945L38.2412 18.5452C38.2318 18.5559 38.2256 18.5691 38.2233 18.5834C38.221 18.5976 38.2228 18.6122 38.2284 18.6255C38.234 18.6387 38.2431 18.65 38.2548 18.6579C38.2664 18.6658 38.2801 18.67 38.294 18.67L46.2322 18.659C46.2416 18.659 46.2509 18.661 46.2596 18.6647C46.2683 18.6685 46.2762 18.6739 46.2829 18.6809C46.2896 18.6878 46.2949 18.696 46.2985 18.705C46.3021 18.714 46.3039 18.7237 46.3039 18.7335V22.7486C46.3039 22.7584 46.3021 22.7681 46.2985 22.7771C46.2949 22.7861 46.2896 22.7943 46.2829 22.8013C46.2762 22.8082 46.2683 22.8137 46.2596 22.8174C46.2509 22.8211 46.2416 22.8231 46.2322 22.8231H31.5561C31.5371 22.8231 31.5188 22.8152 31.5054 22.8013C31.4919 22.7873 31.4844 22.7684 31.4844 22.7486V18.5999C31.4844 18.5802 31.492 18.5613 31.5055 18.5474L39.3129 10.5259C39.3229 10.5155 39.3297 10.5022 39.3324 10.4878C39.3352 10.4734 39.3338 10.4584 39.3284 10.4449C39.3229 10.4313 39.3138 10.4197 39.302 10.4115C39.2903 10.4033 39.2764 10.3989 39.2623 10.3989H32.189C32.1699 10.3989 32.1517 10.3911 32.1383 10.3771C32.1248 10.3631 32.1172 10.3442 32.1172 10.3245Z" fill="white"/>
<path d="M73.3778 17.0494L76.2615 6.29788C76.2662 6.28074 76.2761 6.26565 76.2899 6.25497C76.3036 6.24428 76.3203 6.23859 76.3375 6.23877H81.4932C81.5056 6.23877 81.5179 6.24185 81.5289 6.24775C81.5399 6.25365 81.5495 6.2622 81.5567 6.27269C81.5639 6.28319 81.5686 6.29532 81.5704 6.30808C81.5722 6.32084 81.5711 6.33385 81.567 6.34605L76.2742 22.7679C76.2689 22.7838 76.259 22.7977 76.2457 22.8075C76.2325 22.8173 76.2166 22.8226 76.2003 22.8226H70.2894C70.2731 22.8226 70.2573 22.8173 70.2441 22.8075C70.2308 22.7977 70.2209 22.7838 70.2156 22.7679L64.9417 6.34605C64.9377 6.33385 64.9365 6.32084 64.9383 6.30808C64.9401 6.29532 64.9448 6.28319 64.952 6.27269C64.9593 6.2622 64.9688 6.25365 64.9798 6.24775C64.9909 6.24185 65.0031 6.23877 65.0155 6.23877H70.3021C70.3189 6.23907 70.3351 6.24498 70.3484 6.25563C70.3617 6.26628 70.3714 6.28109 70.3759 6.29788L73.228 17.0494C73.2328 17.0662 73.2426 17.081 73.2561 17.0915C73.2696 17.102 73.286 17.1076 73.3029 17.1076C73.3198 17.1076 73.3362 17.102 73.3497 17.0915C73.3632 17.081 73.373 17.0662 73.3778 17.0494Z" fill="white"/>
<path d="M88.6654 6.23877H83.6278C83.5777 6.23877 83.5371 6.28092 83.5371 6.33291V22.7262C83.5371 22.7782 83.5777 22.8204 83.6278 22.8204H88.6654C88.7155 22.8204 88.7561 22.7782 88.7561 22.7262V6.33291C88.7561 6.28092 88.7155 6.23877 88.6654 6.23877Z" fill="white"/>
<path d="M23.2961 18.6841C21.7793 19.6803 19.7858 19.0147 19.115 17.1756C18.2501 14.8088 18.3345 9.88912 21.8679 9.93291C25.6039 9.97889 25.8444 17.0092 23.2961 18.6841Z" fill="black"/>
<path d="M103.872 22.8476L105.15 18.815C105.159 18.7845 105.177 18.7575 105.2 18.737C105.224 18.7164 105.252 18.7032 105.283 18.6989L108.257 18.2786C108.284 18.2748 108.309 18.2642 108.331 18.2478C108.353 18.2314 108.37 18.2096 108.382 18.1844L109.679 15.4041C109.692 15.3758 109.713 15.3521 109.739 15.3354C109.765 15.3188 109.794 15.3099 109.825 15.3099L113.915 15.2661C113.946 15.2657 113.976 15.2744 114.002 15.2911C114.028 15.3077 114.049 15.3317 114.063 15.3603L115.392 18.1976C115.404 18.2223 115.421 18.2436 115.443 18.2597C115.465 18.2757 115.49 18.286 115.516 18.2895L118.482 18.7011C118.512 18.7052 118.541 18.7181 118.564 18.7382C118.588 18.7584 118.605 18.785 118.615 18.815L119.896 22.8542C119.905 22.8845 119.906 22.9171 119.899 22.9481C119.892 22.9791 119.876 23.0073 119.853 23.0293L117.674 25.2033C117.654 25.2226 117.64 25.2467 117.631 25.2735C117.623 25.3003 117.621 25.3288 117.626 25.3565L118.162 28.4587C118.167 28.49 118.164 28.5223 118.152 28.5517C118.14 28.5812 118.121 28.6066 118.096 28.6251L114.814 31.0968C114.789 31.1154 114.759 31.1263 114.729 31.1282C114.698 31.1302 114.668 31.1231 114.641 31.1078L111.953 29.6147C111.93 29.6015 111.903 29.5945 111.876 29.5945C111.849 29.5945 111.823 29.6015 111.799 29.6147L109.122 31.1143C109.095 31.1293 109.064 31.1361 109.034 31.1337C109.003 31.1314 108.974 31.1201 108.949 31.1012L105.663 28.6207C105.638 28.6018 105.618 28.5759 105.607 28.546C105.596 28.5162 105.593 28.4836 105.599 28.4522L106.15 25.35C106.155 25.3224 106.153 25.294 106.145 25.2672C106.137 25.2405 106.123 25.2162 106.103 25.1967L103.914 23.0227C103.891 23.0007 103.876 22.9725 103.868 22.9415C103.861 22.9105 103.862 22.8779 103.872 22.8476Z" fill="#80C342"/>
</svg>
