<svg width="108" height="30" viewBox="0 0 108 30" fill="none" xmlns="http://www.w3.org/2000/svg">
<g clip-path="url(#clip0_923_779)">
<path d="M0 25.4358V24.4111C0.669889 20.7066 2.84196 17.2381 5.19672 14.3729C5.24674 14.3121 5.27408 14.2358 5.27408 14.1572C5.27408 14.0785 5.24674 14.0023 5.19672 13.9414C2.84196 11.083 0.652973 7.58077 0 3.86279V2.84818C1.08265 -3.9035 11.6453 3.33358 13.9256 5.26504C13.9831 5.31395 14.0563 5.34081 14.132 5.34081C14.2076 5.34081 14.2808 5.31395 14.3383 5.26504C16.8318 3.17852 21.0169 0.39425 24.3495 0.117845C29.0387 -0.269795 28.6936 3.96054 27.4046 6.95043C26.3016 9.50549 24.8581 11.8291 23.074 13.9212C23.0215 13.9827 22.9923 14.0607 22.9917 14.1414C22.9911 14.2221 23.019 14.3005 23.0706 14.3628C24.9348 16.6044 31.089 25.3381 26.8294 27.7785C23.4563 29.7134 16.7608 25.0145 14.2741 23.0257C14.235 22.9941 14.1863 22.9765 14.1359 22.9759C14.0856 22.9753 14.0365 22.9916 13.9966 23.0223C11.4761 24.9909 8.77285 26.7841 5.82939 27.7886C3.41711 28.6145 0.504109 28.5707 0 25.4358ZM12.738 6.39425C11.5302 5.40998 0.818754 -2.17766 1.67811 4.04818C2.07057 6.89313 4.51668 10.5066 6.29967 12.6841C6.38538 12.7875 6.47109 12.7886 6.5568 12.6875C8.45594 10.4785 10.5175 8.43133 12.7414 6.54594C12.7525 6.53652 12.7614 6.52476 12.7674 6.5115C12.7734 6.49824 12.7763 6.48382 12.776 6.46929C12.7756 6.45476 12.7721 6.44049 12.7655 6.4275C12.759 6.41452 12.7496 6.40316 12.738 6.39425ZM24.5254 1.70549C21.3011 2.25829 18.0735 4.36167 15.5597 6.37403C15.546 6.38484 15.5349 6.39854 15.5272 6.41414C15.5194 6.42974 15.5153 6.44685 15.5149 6.46424C15.5146 6.48164 15.5182 6.49889 15.5253 6.51476C15.5325 6.53063 15.5431 6.54473 15.5563 6.55605C17.8006 8.45942 19.8756 10.5302 21.7816 12.7684C21.8267 12.8201 21.8695 12.8201 21.9101 12.7684C23.6514 10.6695 25.0464 8.36167 26.0952 5.84481C26.7482 4.27403 27.3674 1.22009 24.5254 1.70549ZM19.9614 13.1325C18.3543 11.3223 16.3446 9.27964 14.2808 7.60773C14.1883 7.53358 14.097 7.53358 14.0068 7.60773C11.9588 9.31335 10.0585 11.1673 8.30595 13.1695C8.22024 13.2662 8.2428 13.3145 8.37362 13.3145H19.8802C20.0426 13.3145 20.0696 13.2538 19.9614 13.1325ZM8.23152 15.0504C9.94684 17.0426 11.9058 18.8898 14.0034 20.71C14.0407 20.7439 14.0893 20.7629 14.1398 20.7635C14.1903 20.7642 14.2393 20.7463 14.2774 20.7134C16.3277 18.9673 18.2505 17.0909 20.0459 15.0841C20.1452 14.9718 20.1192 14.9156 19.9681 14.9156H8.2958C8.17626 14.9156 8.15483 14.9605 8.23152 15.0504ZM26.6501 24.6875C26.2475 21.4785 23.9299 18.0673 21.9507 15.5594C21.8943 15.4875 21.8357 15.4864 21.7748 15.556C19.8711 17.7808 17.8039 19.8426 15.5732 21.7414C15.5604 21.7522 15.5501 21.7656 15.5431 21.7808C15.536 21.7959 15.5323 21.8124 15.5323 21.8291C15.5323 21.8458 15.536 21.8623 15.5431 21.8774C15.5501 21.8925 15.5604 21.906 15.5732 21.9167C17.7205 23.7055 20.1091 25.1212 22.739 26.1639C24.248 26.7605 26.9647 27.1987 26.6501 24.6875ZM12.7448 21.7583C10.5006 19.8707 8.43001 17.81 6.53311 15.5763C6.52017 15.5616 6.50416 15.5498 6.4862 15.5419C6.46825 15.534 6.44878 15.53 6.42914 15.5304C6.4095 15.5307 6.39017 15.5352 6.37249 15.5438C6.3548 15.5523 6.33919 15.5645 6.32673 15.5796C4.61028 17.6898 3.2299 20.0122 2.1856 22.5471C1.57999 24.0235 0.896569 26.7841 3.46786 26.5954C6.61093 26.3628 10.3528 23.8414 12.7448 21.91C12.7559 21.901 12.7647 21.8897 12.7708 21.8768C12.7769 21.8639 12.7801 21.8498 12.7801 21.8353C12.7801 21.8209 12.7769 21.8065 12.7708 21.7932C12.7647 21.7799 12.7559 21.768 12.7448 21.7583Z" fill="white"/>
<path d="M40.2813 4.37912C41.4891 4.61845 42.7172 5.12406 42.8593 6.42856C43.1875 9.42856 38.1633 9.17912 38.1329 6.63081C38.1306 6.49597 38.1972 6.42856 38.3325 6.42856H38.9178C39.0644 6.42856 39.1501 6.49934 39.1749 6.64092C39.4726 8.28586 42.4432 7.83418 41.7327 6.37125C41.0459 4.94878 38.3359 5.92968 38.3257 3.47575C38.3156 0.735299 42.7443 0.957771 42.8898 3.45889C42.8965 3.578 42.8413 3.63867 42.724 3.64092L42.0439 3.65103C41.9312 3.65328 41.8669 3.59934 41.8511 3.48923C41.7406 2.69373 41.2094 2.3544 40.2576 2.47125C38.9212 2.63642 39.1885 4.16339 40.2813 4.37912Z" fill="white"/>
<path d="M72.212 6.85658C72.4522 5.30939 69.1095 5.83861 68.7204 3.83636C68.1791 1.03861 72.6383 0.597033 73.2879 3.36782C73.3307 3.54984 73.2574 3.64198 73.068 3.64422L72.4894 3.65097C72.3383 3.65321 72.2481 3.58018 72.2188 3.43186C71.8973 1.88804 69.3328 2.24872 69.7963 3.65434C70.2091 4.90153 72.7533 4.23748 73.1762 6.13186C73.9172 9.45209 68.5479 9.28355 68.5039 6.59366C68.5039 6.4858 68.558 6.43186 68.6663 6.43186L69.343 6.42849C69.4557 6.42849 69.5189 6.48467 69.5324 6.59703C69.6914 7.92512 72.0191 8.09366 72.212 6.85658Z" fill="white"/>
<path d="M81.2828 4.5746V8.451C81.2828 8.50718 81.2546 8.53527 81.1982 8.53527L80.5216 8.5319C80.4991 8.5319 80.4776 8.52338 80.4618 8.5082C80.4459 8.49303 80.437 8.47246 80.437 8.451V4.57797C80.437 4.46785 80.3817 4.41167 80.2712 4.40943L79.74 4.39594C79.6205 4.3937 79.5641 4.33415 79.5709 4.21729L79.5979 3.72179C79.6024 3.61392 79.6599 3.55999 79.7705 3.55999L80.261 3.56673C80.3716 3.56673 80.4291 3.51168 80.4336 3.40156C80.4742 2.19145 80.8159 1.3892 82.3045 1.64538C82.4173 1.66336 82.4737 1.72965 82.4737 1.84426L82.4669 2.29932C82.4647 2.42516 82.4015 2.48134 82.2775 2.46785C81.6211 2.39033 81.2151 2.84875 81.2693 3.47909C81.2805 3.59145 81.3437 3.64763 81.4587 3.64763H82.1252C82.238 3.64538 82.2955 3.70044 82.2978 3.8128L82.3045 4.23415C82.3045 4.34875 82.247 4.40606 82.132 4.40606L81.452 4.40269C81.3392 4.40269 81.2828 4.45999 81.2828 4.5746Z" fill="white"/>
<path d="M45.5097 2.16924L45.0838 1.74498C45.0138 1.67521 44.9003 1.67521 44.8302 1.74498L44.3566 2.21691C44.2865 2.28668 44.2865 2.3998 44.3566 2.46956L44.7824 2.89383C44.8524 2.9636 44.966 2.9636 45.036 2.89383L45.5097 2.42189C45.5797 2.35213 45.5797 2.23901 45.5097 2.16924Z" fill="white"/>
<path d="M84.0743 3.31369V2.47099C84.0734 2.40485 84.0993 2.34105 84.1463 2.29364C84.1932 2.24623 84.2574 2.21909 84.3247 2.21819L84.7442 2.20807C84.8593 2.20583 84.9168 2.26201 84.9168 2.37661L84.9202 3.31369C84.9224 3.4283 84.9799 3.48448 85.0927 3.48223L85.678 3.47212C85.8539 3.46987 85.9397 3.55526 85.9351 3.7283L85.9284 4.12605C85.9261 4.26762 85.8528 4.33616 85.7085 4.33167L85.1096 4.31481C85.0014 4.31032 84.9438 4.36201 84.9371 4.46987C84.8931 5.36313 84.4939 7.88785 85.996 7.68223C86.0682 7.67324 86.1043 7.70583 86.1043 7.77998L86.1009 8.4474C86.1009 8.48111 86.0851 8.50133 86.0536 8.50807C84.7093 8.71706 84.0439 8.19459 84.0574 6.94066C84.0687 5.76088 84.0755 4.94403 84.0777 4.4901C84.08 4.36875 84.0202 4.31032 83.8984 4.31481L83.4112 4.33504C83.3885 4.3364 83.3657 4.33307 83.3442 4.32525C83.3227 4.31743 83.303 4.30529 83.2863 4.28955C83.2695 4.2738 83.2561 4.25479 83.2467 4.23365C83.2374 4.2125 83.2323 4.18966 83.2319 4.1665L83.2285 3.64066C83.2285 3.52605 83.2872 3.46987 83.4044 3.47212L83.9018 3.4856C84.0168 3.48785 84.0743 3.43054 84.0743 3.31369Z" fill="white"/>
<path d="M104.135 6.59037C104.131 7.44655 104.906 7.91846 105.701 7.63194C105.803 7.59374 105.885 7.53082 105.948 7.44318C106.196 7.09037 106.549 6.98812 107.007 7.13644C107.115 7.17239 107.149 7.2443 107.109 7.35217C106.822 8.07576 106.308 8.46902 105.566 8.53194C104.188 8.65105 103.398 8.00723 103.198 6.60048C103.069 5.68812 103.203 4.91959 103.6 4.29487C104.331 3.14543 106.002 3.0679 106.77 4.21397C107.12 4.73532 107.241 5.42857 107.132 6.29374C107.121 6.38363 107.07 6.42857 106.98 6.42857H104.297C104.189 6.42857 104.135 6.48251 104.135 6.59037ZM104.402 5.70048L106.073 5.66678C106.096 5.66634 106.119 5.66137 106.14 5.65215C106.162 5.64294 106.181 5.62965 106.197 5.61306C106.213 5.59647 106.225 5.5769 106.234 5.55546C106.242 5.53403 106.246 5.51114 106.246 5.48812V5.45442C106.239 5.14703 106.132 4.85433 105.947 4.64067C105.761 4.42702 105.514 4.30991 105.258 4.31509H105.163C105.037 4.31759 104.912 4.3501 104.796 4.41076C104.68 4.47142 104.575 4.55904 104.488 4.66862C104.401 4.77819 104.332 4.90756 104.287 5.04933C104.241 5.19111 104.219 5.34251 104.223 5.49487V5.52857C104.223 5.55159 104.228 5.5743 104.237 5.5954C104.247 5.6165 104.26 5.63557 104.277 5.65154C104.293 5.6675 104.313 5.68004 104.334 5.68844C104.356 5.69684 104.379 5.70093 104.402 5.70048Z" fill="white"/>
<path d="M49.9913 8.11697C45.8197 10.2642 46.1953 1.55068 49.8763 3.7754C49.9755 3.83383 50.0725 3.83046 50.1673 3.76529C50.3838 3.61697 50.6398 3.58327 50.9353 3.66416C51.0368 3.69113 51.0875 3.7563 51.0875 3.85967C51.0875 5.35293 51.3819 8.40349 50.7999 9.56304C50.1097 10.9282 47.5892 10.881 47.1223 9.13495C47.1198 9.12419 47.1197 9.113 47.1221 9.10221C47.1245 9.09141 47.1292 9.08128 47.136 9.07256C47.1428 9.06383 47.1515 9.05674 47.1614 9.05178C47.1714 9.04683 47.1823 9.04415 47.1934 9.04394L47.9647 9.0372C48.0392 9.0372 48.0922 9.07203 48.1238 9.14169C48.6651 10.372 50.2383 9.50911 50.147 8.20461C50.1379 8.09675 50.0861 8.06754 49.9913 8.11697ZM50.1703 5.40403C50.1737 5.26817 50.1501 5.13299 50.101 5.00621C50.0519 4.87942 49.9782 4.76351 49.8842 4.6651C49.7901 4.56669 49.6775 4.4877 49.5528 4.43264C49.4281 4.37759 49.2937 4.34754 49.1574 4.34422L48.9883 4.34011C48.8519 4.33679 48.7162 4.36026 48.589 4.40918C48.4617 4.4581 48.3454 4.53152 48.2466 4.62524C48.1478 4.71895 48.0685 4.83114 48.0133 4.95538C47.958 5.07963 47.9278 5.2135 47.9245 5.34936L47.8974 6.45464C47.8941 6.59049 47.9176 6.72567 47.9667 6.85246C48.0158 6.97924 48.0895 7.09515 48.1836 7.19356C48.2776 7.29198 48.3902 7.37097 48.5149 7.42602C48.6396 7.48108 48.774 7.51113 48.9104 7.51445L49.0795 7.51856C49.2158 7.52188 49.3515 7.49841 49.4788 7.44949C49.606 7.40056 49.7224 7.32715 49.8211 7.23343C49.9199 7.13971 49.9992 7.02753 50.0545 6.90328C50.1097 6.77904 50.1399 6.64517 50.1432 6.50931L50.1703 5.40403Z" fill="white"/>
<path d="M63.2329 8.2048C63.0908 8.35311 62.907 8.44862 62.6815 8.49132C59.7617 9.06435 59.8057 5.06323 63.1653 5.4239C63.5171 5.4621 63.6311 5.31491 63.507 4.98233L63.4393 4.80367C63.3536 4.57671 63.1946 4.42952 62.9623 4.3621C62.3691 4.19581 61.9563 4.3666 61.724 4.87446C61.6631 5.00929 61.5582 5.07783 61.4094 5.08008H61.2165C61.1225 5.08074 61.0304 5.05308 60.9524 5.00074C60.8744 4.9484 60.8141 4.87381 60.7794 4.78674C60.7446 4.69968 60.7371 4.60419 60.7577 4.51278C60.7784 4.42137 60.8263 4.3383 60.8951 4.27446C61.7702 3.47671 62.6815 3.28457 63.6288 3.69806C64.7385 4.18008 64.3359 7.10929 64.4881 8.27896C64.4994 8.37559 64.4577 8.43514 64.363 8.45761C63.9998 8.54075 63.71 8.45873 63.4935 8.21154C63.4078 8.11491 63.3209 8.11266 63.2329 8.2048ZM61.9101 6.49581C61.7905 6.53836 61.6866 6.61576 61.6117 6.71796C61.5369 6.82016 61.4947 6.94242 61.4906 7.06884C61.4567 8.2857 63.4326 7.89806 63.5408 6.5666C63.5498 6.44525 63.4946 6.37671 63.375 6.36098C62.8676 6.28682 62.3792 6.33176 61.9101 6.49581Z" fill="white"/>
<path d="M78.4777 6.84023C78.4692 7.32112 78.2694 7.77897 77.9221 8.11307C77.5749 8.44717 77.1086 8.63015 76.626 8.62176L76.308 8.61623C75.8253 8.60783 75.3657 8.40875 75.0304 8.06278C74.6951 7.71681 74.5114 7.25228 74.5198 6.7714L74.546 5.27497C74.5545 4.79408 74.7543 4.33622 75.1015 4.00212C75.4488 3.66802 75.9151 3.48504 76.3977 3.49344L76.7157 3.49897C77.1984 3.50736 77.658 3.70644 77.9933 4.05241C78.3286 4.39839 78.5123 4.86291 78.5039 5.3438L78.4777 6.84023ZM77.6095 5.3141C77.6072 5.18221 77.5789 5.05206 77.5261 4.93109C77.4733 4.81012 77.3971 4.70069 77.3018 4.60905C77.2066 4.51742 77.0942 4.44537 76.971 4.39702C76.8478 4.34867 76.7163 4.32497 76.5839 4.32727L76.4282 4.33C76.1609 4.33466 75.9064 4.44493 75.7206 4.63656C75.5349 4.8282 75.4331 5.08549 75.4378 5.35186L75.4615 6.70671C75.4639 6.8386 75.4922 6.96875 75.545 7.08972C75.5978 7.2107 75.674 7.32012 75.7692 7.41176C75.8645 7.5034 75.9769 7.57544 76.1001 7.62379C76.2233 7.67214 76.3548 7.69584 76.4872 7.69354L76.6428 7.69081C76.9102 7.68616 77.1647 7.57589 77.3505 7.38425C77.5362 7.19262 77.6379 6.93532 77.6333 6.66896L77.6095 5.3141Z" fill="white"/>
<path d="M97.062 8.18466C94.5279 10.0723 92.5385 5.18803 97.0112 5.4105C97.0493 5.41231 97.0874 5.40576 97.1226 5.39132C97.1579 5.37688 97.1896 5.3549 97.2154 5.32693C97.2412 5.29896 97.2605 5.26568 97.272 5.22945C97.2835 5.19322 97.2869 5.15491 97.2819 5.11724L97.265 4.99252C97.2266 4.70039 97.0676 4.50488 96.7879 4.40601C96.1947 4.20151 95.7673 4.33073 95.5057 4.79365C95.3952 4.98691 95.2294 5.08241 95.0083 5.08016H94.8392C94.5324 5.07567 94.4433 4.93522 94.5719 4.65882C95.3297 3.02398 98.1649 2.93971 98.1006 5.10039C98.0713 6.15432 98.1243 7.20488 98.2597 8.25207C98.2709 8.34646 98.2315 8.40713 98.1412 8.4341C97.7804 8.54196 97.4939 8.4678 97.2819 8.21162C97.2165 8.13297 97.1432 8.12398 97.062 8.18466ZM95.3061 7.30151C95.7763 8.37679 97.2887 7.56443 97.2853 6.56331C97.2856 6.51225 97.2669 6.4628 97.2326 6.4243C97.1983 6.3858 97.1508 6.36091 97.0992 6.35432C96.5985 6.29814 96.1192 6.34758 95.6613 6.50264C95.5832 6.52894 95.5114 6.57112 95.4505 6.62649C95.3896 6.68187 95.341 6.74924 95.3076 6.82434C95.2742 6.89944 95.2568 6.98063 95.2565 7.06277C95.2563 7.14491 95.2731 7.2262 95.3061 7.30151Z" fill="white"/>
<path d="M53.7813 3.88008C54.6114 3.34749 55.3805 3.42053 56.0887 4.09918C56.1835 4.19131 56.2748 4.18682 56.3628 4.0857C56.5996 3.80704 56.8443 3.64525 57.097 3.6003C58.4525 3.35985 59.1292 3.90817 59.1269 5.24525C59.1247 6.33289 59.1247 7.37671 59.1269 8.37671C59.1269 8.41872 59.1102 8.45902 59.0804 8.48873C59.0505 8.51844 59.0101 8.53513 58.9679 8.53513L58.3657 8.5385C58.2507 8.5385 58.1931 8.48232 58.1931 8.36997V5.18457C58.1933 5.07824 58.1717 4.97298 58.1298 4.8752C58.0879 4.77741 58.0264 4.68912 57.9493 4.61568C57.8721 4.54225 57.7807 4.48519 57.6807 4.44797C57.5808 4.41076 57.4742 4.39416 57.3676 4.39918L57.1071 4.41266C56.9018 4.42134 56.7078 4.50886 56.5654 4.65703C56.423 4.80519 56.3431 5.00259 56.3425 5.20817L56.329 8.36659C56.329 8.41072 56.3116 8.45308 56.2806 8.48459C56.2496 8.51611 56.2075 8.53425 56.1632 8.53513L55.6658 8.5385C55.5553 8.54075 55.5 8.48682 55.5 8.37671L55.4595 5.24187C55.4527 4.64412 55.1493 4.36435 54.5493 4.40255L54.2855 4.4194C54.0853 4.4314 53.8973 4.5186 53.7596 4.66326C53.622 4.80791 53.5451 4.99915 53.5445 5.19805L53.5378 8.45423C53.5378 8.47569 53.5288 8.49627 53.513 8.51144C53.4971 8.52661 53.4756 8.53513 53.4532 8.53513L52.7799 8.53176C52.7575 8.53176 52.7359 8.52324 52.7201 8.50807C52.7042 8.4929 52.6953 8.47232 52.6953 8.45086V3.89019C52.6953 3.78457 52.7449 3.71379 52.8442 3.67783C53.1645 3.56772 53.4182 3.62614 53.6054 3.85311C53.655 3.91378 53.7137 3.92277 53.7813 3.88008Z" fill="white"/>
<path d="M101.086 3.79934C101.386 3.57462 101.731 3.49934 102.121 3.5735C102.263 3.60046 102.336 3.68473 102.341 3.82631L102.358 4.21395C102.364 4.3735 102.289 4.43979 102.131 4.41282C100.131 4.06563 100.747 7.29485 100.734 8.39372C100.731 8.49035 100.682 8.53867 100.585 8.53867L99.8912 8.53193C99.8348 8.53193 99.8066 8.50496 99.8066 8.45103V3.90721C99.8066 3.80384 99.8585 3.74653 99.9623 3.7353C100.235 3.70833 100.498 3.74428 100.751 3.84316C100.87 3.89035 100.982 3.87575 101.086 3.79934Z" fill="white"/>
<path d="M45.207 3.64718L44.6115 3.64822C44.5424 3.64834 44.4864 3.70428 44.4865 3.77316L44.4947 8.41135C44.4948 8.48023 44.5509 8.53597 44.6201 8.53585L45.2155 8.53482C45.2847 8.5347 45.3406 8.47876 45.3405 8.40988L45.3324 3.77169C45.3322 3.70281 45.2761 3.64706 45.207 3.64718Z" fill="white"/>
<path d="M88.9297 6.60023L89.8297 3.82607C89.868 3.70922 89.9492 3.64966 90.0733 3.64742L90.4285 3.64068C90.5819 3.63843 90.68 3.71034 90.7229 3.85641L91.4706 6.49236C91.5653 6.82045 91.651 6.8182 91.7277 6.48562L92.3401 3.80584C92.3649 3.70023 92.4314 3.64629 92.5397 3.64405H93.196C93.3088 3.64405 93.3517 3.69798 93.3246 3.80584L92.1201 8.38337C92.0931 8.4845 92.0265 8.53506 91.9205 8.53506H91.457C91.3533 8.53506 91.2856 8.48562 91.254 8.38674L90.3541 5.41371C90.3477 5.39507 90.3356 5.37889 90.3195 5.36743C90.3035 5.35597 90.2842 5.34981 90.2644 5.34981C90.2447 5.34981 90.2254 5.35597 90.2093 5.36743C90.1932 5.37889 90.1811 5.39507 90.1748 5.41371C89.9289 6.2654 89.665 7.13843 89.3831 8.03281C89.25 8.45753 88.9872 8.62495 88.5948 8.53506C88.4955 8.51259 88.4324 8.45191 88.4053 8.35304L87.123 3.7418C87.1205 3.73104 87.1204 3.71985 87.1228 3.70905C87.1252 3.69826 87.13 3.68813 87.1368 3.6794C87.1436 3.67068 87.1523 3.66358 87.1622 3.65863C87.1721 3.65368 87.183 3.651 87.1941 3.65079L87.9858 3.64742C88.0489 3.64742 88.0884 3.67888 88.1042 3.7418L88.7741 6.59348C88.8192 6.7845 88.8711 6.78674 88.9297 6.60023Z" fill="white"/>
<path d="M58.0434 15.4886C58.7048 15.4886 59.2411 14.9543 59.2411 14.2953C59.2411 13.6363 58.7048 13.1021 58.0434 13.1021C57.3819 13.1021 56.8457 13.6363 56.8457 14.2953C56.8457 14.9543 57.3819 15.4886 58.0434 15.4886Z" fill="#D40000"/>
<path d="M91.2739 15.4886C91.9353 15.4886 92.4715 14.9543 92.4715 14.2953C92.4715 13.6363 91.9353 13.1021 91.2739 13.1021C90.6124 13.1021 90.0762 13.6363 90.0762 14.2953C90.0762 14.9543 90.6124 15.4886 91.2739 15.4886Z" fill="#D40000"/>
<path d="M43.3564 26.4405C41.4821 26.845 39.1307 26.3091 38.3729 24.3776C38.1902 23.9102 38.092 23.0079 38.0785 21.6709C38.0492 18.8844 38.0469 16.1181 38.0717 13.372C38.074 13.2776 38.1214 13.2304 38.2138 13.2304H40.0713C40.1412 13.2304 40.1761 13.2664 40.1761 13.3383C40.1739 16.4102 40.175 19.5192 40.1795 22.6653C40.1863 25.3383 43.7996 25.6922 44.1447 23.2079C44.5778 20.0664 44.3274 16.5709 44.3207 13.3956C44.3207 13.3518 44.3381 13.3098 44.3692 13.2788C44.4003 13.2478 44.4425 13.2304 44.4864 13.2304L46.1882 13.2271C46.2313 13.2271 46.2726 13.2437 46.3031 13.2735C46.3335 13.3032 46.3506 13.3435 46.3506 13.3855C46.3529 16.4079 46.3506 19.4742 46.3439 22.5844C46.3405 24.6035 45.3762 26.0057 43.3564 26.4405Z" fill="#D40000"/>
<path d="M96.8557 18.3643C96.8287 20.0541 96.832 21.7418 96.8659 23.4272C96.8817 24.135 97.1444 24.6047 97.6542 24.8362C97.7737 24.8923 97.8966 24.8991 98.023 24.8564C98.2778 24.7665 98.5417 24.7429 98.8146 24.7856C98.9116 24.8013 98.9601 24.8575 98.9601 24.9541V26.0227C98.9601 26.1171 98.9139 26.1744 98.8214 26.1946C97.1659 26.5429 96.0133 26.1508 95.3637 25.0182C94.5314 23.5654 94.907 20.2216 94.9002 18.3777C94.9002 18.2609 94.8415 18.2025 94.7243 18.2025H93.8446C93.6461 18.2025 93.5469 18.1047 93.5469 17.9092V16.898C93.5469 16.7002 93.645 16.6013 93.8412 16.6013H94.731C94.8438 16.6013 94.9002 16.5452 94.9002 16.4328V14.1575C94.9002 14.1352 94.9091 14.1137 94.925 14.0979C94.9408 14.0821 94.9623 14.0732 94.9848 14.0732H96.761C96.7834 14.0732 96.8049 14.0821 96.8208 14.0979C96.8367 14.1137 96.8456 14.1352 96.8456 14.1575V16.4328C96.8456 16.5452 96.902 16.6013 97.0147 16.6013H98.4526C98.5632 16.6013 98.6195 16.6575 98.6218 16.7699L98.6252 18.0339C98.6252 18.1463 98.5677 18.2025 98.4526 18.2025H97.0215C96.9132 18.2025 96.858 18.2564 96.8557 18.3643Z" fill="#D40000"/>
<path d="M50.0411 17.5213C51.2794 16.2808 53.7898 15.9168 54.7777 17.71C55.2085 18.4898 55.4127 19.328 55.3901 20.2246C55.345 22.2291 55.3191 24.1887 55.3123 26.1033C55.3123 26.1707 55.2785 26.2044 55.2108 26.2044L53.4718 26.2078C53.4041 26.2078 53.3703 26.1741 53.3703 26.1066C53.3703 24.0168 53.3703 21.8875 53.3703 19.719C53.3703 17.0965 49.8855 17.9359 49.8956 20.5078C49.9047 22.4089 49.9058 24.2786 49.899 26.1168C49.899 26.14 49.8898 26.1623 49.8733 26.1787C49.8568 26.1952 49.8344 26.2044 49.8111 26.2044L48.0416 26.2078C48.0192 26.2078 47.9977 26.1989 47.9818 26.1831C47.9659 26.1673 47.957 26.1459 47.957 26.1235V16.9381C47.957 16.7696 48.0416 16.6853 48.2108 16.6853H49.6554C49.8291 16.6853 49.9126 16.7718 49.9058 16.9449L49.8855 17.4538C49.8787 17.6089 49.9306 17.6314 50.0411 17.5213Z" fill="#D40000"/>
<path d="M70.6456 22.4023C70.6354 23.6225 71.2275 25.4259 72.8075 24.6674C73.1898 24.4821 73.3928 24.0843 73.5044 23.7236C73.5653 23.5259 73.6984 23.427 73.9037 23.427H75.2536C75.4701 23.427 75.5412 23.5281 75.4667 23.7304C74.0018 27.6944 69.0926 26.9461 68.6325 22.9281C68.3179 20.1776 68.575 16.3483 72.3372 16.4865C75.3449 16.5978 75.8423 19.6753 75.6833 22.0922C75.6765 22.1955 75.6224 22.2472 75.5209 22.2472H70.8046C70.6986 22.2472 70.6456 22.2989 70.6456 22.4023ZM70.7403 20.6461H73.6093C73.6362 20.6461 73.6621 20.6354 73.6811 20.6165C73.7001 20.5975 73.7108 20.5718 73.7108 20.545V20.4776C73.7108 19.8285 73.5558 19.2061 73.2798 18.7471C73.0038 18.2882 72.6294 18.0304 72.2391 18.0304H72.1105C71.7202 18.0304 71.3459 18.2882 71.0699 18.7471C70.7939 19.2061 70.6388 19.8285 70.6388 20.4776V20.545C70.6388 20.5718 70.6495 20.5975 70.6685 20.6165C70.6876 20.6354 70.7134 20.6461 70.7403 20.6461Z" fill="#D40000"/>
<path d="M79.26 17.4269C79.8419 16.6021 80.6359 16.3325 81.6418 16.6179C81.7997 16.6628 81.8786 16.7673 81.8786 16.9314L81.8685 17.9358C81.8683 17.9604 81.8624 17.9846 81.8514 18.0066C81.8404 18.0285 81.8245 18.0477 81.8049 18.0626C81.7854 18.0776 81.7626 18.0879 81.7385 18.0928C81.7143 18.0977 81.6894 18.097 81.6655 18.0909C80.6302 17.819 79.8859 18.092 79.4325 18.91C79.198 19.3347 79.0807 20.0111 79.0807 20.9392C79.0852 22.6471 79.0863 24.3212 79.0841 25.9617C79.0841 26.0037 79.0669 26.044 79.0365 26.0737C79.006 26.1034 78.9647 26.1201 78.9217 26.1201L77.3078 26.1235C77.1951 26.1235 77.1387 26.0673 77.1387 25.9549V16.8538C77.1387 16.6853 77.2233 16.601 77.3924 16.601H78.8371C79.0108 16.601 79.0942 16.6875 79.0874 16.8606L79.0739 17.3662C79.0671 17.5931 79.1292 17.6134 79.26 17.4269Z" fill="#D40000"/>
<path d="M84.5995 18.8054C83.73 20.9088 89.7793 19.9447 88.9234 24.3672C88.3854 27.1548 82.2482 27.3908 82.2109 23.3425C82.2109 23.3311 82.2132 23.3199 82.2177 23.3094C82.2221 23.299 82.2287 23.2895 82.2369 23.2817C82.2451 23.2738 82.2548 23.2677 82.2655 23.2636C82.2762 23.2596 82.2875 23.2578 82.2989 23.2582L83.7909 23.2616C83.814 23.2627 83.8359 23.2713 83.8531 23.286C83.8703 23.3007 83.8818 23.3206 83.8857 23.3425C84.0616 24.3739 84.6559 24.8695 85.6687 24.829C87.4043 24.7616 87.3062 22.9515 85.9427 22.4796C84.674 22.0414 83.2192 21.6537 82.7759 20.3863C81.2332 15.9773 88.717 14.9391 88.9504 19.3346C88.9572 19.4784 88.8895 19.5504 88.7474 19.5504H87.3874C87.2475 19.5504 87.1844 19.4807 87.1979 19.3414C87.3332 18.0571 85.1612 17.4537 84.5995 18.8054Z" fill="#D40000"/>
<path d="M59.0019 16.6855H57.2155C57.1483 16.6855 57.0938 16.7399 57.0938 16.8069V26.0833C57.0938 26.1503 57.1483 26.2046 57.2155 26.2046H59.0019C59.0692 26.2046 59.1237 26.1503 59.1237 26.0833V16.8069C59.1237 16.7399 59.0692 16.6855 59.0019 16.6855Z" fill="#D40000"/>
<path d="M64.3119 22.8945L66.1152 16.7563C66.1218 16.7347 66.1353 16.7157 66.1536 16.7024C66.1719 16.689 66.194 16.6819 66.2167 16.6821L68.0504 16.6922C68.067 16.6924 68.0833 16.6965 68.098 16.7042C68.1127 16.7119 68.1253 16.7229 68.1349 16.7364C68.1445 16.7499 68.1507 16.7654 68.1531 16.7818C68.1555 16.7981 68.1539 16.8148 68.1486 16.8304L64.8769 26.1338C64.8699 26.1543 64.8567 26.1721 64.8392 26.1848C64.8216 26.1974 64.8005 26.2044 64.7788 26.2046L63.6454 26.208C63.6237 26.2077 63.6026 26.2008 63.5851 26.1881C63.5675 26.1754 63.5543 26.1577 63.5473 26.1372L60.2791 16.8271C60.2736 16.8112 60.2721 16.7942 60.2746 16.7776C60.2772 16.761 60.2837 16.7452 60.2937 16.7316C60.3036 16.7181 60.3167 16.7071 60.3319 16.6997C60.347 16.6922 60.3637 16.6885 60.3806 16.6889L62.1399 16.6821C62.1626 16.6819 62.1847 16.689 62.203 16.7024C62.2213 16.7157 62.2348 16.7347 62.2414 16.7563L64.1123 22.8979C64.1195 22.9188 64.1331 22.9369 64.1513 22.9496C64.1694 22.9623 64.1912 22.969 64.2134 22.9686C64.2355 22.9682 64.257 22.9608 64.2747 22.9475C64.2925 22.9342 64.3055 22.9156 64.3119 22.8945Z" fill="#D40000"/>
<path d="M92.2252 16.6821H90.4727C90.3961 16.6821 90.334 16.744 90.334 16.8203V26.0698C90.334 26.1461 90.3961 26.208 90.4727 26.208H92.2252C92.3018 26.208 92.364 26.1461 92.364 26.0698V16.8203C92.364 16.744 92.3018 16.6821 92.2252 16.6821Z" fill="#D40000"/>
<path d="M101.562 30.0002H99.874C99.777 29.5238 99.7635 29.0452 99.8334 28.5643C99.8514 28.4519 99.9157 28.407 100.026 28.4294C101.552 28.7463 102.026 27.28 102.327 26.1508C102.356 26.0385 102.352 25.9216 102.317 25.8137L99.2988 16.7901C99.295 16.7784 99.294 16.7659 99.2958 16.7537C99.2975 16.7416 99.3021 16.7301 99.309 16.7202C99.316 16.7103 99.3251 16.7023 99.3357 16.6969C99.3463 16.6914 99.358 16.6887 99.3699 16.689H101.325C101.375 16.689 101.405 16.7126 101.417 16.7598L103.119 23.0025C103.168 23.1867 103.218 23.1879 103.267 23.0058L104.959 16.844C104.973 16.7946 105.005 16.7699 105.057 16.7699L107.009 16.7733C107.02 16.7733 107.03 16.7757 107.039 16.7803C107.048 16.7849 107.055 16.7916 107.061 16.7999C107.067 16.8081 107.071 16.8176 107.073 16.8276C107.074 16.8377 107.073 16.8479 107.07 16.8575C105.205 22.6845 103.962 26.4957 103.342 28.2912C103.042 29.1631 102.449 29.7328 101.562 30.0002Z" fill="#D40000"/>
</g>
<defs>
<clipPath id="clip0_923_779">
<rect width="107.25" height="30" fill="white"/>
</clipPath>
</defs>
</svg>
