<svg width="136" height="23" viewBox="0 0 136 23" fill="none" xmlns="http://www.w3.org/2000/svg">
<path d="M7.16388 13.4523C5.2612 12.7096 3.61728 12.0672 3.61728 10.5875C3.61728 8.87519 5.17536 8.26599 6.63322 8.26599C9.15551 8.26599 10.4943 9.65988 10.5081 9.67366L10.6366 9.81092L11.7655 7.9169L11.696 7.83917C11.6308 7.76584 10.0671 6.0542 6.69587 6.0542C4.01132 6.0542 1.12379 7.4719 1.12379 10.5862C1.12379 13.5307 3.78203 14.5836 6.12765 15.5131C8.03408 16.2677 9.67991 16.9202 9.67991 18.3886C9.67991 20.0357 8.14935 20.7728 6.63322 20.7728C3.76573 20.7728 2.01843 18.9113 2.00089 18.8925L1.88562 18.7678L0.544922 20.5434L0.621338 20.6299C0.642012 20.6543 1.15262 21.2309 2.14812 21.8126C3.06344 22.3478 4.57893 22.9852 6.60064 22.9852C9.83025 22.9852 12.174 21.0517 12.174 18.3892C12.174 15.4072 9.51262 14.368 7.16388 13.4517" fill="white"/>
<path d="M29.3374 14.4417C29.3374 17.9929 26.6811 20.775 23.2911 20.775C19.9011 20.775 17.2447 17.9929 17.2447 14.4417C17.2447 10.8906 19.9011 8.29767 23.2911 8.29767C26.6811 8.29767 29.3374 10.9965 29.3374 14.4417ZM23.2911 6.05518C18.5015 6.05518 14.75 9.73921 14.75 14.4417C14.75 19.1442 18.5015 22.9862 23.2911 22.9862C28.0807 22.9862 31.8321 19.2332 31.8321 14.4417C31.8321 9.65022 28.0807 6.05518 23.2911 6.05518Z" fill="white"/>
<path d="M42.3945 0.0651844C42.3782 0.0626774 41.9967 0 41.3933 0C39.7012 0 35.7655 0.588527 35.7655 6.04125V6.65671H33.6016V8.73815H35.7655V22.6188H38.1932V8.73815H42.261V6.65671H38.1932V6.04125C38.1932 4.60975 38.638 2.20867 41.6145 2.20867C42.0349 2.20867 42.3406 2.26758 42.3437 2.2682L42.5135 2.30205V0.0846173L42.3951 0.0651844H42.3945Z" fill="white"/>
<path d="M53.8587 20.6482L53.6833 20.6864C53.6796 20.6871 53.4001 20.7473 52.9747 20.7473C51.671 20.7473 49.4845 20.2101 49.4845 16.6126V8.78322H53.5373V6.6598H49.4845V1.99365H47.0399V6.6598H44.8848V8.78322H47.0073V16.8376C47.0073 22.1988 50.6247 22.9998 52.7805 22.9998C53.3669 22.9998 53.7253 22.9352 53.7397 22.9333L53.8587 22.912V20.6482Z" fill="white"/>
<path d="M58.7971 17.8002C58.7971 17.8002 60.572 19.5758 63.2033 19.5758C64.3442 19.5758 65.3259 19.0681 65.3259 18.1173C65.3259 15.7081 57.4665 16.0246 57.4665 10.8245C57.4665 7.81233 60.161 6.06934 63.6469 6.06934C67.1327 6.06934 69.0661 7.9076 69.0661 7.9076L67.5769 10.8884C67.5769 10.8884 66.0871 9.49326 63.6149 9.49326C62.5693 9.49326 61.555 9.937 61.555 10.9517C61.555 13.235 69.4144 12.9492 69.4144 18.1487C69.4144 20.8443 67.07 22.9997 63.2346 22.9997C59.21 22.9997 56.959 20.6218 56.959 20.6218L58.7971 17.8002Z" fill="white"/>
<path d="M83.368 12.537C83.3047 10.3491 81.9415 9.17515 80.1672 9.17515C78.1073 9.17515 76.6808 10.4437 76.3005 12.537H83.3674H83.368ZM80.2624 6.06899C84.9217 6.06899 87.4252 9.46159 87.4252 13.7417C87.4252 14.2167 87.3306 15.2947 87.3306 15.2947H76.1739C76.4277 18.117 78.6148 19.5754 81.0237 19.5754C83.6224 19.5754 85.6823 17.7992 85.6823 17.7992L87.236 20.6848C87.236 20.6848 84.7626 22.9994 80.738 22.9994C75.3827 22.9994 72.0547 19.1317 72.0547 14.5339C72.0547 9.55621 75.4459 6.06836 80.2631 6.06836" fill="white"/>
<path d="M91.4766 6.44941H95.3427V9.2397C95.3427 9.84201 95.2788 10.381 95.2788 10.381H95.3427C96.0719 8.06642 98.0059 6.22754 100.477 6.22754C100.858 6.22754 101.206 6.29084 101.206 6.29084V10.2538C101.206 10.2538 100.794 10.1911 100.255 10.1911C98.5435 10.1911 96.6101 11.1732 95.8495 13.5831C95.5964 14.3759 95.5012 15.264 95.5012 16.2148V22.6196H91.4766V6.45002V6.44941Z" fill="white"/>
<path d="M102.959 6.44922H107.205L110.565 16.4678C110.882 17.4192 111.104 18.4941 111.136 18.4941H111.199C111.231 18.4941 111.452 17.4192 111.769 16.4678L115.129 6.44922H119.376L113.576 22.6187H108.822L102.96 6.44922H102.959Z" fill="white"/>
<path d="M131.687 12.537C131.624 10.3491 130.261 9.17515 128.487 9.17515C126.426 9.17515 125 10.4437 124.621 12.537H131.687ZM128.581 6.06899C133.241 6.06899 135.744 9.46159 135.744 13.7417C135.744 14.2167 135.649 15.2947 135.649 15.2947H124.493C124.747 18.117 126.933 19.5754 129.343 19.5754C131.941 19.5754 134.002 17.7992 134.002 17.7992L135.554 20.6848C135.554 20.6848 133.083 22.9994 129.058 22.9994C123.701 22.9994 120.373 19.1317 120.373 14.5339C120.373 9.55621 123.764 6.06836 128.581 6.06836" fill="white"/>
</svg>
