<svg width="148" height="32" viewBox="0 0 148 32" fill="none" xmlns="http://www.w3.org/2000/svg">
<path d="M67.2937 25.6008C64.2233 25.6 61.5697 23.3668 61.0871 20.256C61.0309 19.8953 61.0032 19.3088 61.0032 18.4965C60.9998 12.3852 60.9989 6.27129 61.0015 0.154735C61.0015 0.131803 61.0197 0.113281 61.0422 0.113281H66.4513C66.4746 0.113281 66.4928 0.131803 66.4928 0.155616C66.4919 6.24747 66.4928 12.3429 66.4936 18.4409C66.4936 19.5451 66.8751 20.0011 67.9666 20.0011C71.6199 20.002 75.2733 20.0029 78.9258 20.002C79.9282 20.002 80.5466 19.7621 80.5466 18.6579C80.5474 12.4928 80.5483 6.32509 80.5474 0.155616C80.5474 0.131803 80.5656 0.113281 80.589 0.113281H85.9981C86.0214 0.113281 86.0396 0.131803 86.0396 0.155616C86.0396 6.29775 86.0396 12.4425 86.0396 18.5899C86.0396 19.3978 86.0102 19.9844 85.9505 20.3495C85.5129 23.0272 83.4042 25.0549 80.8441 25.5021C80.4558 25.57 79.8815 25.6035 79.1204 25.6035C75.1781 25.6026 71.2359 25.6017 67.2937 25.6008Z" fill="white"/>
<path d="M18.5058 15.7733C14.7452 15.7671 10.9846 15.7662 7.22491 15.7697C6.39892 15.7706 5.82376 15.7503 5.49769 15.7089C2.8805 15.3746 0.689698 13.4104 0.147404 10.7274C-0.0809306 9.59673 0.0245877 8.13793 0.0228579 6.89874C0.021993 6.19227 0.0609138 5.64103 0.13789 5.24414C0.623101 2.7543 2.52329 0.771606 4.98135 0.25741C5.36623 0.177149 5.91717 0.137459 6.63331 0.136577C12.7248 0.134813 18.8181 0.134813 24.9148 0.136577C24.9373 0.136577 24.9554 0.155099 24.9554 0.17803V5.69395C24.9554 5.71777 24.9373 5.73629 24.9139 5.73629C18.8855 5.73541 12.8546 5.73629 6.82013 5.73717C5.98637 5.73717 5.52105 6.15611 5.51845 7.02399C5.51672 7.62726 5.51586 8.22966 5.51586 8.83205C5.51586 9.87015 6.09707 10.1674 7.02252 10.1674C10.867 10.1683 14.7106 10.1691 18.5551 10.1683C19.324 10.1674 19.8975 10.2044 20.2772 10.2785C22.7456 10.7609 24.7029 12.7675 25.182 15.2758C25.2581 15.6736 25.2979 16.2592 25.3014 17.0318C25.3057 18.1731 25.3766 19.4952 25.1777 20.506C24.6786 23.0479 22.6781 25.0473 20.1656 25.5007C19.798 25.5668 19.2228 25.6003 18.4418 25.6012C12.4472 25.6047 6.45168 25.6047 0.457039 25.6021C0.428497 25.6021 0.413794 25.5871 0.413794 25.5571V20.0482C0.413794 20.0182 0.428497 20.0033 0.457904 20.0033C6.33838 20.0015 12.2189 20.0015 18.0976 20.0033C18.8354 20.0033 19.3872 19.9971 19.6925 19.3277C19.9208 18.8258 19.8101 17.8045 19.8092 17.2241C19.8084 16.2778 19.4659 15.775 18.5058 15.7733Z" fill="white"/>
<path d="M36.7839 25.6011C33.736 25.5993 31.0911 23.3635 30.6024 20.2775C30.5454 19.9141 30.5159 19.3276 30.5151 18.5179C30.5108 14.5075 30.5108 10.4971 30.5142 6.48588C30.5177 3.44657 32.6194 0.863238 35.5272 0.25467C35.9 0.176173 36.4129 0.137366 37.065 0.137366C40.9562 0.13472 44.8483 0.134719 48.7403 0.136483C49.5092 0.136483 50.0826 0.173527 50.4623 0.247614C52.929 0.728295 54.8699 2.71629 55.3698 5.21406C55.4468 5.59772 55.4848 6.12868 55.4848 6.80692C55.4874 14.9388 55.4883 23.0707 55.4857 31.2026C55.4857 31.2326 55.471 31.2476 55.4416 31.2476H50.0377C50.0135 31.2476 49.9944 31.2282 49.9944 31.2035V25.6452C49.9944 25.6214 49.9763 25.602 49.9529 25.602C45.5661 25.6038 41.1767 25.6038 36.7839 25.6011ZM36.0063 18.5311C36.0063 19.3205 36.3359 20.0049 37.2155 20.0049C41.4665 20.004 45.714 20.0023 49.9598 20.0014C49.9789 20.0014 49.9944 19.9855 49.9944 19.9661C49.9953 15.6709 49.9944 11.3782 49.9936 7.08828C49.9936 6.13309 49.536 5.7362 48.6158 5.7362C44.8768 5.73708 41.1378 5.7362 37.3988 5.73531C36.6005 5.73531 36.0055 6.08634 36.0046 6.99302C36.0038 10.8394 36.0038 14.6848 36.0063 18.5311Z" fill="white"/>
<path d="M111.056 19.1425H97.0881C97.0639 19.1425 97.0449 19.1619 97.0449 19.1866V25.5589C97.0449 25.5836 97.0258 25.603 97.0016 25.603H91.5942C91.5709 25.603 91.5527 25.5845 91.5527 25.5607C91.5527 19.5059 91.5527 13.4493 91.5527 7.39009C91.5527 6.53898 91.5744 5.95158 91.6167 5.62789C91.9679 2.96342 93.9572 0.793741 96.545 0.260141C96.9385 0.178999 97.5093 0.138428 98.2583 0.137546C102.078 0.1349 105.897 0.134899 109.717 0.135781C110.51 0.135781 111.084 0.16665 111.441 0.229271C114.025 0.679083 116.044 2.78438 116.491 5.39505C116.558 5.78224 116.591 6.36876 116.591 7.15284C116.592 13.2862 116.593 19.4221 116.592 25.5616C116.592 25.5845 116.574 25.603 116.55 25.603H111.143C111.119 25.603 111.1 25.5836 111.1 25.5589V19.1866C111.1 19.1575 111.085 19.1425 111.056 19.1425ZM98.3076 5.73814C97.5949 5.73814 97.044 6.19148 97.0431 6.94998C97.0414 9.12319 97.0431 11.299 97.0475 13.4767C97.0475 13.5058 97.0613 13.5199 97.0898 13.5199H111.055C111.084 13.5199 111.098 13.5058 111.098 13.4767C111.102 11.3881 111.102 9.29959 111.098 7.21105C111.096 6.16326 110.688 5.73726 109.653 5.73637C105.871 5.73549 102.089 5.73549 98.3076 5.73814Z" fill="white"/>
<path d="M141.97 0.236288C144.447 0.692274 146.427 2.67056 146.938 5.18245C147.016 5.56964 147.055 6.12176 147.056 6.84058C147.059 10.8016 147.059 14.7626 147.058 18.7244C147.058 19.5129 147.022 20.0986 146.951 20.4813C146.469 23.0541 144.426 25.0456 141.921 25.4972C141.54 25.566 140.966 25.6004 140.198 25.6012C134.181 25.6057 128.165 25.6057 122.148 25.6012C122.119 25.6012 122.105 25.5871 122.105 25.558V0.17896C122.105 0.155146 122.124 0.135742 122.148 0.135742C128.177 0.135742 134.21 0.135742 140.247 0.135742C141.03 0.135742 141.604 0.169257 141.97 0.236288ZM141.565 6.96406C141.565 6.36519 141.155 5.7381 140.527 5.73722C136.234 5.73457 131.938 5.73457 127.64 5.7381C127.611 5.7381 127.598 5.75221 127.598 5.78132V19.9583C127.598 19.983 127.617 20.0024 127.641 20.0024C131.8 20.0033 135.959 20.0024 140.119 20.0015C141.086 20.0015 141.567 19.6373 141.567 18.608C141.566 14.7264 141.566 10.8448 141.565 6.96406Z" fill="white"/>
</svg>
