<svg width="116" height="33" viewBox="0 0 116 33" fill="none" xmlns="http://www.w3.org/2000/svg">
<path d="M13.5758 1.00488C13.5726 1.01238 13.5706 1.0194 13.5697 1.02596C13.5675 1.04423 13.5754 1.0543 13.5934 1.05618C18.2233 1.54386 21.8032 5.1937 22.4588 9.96226C23.2822 15.9535 19.5048 21.5506 13.5095 22.1226C13.4919 22.1244 13.4894 22.1319 13.5021 22.145C13.5106 22.1539 13.5257 22.1603 13.5474 22.164" stroke="#C7C7CC" stroke-width="2"/>
<path d="M12.4062 22.1537C12.902 22.0815 13.2418 22.0281 13.4259 21.9934C18.8779 20.9632 22.5822 15.8246 21.8109 10.0796" stroke="#616875" stroke-width="2"/>
<path d="M21.8108 10.0806C21.9542 9.51626 21.8541 9.07142 21.6531 8.51272C21.0974 6.96572 20.3169 5.55341 19.3114 4.2758C19.1315 4.0467 18.9183 3.83096 18.6721 3.62856C18.3101 3.33059 17.7979 3.14788 17.4061 2.88083C17.1716 2.7206 16.7947 2.44535 16.2756 2.05509C16.1761 1.9806 16.1118 1.93632 15.988 1.89767C15.0793 1.61516 14.1226 1.19491 13.2248 1.0656C12.8689 1.0143 12.4609 1.13307 12.1436 1.13096C11.8928 1.12956 11.6425 1.11456 11.3926 1.08599" stroke="#C7C7CC" stroke-width="2"/>
<path d="M21.8102 10.0796C21.5639 10.705 21.1302 11.0775 20.6647 11.5083C20.3149 11.8323 20.1945 12.1302 20.48 12.5688C20.57 12.7079 20.5876 12.7929 20.5619 12.9496C20.4915 13.3741 20.1444 14.8633 19.6187 14.7691C19.3467 14.7206 19.1072 14.6658 18.9854 14.9961C18.8399 15.3882 19.3115 15.6054 19.3656 15.9778C19.4726 16.7206 18.2026 17.8654 17.595 18.1226C16.9705 18.3869 16.5693 18.0292 16.0652 17.7305C15.6599 17.4902 15.141 17.6532 15.099 18.1859C15.0517 18.7966 15.1065 19.3244 14.4583 19.6055C13.9928 19.8079 13.049 19.9505 12.7289 19.4354C12.6198 19.2602 12.514 19.0833 12.4116 18.9048C12.1965 18.5302 11.6843 18.4262 11.5043 18.9069C11.3284 19.3771 11.2242 19.9807 10.714 20.167C10.5503 20.226 10.2059 20.2274 10.0591 20.188C8.94001 19.8838 9.92107 18.1613 8.5963 17.9533C8.02999 17.8647 7.68087 18.656 7.46909 18.9364C7.00021 19.5591 6.22348 19.2098 5.74919 18.831C5.30873 18.4796 5.09019 18.0229 5.11996 17.448C5.13755 17.1135 5.20656 16.6455 5.1301 16.3735C5.04215 16.0608 4.76068 15.8654 4.44539 15.8844C3.91088 15.9153 3.42915 16.3721 2.90546 15.9982C2.58273 15.7684 2.31141 15.4711 2.35472 15.0404C2.40027 14.5906 2.41403 14.1399 2.39599 13.6882C2.38246 13.3406 2.23112 13.1192 1.94199 13.0241C1.59467 12.9098 1.33667 12.7149 1.16797 12.4394" stroke="#9AA0A8" stroke-width="2"/>
<path d="M78.9557 9.70046H81.4083C81.413 9.70046 81.4175 9.69853 81.4208 9.6951C81.4241 9.69168 81.4259 9.68703 81.4259 9.68218L81.4266 7.24099C81.4266 7.21616 81.4146 7.20375 81.3907 7.20375H78.9516C78.9277 7.20375 78.9157 7.19157 78.9157 7.16721L78.9184 4.34233C78.9184 4.31844 78.9069 4.30649 78.8839 4.30649C78.0562 4.30322 77.2234 4.30345 76.3853 4.3072C76.1737 4.3086 76.0093 4.33999 75.892 4.40136C75.4171 4.65082 75.4062 5.04785 75.4062 5.61423C75.4081 8.75063 75.4123 11.887 75.4191 15.0234C75.42 15.4226 75.4541 15.7573 75.5213 16.0276C75.7885 17.107 76.6356 17.9938 77.7378 18.1772C79.0896 18.402 80.6715 18.2011 81.727 17.2187C81.7518 17.1957 81.7552 17.1697 81.7371 17.1407C81.3619 16.5462 80.9882 15.9508 80.616 15.3544C80.4915 15.1553 80.3156 15.067 80.0883 15.0895C79.754 15.1232 79.5524 15.4191 79.1742 15.2413C79.0287 15.1738 78.9205 14.937 78.9191 14.7951C78.9115 14.0263 78.9126 12.3396 78.9225 9.73489C78.9225 9.71193 78.9336 9.70046 78.9557 9.70046Z" stroke="#F29389" stroke-width="2"/>
<path d="M91.9827 9.69959L94.4279 9.70029C94.4473 9.70029 94.457 9.69022 94.457 9.67007L94.4563 7.22817C94.4563 7.22165 94.4538 7.21539 94.4492 7.21078C94.4446 7.20617 94.4384 7.20358 94.432 7.20358H91.9773C91.9538 7.20358 91.9421 7.19163 91.9421 7.16774V4.3766C91.9421 4.32881 91.9189 4.30492 91.8724 4.30492C91.0646 4.30445 90.2459 4.30469 89.4164 4.30562C88.7824 4.30633 88.4306 4.67314 88.4306 5.36109C88.4297 8.51764 88.4295 11.674 88.4299 14.83C88.4299 15.9902 88.7161 17.007 89.6573 17.7167C90.1011 18.0512 90.6458 18.1904 91.1857 18.2325C92.4354 18.3309 93.7994 18.1243 94.7608 17.2136C94.7696 17.2052 94.7753 17.1939 94.7768 17.1816C94.7783 17.1694 94.7755 17.157 94.7689 17.1468C94.386 16.5397 94.0062 15.9342 93.6295 15.3304C93.5258 15.1645 93.374 15.0825 93.1742 15.0844C93.0152 15.0858 92.842 15.18 92.6877 15.2474C92.323 15.4055 91.9523 15.1905 91.9468 14.7598C91.9329 13.7254 91.9338 12.0501 91.9496 9.73402C91.9496 9.71106 91.9606 9.69959 91.9827 9.69959Z" stroke="#F29389" stroke-width="2"/>
<path d="M54.9565 12.8655C57.1131 12.8627 59.2696 12.8623 61.4261 12.8641C61.6526 12.8641 61.8201 12.832 61.9288 12.7679C62.1133 12.6582 62.2184 12.4851 62.2441 12.2485C62.2901 11.8269 62.2674 11.2644 62.1758 10.5612C62.0928 9.92215 61.8711 9.27936 61.5107 8.63283C60.1934 6.26946 57.3537 6.02138 55.1067 6.57445C54.2903 6.77544 53.593 7.19873 53.0147 7.84433C52.0066 8.97015 51.4903 10.3089 51.466 11.8606C51.4437 13.3097 51.7495 14.5226 52.4707 15.6745C53.4159 17.184 55.1406 17.9978 56.8327 18.0997C58.851 18.2205 60.7103 17.8136 62.1047 16.1875C62.1093 16.1822 62.1119 16.1754 62.112 16.1683C62.1122 16.1612 62.1098 16.1543 62.1054 16.1488C61.8352 15.8176 61.5644 15.4868 61.2928 15.1565C61.0154 14.8178 60.8219 14.6414 60.4024 14.6976C59.9383 14.7602 59.5851 15.016 59.192 15.2247C57.8916 15.9148 55.9599 15.7728 55.2644 14.2289C55.0925 13.8475 54.9798 13.4048 54.9261 12.9007C54.9234 12.8772 54.9335 12.8655 54.9565 12.8655Z" stroke="#F29389" stroke-width="2"/>
<path d="M66.8516 12.8669C69.0149 12.8617 71.1782 12.8608 73.3415 12.8641C73.558 12.8645 73.7197 12.8334 73.8266 12.7706C74.0093 12.6642 74.1151 12.4977 74.1439 12.2709C74.1926 11.8882 74.1739 11.3414 74.0878 10.6307C74.0084 9.97292 73.7914 9.31865 73.4369 8.6679C72.1568 6.31998 69.4145 6.04872 67.1513 6.53503C66.4463 6.68612 65.7717 6.97284 65.2596 7.43948C63.6574 8.8991 63.1012 10.8999 63.3658 13.0707C63.5403 14.5001 64.2778 16.0398 65.4111 16.9C66.4057 17.6548 67.5377 18.0581 68.807 18.1101C69.6261 18.1439 70.2632 18.113 70.7183 18.0174C72.0045 17.7468 73.06 17.2176 73.9403 16.1881C73.9456 16.1819 73.9485 16.1738 73.9485 16.1654C73.9485 16.157 73.9456 16.1489 73.9403 16.1424C73.6187 15.7526 73.2921 15.364 72.9606 14.9766C72.2867 14.1902 71.2806 15.2049 70.585 15.4439C69.7129 15.7447 68.6879 15.692 67.9159 15.1445C67.1797 14.6231 66.9348 13.7615 66.8191 12.9055C66.8155 12.8798 66.8263 12.8669 66.8516 12.8669Z" stroke="#F29389" stroke-width="2"/>
<path d="M33.4667 7.40423C32.962 7.04231 32.2042 6.75839 31.6264 6.63119C29.9376 6.26014 28.146 6.42458 26.8124 7.6516C26.5711 7.8732 26.3805 8.10511 26.2407 8.34733C25.6101 9.4373 25.6033 11.5175 26.6108 12.3994C26.7434 12.5151 26.9292 12.6522 27.1683 12.8105C27.6521 13.131 28.2502 13.3264 28.7894 13.5365C29.4538 13.7951 30.0831 13.8049 30.7103 14.2568C30.9886 14.4573 31.1167 14.715 31.0946 15.0298C31.0824 15.2069 30.9748 15.4775 30.8408 15.5773C30.2103 16.0446 29.2515 15.9245 28.554 15.7122C28.2711 15.6265 27.9755 15.4585 27.696 15.3131C27.4687 15.1945 27.2996 15.1257 27.1886 15.1064C26.8692 15.0509 26.3855 15.1634 26.2055 15.4536C25.9209 15.9113 25.6496 16.3492 25.3916 16.7671C25.3501 16.8341 25.3616 16.8886 25.4261 16.9308C25.8361 17.2 26.2238 17.4677 26.65 17.6603C27.1142 17.8697 27.6737 17.9962 28.0594 18.0819C29.5634 18.4178 31.192 18.3089 32.5547 17.5162C32.7644 17.3939 32.9552 17.2463 33.1271 17.0735C34.0012 16.1922 34.3724 15.1111 34.2407 13.8302C34.1521 12.9715 33.7123 12.3221 33.0303 11.8745C32.6419 11.6194 32.0594 11.424 31.5689 11.2216C30.8131 10.9096 30.0458 10.7852 29.3517 10.308C28.8787 9.98335 28.8672 9.33681 29.2996 8.96716C30.033 8.3403 31.5865 8.92288 32.3287 9.24967C32.5607 9.35157 33.0966 9.46401 33.2861 9.20891C33.5829 8.81115 33.8853 8.42182 34.1934 8.04093C34.2002 8.03253 34.2035 8.02168 34.2026 8.01074C34.2017 7.99981 34.1967 7.98969 34.1886 7.9826C33.9618 7.77926 33.7211 7.58648 33.4667 7.40423Z" stroke="#F29389" stroke-width="2"/>
<path d="M46.8778 14.5747C46.8575 14.7368 46.8347 14.7371 46.8095 14.5754C46.7256 14.0322 46.4948 13.3667 46.3934 12.9935C45.8981 11.1608 45.4062 9.32702 44.9177 7.49236C44.7851 6.99199 44.4339 6.66662 43.9251 6.6631C43.4547 6.65982 42.9842 6.65982 42.5138 6.6631C41.919 6.66732 41.5848 6.87815 41.4211 7.49236C40.5976 10.5852 40.1585 12.354 39.4522 14.6176C39.4404 14.6546 39.4307 14.6542 39.4231 14.6162C39.329 14.1686 39.2695 13.7153 39.1579 13.2725C39.115 13.1011 39.0749 12.9291 39.0374 12.7567C38.6459 10.9488 38.2519 9.14149 37.8554 7.33494C37.841 7.26935 37.7832 7.17354 37.6822 7.04751C37.3588 6.64343 37.1335 6.6631 36.5969 6.6624C35.808 6.66053 35.0221 6.66029 34.239 6.6617C34.2352 6.66176 34.2314 6.66273 34.228 6.66453C34.2246 6.66632 34.2217 6.6689 34.2195 6.67205C34.2172 6.67519 34.2157 6.67882 34.2151 6.68264C34.2145 6.68646 34.2148 6.69036 34.216 6.69403L37.7011 18.2214C37.7084 18.2443 37.7235 18.2558 37.7465 18.2558C38.5746 18.2567 39.3965 18.2567 40.212 18.2558C40.8859 18.2551 40.9901 18.0007 41.1612 17.3921C41.6101 15.7889 42.0593 14.1861 42.509 12.5838C42.6924 11.9317 42.8663 11.2092 43.051 10.529C43.065 10.4779 43.0787 10.4779 43.0922 10.529C43.7224 12.8574 44.3636 15.1836 45.0158 17.5074C45.1707 18.0604 45.2905 18.2558 45.8724 18.2565C46.7312 18.2574 47.5939 18.2572 48.4603 18.2558C48.4838 18.2558 48.4989 18.2441 48.5057 18.2207L51.9949 6.68067C51.9955 6.67848 51.9956 6.67616 51.9953 6.6739C51.9949 6.67165 51.994 6.66951 51.9927 6.66767C51.9914 6.66583 51.9897 6.66433 51.9877 6.6633C51.9857 6.66226 51.9836 6.66171 51.9813 6.6617C51.1888 6.66076 50.3932 6.66076 49.5943 6.6617C49.0747 6.6624 48.5997 6.80506 48.4664 7.38484C48.0253 9.29774 47.5997 11.2163 47.145 13.1257C47.0255 13.6274 46.9364 14.1105 46.8778 14.5747Z" stroke="#F29389" stroke-width="2"/>
<path d="M100.787 14.791C100.717 14.3563 100.658 14.0649 100.611 13.9168C99.9156 11.7261 99.2347 9.53067 98.5685 7.33057C98.5473 7.26123 98.483 7.16027 98.3757 7.02768C98.0631 6.64257 97.829 6.66295 97.3114 6.66225C96.4774 6.66038 95.6456 6.66014 94.8161 6.66155C94.8124 6.66149 94.8087 6.6624 94.8054 6.6642C94.8021 6.666 94.7992 6.66864 94.7971 6.67189C94.795 6.67514 94.7936 6.67891 94.7931 6.68286C94.7927 6.68681 94.7931 6.69083 94.7945 6.69458L99.2031 18.2289C99.2062 18.237 99.2115 18.244 99.2183 18.2489C99.2252 18.2537 99.2334 18.2564 99.2417 18.2563H102.297C102.306 18.2563 102.314 18.2536 102.321 18.2484C102.329 18.2433 102.334 18.236 102.337 18.2275L106.745 6.69528C106.747 6.69162 106.747 6.68764 106.747 6.68369C106.746 6.67975 106.745 6.67597 106.743 6.67269C106.741 6.66942 106.738 6.66675 106.734 6.66492C106.731 6.6631 106.727 6.66218 106.723 6.66225C105.905 6.65991 105.086 6.66014 104.267 6.66295C103.636 6.66436 103.259 6.79577 103.062 7.43317C102.732 8.49856 102.105 10.4642 101.18 13.33C101.03 13.7959 100.935 14.3012 100.814 14.7925C100.803 14.8365 100.794 14.836 100.787 14.791Z" stroke="#F29389" stroke-width="2"/>
<path d="M83.3872 18.004C84.0183 18.2452 84.6459 18.2372 85.2702 17.9801C85.3785 17.9351 85.4725 17.8684 85.5523 17.7798C85.9982 17.2859 86.2695 16.8356 86.1613 16.1267C85.9576 14.7996 84.7486 14.0992 83.5706 14.5151C82.8832 14.7575 82.3818 15.3954 82.3494 16.1668C82.3196 16.8771 82.6822 17.7349 83.3872 18.004Z" stroke="#F29389" stroke-width="2"/>
<path d="M10.6085 3.57722C10.9324 3.49014 11.2569 3.40376 11.5821 3.31809C11.9096 3.23172 11.7607 2.8497 11.7181 2.63552C11.7028 2.55734 11.6572 2.52621 11.5815 2.54212L10.2323 2.82863C10.1435 2.84783 10.1069 2.90377 10.1227 2.99647C10.1498 3.1547 10.1748 3.29258 10.1978 3.41008C10.2533 3.69168 10.4042 3.63269 10.6085 3.57722Z" stroke="#F5DD98" stroke-width="2"/>
<path d="M14.7572 4.27478C14.8917 4.6497 15.0283 5.02415 15.1673 5.39813C15.2796 5.6997 15.6679 5.36649 15.8296 5.29549C15.8647 5.28019 15.8928 5.25139 15.9079 5.2151C15.9231 5.1788 15.9241 5.13784 15.9108 5.10077L15.3966 3.67444C15.3907 3.65782 15.3815 3.64262 15.3698 3.62976C15.358 3.6169 15.3439 3.60665 15.3282 3.59962C15.3125 3.59259 15.2956 3.58894 15.2785 3.58887C15.2615 3.5888 15.2446 3.59232 15.2288 3.59923L14.7356 3.81504C14.7246 3.81996 14.7151 3.82775 14.708 3.83761C14.7009 3.84748 14.6964 3.85908 14.695 3.87127C14.6824 3.98891 14.7031 4.12341 14.7572 4.27478Z" stroke="#F29389" stroke-width="2"/>
<path d="M7.14005 4.94367C7.17975 4.87197 7.18403 4.77098 7.15291 4.64069C7.14795 4.61914 7.13667 4.6018 7.11908 4.58867L6.8207 4.36443C6.80171 4.35015 6.78007 4.34012 6.75715 4.33499C6.73423 4.32986 6.71053 4.32974 6.68757 4.33464C6.6646 4.33953 6.64286 4.34932 6.62373 4.36341C6.6046 4.37749 6.5885 4.39555 6.57645 4.41645C6.36445 4.78293 6.14862 5.15644 5.92895 5.53698C5.77333 5.80622 6.25236 6.20058 6.47767 6.11553C6.49661 6.1085 6.50789 6.0949 6.5115 6.07475C6.51736 6.03913 6.52435 6.01453 6.53247 6.00094C6.73996 5.6518 6.94249 5.29938 7.14005 4.94367Z" stroke="#F29389" stroke-width="2"/>
<path d="M11.997 5.09296L11.8962 5.49254C11.8847 5.53872 11.8912 5.58777 11.9144 5.62896C11.9376 5.67015 11.9756 5.70012 12.02 5.71233L13.2974 6.06064C13.3733 6.08125 13.4544 6.0679 13.5229 6.02352C13.5914 5.97914 13.6417 5.90737 13.6628 5.82399L13.6932 5.70461C13.7037 5.66331 13.7067 5.62039 13.702 5.57831C13.6973 5.53622 13.685 5.4958 13.6658 5.45935C13.6466 5.42289 13.621 5.39112 13.5903 5.36585C13.5596 5.34058 13.5244 5.3223 13.4869 5.31206L12.2095 4.96445C12.1649 4.95226 12.1174 4.95895 12.0776 4.98305C12.0378 5.00715 12.0088 5.04668 11.997 5.09296Z" stroke="#99DCE2" stroke-width="2"/>
<path d="M8.09375 8.22559C8.11585 10.3793 8.1375 12.5166 8.1587 14.6375C8.16141 14.9154 8.23719 15.1335 8.38604 15.2918C8.68983 15.6151 9.05316 15.4837 9.41852 15.2778C11.3725 14.1758 13.3265 13.0793 15.2805 11.9881" stroke="#99DCE2" stroke-width="2"/>
<path d="M15.2805 11.9861C15.6779 11.7857 16.0644 11.5686 16.4402 11.3349C16.9226 11.0349 16.932 10.4644 16.4212 10.1918C14.0658 8.93613 11.7099 7.68091 9.35351 6.42616C9.10362 6.29314 8.92681 6.21961 8.82306 6.20556C8.3623 6.14233 8.1052 6.6032 8.08016 7.02965C8.06077 7.35938 8.06528 7.75772 8.09369 8.22468" stroke="#9AA0A8" stroke-width="2"/>
<path d="M15.2805 11.987L8.09375 8.22559" stroke="#337D8A" stroke-width="2"/>
<path d="M17.269 6.53508L16.5836 7.73927C16.5574 7.78532 16.5499 7.84029 16.5628 7.8921C16.5756 7.94391 16.6077 7.9883 16.652 8.01553L16.8712 8.1498C16.9525 8.1997 17.0463 8.21981 17.1319 8.20571C17.2176 8.19161 17.288 8.14444 17.3279 8.07458L17.9111 7.05106C17.9309 7.01639 17.9425 6.97718 17.9453 6.93566C17.9481 6.89413 17.942 6.85112 17.9275 6.80907C17.9129 6.76702 17.8901 6.72677 17.8603 6.69061C17.8306 6.65445 17.7945 6.6231 17.7541 6.59835L17.5349 6.46408C17.4906 6.43688 17.4377 6.42907 17.3878 6.44239C17.338 6.4557 17.2952 6.48904 17.269 6.53508Z" stroke="#F5DD98" stroke-width="2"/>
<path d="M5.24982 7.93548C5.26144 7.91211 5.26851 7.88658 5.27063 7.86037C5.27275 7.83415 5.26987 7.80776 5.26218 7.7827C5.25448 7.75764 5.2421 7.7344 5.22576 7.71431C5.20941 7.69421 5.18942 7.67766 5.16691 7.6656L3.99812 7.03892C3.97561 7.02685 3.95104 7.01951 3.92581 7.0173C3.90058 7.0151 3.87517 7.01809 3.85105 7.02608C3.82692 7.03408 3.80455 7.04694 3.78521 7.06392C3.76587 7.0809 3.74993 7.10167 3.73832 7.12505L3.5664 7.47106C3.55479 7.49443 3.54772 7.51996 3.5456 7.54617C3.54348 7.57239 3.54635 7.59878 3.55405 7.62384C3.56175 7.6489 3.57412 7.67214 3.59047 7.69223C3.60681 7.71233 3.62681 7.72888 3.64931 7.74095L4.81811 8.36763C4.84061 8.37969 4.86518 8.38704 4.89042 8.38924C4.91565 8.39144 4.94106 8.38846 4.96518 8.38046C4.9893 8.37246 5.01168 8.3596 5.03102 8.34262C5.05036 8.32565 5.06629 8.30487 5.07791 8.2815L5.24982 7.93548Z" stroke="#F5DD98" stroke-width="2"/>
<path d="M18.4995 10.4664C18.6821 10.6119 18.875 10.7912 19.0516 10.4861C19.2464 10.1482 19.442 9.8103 19.6382 9.4724C19.6752 9.40913 19.6788 9.30299 19.649 9.15396C19.6445 9.13287 19.6339 9.116 19.6172 9.10334L19.3107 8.87277C19.2928 8.85938 19.2725 8.84996 19.251 8.8451C19.2295 8.84024 19.2073 8.84005 19.1858 8.84454C19.1643 8.84904 19.144 8.85812 19.1261 8.8712C19.1082 8.88429 19.0932 8.9011 19.082 8.92057C18.884 9.26128 18.6826 9.60948 18.4778 9.96518C18.4462 10.0191 18.4235 10.0688 18.4095 10.1142C18.3865 10.1887 18.3784 10.2433 18.3851 10.278C18.4005 10.3553 18.4386 10.4181 18.4995 10.4664Z" stroke="#F29389" stroke-width="2"/>
<path d="M5.58621 11.3545C5.62816 11.2582 5.66537 11.1015 5.73236 11.0298C5.74764 11.0135 5.75955 10.9941 5.76735 10.9729C5.77516 10.9516 5.7787 10.9289 5.77774 10.9062C5.77679 10.8835 5.77138 10.8612 5.76183 10.8408C5.75227 10.8203 5.73879 10.8021 5.72221 10.7872C5.3988 10.4983 5.01787 10.2087 4.72017 9.879C4.51178 9.64913 4.05846 10.2762 4.29527 10.4878C4.63763 10.7933 4.98156 11.0975 5.32708 11.4002C5.38932 11.4546 5.4624 11.4551 5.54629 11.4016C5.56434 11.3899 5.57764 11.3742 5.58621 11.3545Z" stroke="#F29389" stroke-width="2"/>
<path d="M4.811 13.251C4.75848 13.2827 4.71873 13.3329 4.69909 13.3926C4.67944 13.4523 4.68122 13.5173 4.7041 13.5758L4.82995 13.8984C4.84349 13.933 4.86403 13.9642 4.89018 13.9899C4.91633 14.0156 4.94748 14.0352 4.98154 14.0473C5.01559 14.0595 5.05175 14.0638 5.08757 14.0602C5.1234 14.0566 5.15806 14.045 5.18922 14.0263L6.25553 13.3867C6.30817 13.3552 6.34806 13.3049 6.36783 13.2452C6.3876 13.1856 6.38593 13.1205 6.36311 13.062L6.23726 12.7393C6.22379 12.7046 6.20329 12.6733 6.17717 12.6476C6.15105 12.6218 6.11991 12.6021 6.08585 12.59C6.05179 12.5778 6.01561 12.5733 5.97975 12.5769C5.94389 12.5805 5.90919 12.592 5.87799 12.6107L4.811 13.251Z" stroke="#99DCE2" stroke-width="2"/>
<path d="M18.735 13.9313C18.7351 13.906 18.7303 13.8808 18.721 13.8573C18.7117 13.8339 18.698 13.8125 18.6808 13.7945C18.6635 13.7766 18.643 13.7623 18.6205 13.7525C18.5979 13.7428 18.5737 13.7377 18.5493 13.7377L17.2651 13.7354C17.2407 13.7353 17.2165 13.7403 17.1939 13.7499C17.1713 13.7596 17.1508 13.7738 17.1334 13.7917C17.1161 13.8097 17.1024 13.8309 17.093 13.8544C17.0836 13.8778 17.0788 13.9029 17.0787 13.9283L17.0781 14.284C17.0781 14.3094 17.0829 14.3346 17.0922 14.358C17.1015 14.3815 17.1151 14.4028 17.1324 14.4208C17.1496 14.4388 17.1701 14.4531 17.1927 14.4628C17.2152 14.4726 17.2394 14.4776 17.2639 14.4777L18.548 14.48C18.5725 14.4801 18.5967 14.4751 18.6193 14.4654C18.6419 14.4558 18.6624 14.4416 18.6797 14.4236C18.697 14.4057 18.7108 14.3844 18.7201 14.361C18.7295 14.3376 18.7344 14.3124 18.7344 14.287L18.735 13.9313Z" stroke="#F29389" stroke-width="2"/>
<path d="M14.8203 15.4856C14.8961 15.353 14.92 15.2215 14.892 15.0913C14.8871 15.0688 14.8756 15.051 14.8575 15.0378L14.5368 14.7995C14.5206 14.7875 14.5021 14.7791 14.4826 14.7748C14.4631 14.7705 14.4429 14.7704 14.4234 14.7746C14.4039 14.7787 14.3855 14.787 14.3692 14.7989C14.353 14.8108 14.3393 14.8261 14.3291 14.8438C14.0936 15.2492 13.8638 15.6557 13.6397 16.0635C13.4935 16.3299 13.8271 16.4424 13.9915 16.5387C14.0612 16.5801 14.1227 16.5675 14.2005 16.5738C14.2177 16.5752 14.2292 16.5673 14.2351 16.5499C14.2427 16.526 14.2515 16.5049 14.2614 16.4867C14.4441 16.1511 14.6304 15.8174 14.8203 15.4856Z" stroke="#99DCE2" stroke-width="2"/>
<path d="M6.97296 15.4563C6.95807 15.3981 6.92245 15.3481 6.87332 15.3162C6.82418 15.2843 6.76523 15.2731 6.70841 15.2848L6.41206 15.3459C6.38051 15.3524 6.35065 15.3658 6.32443 15.3852C6.29821 15.4045 6.27623 15.4295 6.25994 15.4583C6.24364 15.4871 6.2334 15.5192 6.22988 15.5524C6.22637 15.5856 6.22965 15.6192 6.23953 15.651L6.63737 16.9389C6.65437 16.9938 6.69008 17.0404 6.73779 17.0699C6.7855 17.0994 6.84193 17.1098 6.8965 17.0991L7.1306 17.0541C7.16155 17.0482 7.19098 17.0356 7.21703 17.0173C7.24308 16.9989 7.26519 16.9752 7.28197 16.9475C7.29875 16.9198 7.30983 16.8888 7.31452 16.8565C7.31921 16.8242 7.31741 16.7912 7.30923 16.7596L6.97296 15.4563Z" stroke="#F29389" stroke-width="2"/>
<path d="M11.2033 16.1187C11.1879 16.0578 11.1499 16.0057 11.0975 15.9739C11.0451 15.9421 10.9828 15.9332 10.9241 15.9492L10.6375 16.0273C10.6084 16.0352 10.5811 16.049 10.5572 16.0679C10.5333 16.0867 10.5132 16.1103 10.498 16.1373C10.4829 16.1642 10.473 16.194 10.4689 16.2249C10.4648 16.2558 10.4667 16.2873 10.4743 16.3174L10.8032 17.6202C10.8186 17.6812 10.8567 17.7333 10.9091 17.7651C10.9614 17.7969 11.0238 17.8058 11.0825 17.7898L11.3691 17.7116C11.3982 17.7037 11.4254 17.6899 11.4494 17.6711C11.4733 17.6522 11.4934 17.6286 11.5085 17.6017C11.5237 17.5748 11.5336 17.545 11.5377 17.5141C11.5417 17.4831 11.5399 17.4517 11.5323 17.4215L11.2033 16.1187Z" stroke="#F5DD98" stroke-width="2"/>
<path d="M57.2539 8.6924C55.9061 8.69732 55.2044 9.48183 54.9893 10.8034C54.9848 10.8297 54.9954 10.8428 55.0211 10.8428H59.1821C59.187 10.8428 59.1916 10.8407 59.1951 10.837C59.1985 10.8333 59.2004 10.8283 59.2004 10.8231C59.172 9.60837 58.4947 8.68818 57.2539 8.6924Z" stroke="#F29389" stroke-width="2"/>
<path d="M69.1286 8.69079C67.7632 8.72664 67.1313 9.48093 66.8877 10.8095C66.8836 10.8316 66.8924 10.8426 66.9141 10.8426H71.0717C71.0916 10.8426 71.1013 10.8323 71.1008 10.8116C71.0799 9.59551 70.3606 8.65775 69.1286 8.69079Z" stroke="#F29389" stroke-width="2"/>
<path d="M13.5773 1.0047C13.5741 1.0122 13.5721 1.01922 13.5712 1.02578C13.569 1.04405 13.5768 1.05412 13.5949 1.056C18.2248 1.54367 21.8047 5.19352 22.4603 9.96208C23.2837 15.9533 19.5063 21.5504 13.511 22.1224C13.4934 22.1243 13.4909 22.1317 13.5036 22.1449C13.5121 22.1538 13.5272 22.1601 13.5489 22.1638L12.4061 22.1526C12.9018 22.0805 13.2417 22.027 13.4257 21.9924C18.8777 20.9622 22.5821 15.824 21.8108 10.0794C21.9542 9.51516 21.8541 9.07034 21.6531 8.51169C21.0974 6.96481 20.3169 5.5526 19.3114 4.27509C19.1315 4.046 18.9183 3.83027 18.6721 3.6279C18.3101 3.32995 17.7979 3.14725 17.4061 2.88022C17.1716 2.72 16.7947 2.44478 16.2756 2.05454C16.1761 1.98005 16.1118 1.93578 15.988 1.89713C15.0793 1.61465 14.1226 1.19443 13.2248 1.06513C12.8689 1.01383 12.4609 1.13259 12.1436 1.13048C11.8928 1.12908 11.6425 1.11409 11.3926 1.08551C11.4918 1.06302 11.5895 1.04897 11.6855 1.04335C12.3148 1.00493 12.9454 0.992051 13.5773 1.0047Z" fill="#8E8F99"/>
<path d="M13.6364 1.07561C43.9036 1.07421 74.1706 1.07444 104.437 1.07631C105.034 1.07631 105.485 1.09037 105.79 1.11848C111.324 1.63567 115.715 6.65298 115.168 12.5276C114.68 17.7684 110.535 21.849 105.504 22.208C105.247 22.2263 104.796 22.2355 104.15 22.2355C73.9698 22.2355 43.789 22.2352 13.6079 22.2348C13.5863 22.231 13.5712 22.2247 13.5626 22.2158C13.55 22.2027 13.5525 22.1952 13.57 22.1933C19.5654 21.6213 23.3428 16.0242 22.5194 10.033C21.8637 5.26443 18.2839 1.61458 13.6539 1.12691C13.6359 1.12503 13.628 1.11496 13.6303 1.09669C13.6312 1.09013 13.6332 1.08311 13.6364 1.07561ZM79.0157 9.77088H81.4683C81.473 9.77088 81.4775 9.76895 81.4808 9.76553C81.4841 9.7621 81.4859 9.75745 81.4859 9.75261L81.4866 7.31141C81.4866 7.28658 81.4746 7.27417 81.4507 7.27417H79.0116C78.9877 7.27417 78.9757 7.26199 78.9757 7.23763L78.9784 4.41275C78.9784 4.38886 78.9669 4.37692 78.9439 4.37692C78.1162 4.37364 77.2834 4.37387 76.4453 4.37762C76.2337 4.37903 76.0693 4.41041 75.952 4.47178C75.4771 4.72124 75.4663 5.11827 75.4663 5.68465C75.4681 8.82106 75.4723 11.9575 75.4791 15.0939C75.48 15.493 75.5141 15.8277 75.5813 16.098C75.8485 17.1774 76.6956 18.0642 77.7978 18.2476C79.1496 18.4725 80.7315 18.2715 81.787 17.2891C81.8118 17.2662 81.8152 17.2402 81.7971 17.2111C81.4219 16.6166 81.0482 16.0212 80.676 15.4248C80.5515 15.2257 80.3756 15.1374 80.1483 15.1599C79.814 15.1936 79.6124 15.4895 79.2342 15.3117C79.0887 15.2442 78.9805 15.0074 78.9791 14.8655C78.9715 14.0967 78.9726 12.41 78.9825 9.80531C78.9825 9.78235 78.9936 9.77088 79.0157 9.77088ZM92.0421 9.77017L94.4874 9.77088C94.5067 9.77088 94.5164 9.76081 94.5164 9.74066L94.5158 7.29876C94.5158 7.29224 94.5132 7.28598 94.5086 7.28137C94.5041 7.27676 94.4979 7.27417 94.4914 7.27417H92.0367C92.0133 7.27417 92.0015 7.26222 92.0015 7.23833V4.44719C92.0015 4.3994 91.9783 4.37551 91.9319 4.37551C91.124 4.37504 90.3053 4.37528 89.4758 4.37621C88.8418 4.37692 88.49 4.74373 88.49 5.43168C88.4891 8.58823 88.4889 11.7445 88.4893 14.9006C88.4893 16.0608 88.7755 17.0776 89.7167 17.7873C90.1605 18.1218 90.7052 18.261 91.2451 18.3031C92.4948 18.4015 93.8588 18.1949 94.8202 17.2842C94.8291 17.2758 94.8347 17.2645 94.8362 17.2522C94.8377 17.24 94.8349 17.2276 94.8283 17.2174C94.4454 16.6103 94.0656 16.0048 93.689 15.4009C93.5852 15.2351 93.4334 15.1531 93.2336 15.155C93.0746 15.1564 92.9014 15.2506 92.7471 15.318C92.3825 15.4761 92.0117 15.2611 92.0063 14.8304C91.9923 13.796 91.9932 12.1207 92.009 9.80461C92.009 9.78165 92.02 9.77017 92.0421 9.77017ZM55.0148 12.9359C57.1714 12.933 59.3279 12.9326 61.4844 12.9345C61.7109 12.9345 61.8784 12.9024 61.9871 12.8382C62.1716 12.7286 62.2767 12.5555 62.3024 12.3189C62.3484 11.8973 62.3257 11.3349 62.2341 10.6317C62.1511 9.9927 61.9294 9.34996 61.569 8.70347C60.2517 6.34027 57.412 6.09222 55.165 6.64525C54.3486 6.84622 53.6513 7.26948 53.073 7.91503C52.0649 9.04077 51.5486 10.3794 51.5243 11.931C51.502 13.38 51.8078 14.5928 52.529 15.7446C53.4742 17.254 55.1989 18.0677 56.891 18.1696C58.9093 18.2905 60.7686 17.8836 62.163 16.2575C62.1676 16.2523 62.1702 16.2454 62.1703 16.2384C62.1705 16.2313 62.1681 16.2243 62.1637 16.2189C61.8935 15.8877 61.6227 15.5569 61.3511 15.2267C61.0737 14.888 60.8802 14.7116 60.4607 14.7678C59.9966 14.8303 59.6434 15.0861 59.2503 15.2948C57.9499 15.9849 56.0182 15.8429 55.3227 14.2991C55.1508 13.9178 55.0381 13.4751 54.9844 12.971C54.9817 12.9476 54.9918 12.9359 55.0148 12.9359ZM66.9114 12.9373C69.0747 12.9321 71.238 12.9312 73.4013 12.9345C73.6178 12.9349 73.7795 12.9038 73.8864 12.841C74.0691 12.7347 74.1749 12.5681 74.2037 12.3414C74.2524 11.9586 74.2337 11.4119 74.1476 10.7013C74.0682 10.0435 73.8512 9.38931 73.4967 8.7386C72.2166 6.39087 69.4743 6.11962 67.2111 6.6059C66.5061 6.75698 65.8315 7.04368 65.3194 7.51028C63.7172 8.96979 63.161 10.9704 63.4256 13.141C63.6001 14.5703 64.3376 16.11 65.4709 16.9701C66.4655 17.7248 67.5975 18.1281 68.8667 18.1801C69.6859 18.2139 70.323 18.183 70.7781 18.0874C72.0643 17.8168 73.1198 17.2877 74.0001 16.2582C74.0054 16.252 74.0083 16.244 74.0083 16.2356C74.0083 16.2272 74.0054 16.219 74.0001 16.2126C73.6785 15.8228 73.3519 15.4342 73.0204 15.0468C72.3465 14.2605 71.3404 15.2752 70.6448 15.5141C69.7727 15.8148 68.7477 15.7621 67.9757 15.2147C67.2395 14.6933 66.9946 13.8318 66.8789 12.9759C66.8753 12.9501 66.8861 12.9373 66.9114 12.9373ZM33.5255 7.47444C33.0208 7.11255 32.263 6.82865 31.6852 6.70146C29.9964 6.33044 28.2048 6.49487 26.8712 7.72179C26.6299 7.94338 26.4393 8.17527 26.2995 8.41747C25.6689 9.50736 25.6621 11.5874 26.6696 12.4693C26.8022 12.585 26.988 12.722 27.2271 12.8803C27.7109 13.2008 28.309 13.3961 28.8482 13.6062C29.5126 13.8648 30.1419 13.8747 30.7691 14.3265C31.0474 14.527 31.1755 14.7847 31.1534 15.0995C31.1412 15.2766 31.0336 15.5471 30.8997 15.6469C30.2691 16.1142 29.3103 15.994 28.6128 15.7818C28.33 15.6961 28.0343 15.5281 27.7548 15.3827C27.5275 15.2642 27.3584 15.1953 27.2474 15.1761C26.928 15.1206 26.4443 15.233 26.2643 15.5232C25.9797 15.9809 25.7084 16.4187 25.4504 16.8366C25.4089 16.9036 25.4204 16.9581 25.4849 17.0003C25.8949 17.2694 26.2826 17.5372 26.7088 17.7297C27.173 17.9391 27.7325 18.0656 28.1182 18.1513C29.6222 18.4872 31.2508 18.3783 32.6135 17.5857C32.8232 17.4634 33.014 17.3158 33.1859 17.1429C34.06 16.2618 34.4313 15.1808 34.2995 13.9C34.2109 13.0413 33.7711 12.392 33.0891 11.9443C32.7007 11.6893 32.1182 11.4939 31.6277 11.2915C30.8719 10.9795 30.1047 10.8552 29.4105 10.378C28.9375 10.0534 28.926 9.40688 29.3584 9.03725C30.0918 8.41044 31.6453 8.99298 32.3875 9.31974C32.6196 9.42163 33.1554 9.53407 33.3449 9.27898C33.6417 8.88125 33.9441 8.49196 34.2522 8.11109C34.259 8.1027 34.2623 8.09184 34.2614 8.08091C34.2605 8.06998 34.2555 8.05986 34.2474 8.05276C34.0206 7.84945 33.7799 7.65667 33.5255 7.47444ZM46.937 14.6448C46.9167 14.8069 46.8939 14.8072 46.8686 14.6455C46.7847 14.1023 46.554 13.4369 46.4525 13.0638C45.9573 11.2311 45.4654 9.39751 44.9769 7.56298C44.8443 7.06265 44.4931 6.7373 43.9843 6.73379C43.5139 6.73051 43.0434 6.73051 42.5729 6.73379C41.9782 6.738 41.644 6.94881 41.4802 7.56298C40.6568 10.6556 40.2177 12.4243 39.5113 14.6877C39.4996 14.7247 39.4899 14.7242 39.4823 14.6863C39.3882 14.2387 39.3287 13.7854 39.217 13.3427C39.1742 13.1713 39.134 12.9993 39.0966 12.8269C38.7051 11.0191 38.3111 9.21199 37.9146 7.40557C37.9002 7.33999 37.8424 7.24419 37.7414 7.11817C37.418 6.71411 37.1927 6.73379 36.6561 6.73308C35.8672 6.73121 35.0812 6.73098 34.2982 6.73238C34.2944 6.73244 34.2906 6.73341 34.2872 6.73521C34.2838 6.73701 34.2809 6.73958 34.2787 6.74273C34.2764 6.74588 34.2749 6.74951 34.2743 6.75332C34.2737 6.75714 34.274 6.76104 34.2752 6.76471L37.7603 18.2912C37.7675 18.3141 37.7827 18.3256 37.8057 18.3256C38.6338 18.3265 39.4556 18.3265 40.2712 18.3256C40.9451 18.3249 41.0492 18.0705 41.2204 17.462C41.6692 15.8589 42.1185 14.2562 42.5682 12.6541C42.7516 12.002 42.9254 11.2796 43.1102 10.5994C43.1241 10.5483 43.1379 10.5483 43.1514 10.5994C43.7816 12.9277 44.4227 15.2536 45.075 17.5772C45.2299 18.1303 45.3497 18.3256 45.9316 18.3263C46.7904 18.3272 47.653 18.327 48.5195 18.3256C48.543 18.3256 48.5581 18.3139 48.5649 18.2905L52.0541 6.75136C52.0547 6.74916 52.0548 6.74684 52.0544 6.74459C52.054 6.74233 52.0532 6.7402 52.0519 6.73836C52.0505 6.73651 52.0488 6.73502 52.0469 6.73398C52.0449 6.73294 52.0427 6.7324 52.0405 6.73238C51.248 6.73145 50.4523 6.73145 49.6535 6.73238C49.1339 6.73309 48.6589 6.87573 48.5256 7.45546C48.0845 9.36823 47.6589 11.2866 47.2042 13.1959C47.0847 13.6976 46.9956 14.1806 46.937 14.6448ZM100.846 14.8613C100.776 14.4265 100.717 14.1351 100.67 13.9871C99.9745 11.7965 99.2936 9.60129 98.6274 7.40136C98.6062 7.33202 98.542 7.23107 98.4346 7.09849C98.122 6.71341 97.8879 6.73379 97.3703 6.73308C96.5363 6.73121 95.7045 6.73098 94.875 6.73238C94.8713 6.73232 94.8676 6.73323 94.8643 6.73503C94.861 6.73684 94.8581 6.73948 94.856 6.74273C94.8539 6.74598 94.8525 6.74974 94.8521 6.75369C94.8516 6.75764 94.8521 6.76167 94.8534 6.76541L99.2621 18.2989C99.2651 18.307 99.2704 18.3139 99.2773 18.3188C99.2841 18.3237 99.2923 18.3263 99.3006 18.3263H102.356C102.365 18.3263 102.373 18.3235 102.38 18.3184C102.387 18.3133 102.393 18.306 102.396 18.2975L106.804 6.76611C106.806 6.76245 106.806 6.75847 106.806 6.75453C106.805 6.75058 106.804 6.7468 106.802 6.74353C106.8 6.74025 106.797 6.73758 106.793 6.73576C106.79 6.73394 106.786 6.73302 106.782 6.73308C105.964 6.73074 105.145 6.73098 104.326 6.73379C103.695 6.73519 103.318 6.8666 103.121 7.50395C102.791 8.56925 102.164 10.5347 101.239 13.4003C101.089 13.8662 100.994 14.3715 100.873 14.8627C100.862 14.9067 100.853 14.9062 100.846 14.8613ZM83.4467 18.0754C84.0777 18.3167 84.7054 18.3087 85.3296 18.0516C85.4379 18.0066 85.5319 17.9398 85.6118 17.8513C86.0577 17.3573 86.329 16.9068 86.2207 16.1978C86.0171 14.8704 84.808 14.1698 83.63 14.5858C82.9426 14.8282 82.4413 15.4663 82.4088 16.2379C82.379 16.9483 82.7417 17.8063 83.4467 18.0754Z" fill="white"/>
<path d="M11.452 1.15575C11.7019 1.18432 11.9523 1.19931 12.2031 1.20072C12.5204 1.20283 12.9284 1.08407 13.2843 1.13537C14.1821 1.26467 15.1388 1.68488 16.0475 1.96737C16.1713 2.00602 16.2356 2.05029 16.335 2.12478C16.8542 2.51501 17.2311 2.79024 17.4656 2.95046C17.8574 3.21748 18.3695 3.40019 18.7315 3.69813C18.9778 3.90051 19.1909 4.11624 19.3709 4.34532C20.3763 5.62284 21.1569 7.03504 21.7126 8.58193C21.9135 9.14058 22.0137 9.58539 21.8702 10.1497C21.624 10.7751 21.1903 11.1475 20.7248 11.5783C20.375 11.9022 20.2545 12.2002 20.54 12.6386C20.63 12.7778 20.6476 12.8628 20.6219 13.0195C20.5516 13.4439 20.2045 14.933 19.6787 14.8388C19.4068 14.7903 19.1672 14.7355 19.0455 15.0658C18.9 15.4579 19.3716 15.675 19.4257 16.0475C19.5326 16.7902 18.2626 17.9349 17.6551 18.1921C17.0306 18.4563 16.6293 18.0987 16.1253 17.8C15.72 17.5597 15.201 17.7227 15.1591 18.2554C15.1117 18.866 15.1665 19.3937 14.5184 19.6748C14.0529 19.8772 13.109 20.0199 12.789 19.5048C12.6798 19.3296 12.5741 19.1527 12.4717 18.9742C12.2565 18.5997 11.7443 18.4957 11.5643 18.9763C11.3884 19.4464 11.2842 20.0501 10.7741 20.2363C10.6104 20.2953 10.266 20.2967 10.1191 20.2574C9.00006 19.9531 9.98112 18.2308 8.65635 18.0228C8.09004 17.9342 7.74091 18.7255 7.52914 19.0059C7.06026 19.6284 6.28353 19.2792 5.80924 18.9004C5.36878 18.5491 5.15023 18.0923 5.18 17.5175C5.1976 17.183 5.26661 16.715 5.19015 16.4431C5.1022 16.1304 4.82073 15.935 4.50544 15.954C3.97093 15.9849 3.4892 16.4417 2.96551 16.0678C2.64278 15.8381 2.37146 15.5408 2.41476 15.1101C2.46032 14.6603 2.47408 14.2097 2.45604 13.7581C2.4425 13.4104 2.29117 13.1891 2.00204 13.094C1.65472 12.9797 1.39671 12.7848 1.22802 12.5093C1.07646 12.1767 1.00046 11.8549 1.00001 11.5438C0.999103 10.8069 1.11954 10.0386 1.36131 9.23896C1.6996 8.1226 2.12202 7.04137 2.62857 5.99528C2.65518 5.9414 2.68675 5.89104 2.72329 5.84419C3.23886 5.18506 3.7878 4.55824 4.37012 3.96376C4.74044 3.58523 5.08438 3.28401 5.40193 3.06008C6.69422 2.14867 8.26325 1.54364 9.81738 1.21829C10.3609 1.10445 10.9058 1.0836 11.452 1.15575ZM10.6679 3.64824C10.9917 3.56111 11.3163 3.47467 11.6415 3.38894C11.969 3.30251 11.8201 2.92024 11.7775 2.70591C11.7621 2.62768 11.7166 2.59653 11.6408 2.61246L10.2917 2.89916C10.2028 2.91837 10.1663 2.97435 10.1821 3.0671C10.2091 3.22545 10.2342 3.36341 10.2572 3.481C10.3126 3.76278 10.4635 3.70376 10.6679 3.64824ZM14.8181 4.34462C14.9525 4.7194 15.0892 5.0937 15.2281 5.46754C15.3404 5.769 15.7288 5.43592 15.8905 5.36495C15.9256 5.34965 15.9536 5.32086 15.9688 5.28458C15.9839 5.24831 15.985 5.20736 15.9717 5.1703L15.4575 3.74451C15.4515 3.72789 15.4424 3.7127 15.4306 3.69985C15.4189 3.68699 15.4047 3.67674 15.389 3.66972C15.3734 3.66269 15.3565 3.65904 15.3394 3.65897C15.3223 3.6589 15.3054 3.66242 15.2897 3.66932L14.7964 3.88505C14.7855 3.88998 14.776 3.89776 14.7689 3.90762C14.7618 3.91748 14.7573 3.92908 14.7558 3.94127C14.7432 4.05885 14.764 4.19331 14.8181 4.34462ZM7.20032 5.0136C7.24001 4.94192 7.24429 4.84097 7.21317 4.71073C7.20821 4.68918 7.19693 4.67185 7.17934 4.65873L6.88096 4.43457C6.86197 4.42029 6.84033 4.41027 6.81741 4.40515C6.79449 4.40002 6.7708 4.3999 6.74783 4.40479C6.72486 4.40968 6.70312 4.41947 6.684 4.43355C6.66487 4.44763 6.64877 4.46568 6.63671 4.48657C6.42471 4.85291 6.20888 5.22628 5.98921 5.60668C5.83359 5.87582 6.31262 6.27003 6.53793 6.18501C6.55687 6.17798 6.56815 6.16439 6.57176 6.14425C6.57762 6.10864 6.58462 6.08405 6.59273 6.07047C6.80022 5.72146 7.00275 5.36917 7.20032 5.0136ZM12.0576 5.16398L11.9568 5.56382C11.9452 5.61003 11.9518 5.65911 11.975 5.70033C11.9982 5.74155 12.0361 5.77154 12.0806 5.78376L13.358 6.1323C13.4338 6.15293 13.5149 6.13957 13.5834 6.09516C13.652 6.05075 13.7023 5.97893 13.7234 5.89549L13.7538 5.77603C13.7643 5.7347 13.7672 5.69176 13.7625 5.64964C13.7578 5.60753 13.7455 5.56708 13.7264 5.53061C13.7072 5.49413 13.6815 5.46234 13.6508 5.43705C13.6201 5.41176 13.585 5.39347 13.5474 5.38322L12.27 5.03538C12.2254 5.02318 12.178 5.02987 12.1382 5.05398C12.0983 5.0781 12.0693 5.11766 12.0576 5.16398ZM8.15364 8.29523C8.17574 10.4488 8.19739 12.5859 8.21859 14.7067C8.2213 14.9845 8.29708 15.2026 8.44593 15.3609C8.74972 15.6842 9.11305 15.5528 9.47841 15.3469C11.4324 14.245 13.3864 13.1486 15.3404 12.0575C15.7378 11.857 16.1244 11.6399 16.5001 11.4061C16.9825 11.106 16.992 10.5355 16.4812 10.2628C14.1257 9.00683 11.7698 7.75133 9.41346 6.4963C9.16357 6.36326 8.98675 6.28971 8.88301 6.27565C8.42225 6.21241 8.16514 6.67339 8.14011 7.09993C8.12071 7.42973 8.12522 7.82816 8.15364 8.29523ZM17.3296 6.60522L16.6442 7.80896C16.618 7.85499 16.6105 7.90994 16.6233 7.96173C16.6362 8.01352 16.6682 8.0579 16.7126 8.08512L16.9318 8.21934C17.0131 8.26922 17.1069 8.28932 17.1925 8.27522C17.2782 8.26112 17.3486 8.21398 17.3885 8.14415L17.9717 7.12101C17.9915 7.08636 18.0031 7.04716 18.0059 7.00565C18.0087 6.96414 18.0026 6.92114 17.988 6.87911C17.9735 6.83708 17.9506 6.79684 17.9209 6.7607C17.8912 6.72455 17.8551 6.69321 17.8147 6.66847L17.5955 6.53425C17.5512 6.50706 17.4983 6.49925 17.4484 6.51256C17.3986 6.52587 17.3558 6.5592 17.3296 6.60522ZM5.30994 8.00598C5.32155 7.98261 5.32862 7.95709 5.33074 7.93088C5.33286 7.90467 5.32999 7.87829 5.32229 7.85323C5.31459 7.82818 5.30222 7.80494 5.28587 7.78485C5.26953 7.76477 5.24953 7.74822 5.22703 7.73616L4.05823 7.10962C4.03573 7.09755 4.01116 7.09021 3.98592 7.08801C3.96069 7.08581 3.93528 7.08879 3.91116 7.09679C3.88704 7.10478 3.86466 7.11764 3.84532 7.13461C3.82598 7.15159 3.81005 7.17236 3.79843 7.19573L3.62652 7.54166C3.6149 7.56503 3.60783 7.59055 3.60571 7.61676C3.60359 7.64297 3.60647 7.66935 3.61416 7.69441C3.62186 7.71946 3.63424 7.7427 3.65058 7.76279C3.66693 7.78288 3.68692 7.79942 3.70943 7.81149L4.87822 8.43803C4.90073 8.45009 4.9253 8.45743 4.95053 8.45963C4.97576 8.46183 5.00117 8.45885 5.02529 8.45085C5.04942 8.44286 5.07179 8.43001 5.09113 8.41303C5.11047 8.39605 5.12641 8.37529 5.13802 8.35192L5.30994 8.00598ZM18.5603 10.5355C18.743 10.6809 18.9358 10.8601 19.1124 10.5551C19.3073 10.2174 19.5028 9.87959 19.699 9.54183C19.736 9.47858 19.7396 9.37247 19.7099 9.2235C19.7054 9.20242 19.6948 9.18555 19.6781 9.17291L19.3716 8.94242C19.3537 8.92903 19.3334 8.91962 19.3119 8.91476C19.2904 8.9099 19.2682 8.90971 19.2467 8.91421C19.2252 8.9187 19.2049 8.92777 19.187 8.94086C19.1691 8.95394 19.1541 8.97074 19.1429 8.9902C18.9449 9.33078 18.7435 9.67885 18.5387 10.0344C18.5071 10.0883 18.4843 10.138 18.4703 10.1834C18.4473 10.2579 18.4392 10.3125 18.446 10.3471C18.4613 10.4244 18.4994 10.4872 18.5603 10.5355ZM5.64685 11.4251C5.6888 11.3288 5.72602 11.1721 5.793 11.1004C5.80828 11.0841 5.82019 11.0648 5.828 11.0436C5.8358 11.0223 5.83934 10.9996 5.83839 10.9769C5.83744 10.9542 5.83202 10.9319 5.82247 10.9115C5.81292 10.891 5.79943 10.8728 5.78285 10.858C5.45944 10.5692 5.07852 10.2797 4.78081 9.9501C4.57242 9.72031 4.1191 10.3471 4.35591 10.5586C4.69827 10.8641 5.0422 11.1681 5.38772 11.4708C5.44997 11.5251 5.52304 11.5256 5.60694 11.4722C5.62498 11.4604 5.63828 11.4447 5.64685 11.4251ZM4.87148 13.3224C4.81896 13.354 4.77921 13.4043 4.75957 13.4639C4.73992 13.5236 4.7417 13.5886 4.76458 13.647L4.89042 13.9696C4.90397 14.0042 4.92451 14.0354 4.95066 14.0611C4.97681 14.0868 5.00796 14.1064 5.04201 14.1185C5.07607 14.1306 5.11222 14.135 5.14805 14.1314C5.18388 14.1278 5.21854 14.1162 5.24969 14.0975L6.31601 13.458C6.36865 13.4265 6.40854 13.3763 6.42831 13.3166C6.44808 13.2569 6.4464 13.1918 6.42359 13.1333L6.29774 12.8108C6.28426 12.7761 6.26377 12.7448 6.23765 12.7191C6.21153 12.6933 6.18039 12.6736 6.14633 12.6615C6.11227 12.6493 6.07609 12.6448 6.04023 12.6484C6.00437 12.652 5.96967 12.6635 5.93847 12.6822L4.87148 13.3224ZM18.7954 14.0034C18.7955 13.978 18.7907 13.9529 18.7814 13.9294C18.7721 13.906 18.7584 13.8846 18.7411 13.8667C18.7239 13.8487 18.7034 13.8344 18.6808 13.8247C18.6583 13.8149 18.6341 13.8099 18.6097 13.8098L17.3255 13.8075C17.3011 13.8074 17.2769 13.8124 17.2543 13.8221C17.2317 13.8317 17.2111 13.8459 17.1938 13.8638C17.1765 13.8818 17.1628 13.903 17.1534 13.9265C17.144 13.9499 17.1392 13.975 17.1391 14.0004L17.1385 14.356C17.1385 14.3813 17.1432 14.4065 17.1526 14.4299C17.1619 14.4534 17.1755 14.4747 17.1928 14.4927C17.21 14.5107 17.2305 14.5249 17.2531 14.5347C17.2756 14.5445 17.2998 14.5495 17.3243 14.5495L18.6084 14.5519C18.6329 14.5519 18.6571 14.547 18.6797 14.5373C18.7022 14.5276 18.7228 14.5134 18.7401 14.4955C18.7574 14.4776 18.7711 14.4563 18.7805 14.4329C18.7899 14.4095 18.7948 14.3843 18.7948 14.359L18.7954 14.0034ZM14.8803 15.5556C14.9561 15.423 14.98 15.2916 14.9521 15.1614C14.9471 15.1389 14.9356 15.1211 14.9176 15.108L14.5968 14.8697C14.5806 14.8577 14.5621 14.8493 14.5426 14.845C14.5231 14.8407 14.503 14.8406 14.4835 14.8448C14.464 14.8489 14.4455 14.8572 14.4293 14.8691C14.413 14.8811 14.3994 14.8963 14.3891 14.914C14.1537 15.3192 13.9239 15.7256 13.6997 16.1332C13.5535 16.3995 13.8871 16.512 14.0515 16.6082C14.1212 16.6497 14.1828 16.637 14.2606 16.6434C14.2777 16.6448 14.2892 16.6368 14.2951 16.6195C14.3028 16.5956 14.3115 16.5745 14.3215 16.5562C14.5042 16.2208 14.6904 15.8873 14.8803 15.5556ZM7.0332 15.5261C7.01831 15.4679 6.98269 15.4179 6.93356 15.386C6.88442 15.3542 6.82546 15.3429 6.76865 15.3546L6.4723 15.4157C6.44075 15.4223 6.41089 15.4356 6.38467 15.455C6.35845 15.4743 6.33647 15.4992 6.32018 15.528C6.30388 15.5568 6.29364 15.5889 6.29012 15.6221C6.2866 15.6553 6.28989 15.6889 6.29977 15.7207L6.69761 17.0081C6.71461 17.063 6.75032 17.1095 6.79803 17.139C6.84574 17.1685 6.90217 17.1789 6.95674 17.1683L7.19084 17.1233C7.22179 17.1174 7.25122 17.1048 7.27727 17.0865C7.30332 17.0681 7.32543 17.0444 7.34221 17.0167C7.35899 16.989 7.37007 16.9581 7.37476 16.9257C7.37945 16.8934 7.37765 16.8604 7.36946 16.8289L7.0332 15.5261ZM11.2637 16.1887C11.2483 16.1278 11.2103 16.0757 11.1579 16.0439C11.1055 16.0121 11.0431 16.0033 10.9845 16.0193L10.6978 16.0974C10.6688 16.1053 10.6415 16.119 10.6176 16.1379C10.5937 16.1568 10.5736 16.1803 10.5584 16.2073C10.5433 16.2342 10.5334 16.264 10.5293 16.2949C10.5252 16.3258 10.527 16.3572 10.5347 16.3874L10.8636 17.6897C10.879 17.7506 10.9171 17.8027 10.9694 17.8345C11.0218 17.8663 11.0842 17.8751 11.1429 17.8591L11.4295 17.781C11.4586 17.7731 11.4858 17.7594 11.5097 17.7405C11.5337 17.7216 11.5538 17.6981 11.5689 17.6711C11.5841 17.6442 11.594 17.6144 11.598 17.5835C11.6021 17.5526 11.6003 17.5212 11.5927 17.491L11.2637 16.1887Z" fill="white"/>
<path d="M14.7572 4.27478C14.7031 4.12341 14.6824 3.98891 14.695 3.87127C14.6964 3.85908 14.7009 3.84748 14.708 3.83761C14.7151 3.82775 14.7246 3.81996 14.7356 3.81504L15.2288 3.59923C15.2446 3.59232 15.2615 3.5888 15.2785 3.58887C15.2956 3.58894 15.3125 3.59259 15.3282 3.59962C15.3439 3.60665 15.358 3.6169 15.3698 3.62976C15.3815 3.64262 15.3907 3.65782 15.3966 3.67444L15.9108 5.10077C15.9241 5.13784 15.9231 5.1788 15.9079 5.2151C15.8928 5.25139 15.8647 5.28019 15.8296 5.29549C15.6679 5.36649 15.2796 5.6997 15.1673 5.39813C15.0283 5.02415 14.8917 4.6497 14.7572 4.27478Z" fill="#E52612"/>
<path d="M78.9225 9.7344C78.9126 12.3391 78.9115 14.0258 78.9191 14.7946C78.9205 14.9365 79.0287 15.1733 79.1742 15.2408C79.5524 15.4186 79.754 15.1227 80.0883 15.089C80.3156 15.0665 80.4915 15.1548 80.616 15.3539C80.9882 15.9503 81.3619 16.5457 81.7371 17.1402C81.7552 17.1692 81.7518 17.1952 81.727 17.2182C80.6715 18.2006 79.0896 18.4016 77.7378 18.1767C76.6356 17.9933 75.7885 17.1065 75.5213 16.0271C75.4541 15.7568 75.42 15.4221 75.4191 15.023C75.4123 11.8865 75.4081 8.75015 75.4062 5.61374C75.4062 5.04736 75.4171 4.65033 75.892 4.40087C76.0093 4.3395 76.1737 4.30811 76.3853 4.30671C77.2234 4.30296 78.0562 4.30273 78.8839 4.30601C78.9069 4.30601 78.9184 4.31795 78.9184 4.34184L78.9157 7.16672C78.9157 7.19108 78.9277 7.20326 78.9516 7.20326H81.3907C81.4146 7.20326 81.4266 7.21567 81.4266 7.2405L81.4259 9.6817C81.4259 9.68654 81.4241 9.69119 81.4208 9.69462C81.4175 9.69804 81.413 9.69997 81.4083 9.69997H78.9557C78.9336 9.69997 78.9225 9.71144 78.9225 9.7344Z" fill="#E52612"/>
<path d="M91.9476 9.73353C91.9318 12.0496 91.9309 13.7249 91.9449 14.7593C91.9503 15.19 92.3211 15.4051 92.6858 15.247C92.84 15.1795 93.0132 15.0853 93.1722 15.0839C93.3721 15.082 93.5238 15.164 93.6276 15.3299C94.0042 15.9337 94.384 16.5392 94.767 17.1464C94.7735 17.1566 94.7763 17.1689 94.7748 17.1811C94.7733 17.1934 94.7677 17.2047 94.7589 17.2131C93.7974 18.1238 92.4334 18.3304 91.1837 18.232C90.6438 18.1899 90.0991 18.0507 89.6553 17.7163C88.7142 17.0065 88.428 15.9897 88.428 14.8295C88.4275 11.6735 88.4277 8.51715 88.4286 5.3606C88.4286 4.67265 88.7805 4.30584 89.4144 4.30514C90.2439 4.3042 91.0626 4.30396 91.8705 4.30443C91.9169 4.30443 91.9402 4.32832 91.9402 4.37611V7.16725C91.9402 7.19114 91.9519 7.20309 91.9753 7.20309H94.43C94.4365 7.20309 94.4427 7.20568 94.4472 7.21029C94.4518 7.21491 94.4544 7.22116 94.4544 7.22769L94.4551 9.66958C94.4551 9.68973 94.4454 9.6998 94.426 9.6998L91.9808 9.6991C91.9587 9.6991 91.9476 9.71058 91.9476 9.73353Z" fill="#E52612"/>
<path d="M7.14005 4.94367C6.94249 5.29938 6.73996 5.6518 6.53247 6.00094C6.52435 6.01453 6.51736 6.03913 6.5115 6.07475C6.50789 6.0949 6.49661 6.1085 6.47767 6.11553C6.25236 6.20058 5.77333 5.80622 5.92895 5.53698C6.14862 5.15644 6.36445 4.78293 6.57645 4.41645C6.5885 4.39555 6.6046 4.37749 6.62373 4.36341C6.64286 4.34932 6.6646 4.33953 6.68757 4.33464C6.71053 4.32974 6.73423 4.32986 6.75715 4.33499C6.78007 4.34012 6.80171 4.35015 6.8207 4.36443L7.11908 4.58867C7.13667 4.6018 7.14795 4.61914 7.15291 4.64069C7.18403 4.77098 7.17975 4.87197 7.14005 4.94367Z" fill="#E52612"/>
<path d="M11.997 5.09394C12.0088 5.04766 12.0378 5.00812 12.0776 4.98402C12.1174 4.95992 12.1649 4.95323 12.2095 4.96543L13.4869 5.31304C13.5244 5.32328 13.5596 5.34156 13.5903 5.36683C13.621 5.3921 13.6466 5.42387 13.6658 5.46032C13.685 5.49678 13.6973 5.5372 13.702 5.57928C13.7067 5.62137 13.7037 5.66428 13.6932 5.70559L13.6628 5.82496C13.6417 5.90835 13.5914 5.98012 13.5229 6.0245C13.4544 6.06888 13.3733 6.08223 13.2974 6.06162L12.02 5.71331C11.9756 5.7011 11.9376 5.67112 11.9144 5.62993C11.8912 5.58874 11.8847 5.5397 11.8962 5.49351L11.997 5.09394Z" fill="#32B8C4"/>
<path d="M15.2785 11.9861L8.09174 8.22468C8.06332 7.75772 8.05881 7.35938 8.07821 7.02965C8.10324 6.6032 8.36035 6.14233 8.82111 6.20556C8.92485 6.21961 9.10167 6.29314 9.35156 6.42616C11.7079 7.68091 14.0638 8.93613 16.4193 10.1918C16.9301 10.4644 16.9206 11.0349 16.4382 11.3349C16.0625 11.5686 15.6759 11.7857 15.2785 11.9861Z" fill="#344150"/>
<path d="M54.9241 12.9007C54.9778 13.4048 55.0906 13.8475 55.2624 14.2289C55.958 15.7728 57.8896 15.9148 59.1901 15.2247C59.5832 15.016 59.9363 14.7602 60.4005 14.6976C60.82 14.6414 61.0135 14.8178 61.2909 15.1565C61.5624 15.4868 61.8333 15.8176 62.1035 16.1488C62.1079 16.1543 62.1102 16.1612 62.1101 16.1683C62.11 16.1754 62.1074 16.1822 62.1028 16.1875C60.7083 17.8136 58.8491 18.2205 56.8308 18.0997C55.1386 17.9978 53.414 17.184 52.4688 15.6745C51.7475 14.5226 51.4417 13.3097 51.464 11.8606C51.4884 10.3089 52.0046 8.97015 53.0128 7.84433C53.591 7.19873 54.2884 6.77544 55.1048 6.57445C57.3517 6.02138 60.1914 6.26946 61.5087 8.63283C61.8691 9.27936 62.0908 9.92215 62.1738 10.5612C62.2654 11.2644 62.2882 11.8269 62.2422 12.2485C62.2165 12.4851 62.1114 12.6582 61.9269 12.7679C61.8182 12.832 61.6506 12.8641 61.4242 12.8641C59.2676 12.8623 57.1111 12.8627 54.9546 12.8655C54.9316 12.8655 54.9214 12.8772 54.9241 12.9007ZM57.2523 8.69256C55.9045 8.69748 55.2029 9.48176 54.9877 10.8029C54.9832 10.8292 54.9938 10.8423 55.0195 10.8423H59.1806C59.1854 10.8423 59.1901 10.8402 59.1935 10.8365C59.1969 10.8328 59.1989 10.8278 59.1989 10.8226C59.1704 9.60826 58.4932 8.68835 57.2523 8.69256Z" fill="#E52612"/>
<path d="M66.8191 12.9055C66.9348 13.7615 67.1797 14.6231 67.9159 15.1445C68.6879 15.692 69.7129 15.7447 70.585 15.4439C71.2806 15.2049 72.2867 14.1902 72.9606 14.9766C73.2921 15.364 73.6187 15.7526 73.9403 16.1424C73.9456 16.1489 73.9485 16.157 73.9485 16.1654C73.9485 16.1738 73.9456 16.1819 73.9403 16.1881C73.06 17.2176 72.0045 17.7468 70.7183 18.0174C70.2632 18.113 69.6261 18.1439 68.807 18.1101C67.5377 18.0581 66.4057 17.6548 65.4111 16.9C64.2778 16.0398 63.5403 14.5001 63.3658 13.0707C63.1012 10.8999 63.6574 8.8991 65.2596 7.43948C65.7717 6.97284 66.4463 6.68612 67.1513 6.53503C69.4145 6.04872 72.1568 6.31998 73.4369 8.6679C73.7914 9.31865 74.0084 9.97292 74.0878 10.6307C74.1739 11.3414 74.1926 11.8882 74.1439 12.2709C74.1151 12.4977 74.0093 12.6642 73.8266 12.7706C73.7197 12.8334 73.558 12.8645 73.3415 12.8641C71.1782 12.8608 69.0149 12.8617 66.8516 12.8669C66.8263 12.8669 66.8155 12.8798 66.8191 12.9055ZM69.1277 8.69109C67.7623 8.72693 67.1304 9.48099 66.8868 10.8092C66.8827 10.8312 66.8915 10.8422 66.9132 10.8422H71.0708C71.0907 10.8422 71.1004 10.8319 71.0999 10.8113C71.079 9.59554 70.3597 8.65806 69.1277 8.69109Z" fill="#E52612"/>
<path d="M17.269 6.53508C17.2952 6.48904 17.338 6.4557 17.3878 6.44239C17.4377 6.42907 17.4906 6.43688 17.5349 6.46408L17.7541 6.59835C17.7945 6.6231 17.8306 6.65445 17.8603 6.69061C17.8901 6.72677 17.9129 6.76702 17.9275 6.80907C17.942 6.85112 17.9481 6.89413 17.9453 6.93566C17.9425 6.97718 17.9309 7.01639 17.9111 7.05106L17.3279 8.07458C17.288 8.14444 17.2176 8.19161 17.1319 8.20571C17.0463 8.21981 16.9525 8.1997 16.8712 8.1498L16.652 8.01553C16.6077 7.9883 16.5756 7.94391 16.5628 7.8921C16.5499 7.84029 16.5574 7.78532 16.5836 7.73927L17.269 6.53508Z" fill="#EBBA31"/>
<path d="M31.6244 6.63071C32.2022 6.75791 32.96 7.04182 33.4648 7.40374C33.7192 7.58599 33.9598 7.77878 34.1867 7.98211C34.1947 7.9892 34.1998 7.99932 34.2007 8.01026C34.2015 8.02119 34.1982 8.03204 34.1914 8.04044C33.8833 8.42133 33.5809 8.81066 33.2841 9.20842C33.0947 9.46352 32.5588 9.35108 32.3267 9.24918C31.5845 8.9224 30.031 8.33981 29.2976 8.96667C28.8653 9.33632 28.8768 9.98286 29.3497 10.3075C30.0439 10.7847 30.8112 10.9091 31.5669 11.2211C32.0574 11.4235 32.64 11.6189 33.0284 11.874C33.7104 12.3216 34.1501 12.971 34.2388 13.8298C34.3705 15.1106 33.9993 16.1917 33.1251 17.073C32.9533 17.2459 32.7625 17.3934 32.5527 17.5157C31.19 18.3084 29.5615 18.4174 28.0574 18.0814C27.6718 17.9957 27.1122 17.8692 26.6481 17.6598C26.2218 17.4672 25.8341 17.1995 25.4241 16.9303C25.3596 16.8882 25.3481 16.8336 25.3896 16.7666C25.6476 16.3487 25.9189 15.9108 26.2035 15.4531C26.3835 15.1629 26.8673 15.0504 27.1866 15.106C27.2976 15.1252 27.4667 15.194 27.6941 15.3126C27.9735 15.458 28.2692 15.626 28.552 15.7117C29.2496 15.924 30.2083 16.0441 30.8389 15.5768C30.9729 15.477 31.0804 15.2065 31.0926 15.0294C31.1147 14.7145 30.9866 14.4568 30.7083 14.2563C30.0811 13.8045 29.4519 13.7946 28.7875 13.536C28.2482 13.3259 27.6501 13.1305 27.1663 12.8101C26.9273 12.6517 26.7414 12.5147 26.6088 12.3989C25.6014 11.517 25.6081 9.43682 26.2387 8.34684C26.3786 8.10462 26.5691 7.87271 26.8105 7.65111C28.144 6.4241 29.9356 6.25965 31.6244 6.63071Z" fill="#E52612"/>
<path d="M46.8758 14.5743C46.9345 14.11 47.0236 13.6269 47.1431 13.1252C47.5978 11.2158 48.0233 9.29725 48.4645 7.38435C48.5978 6.80457 49.0727 6.66191 49.5924 6.66121C50.3912 6.66027 51.1869 6.66027 51.9794 6.66121C51.9816 6.66122 51.9838 6.66177 51.9857 6.66281C51.9877 6.66384 51.9894 6.66534 51.9907 6.66718C51.992 6.66903 51.9929 6.67116 51.9933 6.67341C51.9937 6.67567 51.9936 6.67799 51.9929 6.68018L48.5037 18.2202C48.497 18.2436 48.4819 18.2553 48.4584 18.2553C47.5919 18.2567 46.7292 18.2569 45.8704 18.256C45.2886 18.2553 45.1688 18.0599 45.0139 17.5069C44.3616 15.1831 43.7204 12.857 43.0903 10.5285C43.0768 10.4774 43.063 10.4774 43.049 10.5285C42.8643 11.2088 42.6904 11.9312 42.5071 12.5833C42.0574 14.1856 41.6081 15.7884 41.1593 17.3916C40.9881 18.0002 40.8839 18.2546 40.21 18.2553C39.3945 18.2562 38.5727 18.2562 37.7445 18.2553C37.7215 18.2553 37.7064 18.2438 37.6992 18.2209L34.2141 6.69354C34.2129 6.68987 34.2126 6.68597 34.2132 6.68215C34.2138 6.67834 34.2153 6.67471 34.2175 6.67156C34.2198 6.66841 34.2227 6.66584 34.2261 6.66404C34.2295 6.66224 34.2332 6.66127 34.2371 6.66121C35.0201 6.65981 35.8061 6.66004 36.595 6.66191C37.1315 6.66262 37.3568 6.64294 37.6802 7.04702C37.7813 7.17305 37.839 7.26886 37.8535 7.33445C38.2499 9.14101 38.6439 10.9483 39.0355 12.7562C39.0729 12.9286 39.113 13.1006 39.1559 13.272C39.2675 13.7148 39.3271 14.1681 39.4211 14.6157C39.4288 14.6537 39.4385 14.6541 39.4502 14.6171C40.1566 12.3535 40.5957 10.5847 41.4191 7.49187C41.5828 6.87766 41.9171 6.66683 42.5118 6.66262C42.9823 6.65934 43.4527 6.65934 43.9232 6.66262C44.432 6.66613 44.7831 6.99151 44.9157 7.49187C45.4042 9.32653 45.8961 11.1603 46.3914 12.9931C46.4929 13.3662 46.7236 14.0317 46.8075 14.575C46.8328 14.7366 46.8555 14.7364 46.8758 14.5743Z" fill="#E52612"/>
<path d="M100.812 14.7925C100.933 14.3012 101.028 13.7959 101.178 13.33C102.103 10.4642 102.73 8.49856 103.06 7.43317C103.257 6.79577 103.634 6.66436 104.265 6.66295C105.084 6.66014 105.903 6.65991 106.722 6.66225C106.725 6.66218 106.729 6.6631 106.733 6.66492C106.736 6.66675 106.739 6.66942 106.741 6.67269C106.743 6.67597 106.744 6.67975 106.745 6.68369C106.745 6.68764 106.745 6.69162 106.743 6.69528L102.335 18.2275C102.332 18.236 102.327 18.2433 102.319 18.2484C102.312 18.2536 102.304 18.2563 102.295 18.2563H99.2398C99.2314 18.2564 99.2233 18.2537 99.2164 18.2489C99.2095 18.244 99.2042 18.237 99.2012 18.2289L94.7925 6.69458C94.7912 6.69083 94.7907 6.68681 94.7912 6.68286C94.7916 6.67891 94.793 6.67514 94.7951 6.67189C94.7973 6.66864 94.8001 6.666 94.8034 6.6642C94.8067 6.6624 94.8104 6.66149 94.8142 6.66155C95.6437 6.66014 96.4754 6.66038 97.3094 6.66225C97.827 6.66295 98.0611 6.64257 98.3737 7.02768C98.4811 7.16027 98.5453 7.26123 98.5665 7.33057C99.2328 9.53067 99.9137 11.7261 100.609 13.9168C100.656 14.0649 100.715 14.3563 100.785 14.791C100.792 14.836 100.801 14.8365 100.812 14.7925Z" fill="#E52612"/>
<path d="M5.16643 7.66621L3.99754 7.03962C3.90289 6.98888 3.78656 7.02745 3.7377 7.12577L3.56574 7.47181C3.51688 7.57013 3.55399 7.69096 3.64863 7.74169L4.81753 8.36828C4.91217 8.41902 5.0285 8.38044 5.07736 8.28213L5.24933 7.93609C5.29819 7.83777 5.26107 7.71694 5.16643 7.66621Z" fill="#EBBA31"/>
<path d="M8.09375 8.2251L15.2805 11.9877C13.3265 13.0788 11.3725 14.1753 9.41852 15.2773C9.05316 15.4832 8.68983 15.6146 8.38604 15.2913C8.23719 15.133 8.16141 14.9149 8.1587 14.6371C8.1375 12.5161 8.11585 10.3788 8.09375 8.2251Z" fill="#32B8C4"/>
<path d="M54.9873 10.8034C55.2025 9.48183 55.9041 8.69732 57.2519 8.6924C58.4928 8.68818 59.17 9.60837 59.1985 10.8231C59.1985 10.8283 59.1965 10.8333 59.1931 10.837C59.1897 10.8407 59.185 10.8428 59.1802 10.8428H55.0191C54.9934 10.8428 54.9828 10.8297 54.9873 10.8034Z" fill="white"/>
<path d="M66.8857 10.81C67.1293 9.48141 67.7612 8.72713 69.1266 8.69128C70.3587 8.65824 71.0779 9.596 71.0989 10.8121C71.0993 10.8328 71.0896 10.8431 71.0698 10.8431H66.9121C66.8905 10.8431 66.8817 10.8321 66.8857 10.81Z" fill="white"/>
<path d="M18.4995 10.4659C18.4386 10.4176 18.4005 10.3548 18.3851 10.2775C18.3784 10.2428 18.3865 10.1882 18.4095 10.1137C18.4235 10.0683 18.4462 10.0186 18.4778 9.9647C18.6826 9.60899 18.884 9.26079 19.082 8.92008C19.0932 8.90061 19.1082 8.8838 19.1261 8.87072C19.144 8.85763 19.1643 8.84855 19.1858 8.84406C19.2073 8.83956 19.2295 8.83975 19.251 8.84461C19.2725 8.84947 19.2928 8.85889 19.3107 8.87228L19.6172 9.10285C19.6339 9.11551 19.6445 9.13238 19.649 9.15347C19.6788 9.3025 19.6752 9.40865 19.6382 9.47191C19.442 9.80981 19.2464 10.1477 19.0516 10.4856C18.875 10.7907 18.6821 10.6114 18.4995 10.4659Z" fill="#E52612"/>
<path d="M5.73236 11.0307C5.66537 11.1024 5.62816 11.2592 5.58621 11.3555C5.57764 11.3752 5.56434 11.3909 5.54629 11.4026C5.4624 11.456 5.38932 11.4556 5.32708 11.4012C4.98156 11.0985 4.63763 10.7943 4.29527 10.4887C4.05846 10.2772 4.51178 9.6501 4.72017 9.87997C5.01787 10.2097 5.3988 10.4993 5.72221 10.7882C5.73879 10.8031 5.75227 10.8213 5.76183 10.8417C5.77138 10.8622 5.77679 10.8845 5.77774 10.9072C5.7787 10.9299 5.77516 10.9526 5.76735 10.9738C5.75955 10.9951 5.74764 11.0145 5.73236 11.0307Z" fill="#E52612"/>
<path d="M21.8082 10.0796C22.5796 15.8246 18.8752 20.9632 13.4232 21.9934C13.2392 22.0281 12.8993 22.0815 12.4036 22.1537C12.1501 22.1551 11.893 22.1572 11.6323 22.16C6.23709 22.219 1.61527 18.0882 1.16602 12.4394C1.33471 12.7149 1.59272 12.9098 1.94004 13.0241C2.22917 13.1192 2.3805 13.3406 2.39404 13.6882C2.41208 14.1399 2.39832 14.5906 2.35276 15.0404C2.30946 15.4711 2.58078 15.7684 2.90351 15.9982C3.42719 16.3721 3.90893 15.9153 4.44344 15.8844C4.75873 15.8654 5.04019 16.0608 5.12815 16.3735C5.20461 16.6455 5.1356 17.1135 5.118 17.448C5.08823 18.0229 5.30677 18.4796 5.74724 18.831C6.22153 19.2098 6.99826 19.5591 7.46714 18.9364C7.67891 18.656 8.02804 17.8647 8.59435 17.9533C9.91912 18.1613 8.93806 19.8838 10.0571 20.188C10.204 20.2274 10.5483 20.226 10.7121 20.167C11.2222 19.9807 11.3264 19.3771 11.5023 18.9069C11.6823 18.4262 12.1945 18.5302 12.4097 18.9048C12.5121 19.0833 12.6178 19.2602 12.727 19.4354C13.047 19.9505 13.9909 19.8079 14.4564 19.6055C15.1045 19.3244 15.0497 18.7966 15.0971 18.1859C15.139 17.6532 15.658 17.4902 16.0633 17.7305C16.5673 18.0292 16.9686 18.3869 17.5931 18.1226C18.2006 17.8654 19.4706 16.7206 19.3637 15.9778C19.3096 15.6054 18.838 15.3882 18.9835 14.9961C19.1052 14.6658 19.3448 14.7206 19.6167 14.7691C20.1425 14.8633 20.4896 13.3741 20.5599 12.9497C20.5856 12.7929 20.568 12.7079 20.478 12.5688C20.1925 12.1302 20.313 11.8323 20.6628 11.5083C21.1283 11.0775 21.562 10.705 21.8082 10.0796Z" fill="#344150"/>
<path d="M4.811 13.2525L5.87799 12.6122C5.90919 12.5935 5.94389 12.5819 5.97975 12.5783C6.01561 12.5748 6.05179 12.5792 6.08585 12.5914C6.11991 12.6036 6.15105 12.6233 6.17717 12.649C6.20329 12.6748 6.22379 12.7061 6.23726 12.7408L6.36311 13.0634C6.38593 13.1219 6.3876 13.187 6.36783 13.2467C6.34806 13.3064 6.30817 13.3566 6.25553 13.3881L5.18922 14.0277C5.15806 14.0465 5.1234 14.0581 5.08757 14.0617C5.05175 14.0653 5.01559 14.0609 4.98154 14.0488C4.94748 14.0367 4.91633 14.0171 4.89018 13.9914C4.86403 13.9657 4.84349 13.9345 4.82995 13.8998L4.7041 13.5772C4.68122 13.5188 4.67944 13.4538 4.69909 13.3941C4.71873 13.3344 4.75848 13.2841 4.811 13.2525Z" fill="#32B8C4"/>
<path d="M18.5484 13.7395L17.2642 13.7372C17.1614 13.737 17.078 13.8234 17.0778 13.9301L17.0772 14.2858C17.077 14.3926 17.1602 14.4793 17.2629 14.4795L18.5471 14.4818C18.6499 14.482 18.7333 14.3956 18.7335 14.2888L18.7341 13.9331C18.7343 13.8264 18.6511 13.7397 18.5484 13.7395Z" fill="#E52612"/>
<path d="M83.3872 18.0035C82.6822 17.7344 82.3196 16.8766 82.3494 16.1663C82.3818 15.3949 82.8832 14.757 83.5706 14.5146C84.7486 14.0987 85.9576 14.7991 86.1613 16.1263C86.2695 16.8351 85.9982 17.2855 85.5523 17.7794C85.4725 17.8679 85.3785 17.9346 85.2702 17.9796C84.6459 18.2367 84.0183 18.2447 83.3872 18.0035Z" fill="#E52612"/>
<path d="M14.8203 15.4856C14.6304 15.8174 14.4441 16.1511 14.2614 16.4867C14.2515 16.5049 14.2427 16.526 14.2351 16.5499C14.2292 16.5673 14.2177 16.5752 14.2005 16.5738C14.1227 16.5675 14.0612 16.5801 13.9915 16.5387C13.8271 16.4424 13.4935 16.3299 13.6397 16.0635C13.8638 15.6557 14.0936 15.2492 14.3291 14.8438C14.3393 14.8261 14.353 14.8108 14.3692 14.7989C14.3855 14.787 14.4039 14.7787 14.4234 14.7746C14.4429 14.7704 14.4631 14.7705 14.4826 14.7748C14.5021 14.7791 14.5206 14.7875 14.5368 14.7995L14.8575 15.0378C14.8756 15.051 14.8871 15.0688 14.892 15.0913C14.92 15.2215 14.8961 15.353 14.8203 15.4856Z" fill="#32B8C4"/>
<path d="M6.97296 15.4558L7.30923 16.7591C7.31741 16.7907 7.31921 16.8237 7.31452 16.856C7.30983 16.8884 7.29875 16.9193 7.28197 16.947C7.26519 16.9747 7.24308 16.9984 7.21703 17.0168C7.19098 17.0351 7.16155 17.0477 7.1306 17.0537L6.8965 17.0986C6.84193 17.1093 6.7855 17.0989 6.73779 17.0694C6.69008 17.0399 6.65437 16.9933 6.63737 16.9384L6.23953 15.6505C6.22965 15.6187 6.22637 15.5851 6.22988 15.5519C6.2334 15.5187 6.24364 15.4866 6.25994 15.4578C6.27623 15.429 6.29821 15.4041 6.32443 15.3847C6.35065 15.3653 6.38051 15.352 6.41206 15.3454L6.70841 15.2843C6.76523 15.2726 6.82418 15.2839 6.87332 15.3157C6.92245 15.3476 6.95807 15.3977 6.97296 15.4558Z" fill="#E52612"/>
<path d="M10.9239 15.949L10.6372 16.0271C10.5151 16.0604 10.442 16.1903 10.4741 16.3172L10.8031 17.62C10.8352 17.7469 10.9602 17.8228 11.0824 17.7895L11.3691 17.7114C11.4912 17.6782 11.5643 17.5483 11.5322 17.4213L11.2031 16.1186C11.1711 15.9916 11.0461 15.9157 10.9239 15.949Z" fill="#EBBA31"/>
<path d="M48.9987 26.7407C49.0596 27.1688 49.7686 27.1477 49.9263 26.7576C49.9358 26.7346 49.9524 26.7231 49.9764 26.7231H50.1354C50.1579 26.7231 50.1687 26.7351 50.1678 26.759C50.1387 27.4816 48.8099 27.5027 48.7463 26.7555C48.7445 26.7339 48.7542 26.7231 48.7754 26.7231H48.9797C48.991 26.7231 48.9973 26.729 48.9987 26.7407Z" fill="#344150"/>
<path d="M71.2756 26.8349C71.486 27.1913 72.0043 27.1077 72.1667 26.7513C72.1753 26.7325 72.1895 26.7231 72.2093 26.7231H72.3737C72.394 26.7231 72.4037 26.7337 72.4028 26.7548C72.3805 27.4802 71.0442 27.507 70.9827 26.7534C70.9808 26.7337 70.9896 26.7236 71.009 26.7231H71.1775C71.2014 26.7231 71.2192 26.7339 71.231 26.7555C71.2454 26.7827 71.2603 26.8091 71.2756 26.8349Z" fill="#344150"/>
<path d="M21.3219 31.2485C21.1156 31.2474 20.9115 31.2006 20.7214 31.1107C20.5312 31.0208 20.3587 30.8896 20.2136 30.7246C20.0686 30.5596 19.9538 30.364 19.876 30.149C19.7981 29.9341 19.7586 29.7039 19.7598 29.4717C19.761 29.2395 19.8028 29.0097 19.8828 28.7956C19.9628 28.5815 20.0795 28.3872 20.2262 28.2238C20.373 28.0604 20.5468 27.9311 20.7379 27.8433C20.9289 27.7554 21.1334 27.7108 21.3397 27.7119C21.5461 27.7131 21.7501 27.7599 21.9403 27.8498C22.1304 27.9397 22.303 28.0709 22.448 28.2359C22.5931 28.4009 22.7078 28.5965 22.7857 28.8114C22.8636 29.0264 22.903 29.2566 22.9019 29.4888C22.9007 29.721 22.8589 29.9507 22.7789 30.1648C22.6988 30.3789 22.5821 30.5732 22.4354 30.7366C22.2887 30.9001 22.1148 31.0294 21.9238 31.1172C21.7327 31.205 21.5282 31.2496 21.3219 31.2485ZM21.3292 30.8481C21.4793 30.8484 21.6279 30.8133 21.7667 30.7448C21.9055 30.6764 22.0316 30.5759 22.1379 30.4491C22.2443 30.3224 22.3287 30.1718 22.3864 30.006C22.4441 29.8403 22.474 29.6625 22.4743 29.483C22.4746 29.3035 22.4453 29.1256 22.3882 28.9597C22.331 28.7937 22.2471 28.6428 22.1412 28.5157C22.0353 28.3885 21.9095 28.2876 21.7709 28.2186C21.6324 28.1497 21.4839 28.114 21.3338 28.1138C21.1837 28.1135 21.0351 28.1486 20.8963 28.217C20.7575 28.2855 20.6314 28.386 20.5251 28.5127C20.4187 28.6395 20.3343 28.7901 20.2766 28.9558C20.2189 29.1216 20.189 29.2993 20.1887 29.4789C20.1884 29.6584 20.2177 29.8362 20.2748 30.0022C20.332 30.1682 20.4159 30.319 20.5218 30.4462C20.6277 30.5733 20.7535 30.6743 20.8921 30.7432C21.0306 30.8122 21.1791 30.8478 21.3292 30.8481Z" fill="#344150"/>
<path d="M55.4987 31.2495C55.2924 31.2488 55.0883 31.2023 54.8979 31.1127C54.7076 31.0232 54.5349 30.8923 54.3895 30.7276C54.2442 30.5628 54.1291 30.3675 54.0509 30.1526C53.9727 29.9378 53.9328 29.7077 53.9336 29.4755C53.9352 29.0065 54.1022 28.5573 54.398 28.2268C54.6937 27.8962 55.0939 27.7114 55.5106 27.7129C55.7169 27.7136 55.921 27.7601 56.1114 27.8497C56.3017 27.9392 56.4744 28.0701 56.6198 28.2349C56.7651 28.3996 56.8801 28.5949 56.9584 28.8098C57.0366 29.0246 57.0765 29.2547 57.0757 29.4869C57.0741 29.9559 56.9071 30.4051 56.6113 30.7356C56.3156 31.0662 55.9154 31.251 55.4987 31.2495ZM55.5023 30.8484C55.6524 30.8486 55.8011 30.8135 55.9398 30.7451C56.0786 30.6766 56.2048 30.5762 56.3111 30.4494C56.4174 30.3226 56.5018 30.1721 56.5596 30.0063C56.6173 29.8405 56.6471 29.6628 56.6474 29.4833C56.6477 29.3037 56.6185 29.1259 56.5613 28.9599C56.5042 28.794 56.4202 28.6431 56.3143 28.5159C56.2084 28.3888 56.0826 28.2879 55.9441 28.2189C55.8056 28.1499 55.657 28.1143 55.5069 28.114C55.3569 28.1138 55.2082 28.1489 55.0695 28.2173C54.9307 28.2858 54.8045 28.3862 54.6982 28.513C54.5919 28.6398 54.5075 28.7903 54.4497 28.9561C54.392 29.1219 54.3622 29.2996 54.3619 29.4791C54.3616 29.6587 54.3908 29.8365 54.448 30.0025C54.5051 30.1684 54.5891 30.3193 54.695 30.4465C54.8009 30.5736 54.9267 30.6745 55.0652 30.7435C55.2037 30.8125 55.3523 30.8481 55.5023 30.8484Z" fill="#344150"/>
<path d="M92.5257 31.2495C92.3193 31.2484 92.1152 31.2015 91.9249 31.1116C91.7347 31.0217 91.5621 30.8905 91.417 30.7255C91.2718 30.5605 91.1571 30.365 91.0791 30.15C91.0012 29.935 90.9617 29.7049 90.9629 29.4727C90.9641 29.2404 91.0059 29.0107 91.086 28.7966C91.166 28.5825 91.2828 28.3882 91.4296 28.2248C91.5763 28.0614 91.7503 27.9321 91.9414 27.8442C92.1325 27.7564 92.3371 27.7118 92.5435 27.7129C92.7499 27.714 92.9541 27.7609 93.1443 27.8508C93.3346 27.9407 93.5072 28.0719 93.6523 28.2369C93.7974 28.4019 93.9122 28.5974 93.9901 28.8124C94.068 29.0274 94.1075 29.2575 94.1063 29.4897C94.1052 29.722 94.0634 29.9517 93.9833 30.1658C93.9032 30.3799 93.7865 30.5742 93.6397 30.7376C93.4929 30.901 93.319 31.0303 93.1279 31.1182C92.9367 31.206 92.7321 31.2506 92.5257 31.2495ZM92.533 30.8491C92.6831 30.8493 92.8317 30.8142 92.9705 30.7457C93.1093 30.6772 93.2354 30.5767 93.3417 30.4499C93.4481 30.3231 93.5325 30.1724 93.5902 30.0066C93.6479 29.8407 93.6778 29.6629 93.6781 29.4833C93.6784 29.3036 93.6491 29.1257 93.592 28.9597C93.5348 28.7936 93.4509 28.6427 93.345 28.5154C93.2391 28.3882 93.1133 28.2873 92.9748 28.2183C92.8362 28.1493 92.6877 28.1136 92.5376 28.1133C92.3875 28.1131 92.2389 28.1482 92.1001 28.2167C91.9613 28.2852 91.8352 28.3857 91.7289 28.5125C91.6225 28.6393 91.5381 28.79 91.4804 28.9558C91.4227 29.1217 91.3928 29.2995 91.3925 29.4791C91.3922 29.6588 91.4215 29.8367 91.4786 30.0027C91.5358 30.1688 91.6197 30.3198 91.7256 30.447C91.8315 30.5742 91.9573 30.6752 92.0959 30.7441C92.2344 30.8131 92.3829 30.8488 92.533 30.8491Z" fill="#344150"/>
<path d="M8.07036 29.7092H6.27874C6.27299 29.7092 6.26749 29.7116 6.26343 29.7158C6.25937 29.72 6.25709 29.7258 6.25709 29.7317V31.2703C6.25709 31.2763 6.2548 31.282 6.25074 31.2862C6.24668 31.2904 6.24118 31.2928 6.23544 31.2928L5.84978 31.2921C5.84403 31.2921 5.83853 31.2897 5.83447 31.2855C5.83041 31.2813 5.82813 31.2756 5.82812 31.2696L5.8288 27.8257C5.8288 27.8197 5.83108 27.814 5.83514 27.8098C5.8392 27.8056 5.84471 27.8032 5.85045 27.8032L6.23476 27.8039C6.2405 27.8039 6.24601 27.8063 6.25007 27.8105C6.25413 27.8147 6.25641 27.8204 6.25641 27.8264V29.2863C6.25641 29.2923 6.25869 29.298 6.26275 29.3022C6.26681 29.3064 6.27232 29.3088 6.27806 29.3088H8.07036C8.0761 29.3088 8.08161 29.3064 8.08567 29.3022C8.08973 29.298 8.09201 29.2923 8.09201 29.2863V27.8257C8.09201 27.8197 8.09429 27.814 8.09835 27.8098C8.10241 27.8056 8.10792 27.8032 8.11366 27.8032L8.49594 27.8039C8.50168 27.8039 8.50719 27.8063 8.51125 27.8105C8.51531 27.8147 8.51759 27.8204 8.51759 27.8264V31.2696C8.51759 31.2756 8.51531 31.2813 8.51125 31.2855C8.50719 31.2897 8.50168 31.2921 8.49594 31.2921L8.11366 31.2928C8.10792 31.2928 8.10241 31.2904 8.09835 31.2862C8.09429 31.282 8.09201 31.2763 8.09201 31.2703V29.7317C8.09201 29.7258 8.08973 29.72 8.08567 29.7158C8.08161 29.7116 8.0761 29.7092 8.07036 29.7092Z" fill="#344150"/>
<path d="M10.4566 30.2143L10.077 31.2084C10.0755 31.2124 10.0729 31.2158 10.0695 31.2181C10.0662 31.2205 10.0622 31.2218 10.0581 31.2218L9.64536 31.2225C9.64205 31.2225 9.63878 31.2216 9.63585 31.22C9.63291 31.2184 9.6304 31.2161 9.62854 31.2133C9.62667 31.2104 9.6255 31.2072 9.62513 31.2037C9.62476 31.2003 9.6252 31.1969 9.62641 31.1937L10.9796 27.7463C10.9811 27.7423 10.9837 27.7389 10.9871 27.7365C10.9905 27.7342 10.9945 27.7329 10.9985 27.7329L11.3321 27.7336C11.3362 27.7336 11.3402 27.7349 11.3436 27.7372C11.3469 27.7396 11.3496 27.743 11.3511 27.747L12.6988 31.193C12.7 31.1961 12.7005 31.1995 12.7001 31.2029C12.6998 31.2062 12.6987 31.2095 12.6969 31.2123C12.6951 31.2151 12.6927 31.2175 12.6898 31.2191C12.687 31.2208 12.6838 31.2217 12.6806 31.2218L12.2678 31.2225C12.2638 31.2225 12.2598 31.2212 12.2564 31.2188C12.253 31.2165 12.2504 31.2131 12.2489 31.2091L11.8639 30.2143C11.8624 30.2104 11.8598 30.207 11.8564 30.2046C11.853 30.2022 11.8491 30.201 11.845 30.201H10.4755C10.4715 30.201 10.4675 30.2022 10.4641 30.2046C10.4607 30.207 10.4581 30.2104 10.4566 30.2143ZM10.5621 29.8195C10.5608 29.823 10.5604 29.8267 10.5607 29.8304C10.5611 29.8341 10.5624 29.8377 10.5644 29.8408C10.5664 29.8439 10.569 29.8464 10.5722 29.8482C10.5753 29.85 10.5789 29.851 10.5824 29.8511L11.7313 29.8553C11.7349 29.8553 11.7385 29.8544 11.7418 29.8527C11.745 29.8509 11.7478 29.8484 11.7499 29.8453C11.7519 29.8422 11.7532 29.8386 11.7537 29.8348C11.7541 29.831 11.7536 29.8272 11.7523 29.8237L11.1833 28.3083C11.1817 28.3038 11.1788 28.3 11.1751 28.2972C11.1713 28.2945 11.1669 28.2931 11.1623 28.2931C11.1577 28.2931 11.1532 28.2945 11.1495 28.2972C11.1457 28.3 11.1429 28.3038 11.1413 28.3083L10.5621 29.8195Z" fill="#344150"/>
<path d="M15.8962 30.7998V27.7577C15.8962 27.751 15.8988 27.7446 15.9034 27.7398C15.9079 27.7351 15.9141 27.7324 15.9206 27.7324L16.2968 27.7345C16.3032 27.7345 16.3094 27.7372 16.314 27.7419C16.3186 27.7467 16.3211 27.7531 16.3211 27.7598V30.7998C16.3211 30.8065 16.3237 30.8129 16.3283 30.8176C16.3328 30.8224 16.339 30.825 16.3455 30.825L16.8191 30.8236C16.8256 30.8236 16.8317 30.8263 16.8363 30.831C16.8409 30.8358 16.8434 30.8422 16.8434 30.8489V32.1079C16.8434 32.1146 16.8409 32.121 16.8363 32.1258C16.8317 32.1305 16.8256 32.1332 16.8191 32.1332H16.4869C16.4804 32.1332 16.4742 32.1305 16.4697 32.1258C16.4651 32.121 16.4625 32.1146 16.4625 32.1079L16.4639 31.2473C16.4639 31.244 16.4633 31.2407 16.462 31.2376C16.4608 31.2345 16.459 31.2317 16.4567 31.2294C16.4545 31.227 16.4518 31.2252 16.4488 31.2239C16.4459 31.2226 16.4427 31.222 16.4395 31.222H13.8935C13.887 31.222 13.8808 31.2193 13.8763 31.2146C13.8717 31.2098 13.8691 31.2034 13.8691 31.1967V27.7584C13.8691 27.7517 13.8717 27.7453 13.8763 27.7405C13.8808 27.7358 13.887 27.7331 13.8935 27.7331L14.2724 27.7338C14.2789 27.7338 14.285 27.7365 14.2896 27.7412C14.2942 27.746 14.2967 27.7524 14.2967 27.7591V30.799C14.2967 30.8058 14.2993 30.8122 14.3039 30.8169C14.3085 30.8217 14.3146 30.8243 14.3211 30.8243L15.8719 30.825C15.8783 30.825 15.8845 30.8224 15.8891 30.8176C15.8937 30.8129 15.8962 30.8065 15.8962 30.7998Z" fill="#344150"/>
<path d="M18.4359 27.7334H18.0543C18.0416 27.7334 18.0312 27.7441 18.0312 27.7573V31.1984C18.0312 31.2116 18.0416 31.2223 18.0543 31.2223H18.4359C18.4486 31.2223 18.4589 31.2116 18.4589 31.1984V27.7573C18.4589 27.7441 18.4486 27.7334 18.4359 27.7334Z" fill="#344150"/>
<path d="M24.6268 29.6614V31.1993C24.6268 31.2053 24.6245 31.211 24.6204 31.2152C24.6163 31.2194 24.6108 31.2218 24.6051 31.2218L24.2228 31.2225C24.2171 31.2225 24.2116 31.2201 24.2075 31.2159C24.2035 31.2117 24.2012 31.2059 24.2012 31.2V27.7554C24.2012 27.7494 24.2035 27.7437 24.2075 27.7395C24.2116 27.7353 24.2171 27.7329 24.2228 27.7329L24.6051 27.7336C24.6108 27.7336 24.6163 27.736 24.6204 27.7402C24.6245 27.7444 24.6268 27.7501 24.6268 27.7561V29.216C24.6268 29.222 24.629 29.2277 24.6331 29.2319C24.6372 29.2361 24.6427 29.2385 24.6484 29.2385H26.4434C26.4491 29.2385 26.4547 29.2361 26.4587 29.2319C26.4628 29.2277 26.4651 29.222 26.4651 29.216V27.7568C26.4651 27.7508 26.4673 27.7451 26.4714 27.7409C26.4755 27.7367 26.481 27.7343 26.4867 27.7343L26.869 27.7329C26.8747 27.7329 26.8802 27.7353 26.8843 27.7395C26.8884 27.7437 26.8906 27.7494 26.8906 27.7554V31.1993C26.8906 31.2053 26.8884 31.211 26.8843 31.2152C26.8802 31.2194 26.8747 31.2218 26.869 31.2218H26.4867C26.481 31.2218 26.4755 31.2194 26.4714 31.2152C26.4673 31.211 26.4651 31.2053 26.4651 31.1993V29.6614C26.4651 29.6554 26.4628 29.6497 26.4587 29.6455C26.4547 29.6413 26.4491 29.6389 26.4434 29.6389H24.6484C24.6427 29.6389 24.6372 29.6413 24.6331 29.6455C24.629 29.6497 24.6268 29.6554 24.6268 29.6614Z" fill="#344150"/>
<path d="M30.2742 30.201H28.9054C28.9012 30.201 28.897 30.2023 28.8935 30.2048C28.89 30.2073 28.8873 30.2109 28.8858 30.215L28.5063 31.2084C28.5048 31.2126 28.5021 31.2161 28.4986 31.2186C28.4951 31.2211 28.4909 31.2225 28.4866 31.2225L28.0759 31.2211C28.0725 31.2211 28.069 31.2203 28.0659 31.2186C28.0629 31.2169 28.0602 31.2145 28.0583 31.2115C28.0563 31.2085 28.0551 31.205 28.0548 31.2014C28.0544 31.1978 28.055 31.1942 28.0563 31.1909L29.4088 27.7463C29.4105 27.7423 29.4132 27.7388 29.4167 27.7365C29.4202 27.7341 29.4243 27.7329 29.4285 27.7329L29.7607 27.7336C29.7648 27.7336 29.7689 27.7348 29.7724 27.7372C29.7759 27.7396 29.7787 27.743 29.7803 27.747L31.1281 31.1916C31.1294 31.1949 31.1299 31.1985 31.1296 31.2021C31.1293 31.2057 31.1281 31.2092 31.1261 31.2122C31.1242 31.2152 31.1215 31.2176 31.1184 31.2193C31.1154 31.221 31.1119 31.2218 31.1084 31.2218L30.6978 31.2225C30.6936 31.2225 30.6895 31.2213 30.686 31.2189C30.6825 31.2165 30.6797 31.2131 30.6781 31.2091L30.2938 30.2143C30.2922 30.2103 30.2895 30.2069 30.286 30.2045C30.2825 30.2021 30.2784 30.2009 30.2742 30.201ZM28.99 29.8223C28.9888 29.8255 28.9884 29.829 28.9887 29.8324C28.9891 29.8358 28.9903 29.8391 28.9921 29.8419C28.994 29.8447 28.9965 29.8471 28.9995 29.8487C29.0024 29.8503 29.0057 29.8511 29.009 29.8511L30.1639 29.8553C30.1672 29.8553 30.1705 29.8545 30.1734 29.8529C30.1764 29.8513 30.1789 29.849 30.1807 29.8461C30.1826 29.8433 30.1838 29.84 30.1841 29.8366C30.1845 29.8332 30.1841 29.8297 30.1829 29.8265L29.6105 28.3034C29.609 28.2994 29.6064 28.296 29.603 28.2936C29.5996 28.2912 29.5956 28.2899 29.5915 28.2899C29.5874 28.2899 29.5834 28.2912 29.58 28.2936C29.5766 28.296 29.574 28.2994 29.5726 28.3034L28.99 29.8223Z" fill="#344150"/>
<path d="M33.1885 28.1608C33.1579 28.6446 33.1098 29.1315 33.0444 29.6214C32.9666 30.2038 32.7812 31.2386 32.0268 31.2541C32.0052 31.2546 31.9925 31.2435 31.9889 31.2211L31.9246 30.8529C31.921 30.8323 31.9294 30.8218 31.9497 30.8213C32.2819 30.8115 32.4409 30.463 32.514 30.149C32.6946 29.3755 32.7318 28.5605 32.7914 27.7687C32.7932 27.7449 32.8056 27.7329 32.8286 27.7329H34.5431C34.5461 27.7329 34.5491 27.7335 34.5519 27.7347C34.5547 27.7359 34.5572 27.7377 34.5593 27.7399C34.5615 27.7421 34.5632 27.7448 34.5643 27.7477C34.5655 27.7506 34.5661 27.7537 34.5661 27.7568V31.2049C34.5661 31.2161 34.5607 31.2218 34.5498 31.2218L34.1608 31.2225C34.1459 31.2225 34.1385 31.2147 34.1385 31.1993V28.1537C34.1385 28.1476 34.1361 28.1417 34.1319 28.1373C34.1277 28.133 34.1221 28.1306 34.1161 28.1306L33.2183 28.1313C33.2106 28.1312 33.2033 28.1343 33.1977 28.1398C33.1922 28.1453 33.1889 28.1528 33.1885 28.1608Z" fill="#344150"/>
<path d="M36.5674 29.0221C36.93 29.0186 37.3827 28.9856 37.6885 29.0952C38.5532 29.405 38.5823 30.7328 37.7676 31.1051C37.3488 31.2976 36.6296 31.226 36.1283 31.2204C36.1053 31.2199 36.0938 31.208 36.0938 31.1845V27.7582C36.0938 27.7515 36.0963 27.7451 36.1009 27.7403C36.1055 27.7356 36.1116 27.7329 36.1181 27.7329L36.4956 27.7336C36.5019 27.7336 36.508 27.7362 36.5124 27.7408C36.5168 27.7454 36.5193 27.7517 36.5193 27.7582V28.9729C36.5193 29.0062 36.5353 29.0226 36.5674 29.0221ZM36.5173 29.4422L36.5146 30.7981C36.5146 30.8078 36.5183 30.8171 36.5249 30.824C36.5315 30.8308 36.5404 30.8347 36.5498 30.8347L37.292 30.8361C37.3744 30.8363 37.456 30.8196 37.5321 30.7872C37.6083 30.7547 37.6775 30.7071 37.7359 30.6469C37.7943 30.5868 37.8406 30.5153 37.8723 30.4366C37.904 30.3579 37.9204 30.2736 37.9206 30.1883V30.0576C37.9207 29.9724 37.9047 29.8879 37.8733 29.8091C37.842 29.7303 37.7959 29.6586 37.7378 29.5982C37.6797 29.5378 37.6107 29.4898 37.5346 29.457C37.4586 29.4242 37.3771 29.4073 37.2947 29.4071L36.5525 29.4057C36.5479 29.4057 36.5433 29.4066 36.539 29.4085C36.5347 29.4103 36.5309 29.413 36.5276 29.4164C36.5243 29.4198 36.5217 29.4238 36.52 29.4282C36.5182 29.4327 36.5173 29.4374 36.5173 29.4422Z" fill="#344150"/>
<path d="M40.0193 29.6623V31.1988C40.0193 31.2049 40.017 31.2108 40.0128 31.2152C40.0086 31.2195 40.0029 31.222 39.997 31.222H39.6161C39.6102 31.222 39.6045 31.2195 39.6003 31.2152C39.5961 31.2108 39.5937 31.2049 39.5938 31.1988V27.7563C39.5938 27.7502 39.5961 27.7443 39.6003 27.7399C39.6045 27.7356 39.6102 27.7331 39.6161 27.7331L39.997 27.7338C40.0029 27.7338 40.0086 27.7363 40.0128 27.7406C40.017 27.745 40.0193 27.7509 40.0193 27.757V29.2155C40.0193 29.2217 40.0217 29.2276 40.0259 29.2319C40.0301 29.2362 40.0357 29.2387 40.0417 29.2387H41.836C41.8419 29.2387 41.8476 29.2362 41.8518 29.2319C41.856 29.2276 41.8583 29.2217 41.8583 29.2155L41.8576 27.757C41.8576 27.7509 41.86 27.745 41.8642 27.7406C41.8684 27.7363 41.874 27.7338 41.88 27.7338L42.2609 27.7324C42.2668 27.7324 42.2725 27.7349 42.2767 27.7392C42.2809 27.7436 42.2832 27.7495 42.2832 27.7556V31.1988C42.2832 31.2049 42.2809 31.2108 42.2767 31.2152C42.2725 31.2195 42.2668 31.222 42.2609 31.222L41.8806 31.2227C41.8747 31.2227 41.869 31.2202 41.8649 31.2159C41.8607 31.2115 41.8583 31.2057 41.8583 31.1995V29.6623C41.8583 29.6562 41.856 29.6503 41.8518 29.6459C41.8476 29.6416 41.8419 29.6391 41.836 29.6391H40.0417C40.0357 29.6391 40.0301 29.6416 40.0259 29.6459C40.0217 29.6503 40.0193 29.6562 40.0193 29.6623Z" fill="#344150"/>
<path d="M44.2283 30.4995C44.2283 30.5281 44.2362 30.5307 44.252 30.5073L46.1363 27.7659C46.1516 27.7439 46.1724 27.7329 46.1986 27.7329L46.4739 27.7336C46.4992 27.7336 46.5118 27.7467 46.5118 27.773V31.2035C46.5118 31.2083 46.5099 31.213 46.5065 31.2164C46.503 31.2198 46.4984 31.2218 46.4935 31.2218H46.1025C46.0876 31.2218 46.0801 31.214 46.0801 31.1986L46.0808 28.5177C46.0808 28.4844 46.0716 28.4814 46.0531 28.5085L44.204 31.1986C44.1987 31.206 44.1919 31.212 44.1842 31.2161C44.1764 31.2203 44.1679 31.2225 44.1593 31.2225L43.8393 31.2218C43.8149 31.2218 43.8027 31.2094 43.8027 31.1845V27.7589C43.8027 27.752 43.8054 27.7454 43.8103 27.7405C43.8151 27.7357 43.8216 27.7329 43.8284 27.7329L44.2046 27.7336C44.2109 27.7336 44.2169 27.7362 44.2214 27.7408C44.2258 27.7454 44.2283 27.7517 44.2283 27.7582V30.4995Z" fill="#344150"/>
<path d="M50.3979 27.7329H50.7166C50.7223 27.7329 50.7278 27.7353 50.7319 27.7395C50.7359 27.7437 50.7382 27.7494 50.7382 27.7554V31.1993C50.7382 31.2053 50.7359 31.211 50.7319 31.2152C50.7278 31.2194 50.7223 31.2218 50.7166 31.2218L50.3323 31.2225C50.3265 31.2225 50.321 31.2201 50.317 31.2159C50.3129 31.2117 50.3106 31.2059 50.3106 31.2L50.3099 28.5366C50.31 28.5318 50.3086 28.5272 50.3059 28.5233C50.3032 28.5194 50.2994 28.5165 50.295 28.515C50.2907 28.5135 50.2859 28.5135 50.2816 28.515C50.2772 28.5165 50.2734 28.5194 50.2707 28.5233L48.4216 31.2133C48.4195 31.2163 48.4167 31.2187 48.4135 31.2203C48.4103 31.2219 48.4068 31.2226 48.4033 31.2225L48.0549 31.2218C48.0491 31.2218 48.0436 31.2194 48.0395 31.2152C48.0355 31.211 48.0332 31.2053 48.0332 31.1993V27.7554C48.0332 27.7494 48.0355 27.7437 48.0395 27.7395C48.0436 27.7353 48.0491 27.7329 48.0549 27.7329L48.4365 27.7336C48.4422 27.7336 48.4477 27.736 48.4518 27.7402C48.4558 27.7444 48.4581 27.7501 48.4581 27.7561V30.4693C48.4581 30.4741 48.4595 30.4788 48.4622 30.4827C48.4648 30.4866 48.4686 30.4895 48.473 30.4909C48.4774 30.4924 48.4821 30.4924 48.4865 30.491C48.4909 30.4895 48.4947 30.4866 48.4974 30.4827L50.3803 27.742C50.3823 27.7392 50.385 27.7369 50.3881 27.7353C50.3911 27.7337 50.3945 27.7329 50.3979 27.7329Z" fill="#344150"/>
<path d="M60.6146 29.6389H58.8216C58.8159 29.6389 58.8104 29.6413 58.8063 29.6455C58.8023 29.6497 58.8 29.6554 58.8 29.6614V31.1986C58.8 31.2045 58.7977 31.2103 58.7936 31.2145C58.7896 31.2187 58.7841 31.2211 58.7783 31.2211L58.3947 31.2225C58.389 31.2225 58.3835 31.2201 58.3794 31.2159C58.3753 31.2117 58.373 31.2059 58.373 31.2V27.7554C58.373 27.7494 58.3753 27.7437 58.3794 27.7395C58.3835 27.7353 58.389 27.7329 58.3947 27.7329L58.7783 27.7336C58.7841 27.7336 58.7896 27.736 58.7936 27.7402C58.7977 27.7444 58.8 27.7501 58.8 27.7561V29.216C58.8 29.222 58.8023 29.2277 58.8063 29.2319C58.8104 29.2361 58.8159 29.2385 58.8216 29.2385H60.6146C60.6203 29.2385 60.6259 29.2361 60.6299 29.2319C60.634 29.2277 60.6363 29.222 60.6363 29.216V27.7561C60.6363 27.7501 60.6385 27.7444 60.6426 27.7402C60.6467 27.736 60.6522 27.7336 60.6579 27.7336L61.0402 27.7329C61.0459 27.7329 61.0514 27.7353 61.0555 27.7395C61.0596 27.7437 61.0618 27.7494 61.0618 27.7554V31.1993C61.0618 31.2053 61.0596 31.211 61.0555 31.2152C61.0514 31.2194 61.0459 31.2218 61.0402 31.2218H60.6579C60.6522 31.2218 60.6467 31.2194 60.6426 31.2152C60.6385 31.211 60.6363 31.2053 60.6363 31.1993V29.6614C60.6363 29.6554 60.634 29.6497 60.6299 29.6455C60.6259 29.6413 60.6203 29.6389 60.6146 29.6389Z" fill="#344150"/>
<path d="M64.3919 28.1306L63.5116 28.1313C63.4895 28.1313 63.4776 28.1427 63.4758 28.1657C63.4216 28.8668 63.3716 29.589 63.2058 30.2719C63.0928 30.7384 62.8262 31.2499 62.3127 31.2541C62.291 31.2546 62.2784 31.2438 62.2748 31.2218L62.2099 30.8543C62.2062 30.8347 62.2139 30.8241 62.2329 30.8227C62.7017 30.7918 62.8215 30.1328 62.8871 29.7443C62.9521 29.3593 63.0134 28.7045 63.0712 27.78C63.073 27.7486 63.089 27.7329 63.1192 27.7329L64.8107 27.7336C64.8368 27.7336 64.8499 27.7472 64.8499 27.7744V31.2021C64.8499 31.2073 64.8479 31.2123 64.8442 31.216C64.8405 31.2197 64.8355 31.2218 64.8303 31.2218H64.4426C64.4304 31.2218 64.4243 31.2157 64.4243 31.2035V28.165C64.4243 28.142 64.4135 28.1306 64.3919 28.1306Z" fill="#344150"/>
<path d="M66.8538 30.215L66.4743 31.2084C66.4726 31.2126 66.4698 31.2162 66.4662 31.2187C66.4626 31.2212 66.4583 31.2225 66.454 31.2225L66.0446 31.2211C66.0411 31.221 66.0377 31.22 66.0346 31.2183C66.0316 31.2165 66.0289 31.214 66.027 31.211C66.0251 31.2079 66.0239 31.2044 66.0235 31.2008C66.0232 31.1972 66.0237 31.1935 66.025 31.1902L67.3769 27.747C67.3785 27.7428 67.3813 27.7392 67.3849 27.7367C67.3885 27.7342 67.3928 27.7329 67.3971 27.7329H67.7273C67.7317 27.7329 67.7359 27.7342 67.7396 27.7367C67.7432 27.7392 67.746 27.7428 67.7476 27.747L69.0954 31.1902C69.0967 31.1935 69.0972 31.1972 69.0969 31.2008C69.0965 31.2044 69.0953 31.2079 69.0934 31.211C69.0915 31.214 69.0889 31.2165 69.0858 31.2183C69.0827 31.22 69.0793 31.221 69.0758 31.2211L68.6664 31.2225C68.6621 31.2225 68.6578 31.2212 68.6542 31.2187C68.6506 31.2162 68.6478 31.2126 68.6461 31.2084L68.2618 30.215C68.2602 30.2108 68.2574 30.2072 68.2538 30.2047C68.2502 30.2022 68.2459 30.2009 68.2415 30.201H66.8741C66.8698 30.2009 66.8655 30.2022 66.8619 30.2047C66.8583 30.2072 66.8555 30.2108 66.8538 30.215ZM66.9587 29.8209C66.9574 29.8242 66.9569 29.8277 66.9572 29.8313C66.9575 29.8348 66.9586 29.8382 66.9605 29.8412C66.9624 29.8442 66.9649 29.8466 66.9679 29.8484C66.9709 29.8501 66.9742 29.851 66.9777 29.8511L68.1306 29.8553C68.1341 29.8554 68.1375 29.8545 68.1406 29.8528C68.1437 29.8512 68.1463 29.8487 68.1482 29.8457C68.1502 29.8427 68.1514 29.8393 68.1517 29.8357C68.1521 29.8321 68.1515 29.8284 68.1502 29.8251L67.5792 28.3055C67.5777 28.3014 67.575 28.2978 67.5715 28.2953C67.568 28.2928 67.5638 28.2914 67.5595 28.2914C67.5553 28.2914 67.5511 28.2928 67.5476 28.2953C67.5441 28.2978 67.5414 28.3014 67.5399 28.3055L66.9587 29.8209Z" fill="#344150"/>
<path d="M70.6913 30.4806C70.6913 30.5209 70.7026 30.5246 70.7251 30.4918L72.5986 27.7659C72.6057 27.7557 72.615 27.7474 72.6257 27.7416C72.6365 27.7359 72.6482 27.7329 72.6602 27.7329L72.9301 27.7336C72.9563 27.7336 72.9694 27.7472 72.9694 27.7744V31.2021C72.9694 31.2073 72.9673 31.2123 72.9636 31.216C72.9599 31.2197 72.955 31.2218 72.9497 31.2218H72.5621C72.5572 31.2218 72.5526 31.2198 72.5491 31.2164C72.5457 31.213 72.5438 31.2083 72.5438 31.2035V28.5141C72.5438 28.4828 72.535 28.48 72.5174 28.5057L70.6703 31.1916C70.6563 31.2122 70.6374 31.2225 70.6135 31.2225L70.2968 31.2218C70.2747 31.2218 70.2637 31.2103 70.2637 31.1873V27.7568C70.2637 27.7409 70.2713 27.7329 70.2867 27.7329L70.6662 27.7336C70.6696 27.7336 70.673 27.7343 70.6761 27.7356C70.6792 27.7369 70.682 27.7388 70.6844 27.7412C70.6868 27.7436 70.6887 27.7465 70.69 27.7497C70.6913 27.7528 70.692 27.7562 70.692 27.7596L70.6913 30.4806Z" fill="#344150"/>
<path d="M76.727 29.6389H74.9469C74.9433 29.6389 74.9398 29.6397 74.9365 29.6411C74.9332 29.6425 74.9302 29.6445 74.9277 29.6472C74.9252 29.6498 74.9232 29.6529 74.9219 29.6563C74.9205 29.6597 74.9198 29.6633 74.9198 29.667L74.9205 31.193C74.9205 31.2004 74.9176 31.2076 74.9125 31.2128C74.9075 31.2181 74.9006 31.2211 74.8934 31.2211L74.5192 31.2218C74.5121 31.2218 74.5052 31.2188 74.5001 31.2135C74.495 31.2083 74.4922 31.2011 74.4922 31.1937V27.761C74.4922 27.7536 74.495 27.7464 74.5001 27.7411C74.5052 27.7359 74.5121 27.7329 74.5192 27.7329L74.8927 27.7336C74.8999 27.7336 74.9068 27.7366 74.9119 27.7418C74.9169 27.7471 74.9198 27.7543 74.9198 27.7617L74.9191 29.2104C74.9191 29.2178 74.922 29.225 74.927 29.2302C74.9321 29.2355 74.939 29.2385 74.9462 29.2385H76.7263C76.7335 29.2385 76.7404 29.2355 76.7454 29.2302C76.7505 29.225 76.7534 29.2178 76.7534 29.2104V27.761C76.7534 27.7536 76.7562 27.7464 76.7613 27.7411C76.7664 27.7359 76.7732 27.7329 76.7804 27.7329L77.1519 27.7336C77.1591 27.7336 77.1659 27.7366 77.171 27.7418C77.1761 27.7471 77.1789 27.7543 77.1789 27.7617V31.1937C77.1789 31.2011 77.1761 31.2083 77.171 31.2135C77.1659 31.2188 77.1591 31.2218 77.1519 31.2218L76.7804 31.2225C76.7732 31.2225 76.7664 31.2195 76.7613 31.2142C76.7562 31.209 76.7534 31.2018 76.7534 31.1944L76.754 29.667C76.754 29.6633 76.7533 29.6597 76.752 29.6563C76.7506 29.6529 76.7486 29.6498 76.7461 29.6472C76.7436 29.6445 76.7406 29.6425 76.7373 29.6411C76.734 29.6397 76.7305 29.6389 76.727 29.6389Z" fill="#344150"/>
<path d="M81.8202 29.6708L81.8209 31.1995C81.8209 31.2057 81.8185 31.2115 81.8143 31.2159C81.8101 31.2202 81.8045 31.2227 81.7985 31.2227L81.4149 31.222C81.409 31.222 81.4033 31.2195 81.3991 31.2152C81.3949 31.2108 81.3926 31.2049 81.3926 31.1988V27.7563C81.3926 27.7502 81.3949 27.7443 81.3991 27.7399C81.4033 27.7356 81.409 27.7331 81.4149 27.7331L81.7979 27.7338C81.8038 27.7338 81.8095 27.7363 81.8136 27.7406C81.8178 27.745 81.8202 27.7509 81.8202 27.757V29.2296C81.8202 29.2357 81.8225 29.2416 81.8267 29.2459C81.8309 29.2503 81.8366 29.2527 81.8425 29.2527H82.2275C82.2309 29.2527 82.2343 29.2519 82.2373 29.2503C82.2404 29.2487 82.243 29.2464 82.2451 29.2436L83.329 27.7437C83.3311 27.7408 83.3337 27.7386 83.3368 27.737C83.3398 27.7354 83.3432 27.7346 83.3466 27.7345L83.783 27.7324C83.7871 27.7325 83.7912 27.7337 83.7947 27.736C83.7982 27.7383 83.801 27.7415 83.8029 27.7454C83.8047 27.7493 83.8054 27.7536 83.805 27.7579C83.8046 27.7621 83.8031 27.7662 83.8006 27.7697L82.6443 29.4059C82.6414 29.41 82.6399 29.415 82.64 29.4201C82.6402 29.4251 82.6419 29.43 82.645 29.434L83.9068 31.1847C83.9093 31.1882 83.9109 31.1924 83.9113 31.1967C83.9117 31.2011 83.9108 31.2054 83.9089 31.2093C83.907 31.2132 83.9041 31.2165 83.9005 31.2187C83.8969 31.2209 83.8927 31.2221 83.8885 31.222L83.4535 31.2227C83.4501 31.2227 83.4467 31.2218 83.4437 31.2202C83.4406 31.2187 83.438 31.2164 83.4359 31.2136L82.2938 29.6567C82.2917 29.6539 82.2891 29.6516 82.286 29.65C82.283 29.6484 82.2796 29.6476 82.2762 29.6476H81.8425C81.8366 29.6476 81.8309 29.65 81.8267 29.6544C81.8225 29.6587 81.8202 29.6646 81.8202 29.6708Z" fill="#344150"/>
<path d="M85.4313 27.7329H85.0483C85.0367 27.7329 85.0273 27.7427 85.0273 27.7547V31.2C85.0273 31.212 85.0367 31.2218 85.0483 31.2218H85.4313C85.4429 31.2218 85.4522 31.212 85.4522 31.2V27.7547C85.4522 27.7427 85.4429 27.7329 85.4313 27.7329Z" fill="#344150"/>
<path d="M87.4022 29.6609L87.4029 31.2002C87.4029 31.206 87.4007 31.2115 87.3967 31.2156C87.3928 31.2197 87.3875 31.222 87.3819 31.222H86.9956C86.99 31.222 86.9847 31.2197 86.9807 31.2156C86.9768 31.2115 86.9746 31.206 86.9746 31.2002V27.7542C86.9746 27.7484 86.9768 27.7429 86.9807 27.7388C86.9847 27.7347 86.99 27.7324 86.9956 27.7324L87.3819 27.7338C87.3847 27.7338 87.3874 27.7344 87.3899 27.7355C87.3925 27.7366 87.3948 27.7382 87.3967 27.7402C87.3987 27.7422 87.4002 27.7446 87.4013 27.7473C87.4024 27.7499 87.4029 27.7527 87.4029 27.7556L87.4022 29.2169C87.4022 29.2227 87.4044 29.2282 87.4084 29.2323C87.4123 29.2364 87.4176 29.2387 87.4232 29.2387H89.2141C89.2197 29.2387 89.225 29.2364 89.229 29.2323C89.2329 29.2282 89.2351 29.2227 89.2351 29.2169L89.2358 27.7549C89.2358 27.7491 89.238 27.7436 89.2419 27.7395C89.2459 27.7354 89.2512 27.7331 89.2568 27.7331L89.6397 27.7338C89.6425 27.7338 89.6452 27.7344 89.6477 27.7355C89.6503 27.7366 89.6526 27.7382 89.6545 27.7402C89.6565 27.7422 89.658 27.7446 89.6591 27.7473C89.6601 27.7499 89.6607 27.7527 89.6607 27.7556V31.2002C89.6607 31.206 89.6585 31.2115 89.6545 31.2156C89.6506 31.2197 89.6453 31.222 89.6397 31.222H89.2568C89.2512 31.222 89.2459 31.2197 89.2419 31.2156C89.238 31.2115 89.2358 31.206 89.2358 31.2002L89.2351 29.6609C89.2351 29.6551 89.2329 29.6496 89.229 29.6455C89.225 29.6414 89.2197 29.6391 89.2141 29.6391H87.4232C87.4176 29.6391 87.4123 29.6414 87.4084 29.6455C87.4044 29.6496 87.4022 29.6551 87.4022 29.6609Z" fill="#344150"/>
<path d="M96.1031 28.1306H95.0002C94.994 28.1306 94.9879 28.128 94.9835 28.1234C94.9791 28.1187 94.9766 28.1125 94.9766 28.106V27.7575C94.9766 27.7543 94.9772 27.7511 94.9784 27.7481C94.9796 27.7451 94.9813 27.7424 94.9835 27.7401C94.9857 27.7378 94.9883 27.736 94.9912 27.7348C94.9941 27.7335 94.9971 27.7329 95.0002 27.7329H97.6863C97.6894 27.7329 97.6925 27.7335 97.6954 27.7348C97.6983 27.736 97.7009 27.7378 97.7031 27.7401C97.7053 27.7424 97.707 27.7451 97.7082 27.7481C97.7094 27.7511 97.71 27.7543 97.71 27.7575L97.7107 28.106C97.7107 28.1125 97.7082 28.1187 97.7037 28.1234C97.6993 28.128 97.6933 28.1306 97.687 28.1306L96.5781 28.1313C96.5718 28.1313 96.5658 28.1338 96.5613 28.1385C96.5569 28.1431 96.5544 28.1493 96.5544 28.1558L96.5537 31.1972C96.5537 31.2037 96.5512 31.21 96.5468 31.2146C96.5423 31.2192 96.5363 31.2218 96.53 31.2218H96.1505C96.1473 31.2218 96.1443 31.2211 96.1414 31.2199C96.1385 31.2187 96.1359 31.2168 96.1337 31.2146C96.1315 31.2123 96.1298 31.2096 96.1286 31.2066C96.1274 31.2036 96.1268 31.2004 96.1268 31.1972V28.1551C96.1268 28.1486 96.1243 28.1424 96.1198 28.1378C96.1154 28.1331 96.1094 28.1306 96.1031 28.1306Z" fill="#344150"/>
<path d="M99.3221 28.1558V29.2314C99.3221 29.238 99.3246 29.2442 99.329 29.2488C99.3334 29.2534 99.3395 29.256 99.3457 29.256H100.868C100.874 29.256 100.88 29.2586 100.885 29.2632C100.889 29.2679 100.892 29.2741 100.892 29.2806L100.893 29.6038C100.893 29.6103 100.891 29.6166 100.886 29.6212C100.882 29.6258 100.876 29.6284 100.869 29.6284L99.3457 29.6291C99.3395 29.6291 99.3334 29.6317 99.329 29.6363C99.3246 29.6409 99.3221 29.6472 99.3221 29.6537L99.3214 30.8002C99.3214 30.8068 99.3239 30.813 99.3283 30.8176C99.3328 30.8222 99.3388 30.8248 99.3451 30.8248L101.141 30.8241C101.148 30.8241 101.154 30.8267 101.158 30.8313C101.163 30.8359 101.165 30.8422 101.165 30.8487L101.166 31.1972C101.166 31.2037 101.163 31.21 101.159 31.2146C101.154 31.2192 101.148 31.2218 101.142 31.2218H98.9202C98.9139 31.2218 98.9079 31.2192 98.9034 31.2146C98.899 31.21 98.8965 31.2037 98.8965 31.1972V27.7575C98.8965 27.7543 98.8971 27.7511 98.8983 27.7481C98.8995 27.7451 98.9012 27.7424 98.9034 27.7401C98.9056 27.7378 98.9082 27.736 98.9111 27.7348C98.914 27.7335 98.9171 27.7329 98.9202 27.7329L101.102 27.7336C101.108 27.7336 101.114 27.7362 101.119 27.7408C101.123 27.7454 101.126 27.7517 101.126 27.7582L101.127 28.106C101.127 28.1125 101.124 28.1187 101.12 28.1234C101.115 28.128 101.109 28.1306 101.103 28.1306L99.3457 28.1313C99.3395 28.1313 99.3334 28.1338 99.329 28.1385C99.3246 28.1431 99.3221 28.1493 99.3221 28.1558Z" fill="#344150"/>
<path d="M104.32 30.201H102.952C102.948 30.2009 102.944 30.2022 102.94 30.2047C102.936 30.2072 102.934 30.2108 102.932 30.215L102.553 31.2077C102.551 31.2119 102.549 31.2155 102.545 31.218C102.541 31.2205 102.537 31.2218 102.533 31.2218H102.123C102.12 31.2218 102.116 31.2209 102.113 31.2192C102.11 31.2175 102.107 31.215 102.105 31.212C102.103 31.2089 102.102 31.2054 102.102 31.2017C102.101 31.198 102.102 31.1943 102.103 31.1909L103.456 27.747C103.457 27.7428 103.46 27.7392 103.464 27.7367C103.467 27.7342 103.472 27.7329 103.476 27.7329L103.807 27.7336C103.811 27.7337 103.815 27.7351 103.819 27.7376C103.822 27.7401 103.825 27.7436 103.826 27.7477L105.174 31.1902C105.176 31.1935 105.176 31.1972 105.176 31.2008C105.175 31.2044 105.174 31.2079 105.172 31.211C105.17 31.214 105.168 31.2165 105.165 31.2183C105.162 31.22 105.158 31.221 105.155 31.2211L104.745 31.2225C104.741 31.2225 104.737 31.2212 104.733 31.2187C104.729 31.2162 104.727 31.2126 104.725 31.2084L104.341 30.215C104.339 30.2108 104.336 30.2072 104.333 30.2047C104.329 30.2022 104.325 30.2009 104.32 30.201ZM103.038 29.8195C103.037 29.823 103.036 29.8267 103.037 29.8304C103.037 29.8341 103.038 29.8377 103.04 29.8408C103.042 29.8439 103.045 29.8464 103.048 29.8482C103.051 29.85 103.055 29.851 103.058 29.8511L104.207 29.8553C104.211 29.8553 104.215 29.8544 104.218 29.8527C104.221 29.8509 104.224 29.8484 104.226 29.8453C104.228 29.8422 104.229 29.8386 104.23 29.8348C104.23 29.831 104.23 29.8272 104.228 29.8237L103.659 28.3083C103.658 28.3038 103.655 28.3 103.651 28.2972C103.647 28.2945 103.643 28.2931 103.638 28.2931C103.634 28.2931 103.629 28.2945 103.626 28.2972C103.622 28.3 103.619 28.3038 103.617 28.3083L103.038 29.8195Z" fill="#344150"/>
<path d="M107.259 31.2211L106.879 31.2225C106.876 31.2225 106.873 31.2218 106.87 31.2205C106.867 31.2193 106.864 31.2174 106.862 31.2151C106.86 31.2127 106.858 31.2099 106.857 31.2069C106.855 31.2038 106.855 31.2005 106.855 31.1972L106.856 28.1558C106.856 28.1491 106.853 28.1427 106.848 28.138C106.844 28.1332 106.838 28.1306 106.831 28.1306H105.724C105.717 28.1306 105.711 28.1279 105.706 28.1231C105.702 28.1184 105.699 28.112 105.699 28.1053L105.7 27.7582C105.7 27.7515 105.702 27.7451 105.707 27.7403C105.712 27.7356 105.718 27.7329 105.724 27.7329L108.409 27.7336C108.412 27.7336 108.415 27.7343 108.418 27.7355C108.421 27.7368 108.424 27.7387 108.426 27.741C108.428 27.7434 108.43 27.7462 108.431 27.7492C108.433 27.7523 108.433 27.7556 108.433 27.7589L108.434 28.1053C108.434 28.112 108.431 28.1184 108.427 28.1231C108.422 28.1279 108.416 28.1306 108.41 28.1306L107.308 28.1313C107.302 28.1313 107.296 28.1339 107.291 28.1387C107.286 28.1434 107.284 28.1498 107.284 28.1565L107.283 31.1958C107.283 31.2025 107.281 31.2089 107.276 31.2137C107.271 31.2184 107.265 31.2211 107.259 31.2211Z" fill="#344150"/>
<path d="M110.052 30.0222L110.053 31.1983C110.053 31.2138 110.045 31.2215 110.03 31.2215H109.639C109.635 31.2215 109.63 31.2196 109.626 31.2161C109.623 31.2127 109.621 31.2081 109.621 31.2032V27.7593C109.621 27.7525 109.624 27.746 109.628 27.7412C109.633 27.7363 109.639 27.7335 109.645 27.7333C110.081 27.7319 110.518 27.7322 110.957 27.734C112.362 27.7404 112.359 29.9583 111.042 29.9625C110.726 29.9634 110.41 29.9686 110.094 29.978C110.066 29.9789 110.052 29.9937 110.052 30.0222ZM110.045 28.1893L110.041 29.5143C110.041 29.5309 110.047 29.5469 110.058 29.5588C110.069 29.5706 110.085 29.5773 110.101 29.5775L110.973 29.581C111.055 29.5814 111.136 29.5637 111.211 29.5289C111.287 29.4941 111.356 29.443 111.414 29.3784C111.472 29.3138 111.518 29.237 111.549 29.1524C111.581 29.0679 111.597 28.9772 111.597 28.8855V28.8293C111.598 28.6444 111.533 28.4668 111.417 28.3356C111.301 28.2044 111.143 28.1303 110.978 28.1296L110.106 28.126C110.098 28.126 110.09 28.1275 110.083 28.1307C110.075 28.1338 110.068 28.1384 110.063 28.1443C110.057 28.1502 110.052 28.1572 110.049 28.1649C110.046 28.1726 110.045 28.1809 110.045 28.1893Z" fill="#344150"/>
<path d="M79.9599 29.6836H78.6162C78.6027 29.6836 78.5918 29.6949 78.5918 29.7089V30.0536C78.5918 30.0676 78.6027 30.0789 78.6162 30.0789H79.9599C79.9733 30.0789 79.9842 30.0676 79.9842 30.0536V29.7089C79.9842 29.6949 79.9733 29.6836 79.9599 29.6836Z" fill="#344150"/>
</svg>
