<svg width="95" height="24" viewBox="0 0 95 24" fill="none" xmlns="http://www.w3.org/2000/svg">
<path d="M91.0018 3.37158L88.747 10.7524L88.2724 12.5749C88.1569 12.1141 87.9139 11.191 87.7978 10.7524L85.7384 3.37158H81.6699L86.4787 16.5424L83.7676 23.9999H87.5424L94.8684 3.37158H91.0008H91.0018Z" fill="#58BB69"/>
<path d="M2.22069 3.36252L3.3157 0H5.86965V3.36252L8.74974 3.35172V6.10061H5.86965V12.1802C5.87613 13.8633 6.40582 14.565 7.53593 14.5606C8.06346 14.5585 8.55482 14.5072 8.93116 14.4305L8.94196 17.2696C8.44035 17.4721 7.39663 17.6013 6.31727 17.605C2.29952 17.6202 2.26119 14.128 2.25525 12.5707L2.23148 6.11411L0.348146 6.12114L0.337891 4.5579L2.22123 3.36252H2.22069ZM13.3177 11.486C13.4181 13.873 14.5175 14.9847 16.5358 14.9847C18.3446 14.9847 19.7452 14.5968 20.9374 14.0453V16.8126C19.782 17.3149 18.2901 17.6164 16.5574 17.6164C12.1142 17.6164 9.77726 15.0879 9.77726 10.557C9.77726 6.53707 12.0877 3.07028 16.181 3.07028C19.5708 3.07028 21.7808 5.48212 21.7808 10.0038C21.7808 10.557 21.7555 11.0842 21.6804 11.486H13.3182H13.3177ZM18.3403 8.89866C18.3657 7.4413 17.7879 5.65768 15.9548 5.65768C14.1217 5.65768 13.4181 7.51638 13.3182 8.89866H18.3408H18.3403ZM23.716 4.26405C25.054 3.61261 26.3958 3.09514 28.7818 3.09514C33.1262 3.09514 34.3065 5.85862 34.3065 8.92351V17.3646H31.5874L30.9411 15.9073H30.8655C30.062 17.0125 28.7057 17.6407 27.149 17.6407C24.5626 17.6407 22.9552 15.7063 22.9552 13.4452C22.9552 9.85259 26.1447 8.16944 30.5895 8.16944C30.5895 6.7877 30.3395 5.73275 28.5194 5.73275C27.2386 5.73275 26.1042 6.01688 24.8731 6.62402L23.716 4.26351V4.26405ZM30.69 10.557C28.6808 10.557 26.5966 11.0339 26.5966 13.0687C26.5966 14.4002 27.4255 14.9782 28.3547 14.9782C29.2337 14.9782 30.69 14.3505 30.69 12.5664V10.5564V10.557ZM47.6616 5.43189C48.8166 3.72335 50.248 3.09568 51.8052 3.09568C54.2409 3.09568 56.1248 4.82907 56.1248 8.87382V17.3652H52.4833V9.45177C52.4833 7.44182 51.931 6.11033 50.4494 6.11033C49.4197 6.11033 48.2647 6.91464 48.2647 8.87382V17.3652H44.6233V9.10014C44.6233 7.44184 44.0958 6.11033 42.6396 6.11033C41.6099 6.11033 40.4047 7.0648 40.4047 8.94943V17.3652H36.7633V3.39709H39.6526L40.0025 5.25634H40.078C40.7308 4.25163 41.9614 3.09568 44.0456 3.09568C45.7534 3.09568 47.059 3.99992 47.6114 5.43189H47.6616ZM66.1888 3.3717H70.0311L65.2596 17.3646H61.6684L56.9725 3.3717H60.9654L62.7985 10.1545C63.0998 11.3607 63.3509 12.5161 63.5771 13.7218H63.6527C63.8789 12.5156 64.13 11.3856 64.4313 10.1545L66.1894 3.3717H66.1888ZM82.7534 13.53L79.0563 3.3717C78.4781 3.17886 77.686 3.07028 76.9111 3.07028C73.1191 3.07028 70.2817 5.73331 70.2817 10.4311C70.2817 15.1289 72.9938 17.6412 76.7605 17.6412C79.1298 17.6412 81.6724 16.4464 82.7534 13.53ZM76.8107 14.9031C75.0024 14.9031 74.0483 12.8429 74.0483 10.356C74.0483 8.22075 74.7767 5.80893 76.8355 5.80893C78.7442 5.80893 79.5223 8.14513 79.5223 10.3312C79.5223 12.8181 78.5682 14.9037 76.8102 14.9037L76.8107 14.9031Z" fill="white"/>
</svg>
