<svg width="61" height="22" viewBox="0 0 61 22" fill="none" xmlns="http://www.w3.org/2000/svg">
<path d="M2.40089 5.54515V2.14111H7.62999V5.54447L11.7893 5.54583V9.6966H7.6388V17.3966H12.0828V21.5392H2.40089V9.69525H0.404297V5.54312H2.40089V5.54515Z" fill="white"/>
<path d="M50.593 5.54515V2.14111H55.8221V5.54447L59.9814 5.54583V9.6966H55.8309V17.3966H60.2749V21.5392H50.5923V9.69525H48.5957V5.54312H50.5923L50.593 5.54515Z" fill="white"/>
<path d="M23.9462 10.4665H29.0228C29.0228 10.4665 28.6716 8.44265 26.8323 6.93698C24.993 5.43131 22.8859 4.99656 20.8127 5.0637C18.7395 5.13085 16.2663 5.57306 14.81 7.92381C13.4012 10.1972 14.6466 12.2916 15.2419 12.8891C16.0087 13.6582 16.9334 14.5644 20.1103 15.267C23.2872 15.9697 23.471 16.2871 23.6384 16.4885C23.8059 16.6893 23.8221 17.0168 23.7496 17.1993C23.6771 17.3817 23.5259 17.6361 23.0893 17.7995C22.6527 17.963 21.9076 18.0111 21.5198 17.9996C21.132 17.9881 20.7083 17.9813 20.1747 17.7758C19.6418 17.5696 18.89 17.0358 18.7144 16.3088H13.4785C13.4785 16.3088 13.7639 18.1637 15.2358 19.624C16.7083 21.0849 18.3083 21.6424 19.7924 21.873C21.2764 22.1036 23.4276 22.0066 24.5916 21.6912C25.7557 21.3765 27.2153 20.897 28.3909 19.2726C29.5665 17.6483 29.1238 15.7269 28.9062 15.1748C28.6879 14.6227 28.1428 13.4649 26.5313 12.6768C24.9198 11.8887 21.993 11.2953 21.835 11.258C21.6771 11.222 20.4235 10.9548 20.0351 10.6822C19.6466 10.4095 19.6195 10.1457 19.6439 9.83031C19.6683 9.51561 19.9605 9.2043 20.3198 9.08154C20.7266 8.94318 21.2289 8.86315 21.8588 8.9303C22.4893 8.99812 23.5089 9.21651 23.9462 10.4679V10.4665Z" fill="white"/>
<path d="M31.0859 0H36.3218V11.2329H38.0194L41.5496 5.54047H47.0797L42.4675 13.081L47.5495 21.5325H41.8668L38.3137 15.6888H36.3259V21.5325H31.0859V0Z" fill="white"/>
</svg>
