<svg width="62" height="40" viewBox="0 0 62 40" fill="none" xmlns="http://www.w3.org/2000/svg">
<g clip-path="url(#clip0_923_633)">
<path fill-rule="evenodd" clip-rule="evenodd" d="M49.649 38.6042C50.1453 38.6042 50.5168 38.5847 50.765 38.547C51.021 38.5002 51.2035 38.4156 51.3111 38.2933C51.428 38.1698 51.4857 37.9772 51.4857 37.7171V34.6367C51.4857 34.2829 51.3426 34.0371 51.0564 33.8979C50.7781 33.7522 50.3278 33.6794 49.7081 33.6794H48.3256V38.6068H49.6503L49.649 38.6042ZM46.5125 32.3968H49.7199C50.6022 32.3968 51.2993 32.467 51.8113 32.6049C52.3221 32.735 52.6989 32.9665 52.9391 33.2969C53.1794 33.6273 53.3002 34.0852 53.3002 34.6693V37.7158C53.3002 38.2855 53.1872 38.7265 52.9627 39.0426C52.7382 39.3509 52.3706 39.5694 51.8586 39.7008C51.3479 39.8244 50.6389 39.8855 49.733 39.8855H46.5138V32.3968H46.5125ZM42.9926 35.5928C42.8377 35.7008 42.5476 35.7541 42.1209 35.7541H40.5638V33.6781H42.1209C42.5239 33.6781 42.8062 33.7314 42.969 33.8394C43.1397 33.9395 43.2237 34.1281 43.2237 34.4052V34.9359C43.2237 35.2585 43.1463 35.4784 42.9913 35.5942L42.9926 35.5928ZM42.1445 32.3968H38.752V39.8855H40.5638V36.9431H41.4001L43.376 39.8855H45.4674L43.2841 36.8052C43.8027 36.735 44.2176 36.5776 44.5274 36.3317C44.8451 36.078 45.004 35.732 45.004 35.2937V33.9785C45.004 33.4088 44.7795 33.0055 44.3292 32.7675C43.8802 32.5216 43.1528 32.3981 42.1445 32.3981V32.3968ZM35.3149 32.3968H37.1267V39.8855H35.3149V32.3968ZM31.9827 38.4546C31.7976 38.5548 31.4839 38.6042 31.0414 38.6042H29.7521V36.6088H31.2856C31.6493 36.6088 31.9013 36.666 32.0405 36.7818C32.1876 36.8976 32.2611 37.094 32.2611 37.3698V37.9694C32.2611 38.1919 32.1679 38.3545 31.9827 38.4546ZM31.6335 35.3743C31.4944 35.4211 31.2817 35.4433 30.9941 35.4433H29.7508V33.6781H30.9587C31.2685 33.6781 31.493 33.6976 31.6322 33.7353C31.7792 33.7743 31.8764 33.8394 31.9224 33.9317C31.9683 34.0163 31.9919 34.1476 31.9919 34.3246V34.694C31.9919 34.8943 31.9644 35.0478 31.9105 35.1558C31.8633 35.2559 31.7714 35.3288 31.6322 35.3743H31.6335ZM30.9941 32.3968H27.939V39.8855H31.0769C32.0996 39.8855 32.8545 39.7581 33.3429 39.5044C33.83 39.2507 34.0742 38.8202 34.0742 38.2127V37.0589C34.0742 36.7896 33.9508 36.5476 33.7026 36.3317C33.4624 36.1093 33.1959 35.9818 32.9005 35.9506V35.8933C33.125 35.8244 33.318 35.6969 33.4821 35.5122C33.6527 35.3275 33.7381 35.1311 33.7381 34.9229V34.0007C33.7381 33.5935 33.6567 33.2774 33.4939 33.055C33.3311 32.8247 33.0528 32.6582 32.6576 32.5581C32.2703 32.4501 31.7162 32.3968 30.9955 32.3968H30.9941ZM23.5474 35.7541C23.9741 35.7541 24.2643 35.7008 24.4192 35.5928C24.5741 35.4771 24.6516 35.2585 24.6516 34.9346V34.4039C24.6516 34.1268 24.5662 33.9382 24.3956 33.8381C24.2328 33.7301 23.9505 33.6768 23.5474 33.6768H21.9916V35.7528H23.5474V35.7541ZM20.1785 32.3968H23.5711C24.578 32.3968 25.3054 32.5203 25.7557 32.7662C26.2047 33.0042 26.4292 33.4088 26.4292 33.9772V35.2924C26.4292 35.7307 26.2704 36.0768 25.9526 36.3304C25.6428 36.5763 25.2279 36.7337 24.7093 36.8039L26.894 39.8842H24.8025L22.828 36.9418H21.9916V39.8842H20.1785V32.3955V32.3968ZM15.485 33.8966L16.4368 36.7115H14.4845L15.4377 33.8966H15.4836H15.485ZM16.6232 32.3968H14.415L11.6264 39.8855H13.4158L14.0775 37.9122H16.832L17.5055 39.8855H19.3409L16.6219 32.3968H16.6232ZM2.94423 32.3968H1.06154L3.39718 39.8855H5.18665L6.67284 34.4507L8.11439 39.8855H9.90255L12.3196 32.3968H10.4842L9.13582 37.8667L7.5551 32.3968H5.87066L4.40679 37.8667L2.94292 32.3968H2.94423ZM54.529 39.7932C55.5898 39.9324 56.4813 40.0013 57.2008 40.0013C57.7272 40.0013 58.1762 39.9675 58.5478 39.8972C58.9272 39.8361 59.2725 39.7242 59.581 39.5629C60.2243 39.2468 60.546 38.6433 60.546 37.7509V37.254C60.546 36.6075 60.3517 36.1275 59.9644 35.8114C59.5771 35.4953 58.9535 35.3379 58.0935 35.3379H57.1876C56.522 35.3379 56.1885 35.1415 56.1885 34.7499V34.2192C56.1885 33.9889 56.3014 33.8198 56.5259 33.7119C56.7347 33.6117 57.1456 33.5623 57.7574 33.5623C58.1986 33.5623 59.0047 33.6312 60.1744 33.7704V32.4319C59.2226 32.3317 58.4349 32.281 57.8165 32.281C56.6231 32.281 55.7513 32.4345 55.2012 32.7428C54.6511 33.0498 54.3767 33.5311 54.3767 34.1854V34.7395C54.3767 36.0481 55.2052 36.7011 56.8633 36.7011H57.7469C58.1198 36.7011 58.3745 36.7662 58.5136 36.8963C58.6607 37.0276 58.7342 37.2163 58.7342 37.4621V37.9473C58.7342 38.4624 58.2301 38.72 57.2231 38.72C56.7426 38.72 55.8445 38.6198 54.5277 38.4195V39.7932H54.529ZM59.6178 1.76L59.9316 0.0299187L59.9604 0.163902C60.7836 4 61.8694 9.05886 61.2707 9.05366L36.3783 22.8332C33.2825 24.3434 28.1898 24.2836 25.0783 22.8332L0.172716 9.05886C-0.418085 9.05886 0.630915 4.13008 1.45016 0.286179C1.47117 0.189919 1.49086 0.0949594 1.51055 0L1.82433 1.73008L1.62083 3.86862L2.35868 2.33366L22.9369 10.0358L23.1733 11.5057L27.1658 12.3707C28.2029 12.5763 29.2519 12.705 30.3049 12.7558C30.0751 12.4553 29.9149 12.1002 29.8362 11.7203C29.7587 11.3405 29.7666 10.945 29.8585 10.5691C30.1618 8.97561 30.9928 8.32911 31.0375 8.43057C30.7066 8.89236 30.9574 9.41138 31.2318 9.97854C31.476 10.482 31.7372 11.0244 31.6309 11.5993C31.5771 12.0156 31.4313 12.4111 31.2068 12.7545C32.2388 12.6985 33.2641 12.5698 34.2803 12.3694L38.2728 11.5044L38.5104 10.0345L59.0887 2.33236L59.8265 3.89594L59.6178 1.7574V1.76Z" fill="#777548"/>
</g>
<defs>
<clipPath id="clip0_923_633">
<rect width="61.4433" height="40" fill="white"/>
</clipPath>
</defs>
</svg>
