<svg width="791" height="775" viewBox="0 0 791 775" fill="none" xmlns="http://www.w3.org/2000/svg">
<circle cx="187" cy="147" r="7" fill="white"/>
<circle cx="187" cy="147" r="11.5" stroke="white"/>
<circle cx="779" cy="12" r="7" fill="white"/>
<circle cx="779" cy="12" r="11.5" stroke="white"/>
<circle cx="779" cy="192" r="7" fill="white"/>
<circle cx="779" cy="192" r="11.5" stroke="white"/>
<circle cx="779" cy="385" r="7" fill="white"/>
<circle cx="779" cy="385" r="11.5" stroke="white"/>
<circle cx="779" cy="577" r="7" fill="white"/>
<circle cx="779" cy="577" r="11.5" stroke="white"/>
<circle cx="779" cy="763" r="7" fill="white"/>
<circle cx="779" cy="763" r="11.5" stroke="white"/>
<path d="M189 146.5C368.2 54.1 439 18.3333 452 12H779.5" stroke="white" stroke-width="3"/>
<path d="M375 238.5L448.393 192H779.5" stroke="white" stroke-width="3"/>
<circle cx="374" cy="239" r="7" fill="white"/>
<circle cx="374" cy="239" r="11.5" stroke="white"/>
<circle cx="427" cy="383" r="7" fill="white"/>
<circle cx="427" cy="383" r="11.5" stroke="white"/>
<path d="M429.001 383C584.409 384.548 760.587 384.812 779.5 385" stroke="white" stroke-width="3"/>
<circle cx="192" cy="632" r="7" fill="white"/>
<circle cx="192" cy="632" r="11.5" stroke="white"/>
<path d="M190.002 631.902C370.296 722.148 441.52 757.064 454.595 763.241L779 763.241" stroke="white" stroke-width="3"/>
<path d="M380.441 534L448.894 577H779.5" stroke="white" stroke-width="3"/>
<circle cx="7" cy="7" r="7" transform="matrix(1 0 0 -1 374.801 541)" fill="white"/>
<circle cx="12" cy="12" r="11.5" transform="matrix(1 0 0 -1 370 546)" stroke="white"/>
<path d="M187 632C320.377 632 428.5 523.877 428.5 390.5C428.5 257.123 320.377 149 187 149" stroke="white" stroke-width="6"/>
<circle cx="198.5" cy="390.5" r="187.5" fill="black"/>
<circle cx="199" cy="390" r="198" stroke="white" stroke-width="2"/>
<path d="M217.831 330.944L216.896 331.54C216.776 331.616 216.631 331.648 216.49 331.629C216.348 331.61 216.219 331.541 216.127 331.436C215.081 330.254 214.268 328.934 213.689 327.477C213.537 327.096 213.669 326.876 214.085 326.818C214.899 326.701 215.472 325.958 215.52 325.154C215.621 323.544 214.796 322.64 213.044 322.444C212.973 322.435 212.908 322.401 212.862 322.348C212.816 322.295 212.794 322.228 212.799 322.159C212.907 320.513 213.276 318.923 213.906 317.39C213.952 317.276 214.037 317.225 214.161 317.236C214.517 317.265 214.864 317.316 215.199 317.387C216.779 317.715 217.862 316.691 217.669 315.151C217.607 314.663 217.227 314.275 216.969 313.873C216.854 313.692 216.874 313.528 217.031 313.381C218.252 312.23 219.672 311.391 221.29 310.864C221.408 310.826 221.509 310.851 221.594 310.938C222.156 311.51 222.318 312.149 223.067 312.434C225.205 313.244 225.922 311.922 226.398 310.185C226.435 310.053 226.524 309.992 226.664 310.001C228.393 310.092 230.052 310.472 231.641 311.139C231.765 311.192 231.814 311.284 231.786 311.413C231.648 312.046 231.331 312.671 231.51 313.287C232.065 315.212 233.824 314.92 235.183 313.997C235.246 313.955 235.323 313.937 235.398 313.946C235.474 313.955 235.544 313.991 235.594 314.047C236.732 315.316 237.648 316.724 238.343 318.27C238.361 318.311 238.37 318.355 238.369 318.399C238.368 318.443 238.357 318.486 238.337 318.525C238.318 318.565 238.29 318.6 238.255 318.627C238.22 318.655 238.179 318.675 238.136 318.685C235.401 319.375 236.073 323.18 238.767 323.126C238.826 323.125 238.884 323.136 238.938 323.158C238.992 323.181 239.041 323.214 239.08 323.257C239.12 323.299 239.15 323.349 239.168 323.403C239.186 323.457 239.191 323.515 239.184 323.572C238.987 325.205 238.569 326.778 237.932 328.29C237.882 328.413 237.79 328.459 237.656 328.428C236.166 328.079 234.514 328.053 234.269 329.913C234.166 330.703 234.625 331.296 235.121 331.888C235.206 331.988 235.199 332.083 235.101 332.172C233.797 333.366 232.298 334.253 230.603 334.833C230.546 334.853 230.484 334.85 230.429 334.826C230.375 334.801 230.333 334.757 230.313 334.702C230.026 333.933 229.5 333.392 228.737 333.079C228.606 333.024 228.523 333.064 228.489 333.2L216.199 379.872C216.193 379.896 216.198 379.921 216.211 379.943C216.225 379.964 216.247 379.98 216.272 379.986L234.559 384.598C234.686 384.629 234.733 384.706 234.7 384.829L232.107 394.554C232.1 394.576 232.085 394.595 232.065 394.606C232.045 394.617 232.022 394.62 232 394.614L203.424 387.439C203.288 387.406 203.238 387.323 203.272 387.191L218.062 331.101C218.069 331.073 218.067 331.043 218.056 331.015C218.046 330.987 218.026 330.964 218.002 330.947C217.977 330.93 217.947 330.92 217.917 330.92C217.886 330.919 217.856 330.928 217.831 330.944ZM232.19 322.832C232.19 321.239 231.537 319.711 230.376 318.584C229.215 317.458 227.64 316.825 225.998 316.825C224.356 316.825 222.782 317.458 221.621 318.584C220.46 319.711 219.807 321.239 219.807 322.832C219.807 324.425 220.46 325.953 221.621 327.08C222.782 328.206 224.356 328.839 225.998 328.839C227.64 328.839 229.215 328.206 230.376 327.08C231.537 325.953 232.19 324.425 232.19 322.832Z" fill="#F5A020"/>
<path d="M187.537 343.922L182.477 361.639C182.467 361.671 182.445 361.699 182.415 361.715C182.384 361.731 182.348 361.735 182.315 361.726L156.926 354.986C156.909 354.981 156.893 354.974 156.88 354.964C156.866 354.953 156.854 354.941 156.846 354.926C156.837 354.911 156.831 354.895 156.829 354.878C156.827 354.862 156.828 354.845 156.833 354.828L159.378 345.789C159.383 345.773 159.391 345.757 159.401 345.744C159.412 345.731 159.425 345.719 159.44 345.711C159.455 345.702 159.472 345.697 159.489 345.695C159.506 345.693 159.524 345.694 159.541 345.699L173.91 349.511C173.926 349.515 173.944 349.516 173.961 349.514C173.978 349.512 173.995 349.507 174.01 349.498C174.025 349.49 174.038 349.479 174.049 349.465C174.059 349.452 174.067 349.437 174.072 349.42L179.121 331.69C179.131 331.658 179.153 331.631 179.182 331.615C179.212 331.599 179.247 331.594 179.28 331.603L207.4 338.912C207.434 338.921 207.462 338.943 207.479 338.972C207.496 339.002 207.5 339.037 207.49 339.069L205.055 348.098C205.051 348.115 205.043 348.13 205.032 348.143C205.022 348.157 205.008 348.168 204.993 348.176C204.978 348.185 204.962 348.19 204.944 348.192C204.927 348.194 204.91 348.193 204.893 348.189L187.696 343.831C187.662 343.823 187.627 343.828 187.597 343.845C187.567 343.862 187.546 343.889 187.537 343.922Z" fill="#F5A020"/>
<path d="M239.906 365.18L258.138 369.989C258.179 370 258.214 370.026 258.235 370.062C258.257 370.097 258.263 370.14 258.252 370.18L250.854 397.421C250.842 397.461 250.815 397.495 250.779 397.516C250.742 397.536 250.698 397.542 250.657 397.532L241.396 395.229C241.375 395.224 241.356 395.215 241.338 395.203C241.321 395.19 241.306 395.174 241.295 395.156C241.285 395.138 241.277 395.118 241.275 395.097C241.272 395.076 241.273 395.055 241.279 395.035L245.687 378.389C245.697 378.349 245.691 378.307 245.67 378.271C245.649 378.235 245.614 378.209 245.573 378.198L227.338 373.382C227.297 373.371 227.262 373.345 227.241 373.309C227.219 373.274 227.213 373.231 227.224 373.192L234.053 348.587C234.064 348.547 234.091 348.513 234.128 348.493C234.165 348.472 234.209 348.466 234.25 348.477L243.535 350.893C243.576 350.904 243.611 350.93 243.632 350.966C243.653 351.001 243.659 351.044 243.649 351.084L239.792 364.989C239.782 365.029 239.788 365.071 239.809 365.107C239.83 365.143 239.865 365.169 239.906 365.18Z" fill="#F5A020"/>
<path d="M125.879 351.237C127.621 351.974 129.452 351.214 129.621 349.246C129.626 349.185 129.644 349.126 129.673 349.072C129.703 349.018 129.743 348.971 129.792 348.932C129.84 348.894 129.897 348.866 129.957 348.85C130.017 348.833 130.08 348.829 130.142 348.838C131.747 349.045 133.298 349.442 134.795 350.029C134.892 350.068 134.97 350.142 135.012 350.236C135.054 350.33 135.056 350.436 135.019 350.531C134.405 352.101 135.146 353.828 137.092 353.644C137.232 353.63 137.362 353.588 137.482 353.516L138.613 352.82C138.666 352.788 138.729 352.774 138.792 352.782C138.854 352.79 138.912 352.819 138.954 352.864C140.129 354.115 141.009 355.537 141.593 357.127C141.634 357.243 141.604 357.337 141.503 357.409C140.831 357.877 140.034 358.108 139.83 359.048C139.805 359.164 139.852 359.238 139.972 359.269L187.863 371.341C187.92 371.355 187.98 371.346 188.031 371.317C188.082 371.287 188.12 371.239 188.135 371.183L192.936 353.55C192.942 353.528 192.953 353.508 192.967 353.49C192.981 353.472 192.999 353.457 193.019 353.446C193.039 353.434 193.062 353.427 193.085 353.424C193.108 353.422 193.131 353.423 193.154 353.429L203.115 355.983C203.154 355.993 203.187 356.018 203.208 356.052C203.229 356.087 203.235 356.128 203.225 356.167L195.696 383.904C195.689 383.927 195.673 383.947 195.652 383.959C195.631 383.97 195.606 383.974 195.582 383.968L137.695 369.363C137.668 369.356 137.64 369.358 137.614 369.367C137.587 369.377 137.565 369.394 137.549 369.415C137.533 369.437 137.524 369.463 137.524 369.489C137.523 369.516 137.531 369.542 137.547 369.564L138.151 370.454C138.236 370.581 138.271 370.734 138.248 370.884C138.225 371.034 138.146 371.17 138.027 371.267C136.794 372.264 135.428 373.041 133.929 373.596C133.869 373.619 133.805 373.629 133.741 373.625C133.676 373.621 133.614 373.604 133.557 373.574C133.5 373.545 133.45 373.504 133.411 373.454C133.371 373.404 133.343 373.346 133.329 373.285C132.791 371.07 129.859 371.411 128.99 373.238C128.866 373.496 128.89 373.978 128.69 374.286C128.621 374.391 128.523 374.438 128.397 374.43C126.73 374.298 125.121 373.93 123.571 373.325C123.518 373.304 123.474 373.267 123.445 373.219C123.416 373.171 123.405 373.115 123.413 373.061C123.526 372.304 123.802 371.471 123.489 370.778C122.726 369.092 121.102 369.533 119.87 370.43C119.765 370.508 119.666 370.502 119.574 370.41C118.321 369.168 117.41 367.721 116.842 366.07C116.805 365.96 116.84 365.879 116.946 365.825C118.405 365.092 119.484 363.332 118.163 362.007C117.66 361.505 116.901 361.327 116.187 361.133C116.13 361.117 116.081 361.084 116.047 361.037C116.013 360.991 115.997 360.935 116.001 360.879C116.109 359.194 116.511 357.58 117.208 356.036C117.231 355.986 117.274 355.947 117.327 355.927C117.379 355.907 117.438 355.908 117.491 355.929C119.298 356.689 121.436 356.01 120.819 353.727C120.715 353.342 120.367 353.055 120.215 352.703C120.119 352.487 120.164 352.303 120.35 352.151C121.642 351.102 123.062 350.252 124.609 349.601C124.724 349.552 124.812 349.581 124.872 349.688L125.596 350.986C125.66 351.1 125.755 351.184 125.879 351.237ZM135.405 361.619C135.405 360.025 134.753 358.497 133.592 357.371C132.431 356.244 130.856 355.611 129.214 355.611C128.401 355.611 127.596 355.767 126.845 356.069C126.094 356.371 125.411 356.813 124.836 357.371C124.261 357.929 123.805 358.591 123.494 359.32C123.183 360.049 123.023 360.83 123.023 361.619C123.023 362.407 123.183 363.189 123.494 363.917C123.805 364.646 124.261 365.309 124.836 365.866C125.411 366.424 126.094 366.867 126.845 367.169C127.596 367.47 128.401 367.626 129.214 367.626C130.856 367.626 132.431 366.993 133.592 365.866C134.753 364.74 135.405 363.212 135.405 361.619Z" fill="#F5A020"/>
<path d="M139.43 408.097L147.052 380.932C147.058 380.912 147.068 380.893 147.081 380.876C147.094 380.859 147.111 380.845 147.13 380.834C147.149 380.824 147.17 380.817 147.191 380.814C147.213 380.812 147.235 380.813 147.256 380.819L156.496 383.205C156.538 383.216 156.574 383.242 156.596 383.279C156.617 383.315 156.624 383.358 156.613 383.399L152.074 400.002C152.069 400.022 152.067 400.043 152.07 400.064C152.073 400.085 152.08 400.106 152.091 400.124C152.102 400.142 152.116 400.158 152.133 400.171C152.151 400.184 152.17 400.194 152.192 400.199L170.351 405.155C170.393 405.167 170.429 405.194 170.45 405.231C170.471 405.268 170.477 405.312 170.465 405.353L163.429 429.901C163.417 429.941 163.389 429.976 163.35 429.996C163.312 430.017 163.267 430.022 163.225 430.011L153.982 427.514C153.94 427.503 153.904 427.475 153.883 427.438C153.862 427.401 153.856 427.358 153.868 427.317L157.831 413.455C157.843 413.414 157.837 413.371 157.816 413.334C157.795 413.297 157.759 413.269 157.717 413.258L139.544 408.295C139.502 408.283 139.466 408.256 139.445 408.219C139.424 408.182 139.418 408.138 139.43 408.097Z" fill="#F5A020"/>
<path d="M178.38 448.772L179.332 448.15C179.437 448.082 179.565 448.053 179.691 448.07C179.816 448.086 179.932 448.147 180.014 448.24C181.125 449.479 181.963 450.873 182.529 452.424C182.547 452.473 182.554 452.525 182.549 452.576C182.545 452.628 182.529 452.678 182.503 452.723C182.476 452.769 182.441 452.808 182.398 452.839C182.355 452.87 182.305 452.891 182.253 452.902C179.483 453.471 180.373 457.172 183.074 457.28C183.113 457.281 183.152 457.291 183.188 457.307C183.223 457.323 183.255 457.346 183.281 457.375C183.307 457.403 183.327 457.437 183.339 457.472C183.352 457.508 183.357 457.546 183.353 457.584C183.22 459.242 182.829 460.839 182.181 462.377C182.159 462.428 182.12 462.471 182.071 462.499C182.022 462.527 181.964 462.538 181.908 462.53C181.125 462.43 180.301 462.146 179.576 462.433C177.752 463.163 178.311 464.719 179.169 465.944C179.202 465.991 179.217 466.047 179.212 466.103C179.206 466.16 179.18 466.212 179.138 466.252C177.881 467.439 176.421 468.309 174.758 468.862C174.638 468.902 174.542 468.872 174.468 468.772C174.113 468.3 173.844 467.832 173.392 467.5C171.737 466.292 169.922 467.42 169.715 469.251C169.702 469.366 169.643 469.472 169.551 469.546C169.459 469.62 169.341 469.656 169.222 469.645C167.502 469.512 165.852 469.11 164.273 468.441C164.149 468.387 164.12 468.303 164.187 468.19C165.525 465.884 163.045 463.638 161.113 465.455C161.06 465.506 160.997 465.545 160.927 465.57C160.858 465.595 160.783 465.605 160.709 465.601C160.635 465.596 160.562 465.577 160.496 465.544C160.429 465.511 160.371 465.465 160.324 465.409C159.287 464.157 158.425 462.8 157.74 461.339C157.724 461.306 157.716 461.271 157.715 461.235C157.714 461.198 157.721 461.162 157.734 461.129C157.748 461.095 157.769 461.064 157.796 461.038C157.822 461.012 157.854 460.992 157.888 460.978C159.673 460.264 160.166 459.119 159.368 457.544C158.896 456.607 158.113 456.46 157.13 456.329C157.074 456.322 157.024 456.293 156.99 456.251C156.955 456.208 156.94 456.155 156.947 456.102C157.14 454.433 157.582 452.83 158.271 451.292C158.294 451.243 158.333 451.202 158.382 451.176C158.431 451.15 158.488 451.141 158.544 451.148C160.286 451.389 162.048 451.563 161.969 449.157C161.967 449.041 161.931 448.929 161.865 448.833L161.093 447.688C161.017 447.576 161.029 447.476 161.131 447.387C162.437 446.222 163.923 445.355 165.59 444.787C165.64 444.77 165.693 444.77 165.743 444.785C165.793 444.801 165.836 444.832 165.866 444.874C166.359 445.576 166.473 446.396 167.591 446.493C167.683 446.502 167.74 446.463 167.763 446.376L180.421 399.968C180.456 399.845 180.41 399.767 180.284 399.734L162.162 395.005C162.008 394.965 161.952 394.869 161.993 394.717L164.638 385.163C164.645 385.139 164.656 385.118 164.671 385.099C164.686 385.08 164.705 385.064 164.726 385.052C164.748 385.04 164.772 385.033 164.796 385.03C164.821 385.027 164.846 385.029 164.869 385.035L193.387 392.438C193.412 392.444 193.434 392.46 193.448 392.483C193.462 392.506 193.466 392.533 193.459 392.559L178.169 448.625C178.161 448.652 178.162 448.68 178.172 448.706C178.181 448.732 178.198 448.754 178.221 448.77C178.244 448.786 178.272 448.795 178.3 448.796C178.328 448.796 178.356 448.788 178.38 448.772ZM176.324 456.834C176.324 455.241 175.672 453.713 174.511 452.587C173.35 451.46 171.775 450.827 170.133 450.827C168.491 450.827 166.916 451.46 165.755 452.587C164.594 453.713 163.942 455.241 163.942 456.834C163.942 458.428 164.594 459.956 165.755 461.082C166.916 462.209 168.491 462.842 170.133 462.842C171.775 462.842 173.35 462.209 174.511 461.082C175.672 459.956 176.324 458.428 176.324 456.834Z" fill="#F5A020"/>
<path d="M257.808 419.221L210.028 407.237C209.985 407.227 209.939 407.233 209.901 407.254C209.863 407.275 209.835 407.31 209.824 407.351L205.023 425.051C205.012 425.091 204.985 425.125 204.947 425.146C204.91 425.167 204.865 425.172 204.823 425.162L194.907 422.632C194.767 422.596 194.715 422.51 194.752 422.374L202.202 394.811C202.209 394.784 202.222 394.759 202.239 394.737C202.256 394.715 202.278 394.696 202.302 394.682C202.327 394.668 202.354 394.659 202.383 394.655C202.411 394.652 202.44 394.653 202.467 394.66L260.181 409.148C260.207 409.155 260.234 409.155 260.26 409.148C260.286 409.14 260.309 409.127 260.328 409.108C260.346 409.089 260.359 409.066 260.365 409.04C260.37 409.015 260.369 408.989 260.361 408.964C260.136 408.271 259.084 407.89 260.078 407.123C261.264 406.206 262.612 405.466 264.12 404.901C264.169 404.883 264.221 404.876 264.273 404.88C264.324 404.883 264.375 404.898 264.42 404.923C264.465 404.948 264.504 404.983 264.534 405.024C264.564 405.065 264.584 405.112 264.593 405.162C264.751 406.062 265.462 406.688 266.421 406.745C267.936 406.839 268.865 406.038 269.208 404.342C269.222 404.272 269.261 404.209 269.319 404.166C269.377 404.122 269.449 404.1 269.521 404.105C271.214 404.203 272.842 404.57 274.405 405.206C274.52 405.252 274.567 405.336 274.547 405.457C274.285 406.922 274.036 408.676 276.12 408.887C276.913 408.967 277.451 408.532 278.065 408.084C278.115 408.046 278.178 408.028 278.24 408.033C278.303 408.038 278.361 408.066 278.403 408.111C279.599 409.344 280.5 410.755 281.107 412.344C281.131 412.406 281.131 412.474 281.107 412.535C281.082 412.597 281.036 412.648 280.976 412.679C278.575 413.877 278.537 416.962 281.576 417.264C281.678 417.274 281.773 417.322 281.84 417.397C281.907 417.472 281.941 417.57 281.935 417.669C281.841 419.311 281.456 420.887 280.783 422.397C280.759 422.45 280.718 422.493 280.666 422.52C280.614 422.547 280.554 422.555 280.496 422.545C279.827 422.421 279.231 422.086 278.575 422.264C276.52 422.822 276.906 424.556 277.81 425.935C277.881 426.044 277.866 426.142 277.765 426.229C276.461 427.343 275.008 428.227 273.405 428.883C273.364 428.9 273.319 428.909 273.273 428.907C273.228 428.906 273.184 428.896 273.143 428.876C273.102 428.857 273.066 428.829 273.037 428.795C273.008 428.761 272.986 428.722 272.974 428.679C272.239 426.092 268.587 426.581 268.366 429.275C268.362 429.332 268.346 429.388 268.318 429.44C268.291 429.491 268.253 429.537 268.207 429.574C268.161 429.61 268.108 429.638 268.05 429.654C267.993 429.671 267.932 429.676 267.873 429.67C266.217 429.489 264.625 429.084 263.096 428.455C262.976 428.406 262.924 428.32 262.941 428.197C263.03 427.534 263.327 426.848 263.092 426.229C262.743 425.308 262.063 424.859 261.054 424.884C260.371 424.897 259.885 425.406 259.291 425.731C259.25 425.753 259.202 425.761 259.156 425.753C259.11 425.746 259.067 425.724 259.036 425.69C257.852 424.419 256.956 422.975 256.349 421.36C256.331 421.307 256.332 421.25 256.354 421.199C256.375 421.147 256.416 421.106 256.467 421.082C257.09 420.792 257.613 420.397 258.036 419.897C258.082 419.843 258.114 419.777 258.127 419.708C258.141 419.638 258.136 419.566 258.113 419.499C258.09 419.431 258.051 419.371 257.997 419.322C257.944 419.274 257.879 419.239 257.808 419.221ZM274.926 416.895C274.926 416.107 274.766 415.325 274.455 414.597C274.144 413.868 273.688 413.206 273.113 412.648C272.538 412.09 271.855 411.647 271.104 411.346C270.353 411.044 269.548 410.888 268.735 410.888C267.093 410.888 265.518 411.521 264.357 412.648C263.196 413.774 262.544 415.302 262.544 416.895C262.544 418.489 263.196 420.017 264.357 421.143C265.518 422.27 267.093 422.903 268.735 422.903C269.548 422.903 270.353 422.747 271.104 422.445C271.855 422.144 272.538 421.701 273.113 421.143C273.688 420.585 274.144 419.923 274.455 419.194C274.766 418.466 274.926 417.684 274.926 416.895Z" fill="#F5A020"/>
<path d="M223.906 429.131L218.85 446.902C218.846 446.915 218.84 446.927 218.831 446.938C218.823 446.949 218.812 446.958 218.8 446.965C218.788 446.972 218.774 446.976 218.76 446.978C218.746 446.98 218.732 446.979 218.719 446.975L190.56 439.696C190.546 439.693 190.534 439.687 190.522 439.678C190.511 439.67 190.502 439.66 190.495 439.648C190.488 439.636 190.483 439.623 190.481 439.609C190.48 439.596 190.48 439.582 190.484 439.569L192.916 430.486C192.919 430.473 192.926 430.461 192.934 430.45C192.943 430.439 192.953 430.43 192.966 430.423C192.978 430.416 192.991 430.412 193.005 430.41C193.019 430.408 193.033 430.409 193.047 430.413L210.296 434.76C210.323 434.767 210.352 434.764 210.376 434.751C210.401 434.738 210.419 434.716 210.427 434.69L215.483 416.922C215.487 416.909 215.493 416.897 215.502 416.886C215.51 416.875 215.521 416.866 215.533 416.859C215.545 416.852 215.559 416.848 215.573 416.846C215.587 416.844 215.601 416.845 215.614 416.849L241.055 423.569C241.069 423.572 241.081 423.578 241.092 423.586C241.104 423.595 241.113 423.605 241.12 423.617C241.127 423.629 241.132 423.642 241.134 423.655C241.135 423.669 241.134 423.683 241.131 423.696L238.582 432.792C238.578 432.805 238.572 432.818 238.564 432.828C238.555 432.839 238.544 432.848 238.532 432.855C238.52 432.862 238.507 432.867 238.493 432.868C238.479 432.87 238.464 432.869 238.451 432.866L224.037 429.057C224.023 429.054 224.009 429.053 223.995 429.055C223.981 429.056 223.968 429.061 223.956 429.068C223.944 429.074 223.933 429.084 223.924 429.094C223.916 429.105 223.91 429.118 223.906 429.131Z" fill="#F5A020"/>
</svg>
