<svg width="142.000000" height="63.187500" viewBox="0 0 142 63.1875" fill="none" xmlns="http://www.w3.org/2000/svg" xmlns:xlink="http://www.w3.org/1999/xlink">
	<desc>
			Created with Pixso.
	</desc>
	<defs/>
	<path id="Vector" d="M68.46 0L66.69 0C66.65 0 66.62 0.03 66.62 0.07L66.62 60.92C66.62 60.96 66.65 60.99 66.69 60.99L68.46 60.99C68.5 60.99 68.53 60.96 68.53 60.92L68.53 0.07C68.53 0.03 68.5 0 68.46 0Z" fill="#F5A020" fill-opacity="1.000000" fill-rule="evenodd"/>
	<path id="Vector" d="M37.71 9.85L37.37 10.08C37.32 10.11 37.27 10.12 37.21 10.11C37.16 10.11 37.11 10.08 37.08 10.04C36.69 9.58 36.39 9.08 36.18 8.52C36.12 8.37 36.17 8.29 36.33 8.26C36.63 8.22 36.84 7.93 36.86 7.62C36.89 7 36.59 6.66 35.94 6.58C35.91 6.58 35.89 6.56 35.87 6.54C35.85 6.52 35.85 6.5 35.85 6.47C35.89 5.84 36.02 5.23 36.26 4.64C36.27 4.59 36.31 4.58 36.35 4.58C36.48 4.59 36.61 4.61 36.74 4.64C37.32 4.76 37.72 4.37 37.65 3.78C37.63 3.59 37.49 3.44 37.39 3.29C37.35 3.22 37.36 3.15 37.41 3.1C37.87 2.65 38.39 2.33 38.99 2.13C39.04 2.11 39.07 2.12 39.1 2.16C39.31 2.38 39.37 2.62 39.65 2.73C40.44 3.04 40.71 2.54 40.89 1.87C40.9 1.82 40.93 1.79 40.98 1.8C41.62 1.83 42.24 1.98 42.83 2.23C42.87 2.26 42.89 2.29 42.88 2.34C42.83 2.58 42.71 2.82 42.78 3.06C42.98 3.8 43.64 3.69 44.14 3.33C44.16 3.32 44.19 3.31 44.22 3.31C44.25 3.32 44.27 3.33 44.29 3.35C44.71 3.84 45.05 4.38 45.31 4.98C45.32 4.99 45.32 5.01 45.32 5.03C45.32 5.04 45.31 5.06 45.31 5.07C45.3 5.09 45.29 5.1 45.28 5.11C45.26 5.12 45.25 5.13 45.23 5.14C44.22 5.4 44.47 6.86 45.47 6.84C45.49 6.84 45.51 6.85 45.53 6.86C45.55 6.87 45.57 6.88 45.58 6.89C45.6 6.91 45.61 6.93 45.61 6.95C45.62 6.97 45.62 6.99 45.62 7.02C45.55 7.64 45.39 8.25 45.16 8.83C45.14 8.88 45.1 8.89 45.05 8.88C44.5 8.75 43.89 8.74 43.8 9.45C43.76 9.76 43.93 9.99 44.12 10.21C44.15 10.25 44.15 10.29 44.11 10.32C43.63 10.78 43.07 11.12 42.44 11.35C42.42 11.35 42.4 11.35 42.38 11.34C42.36 11.33 42.34 11.32 42.33 11.3C42.23 11 42.03 10.79 41.75 10.67C41.7 10.65 41.67 10.66 41.66 10.72L37.11 28.66C37.1 28.67 37.11 28.68 37.11 28.69C37.12 28.7 37.12 28.7 37.13 28.71L43.91 30.48C43.95 30.49 43.97 30.52 43.96 30.57L43 34.31C43 34.32 42.99 34.32 42.98 34.33C42.98 34.33 42.97 34.33 42.96 34.33L32.38 31.57C32.33 31.56 32.31 31.53 32.32 31.48L37.8 9.91C37.8 9.9 37.8 9.89 37.8 9.88C37.79 9.87 37.78 9.86 37.77 9.85C37.76 9.84 37.75 9.84 37.74 9.84C37.73 9.84 37.72 9.84 37.71 9.85ZM43.03 6.73C43.03 6.12 42.79 5.53 42.36 5.1C41.93 4.66 41.34 4.42 40.74 4.42C40.13 4.42 39.55 4.66 39.11 5.1C38.68 5.53 38.44 6.12 38.44 6.73C38.44 7.34 38.68 7.93 39.11 8.36C39.55 8.8 40.13 9.04 40.74 9.04C41.34 9.04 41.93 8.8 42.36 8.36C42.79 7.93 43.03 7.34 43.03 6.73Z" fill="#F5A020" fill-opacity="1.000000" fill-rule="nonzero"/>
	<path id="Vector" d="M26.49 14.84L24.62 21.65C24.61 21.66 24.6 21.67 24.59 21.68C24.58 21.69 24.57 21.69 24.56 21.68L15.15 19.09C15.15 19.09 15.14 19.09 15.14 19.08C15.13 19.08 15.13 19.08 15.12 19.07C15.12 19.06 15.12 19.06 15.12 19.05C15.12 19.05 15.12 19.04 15.12 19.03L16.06 15.56C16.06 15.55 16.07 15.55 16.07 15.54C16.07 15.54 16.08 15.53 16.08 15.53C16.09 15.52 16.09 15.52 16.1 15.52C16.11 15.52 16.11 15.52 16.12 15.52L21.44 16.99C21.45 16.99 21.46 16.99 21.46 16.99C21.47 16.99 21.47 16.99 21.48 16.98C21.49 16.98 21.49 16.98 21.5 16.97C21.5 16.97 21.5 16.96 21.5 16.95L23.37 10.14C23.38 10.12 23.39 10.11 23.4 10.11C23.41 10.1 23.42 10.1 23.43 10.1L33.85 12.91C33.86 12.92 33.87 12.92 33.88 12.94C33.88 12.95 33.88 12.96 33.88 12.97L32.98 16.45C32.98 16.45 32.97 16.46 32.97 16.46C32.97 16.47 32.96 16.47 32.96 16.48C32.95 16.48 32.94 16.48 32.94 16.48C32.93 16.48 32.92 16.48 32.92 16.48L26.55 14.8C26.54 14.8 26.52 14.8 26.51 14.81C26.5 14.82 26.49 14.83 26.49 14.84Z" fill="#F5A020" fill-opacity="1.000000" fill-rule="nonzero"/>
	<path id="Vector" d="M45.89 23.01L52.64 24.86C52.66 24.87 52.67 24.88 52.68 24.89C52.69 24.9 52.69 24.92 52.68 24.94L49.94 35.41C49.94 35.43 49.93 35.44 49.92 35.45C49.9 35.46 49.89 35.46 49.87 35.45L46.44 34.57C46.43 34.57 46.43 34.56 46.42 34.56C46.41 34.55 46.41 34.55 46.4 34.54C46.4 34.53 46.4 34.53 46.4 34.52C46.4 34.51 46.4 34.5 46.4 34.49L48.03 28.09C48.03 28.08 48.03 28.06 48.02 28.05C48.02 28.03 48 28.02 47.99 28.02L41.24 26.17C41.22 26.16 41.21 26.15 41.2 26.14C41.19 26.13 41.19 26.11 41.19 26.09L43.72 16.63C43.73 16.62 43.74 16.61 43.75 16.6C43.76 16.59 43.78 16.59 43.79 16.59L47.23 17.52C47.25 17.52 47.26 17.53 47.27 17.55C47.28 17.56 47.28 17.58 47.28 17.59L45.85 22.94C45.84 22.96 45.85 22.97 45.85 22.99C45.86 23 45.87 23.01 45.89 23.01Z" fill="#F5A020" fill-opacity="1.000000" fill-rule="nonzero"/>
	<path id="Vector" d="M3.65 17.65C4.3 17.94 4.98 17.64 5.04 16.89C5.04 16.86 5.05 16.84 5.06 16.82C5.07 16.8 5.08 16.78 5.1 16.77C5.12 16.75 5.14 16.74 5.16 16.73C5.19 16.73 5.21 16.73 5.23 16.73C5.83 16.81 6.4 16.96 6.96 17.19C6.99 17.2 7.02 17.23 7.04 17.27C7.05 17.3 7.05 17.34 7.04 17.38C6.81 17.98 7.09 18.65 7.81 18.58C7.86 18.57 7.91 18.56 7.95 18.53L8.37 18.26C8.39 18.25 8.41 18.24 8.44 18.25C8.46 18.25 8.48 18.26 8.5 18.28C8.93 18.76 9.26 19.31 9.47 19.92C9.49 19.96 9.48 20 9.44 20.03C9.19 20.21 8.9 20.29 8.82 20.66C8.81 20.7 8.83 20.73 8.87 20.74L26.61 25.38C26.63 25.39 26.66 25.38 26.67 25.37C26.69 25.36 26.71 25.34 26.71 25.32L28.49 18.54C28.49 18.53 28.5 18.53 28.5 18.52C28.51 18.51 28.51 18.51 28.52 18.5C28.53 18.5 28.54 18.49 28.55 18.49C28.55 18.49 28.56 18.49 28.57 18.5L32.26 19.48C32.27 19.48 32.29 19.49 32.3 19.5C32.3 19.52 32.31 19.53 32.3 19.55L29.51 30.21C29.51 30.22 29.5 30.23 29.5 30.23C29.49 30.24 29.48 30.24 29.47 30.24L8.03 24.62C8.02 24.62 8.01 24.62 8 24.62C7.99 24.63 7.98 24.63 7.98 24.64C7.97 24.65 7.97 24.66 7.97 24.67C7.97 24.68 7.97 24.69 7.98 24.7L8.2 25.04C8.23 25.09 8.24 25.15 8.24 25.21C8.23 25.26 8.2 25.32 8.15 25.35C7.7 25.74 7.19 26.04 6.64 26.25C6.61 26.26 6.59 26.26 6.57 26.26C6.54 26.26 6.52 26.25 6.5 26.24C6.48 26.23 6.46 26.21 6.44 26.2C6.43 26.18 6.42 26.15 6.41 26.13C6.21 25.28 5.13 25.41 4.81 26.11C4.76 26.21 4.77 26.4 4.69 26.52C4.67 26.56 4.63 26.57 4.59 26.57C3.97 26.52 3.37 26.38 2.8 26.15C2.78 26.14 2.76 26.12 2.75 26.1C2.74 26.09 2.74 26.06 2.74 26.04C2.78 25.75 2.89 25.43 2.77 25.17C2.49 24.52 1.88 24.69 1.43 25.03C1.39 25.06 1.35 25.06 1.32 25.02C0.85 24.55 0.52 23.99 0.31 23.36C0.29 23.31 0.31 23.28 0.34 23.26C0.89 22.98 1.29 22.3 0.8 21.79C0.61 21.6 0.33 21.53 0.06 21.46C0.04 21.45 0.02 21.44 0.01 21.42C0 21.4 -0.01 21.38 0 21.36C0.04 20.71 0.18 20.09 0.44 19.5C0.45 19.48 0.47 19.46 0.49 19.46C0.51 19.45 0.53 19.45 0.55 19.46C1.22 19.75 2.01 19.49 1.78 18.61C1.74 18.46 1.61 18.35 1.56 18.22C1.52 18.13 1.54 18.06 1.61 18C2.08 17.6 2.61 17.27 3.18 17.02C3.23 17 3.26 17.02 3.28 17.06L3.55 17.56C3.57 17.6 3.61 17.63 3.65 17.65ZM7.18 21.64C7.18 21.03 6.94 20.44 6.51 20.01C6.08 19.58 5.5 19.33 4.89 19.33C4.59 19.33 4.29 19.39 4.01 19.51C3.73 19.63 3.48 19.8 3.27 20.01C3.06 20.23 2.89 20.48 2.77 20.76C2.66 21.04 2.6 21.34 2.6 21.64C2.6 21.95 2.66 22.25 2.77 22.53C2.89 22.81 3.06 23.06 3.27 23.28C3.48 23.49 3.73 23.66 4.01 23.78C4.29 23.89 4.59 23.95 4.89 23.95C5.5 23.95 6.08 23.71 6.51 23.28C6.94 22.84 7.18 22.26 7.18 21.64Z" fill="#F5A020" fill-opacity="1.000000" fill-rule="nonzero"/>
	<path id="Vector" d="M102.52 31.81L102.52 34.54C102.52 34.55 102.52 34.56 102.53 34.57C102.53 34.57 102.54 34.58 102.55 34.58L119.72 34.58C119.73 34.58 119.74 34.58 119.75 34.59C119.76 34.6 119.76 34.61 119.76 34.62L119.76 37.79C119.76 37.8 119.76 37.81 119.75 37.82C119.74 37.82 119.73 37.83 119.72 37.83L99.36 37.83C99.35 37.83 99.34 37.82 99.33 37.82C99.33 37.81 99.32 37.8 99.32 37.79L99.32 22.52C99.32 22.51 99.33 22.5 99.33 22.49C99.34 22.49 99.35 22.48 99.36 22.48L119.72 22.48C119.73 22.48 119.74 22.49 119.75 22.49C119.76 22.5 119.76 22.51 119.76 22.52L119.76 25.66C119.76 25.68 119.76 25.69 119.75 25.69C119.74 25.7 119.73 25.7 119.72 25.7L102.55 25.74C102.54 25.74 102.53 25.74 102.53 25.75C102.52 25.76 102.52 25.77 102.52 25.78L102.52 28.49C102.52 28.5 102.52 28.51 102.53 28.52C102.53 28.53 102.54 28.53 102.55 28.53L116.5 28.53C116.51 28.53 116.52 28.53 116.52 28.54C116.53 28.55 116.53 28.56 116.53 28.57L116.54 31.7C116.54 31.71 116.53 31.72 116.52 31.73C116.52 31.73 116.51 31.74 116.5 31.74L102.55 31.77C102.54 31.77 102.53 31.78 102.53 31.78C102.52 31.79 102.52 31.8 102.52 31.81Z" fill="#D9D9D9" fill-opacity="1.000000" fill-rule="nonzero"/>
	<path id="Vector" d="M124.75 25.79L124.78 34.5C124.78 34.55 124.81 34.58 124.85 34.58L141.94 34.58C141.97 34.58 141.99 34.59 141.99 34.63L141.99 37.77C141.99 37.81 141.97 37.83 141.93 37.83L121.61 37.83C121.57 37.83 121.55 37.81 121.55 37.76L121.55 22.55C121.55 22.5 121.57 22.48 121.61 22.48L141.92 22.48C141.97 22.48 141.99 22.51 141.99 22.55L142 25.66C142 25.67 141.99 25.67 141.99 25.68C141.99 25.69 141.99 25.69 141.98 25.7C141.98 25.7 141.97 25.7 141.96 25.71C141.96 25.71 141.95 25.71 141.95 25.71C137.93 25.69 133.95 25.7 130 25.73C128.28 25.74 126.57 25.73 124.87 25.68C124.85 25.68 124.84 25.68 124.83 25.69C124.81 25.69 124.8 25.7 124.79 25.71C124.78 25.72 124.77 25.73 124.76 25.75C124.76 25.76 124.75 25.78 124.75 25.79Z" fill="#D9D9D9" fill-opacity="1.000000" fill-rule="nonzero"/>
	<path id="Vector" d="M97.53 33.93L97.53 37.79C97.53 37.8 97.53 37.81 97.52 37.82C97.51 37.82 97.5 37.83 97.49 37.83L77.13 37.83C77.12 37.83 77.11 37.82 77.1 37.82C77.09 37.81 77.09 37.8 77.09 37.79L77.09 22.52C77.09 22.51 77.1 22.5 77.1 22.49C77.11 22.49 77.12 22.48 77.13 22.48L97.49 22.48C97.5 22.48 97.51 22.49 97.52 22.49C97.53 22.5 97.53 22.51 97.53 22.52L97.53 26.34C97.53 26.35 97.53 26.36 97.52 26.37L93.81 30.11C93.81 30.12 93.8 30.12 93.8 30.13C93.8 30.13 93.8 30.14 93.8 30.14C93.8 30.15 93.8 30.15 93.8 30.16C93.8 30.16 93.81 30.17 93.81 30.17L97.52 33.91C97.53 33.91 97.53 33.92 97.53 33.93ZM92.71 26.65C92.91 26.44 93.3 26.13 93.54 25.79C93.57 25.76 93.56 25.74 93.51 25.74L80.37 25.72C80.29 25.72 80.25 25.76 80.25 25.84L80.28 28.48C80.28 28.51 80.3 28.53 80.33 28.53L90.76 28.53C90.81 28.53 90.85 28.51 90.89 28.48C91.5 27.88 92.11 27.27 92.71 26.65ZM90.84 31.78C90.83 31.77 90.83 31.77 90.83 31.77C90.82 31.77 90.81 31.76 90.81 31.76L80.32 31.78C80.31 31.78 80.3 31.78 80.29 31.79C80.29 31.8 80.28 31.81 80.28 31.82L80.27 34.54C80.27 34.55 80.28 34.56 80.28 34.57C80.29 34.57 80.3 34.58 80.31 34.58L93.52 34.58C93.53 34.58 93.53 34.58 93.54 34.57C93.55 34.57 93.55 34.56 93.56 34.55C93.56 34.54 93.56 34.54 93.56 34.53C93.56 34.52 93.55 34.51 93.55 34.51L90.84 31.78Z" fill="#D9D9D9" fill-opacity="1.000000" fill-rule="nonzero"/>
	<path id="Vector" d="M8.67 39.52L11.5 29.07C11.5 29.06 11.5 29.06 11.51 29.05C11.51 29.04 11.52 29.04 11.52 29.03C11.53 29.03 11.54 29.03 11.55 29.03C11.56 29.02 11.56 29.02 11.57 29.03L15 29.94C15.01 29.95 15.02 29.96 15.03 29.97C15.04 29.99 15.04 30 15.04 30.02L13.36 36.4C13.35 36.41 13.35 36.42 13.35 36.43C13.36 36.44 13.36 36.44 13.36 36.45C13.37 36.46 13.37 36.46 13.38 36.47C13.38 36.47 13.39 36.48 13.4 36.48L20.13 38.38C20.14 38.39 20.16 38.4 20.16 38.41C20.17 38.43 20.17 38.44 20.17 38.46L17.56 47.9C17.56 47.91 17.55 47.93 17.53 47.94C17.52 47.94 17.5 47.95 17.49 47.94L14.06 46.98C14.05 46.98 14.03 46.97 14.03 46.95C14.02 46.94 14.02 46.92 14.02 46.91L15.49 41.58C15.49 41.56 15.49 41.54 15.48 41.53C15.48 41.52 15.46 41.5 15.45 41.5L8.72 39.59C8.7 39.59 8.69 39.58 8.68 39.56C8.67 39.55 8.67 39.53 8.67 39.52Z" fill="#F5A020" fill-opacity="1.000000" fill-rule="nonzero"/>
	<path id="Vector" d="M23.1 55.16L23.45 54.92C23.49 54.89 23.54 54.88 23.58 54.89C23.63 54.89 23.67 54.92 23.7 54.95C24.11 55.43 24.42 55.96 24.64 56.56C24.64 56.58 24.64 56.6 24.64 56.62C24.64 56.64 24.64 56.66 24.63 56.68C24.62 56.69 24.6 56.71 24.59 56.72C24.57 56.73 24.55 56.74 24.53 56.74C23.51 56.96 23.84 58.39 24.84 58.43C24.85 58.43 24.87 58.43 24.88 58.44C24.89 58.44 24.9 58.45 24.91 58.46C24.92 58.47 24.93 58.49 24.93 58.5C24.94 58.52 24.94 58.53 24.94 58.54C24.89 59.18 24.75 59.8 24.5 60.39C24.5 60.41 24.48 60.42 24.47 60.43C24.45 60.44 24.42 60.45 24.41 60.45C24.11 60.41 23.81 60.3 23.54 60.41C22.87 60.69 23.07 61.29 23.39 61.76C23.4 61.78 23.41 61.8 23.41 61.82C23.4 61.84 23.39 61.86 23.38 61.88C22.91 62.33 22.37 62.67 21.76 62.88C21.71 62.9 21.68 62.88 21.65 62.85C21.52 62.66 21.42 62.48 21.25 62.36C20.64 61.89 19.97 62.33 19.89 63.03C19.88 63.07 19.86 63.12 19.83 63.14C19.79 63.17 19.75 63.19 19.71 63.18C19.07 63.13 18.46 62.98 17.87 62.72C17.83 62.7 17.82 62.67 17.84 62.62C18.34 61.74 17.42 60.87 16.7 61.57C16.68 61.59 16.66 61.6 16.63 61.61C16.61 61.62 16.58 61.63 16.55 61.63C16.53 61.62 16.5 61.62 16.47 61.6C16.45 61.59 16.43 61.57 16.41 61.55C16.03 61.07 15.71 60.55 15.45 59.99C15.45 59.98 15.44 59.96 15.44 59.95C15.44 59.93 15.45 59.92 15.45 59.91C15.46 59.89 15.46 59.88 15.47 59.87C15.48 59.86 15.5 59.85 15.51 59.85C16.17 59.57 16.35 59.13 16.06 58.53C15.88 58.17 15.59 58.11 15.23 58.06C15.21 58.06 15.19 58.05 15.17 58.03C15.16 58.02 15.16 57.99 15.16 57.97C15.23 57.33 15.4 56.72 15.65 56.12C15.66 56.11 15.67 56.09 15.69 56.08C15.71 56.07 15.73 56.07 15.75 56.07C16.4 56.16 17.05 56.23 17.02 55.3C17.02 55.26 17 55.22 16.98 55.18L16.69 54.74C16.67 54.7 16.67 54.66 16.71 54.62C17.19 54.18 17.74 53.84 18.36 53.62C18.38 53.62 18.4 53.62 18.42 53.62C18.44 53.63 18.45 53.64 18.46 53.66C18.65 53.93 18.69 54.24 19.1 54.28C19.14 54.28 19.16 54.27 19.16 54.23L23.85 36.39C23.87 36.34 23.85 36.31 23.8 36.3L17.09 34.48C17.03 34.47 17.01 34.43 17.03 34.37L18.01 30.7C18.01 30.69 18.01 30.68 18.02 30.67C18.03 30.67 18.03 30.66 18.04 30.66C18.05 30.65 18.06 30.65 18.07 30.65C18.08 30.65 18.08 30.65 18.09 30.65L28.66 33.5C28.66 33.5 28.67 33.5 28.68 33.51C28.68 33.52 28.69 33.53 28.68 33.54L23.02 55.1C23.02 55.11 23.02 55.12 23.02 55.13C23.02 55.14 23.03 55.15 23.04 55.16C23.05 55.16 23.06 55.16 23.07 55.16C23.08 55.16 23.09 55.16 23.1 55.16ZM22.34 58.26C22.34 57.64 22.09 57.06 21.66 56.62C21.24 56.19 20.65 55.95 20.04 55.95C19.43 55.95 18.85 56.19 18.42 56.62C17.99 57.06 17.75 57.64 17.75 58.26C17.75 58.87 17.99 59.46 18.42 59.89C18.85 60.32 19.43 60.57 20.04 60.57C20.65 60.57 21.24 60.32 21.66 59.89C22.09 59.46 22.34 58.87 22.34 58.26Z" fill="#F5A020" fill-opacity="1.000000" fill-rule="nonzero"/>
	<path id="Vector" d="M52.52 43.79L34.82 39.18C34.8 39.18 34.79 39.18 34.77 39.19C34.76 39.2 34.75 39.21 34.74 39.23L32.97 46.04C32.96 46.05 32.95 46.06 32.94 46.07C32.92 46.08 32.91 46.08 32.89 46.08L29.22 45.1C29.17 45.09 29.15 45.06 29.16 45.01L31.92 34.41C31.92 34.4 31.93 34.39 31.93 34.38C31.94 34.37 31.95 34.36 31.96 34.36C31.97 34.35 31.98 34.35 31.99 34.35C32 34.35 32.01 34.35 32.02 34.35L53.4 39.92C53.41 39.92 53.41 39.92 53.42 39.92C53.43 39.92 53.44 39.91 53.45 39.9C53.46 39.9 53.46 39.89 53.46 39.88C53.47 39.87 53.47 39.86 53.46 39.85C53.38 39.58 52.99 39.44 53.36 39.14C53.8 38.79 54.3 38.5 54.85 38.29C54.87 38.28 54.89 38.28 54.91 38.28C54.93 38.28 54.95 38.29 54.97 38.3C54.98 38.31 55 38.32 55.01 38.33C55.02 38.35 55.03 38.37 55.03 38.39C55.09 38.73 55.35 38.97 55.71 39C56.27 39.03 56.61 38.72 56.74 38.07C56.74 38.04 56.76 38.02 56.78 38C56.8 37.99 56.83 37.98 56.85 37.98C57.48 38.02 58.08 38.16 58.66 38.4C58.71 38.42 58.72 38.45 58.72 38.5C58.62 39.06 58.53 39.74 59.3 39.82C59.59 39.85 59.79 39.68 60.02 39.51C60.04 39.5 60.06 39.49 60.08 39.49C60.11 39.49 60.13 39.5 60.14 39.52C60.59 40 60.92 40.54 61.15 41.15C61.16 41.17 61.16 41.2 61.15 41.22C61.14 41.25 61.12 41.27 61.1 41.28C60.21 41.74 60.19 42.92 61.32 43.04C61.36 43.04 61.39 43.06 61.42 43.09C61.44 43.12 61.45 43.16 61.45 43.2C61.42 43.83 61.27 44.43 61.03 45.01C61.02 45.03 61 45.05 60.98 45.06C60.96 45.07 60.94 45.08 60.92 45.07C60.67 45.02 60.45 44.89 60.21 44.96C59.45 45.18 59.59 45.84 59.92 46.37C59.95 46.42 59.95 46.45 59.91 46.49C59.42 46.92 58.89 47.26 58.29 47.51C58.28 47.52 58.26 47.52 58.25 47.52C58.23 47.52 58.21 47.51 58.2 47.51C58.18 47.5 58.17 47.49 58.16 47.47C58.15 47.46 58.14 47.45 58.13 47.43C57.86 46.43 56.51 46.62 56.43 47.66C56.42 47.68 56.42 47.7 56.41 47.72C56.4 47.74 56.39 47.76 56.37 47.77C56.35 47.79 56.33 47.8 56.31 47.8C56.29 47.81 56.27 47.81 56.25 47.81C55.63 47.74 55.04 47.59 54.48 47.34C54.43 47.32 54.41 47.29 54.42 47.24C54.45 46.99 54.56 46.73 54.47 46.49C54.34 46.13 54.09 45.96 53.72 45.97C53.47 45.98 53.29 46.17 53.07 46.3C53.05 46.3 53.03 46.31 53.01 46.3C53 46.3 52.98 46.29 52.97 46.28C52.53 45.79 52.2 45.24 51.98 44.62C51.97 44.6 51.97 44.57 51.98 44.55C51.99 44.53 52 44.52 52.02 44.51C52.25 44.4 52.44 44.25 52.6 44.05C52.62 44.03 52.63 44.01 52.63 43.98C52.64 43.95 52.64 43.93 52.63 43.9C52.62 43.87 52.61 43.85 52.59 43.83C52.57 43.81 52.54 43.8 52.52 43.79ZM58.86 42.9C58.86 42.6 58.8 42.3 58.68 42.02C58.57 41.73 58.4 41.48 58.18 41.27C57.97 41.05 57.72 40.88 57.44 40.77C57.16 40.65 56.86 40.59 56.56 40.59C55.96 40.59 55.37 40.83 54.94 41.27C54.51 41.7 54.27 42.29 54.27 42.9C54.27 43.51 54.51 44.1 54.94 44.53C55.37 44.97 55.96 45.21 56.56 45.21C56.86 45.21 57.16 45.15 57.44 45.03C57.72 44.92 57.97 44.75 58.18 44.53C58.4 44.32 58.57 44.06 58.68 43.78C58.8 43.5 58.86 43.2 58.86 42.9Z" fill="#F5A020" fill-opacity="1.000000" fill-rule="nonzero"/>
	<path id="Vector" d="M39.96 47.6L38.09 54.44C38.09 54.44 38.08 54.45 38.08 54.45C38.08 54.46 38.08 54.46 38.07 54.46C38.07 54.46 38.06 54.47 38.06 54.47C38.05 54.47 38.05 54.47 38.04 54.47L27.61 51.67C27.61 51.66 27.6 51.66 27.6 51.66C27.59 51.66 27.59 51.65 27.59 51.65C27.58 51.64 27.58 51.64 27.58 51.63C27.58 51.63 27.58 51.62 27.58 51.62L28.48 48.12C28.48 48.12 28.49 48.12 28.49 48.11C28.49 48.11 28.5 48.1 28.5 48.1C28.51 48.1 28.51 48.1 28.52 48.1C28.52 48.1 28.53 48.1 28.53 48.1L34.92 49.77C34.93 49.77 34.94 49.77 34.95 49.76C34.96 49.76 34.97 49.75 34.97 49.74L36.84 42.91C36.84 42.9 36.84 42.9 36.85 42.9C36.85 42.89 36.86 42.89 36.86 42.89C36.86 42.88 36.87 42.88 36.87 42.88C36.88 42.88 36.89 42.88 36.89 42.88L46.31 45.47C46.32 45.47 46.32 45.47 46.33 45.47C46.33 45.48 46.33 45.48 46.34 45.48C46.34 45.49 46.34 45.49 46.34 45.5C46.34 45.5 46.34 45.51 46.34 45.51L45.4 49.01C45.4 49.02 45.39 49.02 45.39 49.03C45.39 49.03 45.38 49.03 45.38 49.04C45.37 49.04 45.37 49.04 45.36 49.04C45.36 49.04 45.35 49.04 45.35 49.04L40.01 47.58C40 47.57 40 47.57 40 47.57C39.99 47.58 39.98 47.58 39.98 47.58C39.98 47.58 39.97 47.59 39.97 47.59C39.97 47.59 39.96 47.6 39.96 47.6Z" fill="#F5A020" fill-opacity="1.000000" fill-rule="nonzero"/>
</svg>
