<svg width="241" height="130" viewBox="0 0 241 130" fill="none" xmlns="http://www.w3.org/2000/svg">
<g clip-path="url(#clip0_849_2374)">
<path fill-rule="evenodd" clip-rule="evenodd" d="M141.043 71.5582C141.043 73.6456 140.647 75.4882 139.865 77.0859C139.073 78.6882 138.016 80.0056 136.681 81.0382C135.103 82.2844 133.407 83.1611 131.611 83.6863C129.811 84.2026 127.48 84.4607 124.627 84.4607H112.607V42.4463H123.722C126.71 42.4463 128.945 42.5442 130.437 42.74C131.928 42.9359 133.363 43.3987 134.733 44.1375C136.233 44.9431 137.334 46.0024 138.021 47.3064C138.716 48.6105 139.064 50.1504 139.064 51.9084C139.064 53.889 138.543 55.6559 137.499 57.2092C136.46 58.7714 135.016 59.9953 133.176 60.8721V61.0991C135.672 61.7801 137.608 63.0173 138.977 64.8154C140.352 66.6135 141.034 68.8522 141.034 71.5493L141.043 71.5582ZM133.263 52.7096C133.263 51.6859 133.094 50.8136 132.75 50.0614C132.42 49.327 131.872 48.7351 131.124 48.3034C130.219 47.796 129.215 47.4845 128.106 47.3687C127.001 47.2619 125.471 47.2041 123.518 47.2041H118.165V59.5058H124.505C126.249 59.5058 127.541 59.4167 128.362 59.2343C129.189 59.0518 130.041 58.6868 130.924 58.1216C131.772 57.5831 132.372 56.862 132.728 55.9808C133.085 55.0951 133.263 54.0003 133.263 52.7096ZM135.246 71.7852C135.246 70.2007 135.016 68.8967 134.564 67.8641C134.111 66.8405 133.202 65.9681 131.837 65.256C130.95 64.7798 129.989 64.4816 128.949 64.3481C127.906 64.219 126.427 64.1523 124.51 64.1523H118.165V79.7074H122.709C125.149 79.7074 127.075 79.5917 128.484 79.3647C129.893 79.1377 131.137 78.6615 132.202 77.9227C133.255 77.1883 134.02 76.3516 134.511 75.4214C135.003 74.4868 135.251 73.2762 135.251 71.7896L135.246 71.7852Z" fill="white"/>
<path fill-rule="evenodd" clip-rule="evenodd" d="M146.6 84.4607V42.4463H172.857V47.4132H152.161V58.9272H171.448V63.903H152.161V79.4893H172.857V84.4607H146.6Z" fill="white"/>
<path fill-rule="evenodd" clip-rule="evenodd" d="M191.917 85.3C188.873 85.3 186.294 84.9795 184.164 84.3609C182.033 83.7333 180.032 82.95 178.158 82.0332V75.0411H178.554C180.389 76.768 182.468 78.1032 184.799 79.0512C187.121 79.9992 189.369 80.471 191.526 80.471C194.596 80.471 196.922 79.8345 198.501 78.5438C200.075 77.2531 200.862 75.553 200.862 73.4523C200.862 71.7743 200.445 70.4169 199.623 69.3621C198.801 68.3073 197.488 67.5284 195.683 67.0166C194.392 66.6427 193.209 66.3356 192.139 66.0908C191.069 65.846 189.726 65.5167 188.112 65.1072C186.668 64.7289 185.368 64.2482 184.225 63.6652C183.085 63.0822 182.072 62.3211 181.185 61.382C180.319 60.4563 179.65 59.3792 179.171 58.1197C178.689 56.8779 178.454 55.4359 178.454 53.798C178.454 50.3933 179.776 47.5404 182.429 45.2349C185.068 42.9384 188.447 41.7856 192.552 41.7856C194.9 41.7856 197.114 42.0215 199.21 42.4933C201.297 42.9651 203.237 43.6327 205.015 44.4961V51.1944H204.593C203.267 49.966 201.558 48.9023 199.475 47.9854C197.392 47.0731 195.205 46.6191 192.922 46.6191C190.334 46.6191 188.247 47.2244 186.647 48.4305C185.051 49.6455 184.259 51.2389 184.259 53.2105C184.259 54.9908 184.729 56.4106 185.664 57.4654C186.603 58.5202 187.964 59.2946 189.743 59.7798C190.93 60.0958 192.369 60.4607 194.078 60.8657C195.787 61.2663 197.201 61.6446 198.331 61.9828C201.219 62.8685 203.332 64.2037 204.659 65.9885C205.994 67.7776 206.659 69.9763 206.659 72.5888C206.659 74.2178 206.324 75.8423 205.663 77.4356C204.993 79.0379 204.059 80.3953 202.858 81.5035C201.51 82.723 199.984 83.6666 198.288 84.3253C196.592 84.984 194.465 85.3089 191.917 85.3089V85.3Z" fill="white"/>
<path fill-rule="evenodd" clip-rule="evenodd" d="M220.874 84.4607V47.4132H206.789V42.4463H240.526V47.4132H226.44V84.4607H220.874Z" fill="white"/>
<path d="M218.088 101.391H211.947V90.0952H213.356V100.056H218.088V101.391ZM226.872 90.0952L223.228 101.391H221.71L218.066 90.0952H219.575L222.506 99.455L225.432 90.0952H226.876H226.872ZM231.586 101.391H227.472V100.238H228.824V91.2479H227.472V90.0952H231.586V91.2479H230.233V100.238H231.586V101.391ZM240.996 90.0952L237.352 101.391H235.83L232.19 90.0952H233.699L236.63 99.455L239.557 90.0952H240.992H240.996Z" fill="white"/>
<path fill-rule="evenodd" clip-rule="evenodd" d="M91.6856 84.514L82.4535 78.8394H58.3404L49.0996 84.514C57.936 100.884 84.3581 127.681 112.976 130C103.005 124.045 87.1326 102.642 91.6899 84.514H91.6856Z" fill="white"/>
<path fill-rule="evenodd" clip-rule="evenodd" d="M98.2044 0C98.3566 12.1904 88.9114 37.5371 71.9083 42.4017V53.7731L83.9714 76.0355L93.1991 81.7234C102.079 65.3761 110.637 27.5898 98.2044 0.00445068V0Z" fill="white"/>
<path fill-rule="evenodd" clip-rule="evenodd" d="M68.882 42.397C51.1744 42.3748 16.1899 53.3635 0 78.63C9.82786 72.4035 35.1411 68.4424 47.5912 81.7188L56.8189 76.0308L68.8776 53.7685L68.8863 42.397H68.882Z" fill="white"/>
<path fill-rule="evenodd" clip-rule="evenodd" d="M64.7383 69.5373C64.7383 66.2171 67.2692 63.5244 70.3915 63.5244C73.5138 63.5244 76.0447 66.2171 76.0447 69.5373C76.0447 72.8575 73.5138 75.568 70.3915 75.568C67.2692 75.568 64.7383 72.8753 64.7383 69.5373Z" fill="white"/>
</g>
<defs>
<clipPath id="clip0_849_2374">
<rect width="241" height="130" fill="white"/>
</clipPath>
</defs>
</svg>
