<svg width="32" height="32" viewBox="0 0 32 32" fill="none" xmlns="http://www.w3.org/2000/svg">
<path d="M16.0007 12C14.9398 12 13.9224 12.4214 13.1723 13.1716C12.4221 13.9217 12.0007 14.9392 12.0007 16C12.0007 17.0609 12.4221 18.0783 13.1723 18.8284C13.9224 19.5786 14.9398 20 16.0007 20C17.0615 20 18.079 19.5786 18.8291 18.8284C19.5793 18.0783 20.0007 17.0609 20.0007 16C20.0007 14.9392 19.5793 13.9217 18.8291 13.1716C18.079 12.4214 17.0615 12 16.0007 12ZM16.0007 9.33335C17.7688 9.33335 19.4645 10.0357 20.7147 11.286C21.965 12.5362 22.6673 14.2319 22.6673 16C22.6673 17.7681 21.965 19.4638 20.7147 20.7141C19.4645 21.9643 17.7688 22.6667 16.0007 22.6667C14.2326 22.6667 12.5369 21.9643 11.2866 20.7141C10.0364 19.4638 9.33401 17.7681 9.33401 16C9.33401 14.2319 10.0364 12.5362 11.2866 11.286C12.5369 10.0357 14.2326 9.33335 16.0007 9.33335ZM24.6673 9.00002C24.6673 9.44205 24.4918 9.86597 24.1792 10.1785C23.8666 10.4911 23.4427 10.6667 23.0007 10.6667C22.5587 10.6667 22.1347 10.4911 21.8222 10.1785C21.5096 9.86597 21.334 9.44205 21.334 9.00002C21.334 8.55799 21.5096 8.13407 21.8222 7.82151C22.1347 7.50895 22.5587 7.33335 23.0007 7.33335C23.4427 7.33335 23.8666 7.50895 24.1792 7.82151C24.4918 8.13407 24.6673 8.55799 24.6673 9.00002ZM16.0007 5.33335C12.702 5.33335 12.1633 5.34269 10.6287 5.41069C9.58335 5.46002 8.88201 5.60002 8.23135 5.85335C7.68684 6.05327 7.19457 6.3737 6.79135 6.79069C6.37402 7.19389 6.05315 7.68613 5.85268 8.23069C5.59935 8.88402 5.45935 9.58402 5.41135 10.628C5.34202 12.1 5.33268 12.6147 5.33268 16C5.33268 19.3 5.34202 19.8374 5.41002 21.372C5.45935 22.416 5.59935 23.1187 5.85135 23.768C6.07802 24.348 6.34468 24.7654 6.78735 25.208C7.23668 25.656 7.65402 25.924 8.22735 26.1454C8.88602 26.4 9.58735 26.5414 10.6273 26.5894C12.0993 26.6587 12.614 26.6667 15.9993 26.6667C19.2993 26.6667 19.8367 26.6574 21.3713 26.5894C22.414 26.54 23.1153 26.4 23.7673 26.148C24.3114 25.9471 24.8034 25.6268 25.2073 25.2107C25.6567 24.7627 25.9247 24.3454 26.146 23.7707C26.3993 23.1147 26.5407 22.4134 26.5887 21.3707C26.658 19.9 26.666 19.384 26.666 16C26.666 12.7014 26.6567 12.1627 26.5887 10.628C26.5393 9.58535 26.398 8.88135 26.146 8.23069C25.945 7.68671 25.6247 7.19466 25.2087 6.79069C24.8057 6.37315 24.3134 6.05224 23.7687 5.85202C23.1153 5.59869 22.414 5.45869 21.3713 5.41069C19.9007 5.34135 19.386 5.33335 15.9993 5.33335M15.9993 2.66669C19.622 2.66669 20.074 2.68002 21.4967 2.74669C22.9153 2.81335 23.8833 3.03602 24.7327 3.36669C25.6127 3.70535 26.354 4.16402 27.0953 4.90402C27.7733 5.57055 28.298 6.37681 28.6327 7.26669C28.962 8.11602 29.186 9.08402 29.2527 10.504C29.3153 11.9254 29.3327 12.3774 29.3327 16C29.3327 19.6227 29.3193 20.0747 29.2527 21.496C29.186 22.916 28.962 23.8827 28.6327 24.7334C28.2989 25.6237 27.7741 26.4301 27.0953 27.096C26.4286 27.7738 25.6224 28.2984 24.7327 28.6334C23.8833 28.9627 22.9153 29.1867 21.4967 29.2534C20.074 29.316 19.622 29.3334 15.9993 29.3334C12.3767 29.3334 11.9247 29.32 10.502 29.2534C9.08335 29.1867 8.11668 28.9627 7.26602 28.6334C6.37578 28.2993 5.56939 27.7746 4.90335 27.096C4.22526 26.4296 3.70063 25.6233 3.36602 24.7334C3.03535 23.884 2.81268 22.916 2.74602 21.496C2.68202 20.0747 2.66602 19.6227 2.66602 16C2.66602 12.3774 2.67935 11.9254 2.74602 10.504C2.81268 9.08402 3.03535 8.11735 3.36602 7.26669C3.69966 6.37626 4.22442 5.56978 4.90335 4.90402C5.56958 4.22566 6.37592 3.70099 7.26602 3.36669C8.11535 3.03602 9.08202 2.81335 10.502 2.74669C11.926 2.68402 12.378 2.66669 16.0007 2.66669" fill="white"/>
</svg>
