<svg width="1440" height="1507" viewBox="0 0 1440 1507" fill="none" xmlns="http://www.w3.org/2000/svg">
<path d="M-676.493 480.107C-531.824 246.865 -131.563 -160.504 312.126 75.9535C866.737 371.525 911.649 774.322 1425.13 623.619" stroke="#4F4F4F"/>
<path d="M-501.698 1335.27C-422.907 1072.35 -142.819 574.651 347.201 687.133C959.726 827.736 1108.19 1204.86 1564.55 925.382" stroke="#F99C04"/>
<path d="M-510.761 1291.08C-428.324 1029.29 -141.347 535.524 347.063 654.804C957.575 803.905 1100.79 1183.05 1560.99 909.945" stroke="#F09808"/>
<path d="M-519.845 1246.8C-433.779 986.181 -139.97 496.453 346.736 622.508C955.118 780.077 1093.05 1161.18 1557 894.491" stroke="#E7940C"/>
<path d="M-528.953 1202.43C-439.274 943.035 -138.688 457.436 346.219 590.242C952.352 756.249 1084.97 1139.23 1552.59 879.015" stroke="#DE9010"/>
<path d="M-538.079 1157.98C-444.804 899.849 -137.5 418.473 345.515 558.004C949.283 732.417 1076.57 1117.2 1547.75 863.512" stroke="#D58C14"/>
<path d="M-547.225 1113.43C-450.373 856.621 -136.41 379.563 344.62 525.791C945.906 708.576 1067.83 1095.09 1542.5 847.974" stroke="#CC8818"/>
<path d="M-556.387 1068.79C-455.975 813.352 -135.414 340.701 343.537 493.599C942.226 684.722 1058.77 1072.9 1536.82 832.396" stroke="#C3841C"/>
<path d="M-565.565 1024.06C-461.614 770.041 -134.516 301.89 342.264 461.428C938.24 660.851 1049.38 1050.61 1530.73 816.772" stroke="#BA8020"/>
<path d="M-574.757 979.236C-467.287 726.688 -133.716 263.127 340.802 429.275C933.949 636.959 1039.66 1028.22 1524.21 801.098" stroke="#B17C23"/>
<path d="M-583.965 934.322C-472.996 683.291 -133.016 224.41 339.147 397.135C929.351 613.041 1029.62 1005.73 1517.28 785.365" stroke="#A87727"/>
<path d="M-593.184 889.316C-478.737 639.851 -132.414 185.739 337.304 365.007C924.451 589.093 1019.25 983.142 1509.93 769.57" stroke="#9F732B"/>
<path d="M-602.413 844.218C-484.511 596.367 -131.912 147.111 335.27 332.889C919.246 565.111 1008.56 960.44 1502.16 753.706" stroke="#966F2F"/>
<path d="M-611.652 799.028C-490.318 552.839 -131.51 108.526 333.045 300.777C913.739 541.091 997.555 937.622 1493.97 737.767" stroke="#8D6B33"/>
<path d="M-620.9 753.745C-496.156 509.267 -131.21 69.9814 330.629 268.669C907.928 517.029 986.226 914.686 1485.37 721.748" stroke="#846737"/>
<path d="M-630.154 708.37C-502.026 465.648 -131.011 31.4763 328.023 236.562C901.815 492.919 974.58 891.626 1476.36 705.642" stroke="#7B633B"/>
<path d="M-639.416 662.903C-507.928 421.985 -130.916 -6.98988 325.224 204.454C895.398 468.759 962.617 868.439 1466.93 689.444" stroke="#725F3F"/>
<path d="M-648.683 617.343C-513.86 378.275 -130.924 -45.42 322.234 172.342C888.681 444.543 950.339 845.119 1457.09 673.149" stroke="#695B43"/>
<path d="M-657.952 571.69C-519.819 334.519 -131.033 -83.8149 319.055 140.222C881.665 420.269 937.752 821.662 1446.85 656.75" stroke="#615747"/>
<path d="M-667.222 525.945C-525.808 290.716 -131.246 -122.175 315.686 108.094C874.351 395.931 924.855 798.065 1436.19 640.242" stroke="#58534B"/>
</svg>
