<svg width="390" height="1267" viewBox="0 0 390 1267" fill="none" xmlns="http://www.w3.org/2000/svg">
<path d="M-498.074 689.172C-329.112 405.24 -137.272 279.265 -59.5101 446.182C25.4734 628.601 254.402 634.023 396.642 442.26" stroke="#282828"/>
<path d="M-387.98 855.344C-227.412 566.583 -39.3446 435.041 43.2748 599.607C133.567 779.457 362.557 778.169 499.116 582.321" stroke="#F99C04"/>
<path d="M-492.278 697.918C-323.755 413.726 -132.109 287.455 -54.0896 454.252C31.1752 636.539 260.112 641.608 402.056 449.627" stroke="#332E26"/>
<path d="M-486.484 706.664C-318.399 422.213 -126.948 295.646 -48.672 462.323C36.8738 644.478 265.818 649.194 407.466 456.994" stroke="#3E3424"/>
<path d="M-480.69 715.41C-313.045 430.7 -121.789 303.838 -43.2556 470.394C42.5711 652.417 271.523 656.78 412.874 464.361" stroke="#493A22"/>
<path d="M-474.894 724.157C-307.688 439.188 -116.628 312.031 -37.8383 478.465C48.269 660.356 277.227 664.366 418.281 471.729" stroke="#544020"/>
<path d="M-469.101 732.902C-302.334 447.676 -111.471 320.225 -32.424 486.538C53.9638 668.295 282.928 671.952 423.684 479.098" stroke="#5F461E"/>
<path d="M-463.305 741.649C-296.979 456.165 -106.312 328.42 -27.0089 494.61C59.6592 676.235 288.628 679.538 429.087 486.467" stroke="#6A4C1C"/>
<path d="M-457.511 750.395C-291.625 464.655 -101.156 336.616 -21.5967 502.684C65.3513 684.174 294.325 687.124 434.486 493.837" stroke="#75531A"/>
<path d="M-451.718 759.141C-286.273 473.145 -96.0011 344.813 -16.1857 510.758C71.0422 692.114 300.021 694.711 439.883 501.208" stroke="#805919"/>
<path d="M-445.922 767.886C-280.918 481.636 -90.8451 353.011 -10.7738 518.832C76.7338 700.053 305.716 702.297 445.28 508.578" stroke="#8B5F17"/>
<path d="M-440.129 776.632C-275.567 490.128 -85.6918 361.209 -5.36487 526.907C82.4221 707.993 311.407 709.884 450.673 515.95" stroke="#966515"/>
<path d="M-434.333 785.378C-270.213 498.621 -80.5376 369.409 0.0448928 534.982C88.1111 715.933 317.099 717.47 456.065 523.322" stroke="#A16B13"/>
<path d="M-428.54 794.124C-264.862 507.114 -75.3861 377.609 5.45166 543.059C93.7968 723.873 322.787 725.057 461.453 530.695" stroke="#AC7111"/>
<path d="M-422.746 802.87C-259.512 515.607 -70.2356 385.811 10.8573 551.135C99.4813 731.813 328.473 732.644 466.839 538.068" stroke="#B7770F"/>
<path d="M-416.951 811.615C-254.16 524.101 -65.0839 394.014 16.2639 559.212C105.166 739.754 334.159 740.231 472.225 545.442" stroke="#C27D0D"/>
<path d="M-411.157 820.361C-248.81 532.596 -59.9351 402.217 21.6674 567.29C110.848 747.694 339.841 747.819 477.607 552.817" stroke="#CD840C"/>
<path d="M-405.364 829.107C-243.461 541.092 -54.7871 410.421 27.0699 575.369C116.529 755.635 345.522 755.406 482.986 560.192" stroke="#D88A0A"/>
<path d="M-399.569 837.853C-238.11 549.588 -49.6381 418.627 32.4732 583.448C122.21 763.575 351.203 762.993 488.366 567.568" stroke="#E39008"/>
<path d="M-393.776 846.598C-232.761 558.085 -44.4919 426.833 37.8735 591.527C127.888 771.516 356.88 770.581 493.741 574.944" stroke="#EE9606"/>
<path d="M-492.278 697.918C-323.755 413.726 -132.109 287.455 -54.0896 454.252C31.1752 636.539 260.112 641.608 402.056 449.627" stroke="#332E26"/>
<path d="M-486.484 706.664C-318.399 422.213 -126.948 295.646 -48.672 462.323C36.8738 644.478 265.818 649.194 407.466 456.994" stroke="#3E3424"/>
<path d="M-480.69 715.41C-313.045 430.7 -121.789 303.838 -43.2556 470.394C42.5711 652.417 271.523 656.78 412.874 464.361" stroke="#493A22"/>
<path d="M-474.894 724.157C-307.688 439.188 -116.628 312.031 -37.8383 478.465C48.269 660.356 277.227 664.366 418.281 471.729" stroke="#544020"/>
<path d="M-469.101 732.902C-302.334 447.676 -111.471 320.225 -32.424 486.538C53.9638 668.295 282.928 671.952 423.684 479.098" stroke="#5F461E"/>
<path d="M-463.305 741.649C-296.979 456.165 -106.312 328.42 -27.0089 494.61C59.6592 676.235 288.628 679.538 429.087 486.467" stroke="#6A4C1C"/>
<path d="M-457.511 750.395C-291.625 464.655 -101.156 336.616 -21.5967 502.684C65.3513 684.174 294.325 687.124 434.486 493.837" stroke="#75531A"/>
<path d="M-451.718 759.141C-286.273 473.145 -96.0011 344.813 -16.1857 510.758C71.0422 692.114 300.021 694.711 439.883 501.208" stroke="#805919"/>
<path d="M-445.922 767.886C-280.918 481.636 -90.8451 353.011 -10.7738 518.832C76.7338 700.053 305.716 702.297 445.28 508.578" stroke="#8B5F17"/>
<path d="M-440.129 776.632C-275.567 490.128 -85.6918 361.209 -5.36487 526.907C82.4221 707.993 311.407 709.884 450.673 515.95" stroke="#966515"/>
<path d="M-434.333 785.378C-270.213 498.621 -80.5376 369.409 0.0448928 534.982C88.1111 715.933 317.099 717.47 456.065 523.322" stroke="#A16B13"/>
<path d="M-428.54 794.124C-264.862 507.114 -75.3861 377.609 5.45166 543.059C93.7968 723.873 322.787 725.057 461.453 530.695" stroke="#AC7111"/>
<path d="M-422.746 802.87C-259.512 515.607 -70.2356 385.811 10.8573 551.135C99.4813 731.813 328.473 732.644 466.839 538.068" stroke="#B7770F"/>
<path d="M-416.951 811.615C-254.16 524.101 -65.0839 394.014 16.2639 559.212C105.166 739.754 334.159 740.231 472.225 545.442" stroke="#C27D0D"/>
<path d="M-411.157 820.361C-248.81 532.596 -59.9351 402.217 21.6674 567.29C110.848 747.694 339.841 747.819 477.607 552.817" stroke="#CD840C"/>
<path d="M-405.364 829.107C-243.461 541.092 -54.7871 410.421 27.0699 575.369C116.529 755.635 345.522 755.406 482.986 560.192" stroke="#D88A0A"/>
<path d="M-399.569 837.853C-238.11 549.588 -49.6381 418.627 32.4732 583.448C122.21 763.575 351.203 762.993 488.366 567.568" stroke="#E39008"/>
<path d="M-393.776 846.598C-232.761 558.085 -44.4919 426.833 37.8735 591.527C127.888 771.516 356.88 770.581 493.741 574.944" stroke="#EE9606"/>
</svg>
