<svg width="1440" height="1507" viewBox="0 0 1440 1507" fill="none" xmlns="http://www.w3.org/2000/svg">
<path d="M-475.493 480.107C-330.824 246.865 69.4367 -160.504 513.126 75.9535C1067.74 371.525 1112.65 774.322 1626.13 623.619" stroke="#4F4F4F"/>
<path d="M-300.698 1335.27C-221.907 1072.35 58.1812 574.651 548.201 687.133C1160.73 827.736 1309.19 1204.86 1765.55 925.382" stroke="#F99C04"/>
<path d="M-309.761 1291.08C-227.324 1029.29 59.6526 535.524 548.063 654.804C1158.57 803.905 1301.79 1183.05 1761.99 909.945" stroke="#F09808"/>
<path d="M-318.845 1246.8C-232.779 986.181 61.0305 496.453 547.736 622.508C1156.12 780.077 1294.05 1161.18 1758 894.491" stroke="#E7940C"/>
<path d="M-327.953 1202.44C-238.274 943.035 62.3118 457.437 547.219 590.242C1153.35 756.249 1285.97 1139.23 1753.59 879.016" stroke="#DE9010"/>
<path d="M-337.079 1157.98C-243.804 899.849 63.5 418.474 546.515 558.004C1150.28 732.417 1277.57 1117.2 1748.75 863.512" stroke="#D58C14"/>
<path d="M-346.225 1113.43C-249.373 856.621 64.5902 379.562 545.62 525.791C1146.91 708.576 1268.83 1095.09 1743.5 847.974" stroke="#CC8818"/>
<path d="M-355.387 1068.79C-254.975 813.352 65.5857 340.701 544.537 493.599C1143.23 684.722 1259.77 1072.9 1737.82 832.396" stroke="#C3841C"/>
<path d="M-364.565 1024.06C-260.614 770.041 66.4839 301.89 543.264 461.428C1139.24 660.851 1250.38 1050.61 1731.73 816.772" stroke="#BA8020"/>
<path d="M-373.757 979.236C-266.287 726.688 67.2841 263.127 541.802 429.275C1134.95 636.959 1240.66 1028.22 1725.21 801.098" stroke="#B17C23"/>
<path d="M-382.965 934.322C-271.996 683.291 67.9836 224.411 540.147 397.135C1130.35 613.041 1230.62 1005.74 1718.28 785.366" stroke="#A87727"/>
<path d="M-392.184 889.316C-277.737 639.851 68.5858 185.739 538.304 365.007C1125.45 589.093 1220.25 983.142 1710.93 769.57" stroke="#9F732B"/>
<path d="M-401.413 844.218C-283.511 596.367 69.0881 147.111 536.27 332.889C1120.25 565.111 1209.56 960.439 1703.16 753.706" stroke="#966F2F"/>
<path d="M-410.652 799.028C-289.318 552.839 69.4897 108.526 534.045 300.777C1114.74 541.091 1198.55 937.622 1694.97 737.767" stroke="#8D6B33"/>
<path d="M-419.9 753.745C-295.156 509.267 69.7903 69.9814 531.629 268.669C1108.93 517.029 1187.23 914.686 1686.37 721.748" stroke="#846737"/>
<path d="M-429.154 708.37C-301.026 465.648 69.9893 31.4763 529.023 236.562C1102.81 492.919 1175.58 891.626 1677.36 705.642" stroke="#7B633B"/>
<path d="M-438.416 662.903C-306.928 421.985 70.0841 -6.98964 526.224 204.454C1096.4 468.759 1163.62 868.439 1667.93 689.445" stroke="#725F3F"/>
<path d="M-447.683 617.343C-312.86 378.275 70.0761 -45.4203 523.234 172.341C1089.68 444.543 1151.34 845.118 1658.09 673.148" stroke="#695B43"/>
<path d="M-456.952 571.69C-318.819 334.518 69.9668 -83.8151 520.055 140.222C1082.67 420.268 1138.75 821.661 1647.85 656.749" stroke="#615747"/>
<path d="M-466.222 525.945C-324.808 290.716 69.7539 -122.175 516.686 108.094C1075.35 395.931 1125.85 798.065 1637.19 640.242" stroke="#58534B"/>
</svg>
