<svg width="3568.277344" height="3413.512207" viewBox="0 0 3568.28 3413.51" fill="none" xmlns="http://www.w3.org/2000/svg" xmlns:xlink="http://www.w3.org/1999/xlink">
	<desc>
			Created with Pixso.
	</desc>
	<defs>
		<filter id="filter_847_808_dd" x="651.921875" y="0.000000" width="1804.755859" height="2575.741211" filterUnits="userSpaceOnUse" color-interpolation-filters="sRGB">
			<feFlood flood-opacity="0" result="BackgroundImageFix"/>
			<feBlend mode="normal" in="SourceGraphic" in2="BackgroundImageFix" result="shape"/>
			<feGaussianBlur stdDeviation="0" result="effect_layerBlur_1"/>
		</filter>
		<filter id="filter_847_809_dd" x="1088.656250" y="837.770752" width="1804.755859" height="2575.741455" filterUnits="userSpaceOnUse" color-interpolation-filters="sRGB">
			<feFlood flood-opacity="0" result="BackgroundImageFix"/>
			<feBlend mode="normal" in="SourceGraphic" in2="BackgroundImageFix" result="shape"/>
			<feGaussianBlur stdDeviation="0" result="effect_layerBlur_1"/>
		</filter>
		<filter id="filter_847_1051_dd" x="666.009766" y="27.025391" width="1804.755859" height="2575.741211" filterUnits="userSpaceOnUse" color-interpolation-filters="sRGB">
			<feFlood flood-opacity="0" result="BackgroundImageFix"/>
			<feBlend mode="normal" in="SourceGraphic" in2="BackgroundImageFix" result="shape"/>
			<feGaussianBlur stdDeviation="0" result="effect_layerBlur_1"/>
		</filter>
		<filter id="filter_847_1053_dd" x="680.097656" y="54.049805" width="1804.755859" height="2575.741211" filterUnits="userSpaceOnUse" color-interpolation-filters="sRGB">
			<feFlood flood-opacity="0" result="BackgroundImageFix"/>
			<feBlend mode="normal" in="SourceGraphic" in2="BackgroundImageFix" result="shape"/>
			<feGaussianBlur stdDeviation="0" result="effect_layerBlur_1"/>
		</filter>
		<filter id="filter_847_1055_dd" x="694.185547" y="81.074707" width="1804.755859" height="2575.741211" filterUnits="userSpaceOnUse" color-interpolation-filters="sRGB">
			<feFlood flood-opacity="0" result="BackgroundImageFix"/>
			<feBlend mode="normal" in="SourceGraphic" in2="BackgroundImageFix" result="shape"/>
			<feGaussianBlur stdDeviation="0" result="effect_layerBlur_1"/>
		</filter>
		<filter id="filter_847_1057_dd" x="708.275391" y="108.099121" width="1804.755859" height="2575.741211" filterUnits="userSpaceOnUse" color-interpolation-filters="sRGB">
			<feFlood flood-opacity="0" result="BackgroundImageFix"/>
			<feBlend mode="normal" in="SourceGraphic" in2="BackgroundImageFix" result="shape"/>
			<feGaussianBlur stdDeviation="0" result="effect_layerBlur_1"/>
		</filter>
		<filter id="filter_847_1059_dd" x="722.361328" y="135.124023" width="1804.755859" height="2575.741699" filterUnits="userSpaceOnUse" color-interpolation-filters="sRGB">
			<feFlood flood-opacity="0" result="BackgroundImageFix"/>
			<feBlend mode="normal" in="SourceGraphic" in2="BackgroundImageFix" result="shape"/>
			<feGaussianBlur stdDeviation="0" result="effect_layerBlur_1"/>
		</filter>
		<filter id="filter_847_1061_dd" x="736.451172" y="162.148438" width="1804.755859" height="2575.741699" filterUnits="userSpaceOnUse" color-interpolation-filters="sRGB">
			<feFlood flood-opacity="0" result="BackgroundImageFix"/>
			<feBlend mode="normal" in="SourceGraphic" in2="BackgroundImageFix" result="shape"/>
			<feGaussianBlur stdDeviation="0" result="effect_layerBlur_1"/>
		</filter>
		<filter id="filter_847_1063_dd" x="750.539062" y="189.173828" width="1804.755859" height="2575.741699" filterUnits="userSpaceOnUse" color-interpolation-filters="sRGB">
			<feFlood flood-opacity="0" result="BackgroundImageFix"/>
			<feBlend mode="normal" in="SourceGraphic" in2="BackgroundImageFix" result="shape"/>
			<feGaussianBlur stdDeviation="0" result="effect_layerBlur_1"/>
		</filter>
		<filter id="filter_847_1065_dd" x="764.626953" y="216.198242" width="1804.755859" height="2575.741699" filterUnits="userSpaceOnUse" color-interpolation-filters="sRGB">
			<feFlood flood-opacity="0" result="BackgroundImageFix"/>
			<feBlend mode="normal" in="SourceGraphic" in2="BackgroundImageFix" result="shape"/>
			<feGaussianBlur stdDeviation="0" result="effect_layerBlur_1"/>
		</filter>
		<filter id="filter_847_1067_dd" x="778.714844" y="243.223633" width="1804.755859" height="2575.741699" filterUnits="userSpaceOnUse" color-interpolation-filters="sRGB">
			<feFlood flood-opacity="0" result="BackgroundImageFix"/>
			<feBlend mode="normal" in="SourceGraphic" in2="BackgroundImageFix" result="shape"/>
			<feGaussianBlur stdDeviation="0" result="effect_layerBlur_1"/>
		</filter>
		<filter id="filter_847_1069_dd" x="792.804688" y="270.248047" width="1804.755859" height="2575.741699" filterUnits="userSpaceOnUse" color-interpolation-filters="sRGB">
			<feFlood flood-opacity="0" result="BackgroundImageFix"/>
			<feBlend mode="normal" in="SourceGraphic" in2="BackgroundImageFix" result="shape"/>
			<feGaussianBlur stdDeviation="0" result="effect_layerBlur_1"/>
		</filter>
		<filter id="filter_847_1071_dd" x="806.890625" y="297.273438" width="1804.755859" height="2575.741699" filterUnits="userSpaceOnUse" color-interpolation-filters="sRGB">
			<feFlood flood-opacity="0" result="BackgroundImageFix"/>
			<feBlend mode="normal" in="SourceGraphic" in2="BackgroundImageFix" result="shape"/>
			<feGaussianBlur stdDeviation="0" result="effect_layerBlur_1"/>
		</filter>
		<filter id="filter_847_1073_dd" x="820.980469" y="324.297852" width="1804.755859" height="2575.741699" filterUnits="userSpaceOnUse" color-interpolation-filters="sRGB">
			<feFlood flood-opacity="0" result="BackgroundImageFix"/>
			<feBlend mode="normal" in="SourceGraphic" in2="BackgroundImageFix" result="shape"/>
			<feGaussianBlur stdDeviation="0" result="effect_layerBlur_1"/>
		</filter>
		<filter id="filter_847_1075_dd" x="835.068359" y="351.323242" width="1804.755859" height="2575.741211" filterUnits="userSpaceOnUse" color-interpolation-filters="sRGB">
			<feFlood flood-opacity="0" result="BackgroundImageFix"/>
			<feBlend mode="normal" in="SourceGraphic" in2="BackgroundImageFix" result="shape"/>
			<feGaussianBlur stdDeviation="0" result="effect_layerBlur_1"/>
		</filter>
		<filter id="filter_847_1077_dd" x="849.156250" y="378.347656" width="1804.755859" height="2575.741211" filterUnits="userSpaceOnUse" color-interpolation-filters="sRGB">
			<feFlood flood-opacity="0" result="BackgroundImageFix"/>
			<feBlend mode="normal" in="SourceGraphic" in2="BackgroundImageFix" result="shape"/>
			<feGaussianBlur stdDeviation="0" result="effect_layerBlur_1"/>
		</filter>
		<filter id="filter_847_1079_dd" x="863.244141" y="405.373047" width="1804.755859" height="2575.741211" filterUnits="userSpaceOnUse" color-interpolation-filters="sRGB">
			<feFlood flood-opacity="0" result="BackgroundImageFix"/>
			<feBlend mode="normal" in="SourceGraphic" in2="BackgroundImageFix" result="shape"/>
			<feGaussianBlur stdDeviation="0" result="effect_layerBlur_1"/>
		</filter>
		<filter id="filter_847_1081_dd" x="877.333984" y="432.397461" width="1804.755859" height="2575.741211" filterUnits="userSpaceOnUse" color-interpolation-filters="sRGB">
			<feFlood flood-opacity="0" result="BackgroundImageFix"/>
			<feBlend mode="normal" in="SourceGraphic" in2="BackgroundImageFix" result="shape"/>
			<feGaussianBlur stdDeviation="0" result="effect_layerBlur_1"/>
		</filter>
		<filter id="filter_847_1083_dd" x="891.419922" y="459.422852" width="1804.755859" height="2575.741211" filterUnits="userSpaceOnUse" color-interpolation-filters="sRGB">
			<feFlood flood-opacity="0" result="BackgroundImageFix"/>
			<feBlend mode="normal" in="SourceGraphic" in2="BackgroundImageFix" result="shape"/>
			<feGaussianBlur stdDeviation="0" result="effect_layerBlur_1"/>
		</filter>
		<filter id="filter_847_1085_dd" x="905.509766" y="486.447266" width="1804.755859" height="2575.741211" filterUnits="userSpaceOnUse" color-interpolation-filters="sRGB">
			<feFlood flood-opacity="0" result="BackgroundImageFix"/>
			<feBlend mode="normal" in="SourceGraphic" in2="BackgroundImageFix" result="shape"/>
			<feGaussianBlur stdDeviation="0" result="effect_layerBlur_1"/>
		</filter>
		<filter id="filter_847_1087_dd" x="919.597656" y="513.472656" width="1804.755859" height="2575.741211" filterUnits="userSpaceOnUse" color-interpolation-filters="sRGB">
			<feFlood flood-opacity="0" result="BackgroundImageFix"/>
			<feBlend mode="normal" in="SourceGraphic" in2="BackgroundImageFix" result="shape"/>
			<feGaussianBlur stdDeviation="0" result="effect_layerBlur_1"/>
		</filter>
		<filter id="filter_847_1089_dd" x="933.685547" y="540.497070" width="1804.755859" height="2575.741211" filterUnits="userSpaceOnUse" color-interpolation-filters="sRGB">
			<feFlood flood-opacity="0" result="BackgroundImageFix"/>
			<feBlend mode="normal" in="SourceGraphic" in2="BackgroundImageFix" result="shape"/>
			<feGaussianBlur stdDeviation="0" result="effect_layerBlur_1"/>
		</filter>
		<filter id="filter_847_1091_dd" x="947.773438" y="567.522461" width="1804.755859" height="2575.741211" filterUnits="userSpaceOnUse" color-interpolation-filters="sRGB">
			<feFlood flood-opacity="0" result="BackgroundImageFix"/>
			<feBlend mode="normal" in="SourceGraphic" in2="BackgroundImageFix" result="shape"/>
			<feGaussianBlur stdDeviation="0" result="effect_layerBlur_1"/>
		</filter>
		<filter id="filter_847_1093_dd" x="961.863281" y="594.546875" width="1804.755859" height="2575.741211" filterUnits="userSpaceOnUse" color-interpolation-filters="sRGB">
			<feFlood flood-opacity="0" result="BackgroundImageFix"/>
			<feBlend mode="normal" in="SourceGraphic" in2="BackgroundImageFix" result="shape"/>
			<feGaussianBlur stdDeviation="0" result="effect_layerBlur_1"/>
		</filter>
		<filter id="filter_847_1095_dd" x="975.949219" y="621.572266" width="1804.755859" height="2575.741211" filterUnits="userSpaceOnUse" color-interpolation-filters="sRGB">
			<feFlood flood-opacity="0" result="BackgroundImageFix"/>
			<feBlend mode="normal" in="SourceGraphic" in2="BackgroundImageFix" result="shape"/>
			<feGaussianBlur stdDeviation="0" result="effect_layerBlur_1"/>
		</filter>
		<filter id="filter_847_1097_dd" x="990.039062" y="648.596680" width="1804.755859" height="2575.741211" filterUnits="userSpaceOnUse" color-interpolation-filters="sRGB">
			<feFlood flood-opacity="0" result="BackgroundImageFix"/>
			<feBlend mode="normal" in="SourceGraphic" in2="BackgroundImageFix" result="shape"/>
			<feGaussianBlur stdDeviation="0" result="effect_layerBlur_1"/>
		</filter>
		<filter id="filter_847_1099_dd" x="1004.126953" y="675.621582" width="1804.755859" height="2575.741211" filterUnits="userSpaceOnUse" color-interpolation-filters="sRGB">
			<feFlood flood-opacity="0" result="BackgroundImageFix"/>
			<feBlend mode="normal" in="SourceGraphic" in2="BackgroundImageFix" result="shape"/>
			<feGaussianBlur stdDeviation="0" result="effect_layerBlur_1"/>
		</filter>
		<filter id="filter_847_1101_dd" x="1018.214844" y="702.645996" width="1804.755859" height="2575.741211" filterUnits="userSpaceOnUse" color-interpolation-filters="sRGB">
			<feFlood flood-opacity="0" result="BackgroundImageFix"/>
			<feBlend mode="normal" in="SourceGraphic" in2="BackgroundImageFix" result="shape"/>
			<feGaussianBlur stdDeviation="0" result="effect_layerBlur_1"/>
		</filter>
		<filter id="filter_847_1103_dd" x="1032.302734" y="729.671387" width="1804.755859" height="2575.741211" filterUnits="userSpaceOnUse" color-interpolation-filters="sRGB">
			<feFlood flood-opacity="0" result="BackgroundImageFix"/>
			<feBlend mode="normal" in="SourceGraphic" in2="BackgroundImageFix" result="shape"/>
			<feGaussianBlur stdDeviation="0" result="effect_layerBlur_1"/>
		</filter>
		<filter id="filter_847_1105_dd" x="1046.392578" y="756.695801" width="1804.755859" height="2575.741211" filterUnits="userSpaceOnUse" color-interpolation-filters="sRGB">
			<feFlood flood-opacity="0" result="BackgroundImageFix"/>
			<feBlend mode="normal" in="SourceGraphic" in2="BackgroundImageFix" result="shape"/>
			<feGaussianBlur stdDeviation="0" result="effect_layerBlur_1"/>
		</filter>
		<filter id="filter_847_1107_dd" x="1060.478516" y="783.720947" width="1804.755859" height="2575.741455" filterUnits="userSpaceOnUse" color-interpolation-filters="sRGB">
			<feFlood flood-opacity="0" result="BackgroundImageFix"/>
			<feBlend mode="normal" in="SourceGraphic" in2="BackgroundImageFix" result="shape"/>
			<feGaussianBlur stdDeviation="0" result="effect_layerBlur_1"/>
		</filter>
		<filter id="filter_847_1109_dd" x="1074.568359" y="810.745361" width="1804.755859" height="2575.741455" filterUnits="userSpaceOnUse" color-interpolation-filters="sRGB">
			<feFlood flood-opacity="0" result="BackgroundImageFix"/>
			<feBlend mode="normal" in="SourceGraphic" in2="BackgroundImageFix" result="shape"/>
			<feGaussianBlur stdDeviation="0" result="effect_layerBlur_1"/>
		</filter>
		<filter id="filter_847_1111_dd" x="666.009766" y="27.025391" width="1804.755859" height="2575.741211" filterUnits="userSpaceOnUse" color-interpolation-filters="sRGB">
			<feFlood flood-opacity="0" result="BackgroundImageFix"/>
			<feBlend mode="normal" in="SourceGraphic" in2="BackgroundImageFix" result="shape"/>
			<feGaussianBlur stdDeviation="0" result="effect_layerBlur_1"/>
		</filter>
		<filter id="filter_847_1113_dd" x="680.097656" y="54.049805" width="1804.755859" height="2575.741211" filterUnits="userSpaceOnUse" color-interpolation-filters="sRGB">
			<feFlood flood-opacity="0" result="BackgroundImageFix"/>
			<feBlend mode="normal" in="SourceGraphic" in2="BackgroundImageFix" result="shape"/>
			<feGaussianBlur stdDeviation="0" result="effect_layerBlur_1"/>
		</filter>
		<filter id="filter_847_1115_dd" x="694.185547" y="81.074707" width="1804.755859" height="2575.741211" filterUnits="userSpaceOnUse" color-interpolation-filters="sRGB">
			<feFlood flood-opacity="0" result="BackgroundImageFix"/>
			<feBlend mode="normal" in="SourceGraphic" in2="BackgroundImageFix" result="shape"/>
			<feGaussianBlur stdDeviation="0" result="effect_layerBlur_1"/>
		</filter>
		<filter id="filter_847_1117_dd" x="708.275391" y="108.099121" width="1804.755859" height="2575.741211" filterUnits="userSpaceOnUse" color-interpolation-filters="sRGB">
			<feFlood flood-opacity="0" result="BackgroundImageFix"/>
			<feBlend mode="normal" in="SourceGraphic" in2="BackgroundImageFix" result="shape"/>
			<feGaussianBlur stdDeviation="0" result="effect_layerBlur_1"/>
		</filter>
		<filter id="filter_847_1119_dd" x="722.361328" y="135.124023" width="1804.755859" height="2575.741699" filterUnits="userSpaceOnUse" color-interpolation-filters="sRGB">
			<feFlood flood-opacity="0" result="BackgroundImageFix"/>
			<feBlend mode="normal" in="SourceGraphic" in2="BackgroundImageFix" result="shape"/>
			<feGaussianBlur stdDeviation="0" result="effect_layerBlur_1"/>
		</filter>
		<filter id="filter_847_1121_dd" x="736.451172" y="162.148438" width="1804.755859" height="2575.741699" filterUnits="userSpaceOnUse" color-interpolation-filters="sRGB">
			<feFlood flood-opacity="0" result="BackgroundImageFix"/>
			<feBlend mode="normal" in="SourceGraphic" in2="BackgroundImageFix" result="shape"/>
			<feGaussianBlur stdDeviation="0" result="effect_layerBlur_1"/>
		</filter>
		<filter id="filter_847_1123_dd" x="750.539062" y="189.173828" width="1804.755859" height="2575.741699" filterUnits="userSpaceOnUse" color-interpolation-filters="sRGB">
			<feFlood flood-opacity="0" result="BackgroundImageFix"/>
			<feBlend mode="normal" in="SourceGraphic" in2="BackgroundImageFix" result="shape"/>
			<feGaussianBlur stdDeviation="0" result="effect_layerBlur_1"/>
		</filter>
		<filter id="filter_847_1125_dd" x="764.626953" y="216.198242" width="1804.755859" height="2575.741699" filterUnits="userSpaceOnUse" color-interpolation-filters="sRGB">
			<feFlood flood-opacity="0" result="BackgroundImageFix"/>
			<feBlend mode="normal" in="SourceGraphic" in2="BackgroundImageFix" result="shape"/>
			<feGaussianBlur stdDeviation="0" result="effect_layerBlur_1"/>
		</filter>
		<filter id="filter_847_1127_dd" x="778.714844" y="243.223633" width="1804.755859" height="2575.741699" filterUnits="userSpaceOnUse" color-interpolation-filters="sRGB">
			<feFlood flood-opacity="0" result="BackgroundImageFix"/>
			<feBlend mode="normal" in="SourceGraphic" in2="BackgroundImageFix" result="shape"/>
			<feGaussianBlur stdDeviation="0" result="effect_layerBlur_1"/>
		</filter>
		<filter id="filter_847_1129_dd" x="792.804688" y="270.248047" width="1804.755859" height="2575.741699" filterUnits="userSpaceOnUse" color-interpolation-filters="sRGB">
			<feFlood flood-opacity="0" result="BackgroundImageFix"/>
			<feBlend mode="normal" in="SourceGraphic" in2="BackgroundImageFix" result="shape"/>
			<feGaussianBlur stdDeviation="0" result="effect_layerBlur_1"/>
		</filter>
		<filter id="filter_847_1131_dd" x="806.890625" y="297.273438" width="1804.755859" height="2575.741699" filterUnits="userSpaceOnUse" color-interpolation-filters="sRGB">
			<feFlood flood-opacity="0" result="BackgroundImageFix"/>
			<feBlend mode="normal" in="SourceGraphic" in2="BackgroundImageFix" result="shape"/>
			<feGaussianBlur stdDeviation="0" result="effect_layerBlur_1"/>
		</filter>
		<filter id="filter_847_1133_dd" x="820.980469" y="324.297852" width="1804.755859" height="2575.741699" filterUnits="userSpaceOnUse" color-interpolation-filters="sRGB">
			<feFlood flood-opacity="0" result="BackgroundImageFix"/>
			<feBlend mode="normal" in="SourceGraphic" in2="BackgroundImageFix" result="shape"/>
			<feGaussianBlur stdDeviation="0" result="effect_layerBlur_1"/>
		</filter>
		<filter id="filter_847_1135_dd" x="835.068359" y="351.323242" width="1804.755859" height="2575.741211" filterUnits="userSpaceOnUse" color-interpolation-filters="sRGB">
			<feFlood flood-opacity="0" result="BackgroundImageFix"/>
			<feBlend mode="normal" in="SourceGraphic" in2="BackgroundImageFix" result="shape"/>
			<feGaussianBlur stdDeviation="0" result="effect_layerBlur_1"/>
		</filter>
		<filter id="filter_847_1137_dd" x="849.156250" y="378.347656" width="1804.755859" height="2575.741211" filterUnits="userSpaceOnUse" color-interpolation-filters="sRGB">
			<feFlood flood-opacity="0" result="BackgroundImageFix"/>
			<feBlend mode="normal" in="SourceGraphic" in2="BackgroundImageFix" result="shape"/>
			<feGaussianBlur stdDeviation="0" result="effect_layerBlur_1"/>
		</filter>
		<filter id="filter_847_1139_dd" x="863.244141" y="405.373047" width="1804.755859" height="2575.741211" filterUnits="userSpaceOnUse" color-interpolation-filters="sRGB">
			<feFlood flood-opacity="0" result="BackgroundImageFix"/>
			<feBlend mode="normal" in="SourceGraphic" in2="BackgroundImageFix" result="shape"/>
			<feGaussianBlur stdDeviation="0" result="effect_layerBlur_1"/>
		</filter>
		<filter id="filter_847_1141_dd" x="877.333984" y="432.397461" width="1804.755859" height="2575.741211" filterUnits="userSpaceOnUse" color-interpolation-filters="sRGB">
			<feFlood flood-opacity="0" result="BackgroundImageFix"/>
			<feBlend mode="normal" in="SourceGraphic" in2="BackgroundImageFix" result="shape"/>
			<feGaussianBlur stdDeviation="0" result="effect_layerBlur_1"/>
		</filter>
		<filter id="filter_847_1143_dd" x="891.419922" y="459.422852" width="1804.755859" height="2575.741211" filterUnits="userSpaceOnUse" color-interpolation-filters="sRGB">
			<feFlood flood-opacity="0" result="BackgroundImageFix"/>
			<feBlend mode="normal" in="SourceGraphic" in2="BackgroundImageFix" result="shape"/>
			<feGaussianBlur stdDeviation="0" result="effect_layerBlur_1"/>
		</filter>
		<filter id="filter_847_1145_dd" x="905.509766" y="486.447266" width="1804.755859" height="2575.741211" filterUnits="userSpaceOnUse" color-interpolation-filters="sRGB">
			<feFlood flood-opacity="0" result="BackgroundImageFix"/>
			<feBlend mode="normal" in="SourceGraphic" in2="BackgroundImageFix" result="shape"/>
			<feGaussianBlur stdDeviation="0" result="effect_layerBlur_1"/>
		</filter>
		<filter id="filter_847_1147_dd" x="919.597656" y="513.472656" width="1804.755859" height="2575.741211" filterUnits="userSpaceOnUse" color-interpolation-filters="sRGB">
			<feFlood flood-opacity="0" result="BackgroundImageFix"/>
			<feBlend mode="normal" in="SourceGraphic" in2="BackgroundImageFix" result="shape"/>
			<feGaussianBlur stdDeviation="0" result="effect_layerBlur_1"/>
		</filter>
		<filter id="filter_847_1149_dd" x="933.685547" y="540.497070" width="1804.755859" height="2575.741211" filterUnits="userSpaceOnUse" color-interpolation-filters="sRGB">
			<feFlood flood-opacity="0" result="BackgroundImageFix"/>
			<feBlend mode="normal" in="SourceGraphic" in2="BackgroundImageFix" result="shape"/>
			<feGaussianBlur stdDeviation="0" result="effect_layerBlur_1"/>
		</filter>
		<filter id="filter_847_1151_dd" x="947.773438" y="567.522461" width="1804.755859" height="2575.741211" filterUnits="userSpaceOnUse" color-interpolation-filters="sRGB">
			<feFlood flood-opacity="0" result="BackgroundImageFix"/>
			<feBlend mode="normal" in="SourceGraphic" in2="BackgroundImageFix" result="shape"/>
			<feGaussianBlur stdDeviation="0" result="effect_layerBlur_1"/>
		</filter>
		<filter id="filter_847_1153_dd" x="961.863281" y="594.546875" width="1804.755859" height="2575.741211" filterUnits="userSpaceOnUse" color-interpolation-filters="sRGB">
			<feFlood flood-opacity="0" result="BackgroundImageFix"/>
			<feBlend mode="normal" in="SourceGraphic" in2="BackgroundImageFix" result="shape"/>
			<feGaussianBlur stdDeviation="0" result="effect_layerBlur_1"/>
		</filter>
		<filter id="filter_847_1155_dd" x="975.949219" y="621.572266" width="1804.755859" height="2575.741211" filterUnits="userSpaceOnUse" color-interpolation-filters="sRGB">
			<feFlood flood-opacity="0" result="BackgroundImageFix"/>
			<feBlend mode="normal" in="SourceGraphic" in2="BackgroundImageFix" result="shape"/>
			<feGaussianBlur stdDeviation="0" result="effect_layerBlur_1"/>
		</filter>
		<filter id="filter_847_1157_dd" x="990.039062" y="648.596680" width="1804.755859" height="2575.741211" filterUnits="userSpaceOnUse" color-interpolation-filters="sRGB">
			<feFlood flood-opacity="0" result="BackgroundImageFix"/>
			<feBlend mode="normal" in="SourceGraphic" in2="BackgroundImageFix" result="shape"/>
			<feGaussianBlur stdDeviation="0" result="effect_layerBlur_1"/>
		</filter>
		<filter id="filter_847_1159_dd" x="1004.126953" y="675.621582" width="1804.755859" height="2575.741211" filterUnits="userSpaceOnUse" color-interpolation-filters="sRGB">
			<feFlood flood-opacity="0" result="BackgroundImageFix"/>
			<feBlend mode="normal" in="SourceGraphic" in2="BackgroundImageFix" result="shape"/>
			<feGaussianBlur stdDeviation="0" result="effect_layerBlur_1"/>
		</filter>
		<filter id="filter_847_1161_dd" x="1018.214844" y="702.645996" width="1804.755859" height="2575.741211" filterUnits="userSpaceOnUse" color-interpolation-filters="sRGB">
			<feFlood flood-opacity="0" result="BackgroundImageFix"/>
			<feBlend mode="normal" in="SourceGraphic" in2="BackgroundImageFix" result="shape"/>
			<feGaussianBlur stdDeviation="0" result="effect_layerBlur_1"/>
		</filter>
		<filter id="filter_847_1163_dd" x="1032.302734" y="729.671387" width="1804.755859" height="2575.741211" filterUnits="userSpaceOnUse" color-interpolation-filters="sRGB">
			<feFlood flood-opacity="0" result="BackgroundImageFix"/>
			<feBlend mode="normal" in="SourceGraphic" in2="BackgroundImageFix" result="shape"/>
			<feGaussianBlur stdDeviation="0" result="effect_layerBlur_1"/>
		</filter>
		<filter id="filter_847_1165_dd" x="1046.392578" y="756.695801" width="1804.755859" height="2575.741211" filterUnits="userSpaceOnUse" color-interpolation-filters="sRGB">
			<feFlood flood-opacity="0" result="BackgroundImageFix"/>
			<feBlend mode="normal" in="SourceGraphic" in2="BackgroundImageFix" result="shape"/>
			<feGaussianBlur stdDeviation="0" result="effect_layerBlur_1"/>
		</filter>
		<filter id="filter_847_1167_dd" x="1060.478516" y="783.720947" width="1804.755859" height="2575.741455" filterUnits="userSpaceOnUse" color-interpolation-filters="sRGB">
			<feFlood flood-opacity="0" result="BackgroundImageFix"/>
			<feBlend mode="normal" in="SourceGraphic" in2="BackgroundImageFix" result="shape"/>
			<feGaussianBlur stdDeviation="0" result="effect_layerBlur_1"/>
		</filter>
		<filter id="filter_847_1169_dd" x="1074.568359" y="810.745850" width="1804.755859" height="2575.741455" filterUnits="userSpaceOnUse" color-interpolation-filters="sRGB">
			<feFlood flood-opacity="0" result="BackgroundImageFix"/>
			<feBlend mode="normal" in="SourceGraphic" in2="BackgroundImageFix" result="shape"/>
			<feGaussianBlur stdDeviation="0" result="effect_layerBlur_1"/>
		</filter>
	</defs>
	<g filter="url(#filter_847_808_dd)">
		<path id="Vector 78" d="M2456.3 0.32C2071.72 444.42 2216.54 765.9 2044.11 1168.92C1906.16 1491.34 1575.16 1575.69 1353.33 1478.42C1153.35 1374.71 724.07 1232.62 682.93 1550.91C636.22 1912.35 651.02 2465.69 675.24 2575.62" stroke="#000000" stroke-opacity="0.800000" stroke-width="1.000000"/>
	</g>
	<g filter="url(#filter_847_809_dd)">
		<path id="Vector 79" d="M2893.03 838.09C2508.46 1282.18 2653.28 1603.67 2480.84 2006.69C2342.88 2329.11 2011.89 2413.46 1790.07 2316.19C1590.09 2212.49 1160.81 2070.38 1119.67 2388.68C1072.96 2750.13 1087.76 3303.46 1111.98 3413.4" stroke="#F99C04" stroke-opacity="1.000000" stroke-width="1.000000"/>
	</g>
	<g filter="url(#filter_847_1051_dd)">
		<path id="Vector 78 - Vector 79 - 32" d="M2470.38 27.35C2085.81 471.44 2230.62 792.92 2058.2 1195.94C1920.24 1518.36 1589.25 1602.71 1367.42 1505.44C1167.43 1401.74 738.16 1259.64 697.02 1577.94C650.3 1939.38 665.11 2492.71 689.33 2602.65" stroke="#080500" stroke-opacity="0.806452" stroke-width="1.000000"/>
	</g>
	<g filter="url(#filter_847_1053_dd)">
		<path id="Vector 78 - Vector 79 - 65" d="M2484.47 54.37C2099.89 498.47 2244.72 819.95 2072.28 1222.97C1934.33 1545.39 1603.34 1629.74 1381.51 1532.47C1181.53 1428.76 752.25 1286.67 711.11 1604.96C664.39 1966.4 679.2 2519.73 703.41 2629.68" stroke="#100A00" stroke-opacity="0.812903" stroke-width="1.000000"/>
	</g>
	<g filter="url(#filter_847_1055_dd)">
		<path id="Vector 78 - Vector 79 - 97" d="M2498.56 81.4C2113.99 525.49 2258.81 846.97 2086.37 1250C1948.42 1572.41 1617.42 1656.76 1395.6 1559.49C1195.62 1455.79 766.33 1313.69 725.19 1631.99C678.48 1993.43 693.28 2546.76 717.5 2656.71" stroke="#180F00" stroke-opacity="0.819355" stroke-width="1.000000"/>
	</g>
	<g filter="url(#filter_847_1057_dd)">
		<path id="Vector 78 - Vector 79 - 129" d="M2512.64 108.42C2128.08 552.52 2272.89 874 2100.46 1277.02C1962.51 1599.44 1631.51 1683.79 1409.69 1586.51C1209.71 1482.81 780.42 1340.72 739.28 1659.01C692.57 2020.45 707.37 2573.78 731.59 2683.73" stroke="#201401" stroke-opacity="0.825806" stroke-width="1.000000"/>
	</g>
	<g filter="url(#filter_847_1059_dd)">
		<path id="Vector 78 - Vector 79 - 161" d="M2526.74 135.45C2142.15 579.54 2286.98 901.02 2114.55 1304.05C1976.6 1626.46 1645.6 1710.81 1423.77 1613.54C1223.79 1509.84 794.51 1367.74 753.37 1686.04C706.66 2047.48 721.46 2600.81 745.68 2710.76" stroke="#281901" stroke-opacity="0.832258" stroke-width="1.000000"/>
	</g>
	<g filter="url(#filter_847_1061_dd)">
		<path id="Vector 78 - Vector 79 - 194" d="M2540.83 162.47C2156.25 606.57 2301.07 928.05 2128.63 1331.07C1990.69 1653.49 1659.69 1737.84 1437.86 1640.56C1237.88 1536.86 808.6 1394.77 767.46 1713.06C720.75 2074.5 735.55 2627.83 759.77 2737.78" stroke="#301E01" stroke-opacity="0.838710" stroke-width="1.000000"/>
	</g>
	<g filter="url(#filter_847_1063_dd)">
		<path id="Vector 78 - Vector 79 - 226" d="M2554.92 189.5C2170.34 633.59 2315.15 955.07 2142.72 1358.1C2004.77 1680.51 1673.78 1764.86 1451.95 1667.59C1251.97 1563.89 822.69 1421.79 781.55 1740.09C734.83 2101.53 749.64 2654.86 773.85 2764.81" stroke="#382301" stroke-opacity="0.845161" stroke-width="1.000000"/>
	</g>
	<g filter="url(#filter_847_1065_dd)">
		<path id="Vector 78 - Vector 79 - 258" d="M2569 216.52C2184.43 660.62 2329.25 982.1 2156.81 1385.12C2018.86 1707.54 1687.87 1791.89 1466.04 1694.61C1266.06 1590.91 836.77 1448.82 795.64 1767.11C748.92 2128.55 763.73 2681.88 787.94 2791.83" stroke="#402801" stroke-opacity="0.851613" stroke-width="1.000000"/>
	</g>
	<g filter="url(#filter_847_1067_dd)">
		<path id="Vector 78 - Vector 79 - 290" d="M2583.09 243.55C2198.52 687.64 2343.34 1009.13 2170.89 1412.15C2032.95 1734.56 1701.95 1818.91 1480.12 1721.64C1280.15 1617.94 850.86 1475.84 809.72 1794.14C763.01 2155.58 777.81 2708.91 802.03 2818.86" stroke="#482D01" stroke-opacity="0.858065" stroke-width="1.000000"/>
	</g>
	<g filter="url(#filter_847_1069_dd)">
		<path id="Vector 78 - Vector 79 - 323" d="M2597.18 270.57C2212.61 714.67 2357.43 1036.15 2184.99 1439.17C2047.04 1761.59 1716.04 1845.94 1494.21 1748.66C1294.24 1644.96 864.95 1502.87 823.81 1821.16C777.1 2182.6 791.9 2735.93 816.12 2845.88" stroke="#503201" stroke-opacity="0.864516" stroke-width="1.000000"/>
	</g>
	<g filter="url(#filter_847_1071_dd)">
		<path id="Vector 78 - Vector 79 - 355" d="M2611.27 297.6C2226.69 741.69 2371.51 1063.18 2199.08 1466.2C2061.12 1788.61 1730.13 1872.96 1508.3 1775.69C1308.31 1671.99 879.04 1529.89 837.9 1848.19C791.18 2209.62 805.99 2762.96 830.21 2872.91" stroke="#583701" stroke-opacity="0.870968" stroke-width="1.000000"/>
	</g>
	<g filter="url(#filter_847_1073_dd)">
		<path id="Vector 78 - Vector 79 - 387" d="M2625.36 324.62C2240.78 768.72 2385.6 1090.19 2213.17 1493.22C2075.21 1815.64 1744.22 1899.99 1522.39 1802.71C1322.41 1699.01 893.13 1556.92 851.99 1875.21C805.27 2236.64 820.08 2789.98 844.3 2899.93" stroke="#603C02" stroke-opacity="0.877419" stroke-width="1.000000"/>
	</g>
	<g filter="url(#filter_847_1075_dd)">
		<path id="Vector 78 - Vector 79 - 419" d="M2639.45 351.65C2254.87 795.74 2399.69 1117.23 2227.25 1520.25C2089.3 1842.66 1758.31 1927.01 1536.48 1829.74C1336.5 1726.04 907.22 1583.94 866.08 1902.24C819.36 2263.68 834.17 2817.01 858.38 2926.96" stroke="#684102" stroke-opacity="0.883871" stroke-width="1.000000"/>
	</g>
	<g filter="url(#filter_847_1077_dd)">
		<path id="Vector 78 - Vector 79 - 452" d="M2653.53 378.67C2268.96 822.77 2413.78 1144.25 2241.34 1547.27C2103.38 1869.68 1772.39 1954.04 1550.57 1856.76C1350.59 1753.06 921.3 1610.97 880.17 1929.26C833.45 2290.7 848.26 2844.03 872.47 2953.98" stroke="#704702" stroke-opacity="0.890323" stroke-width="1.000000"/>
	</g>
	<g filter="url(#filter_847_1079_dd)">
		<path id="Vector 78 - Vector 79 - 484" d="M2667.62 405.7C2283.04 849.79 2427.87 1171.28 2255.43 1574.3C2117.48 1896.71 1786.48 1981.06 1564.65 1883.79C1364.68 1780.09 935.39 1637.99 894.25 1956.29C847.54 2317.73 862.34 2871.06 886.56 2981.01" stroke="#784C02" stroke-opacity="0.896774" stroke-width="1.000000"/>
	</g>
	<g filter="url(#filter_847_1081_dd)">
		<path id="Vector 78 - Vector 79 - 516" d="M2681.71 432.72C2297.12 876.82 2441.96 1198.3 2269.52 1601.32C2131.57 1923.73 1800.57 2008.09 1578.74 1910.81C1378.77 1807.11 949.48 1665.02 908.34 1983.31C861.63 2344.75 876.43 2898.08 900.65 3008.03" stroke="#805102" stroke-opacity="0.903226" stroke-width="1.000000"/>
	</g>
	<g filter="url(#filter_847_1083_dd)">
		<path id="Vector 78 - Vector 79 - 548" d="M2695.8 459.75C2311.22 903.84 2456.04 1225.32 2283.61 1628.34C2145.64 1950.76 1814.66 2035.11 1592.83 1937.84C1392.85 1834.14 963.57 1692.04 922.43 2010.33C875.71 2371.78 890.52 2925.11 914.74 3035.06" stroke="#885602" stroke-opacity="0.909677" stroke-width="1.000000"/>
	</g>
	<g filter="url(#filter_847_1085_dd)">
		<path id="Vector 78 - Vector 79 - 581" d="M2709.89 486.77C2325.31 930.87 2470.12 1252.35 2297.7 1655.37C2159.74 1977.78 1828.75 2062.13 1606.92 1964.86C1406.94 1861.16 977.66 1719.07 936.52 2037.36C889.8 2398.8 904.61 2952.13 928.83 3062.08" stroke="#905B02" stroke-opacity="0.916129" stroke-width="1.000000"/>
	</g>
	<g filter="url(#filter_847_1087_dd)">
		<path id="Vector 78 - Vector 79 - 613" d="M2723.97 513.8C2339.39 957.89 2484.22 1279.38 2311.78 1682.39C2173.83 2004.81 1842.84 2089.15 1621.01 1991.89C1421.03 1888.19 991.75 1746.09 950.61 2064.37C903.89 2425.83 918.7 2979.16 942.91 3089.11" stroke="#986003" stroke-opacity="0.922581" stroke-width="1.000000"/>
	</g>
	<g filter="url(#filter_847_1089_dd)">
		<path id="Vector 78 - Vector 79 - 645" d="M2738.06 540.82C2353.49 984.92 2498.31 1306.4 2325.87 1709.42C2187.92 2031.83 1856.92 2116.19 1635.1 2018.91C1435.12 1915.21 1005.84 1773.12 964.69 2091.4C917.98 2452.85 932.78 3006.18 957 3116.13" stroke="#A06503" stroke-opacity="0.929032" stroke-width="1.000000"/>
	</g>
	<g filter="url(#filter_847_1091_dd)">
		<path id="Vector 78 - Vector 79 - 677" d="M2752.15 567.84C2367.57 1011.95 2512.39 1333.43 2339.96 1736.44C2202.01 2058.86 1871.01 2143.21 1649.18 2045.94C1449.21 1942.24 1019.93 1800.14 978.78 2118.43C932.07 2479.87 946.87 3033.21 971.09 3143.16" stroke="#A86A03" stroke-opacity="0.935484" stroke-width="1.000000"/>
	</g>
	<g filter="url(#filter_847_1093_dd)">
		<path id="Vector 78 - Vector 79 - 710" d="M2766.24 594.87C2381.65 1038.97 2526.49 1360.45 2354.05 1763.47C2216.1 2085.87 1885.1 2170.24 1663.27 2072.96C1463.29 1969.26 1034.02 1827.17 992.87 2145.46C946.16 2506.89 960.96 3060.23 985.18 3170.18" stroke="#B06F03" stroke-opacity="0.941935" stroke-width="1.000000"/>
	</g>
	<g filter="url(#filter_847_1095_dd)">
		<path id="Vector 78 - Vector 79 - 742" d="M2780.33 621.89C2395.75 1066 2540.57 1387.48 2368.12 1790.49C2230.18 2112.9 1899.19 2197.26 1677.36 2099.99C1477.38 1996.29 1048.1 1854.19 1006.96 2172.48C960.24 2533.93 975.05 3087.26 999.27 3197.21" stroke="#B87403" stroke-opacity="0.948387" stroke-width="1.000000"/>
	</g>
	<g filter="url(#filter_847_1097_dd)">
		<path id="Vector 78 - Vector 79 - 774" d="M2794.42 648.92C2409.84 1093.02 2554.65 1414.5 2382.22 1817.52C2244.27 2139.93 1913.28 2224.29 1691.45 2127.01C1491.47 2023.31 1062.18 1881.22 1021.05 2199.51C974.33 2560.95 989.14 3114.28 1013.36 3224.23" stroke="#C07903" stroke-opacity="0.954839" stroke-width="1.000000"/>
	</g>
	<g filter="url(#filter_847_1099_dd)">
		<path id="Vector 78 - Vector 79 - 806" d="M2808.5 675.94C2423.93 1120.05 2568.75 1441.52 2396.31 1844.54C2258.36 2166.96 1927.37 2251.31 1705.54 2154.04C1505.56 2050.34 1076.28 1908.24 1035.14 2226.53C988.42 2587.98 1003.23 3141.31 1027.44 3251.26" stroke="#C97E03" stroke-opacity="0.961290" stroke-width="1.000000"/>
	</g>
	<g filter="url(#filter_847_1101_dd)">
		<path id="Vector 78 - Vector 79 - 839" d="M2822.59 702.97C2438.02 1147.06 2582.84 1468.55 2410.39 1871.57C2272.45 2193.98 1941.45 2278.33 1719.62 2181.06C1519.65 2077.36 1090.37 1935.27 1049.23 2253.56C1002.51 2615 1017.32 3168.33 1041.54 3278.28" stroke="#D18303" stroke-opacity="0.967742" stroke-width="1.000000"/>
	</g>
	<g filter="url(#filter_847_1103_dd)">
		<path id="Vector 78 - Vector 79 - 871" d="M2836.68 729.99C2452.1 1174.09 2596.93 1495.57 2424.49 1898.59C2286.54 2221.01 1955.54 2305.36 1733.71 2208.09C1533.73 2104.38 1104.46 1962.29 1063.31 2280.58C1016.6 2642.03 1031.41 3195.36 1055.62 3305.31" stroke="#D98804" stroke-opacity="0.974194" stroke-width="1.000000"/>
	</g>
	<g filter="url(#filter_847_1105_dd)">
		<path id="Vector 78 - Vector 79 - 903" d="M2850.77 757.02C2466.19 1201.12 2611.02 1522.6 2438.58 1925.62C2300.62 2248.03 1969.63 2332.37 1747.8 2235.11C1547.82 2131.4 1118.54 1989.32 1077.41 2307.61C1030.68 2669.05 1045.5 3222.38 1069.71 3332.33" stroke="#E18D04" stroke-opacity="0.980645" stroke-width="1.000000"/>
	</g>
	<g filter="url(#filter_847_1107_dd)">
		<path id="Vector 78 - Vector 79 - 935" d="M2864.86 784.04C2480.28 1228.14 2625.1 1549.62 2452.65 1952.64C2314.71 2275.06 1983.72 2359.4 1761.89 2262.13C1561.91 2158.44 1132.63 2016.34 1091.49 2334.62C1044.78 2696.08 1059.57 3249.41 1083.8 3359.35" stroke="#E99204" stroke-opacity="0.987097" stroke-width="1.000000"/>
	</g>
	<g filter="url(#filter_847_1109_dd)">
		<path id="Vector 78 - Vector 79 - 968" d="M2878.95 811.07C2494.37 1255.17 2639.19 1576.65 2466.75 1979.67C2328.8 2302.08 1997.81 2386.43 1775.98 2289.15C1576 2185.46 1146.72 2043.36 1105.57 2361.65C1058.87 2723.1 1073.67 3276.43 1097.89 3386.38" stroke="#F19704" stroke-opacity="0.993548" stroke-width="1.000000"/>
	</g>
	<g filter="url(#filter_847_1111_dd)">
		<path id="Vector 78 - Vector 79 - 32" d="M2470.38 27.35C2085.81 471.44 2230.62 792.92 2058.2 1195.94C1920.24 1518.36 1589.25 1602.71 1367.42 1505.44C1167.43 1401.74 738.16 1259.64 697.02 1577.94C650.3 1939.38 665.11 2492.71 689.33 2602.65" stroke="#080500" stroke-opacity="0.806452" stroke-width="1.000000"/>
	</g>
	<g filter="url(#filter_847_1113_dd)">
		<path id="Vector 78 - Vector 79 - 65" d="M2484.47 54.37C2099.89 498.47 2244.72 819.95 2072.28 1222.97C1934.33 1545.39 1603.34 1629.74 1381.51 1532.47C1181.53 1428.76 752.25 1286.67 711.11 1604.96C664.39 1966.4 679.2 2519.73 703.41 2629.68" stroke="#100A00" stroke-opacity="0.812903" stroke-width="1.000000"/>
	</g>
	<g filter="url(#filter_847_1115_dd)">
		<path id="Vector 78 - Vector 79 - 97" d="M2498.56 81.4C2113.99 525.49 2258.81 846.97 2086.37 1250C1948.42 1572.41 1617.42 1656.76 1395.6 1559.49C1195.62 1455.79 766.33 1313.69 725.19 1631.99C678.48 1993.43 693.28 2546.76 717.5 2656.71" stroke="#180F00" stroke-opacity="0.819355" stroke-width="1.000000"/>
	</g>
	<g filter="url(#filter_847_1117_dd)">
		<path id="Vector 78 - Vector 79 - 129" d="M2512.64 108.42C2128.08 552.52 2272.89 874 2100.46 1277.02C1962.51 1599.44 1631.51 1683.79 1409.69 1586.51C1209.71 1482.81 780.42 1340.72 739.28 1659.01C692.57 2020.45 707.37 2573.78 731.59 2683.73" stroke="#201401" stroke-opacity="0.825806" stroke-width="1.000000"/>
	</g>
	<g filter="url(#filter_847_1119_dd)">
		<path id="Vector 78 - Vector 79 - 161" d="M2526.74 135.45C2142.15 579.54 2286.98 901.02 2114.55 1304.05C1976.6 1626.46 1645.6 1710.81 1423.77 1613.54C1223.79 1509.84 794.51 1367.74 753.37 1686.04C706.66 2047.48 721.46 2600.81 745.68 2710.76" stroke="#281901" stroke-opacity="0.832258" stroke-width="1.000000"/>
	</g>
	<g filter="url(#filter_847_1121_dd)">
		<path id="Vector 78 - Vector 79 - 194" d="M2540.83 162.47C2156.25 606.57 2301.07 928.05 2128.63 1331.07C1990.69 1653.49 1659.69 1737.84 1437.86 1640.56C1237.88 1536.86 808.6 1394.77 767.46 1713.06C720.75 2074.5 735.55 2627.83 759.77 2737.78" stroke="#301E01" stroke-opacity="0.838710" stroke-width="1.000000"/>
	</g>
	<g filter="url(#filter_847_1123_dd)">
		<path id="Vector 78 - Vector 79 - 226" d="M2554.92 189.5C2170.34 633.59 2315.15 955.07 2142.72 1358.1C2004.77 1680.51 1673.78 1764.86 1451.95 1667.59C1251.97 1563.89 822.69 1421.79 781.55 1740.09C734.83 2101.53 749.64 2654.86 773.85 2764.81" stroke="#382301" stroke-opacity="0.845161" stroke-width="1.000000"/>
	</g>
	<g filter="url(#filter_847_1125_dd)">
		<path id="Vector 78 - Vector 79 - 258" d="M2569 216.52C2184.43 660.62 2329.25 982.1 2156.81 1385.12C2018.86 1707.54 1687.87 1791.89 1466.04 1694.61C1266.06 1590.91 836.77 1448.82 795.64 1767.11C748.92 2128.55 763.73 2681.88 787.94 2791.83" stroke="#402801" stroke-opacity="0.851613" stroke-width="1.000000"/>
	</g>
	<g filter="url(#filter_847_1127_dd)">
		<path id="Vector 78 - Vector 79 - 290" d="M2583.09 243.55C2198.52 687.64 2343.34 1009.13 2170.89 1412.15C2032.95 1734.56 1701.95 1818.91 1480.12 1721.64C1280.15 1617.94 850.86 1475.84 809.72 1794.14C763.01 2155.58 777.81 2708.91 802.03 2818.86" stroke="#482D01" stroke-opacity="0.858065" stroke-width="1.000000"/>
	</g>
	<g filter="url(#filter_847_1129_dd)">
		<path id="Vector 78 - Vector 79 - 323" d="M2597.18 270.57C2212.61 714.67 2357.43 1036.15 2184.99 1439.17C2047.04 1761.59 1716.04 1845.94 1494.21 1748.66C1294.24 1644.96 864.95 1502.87 823.81 1821.16C777.1 2182.6 791.9 2735.93 816.12 2845.88" stroke="#503201" stroke-opacity="0.864516" stroke-width="1.000000"/>
	</g>
	<g filter="url(#filter_847_1131_dd)">
		<path id="Vector 78 - Vector 79 - 355" d="M2611.27 297.6C2226.69 741.69 2371.51 1063.18 2199.08 1466.2C2061.12 1788.61 1730.13 1872.96 1508.3 1775.69C1308.31 1671.99 879.04 1529.89 837.9 1848.19C791.18 2209.62 805.99 2762.96 830.21 2872.91" stroke="#583701" stroke-opacity="0.870968" stroke-width="1.000000"/>
	</g>
	<g filter="url(#filter_847_1133_dd)">
		<path id="Vector 78 - Vector 79 - 387" d="M2625.36 324.62C2240.78 768.72 2385.6 1090.19 2213.17 1493.22C2075.21 1815.64 1744.22 1899.99 1522.39 1802.71C1322.41 1699.01 893.13 1556.92 851.99 1875.21C805.27 2236.64 820.08 2789.98 844.3 2899.93" stroke="#603C02" stroke-opacity="0.877419" stroke-width="1.000000"/>
	</g>
	<g filter="url(#filter_847_1135_dd)">
		<path id="Vector 78 - Vector 79 - 419" d="M2639.45 351.65C2254.87 795.74 2399.69 1117.23 2227.25 1520.25C2089.3 1842.66 1758.31 1927.01 1536.48 1829.74C1336.5 1726.04 907.22 1583.94 866.08 1902.24C819.36 2263.68 834.17 2817.01 858.38 2926.96" stroke="#684102" stroke-opacity="0.883871" stroke-width="1.000000"/>
	</g>
	<g filter="url(#filter_847_1137_dd)">
		<path id="Vector 78 - Vector 79 - 452" d="M2653.53 378.67C2268.96 822.77 2413.78 1144.25 2241.34 1547.27C2103.38 1869.68 1772.39 1954.04 1550.57 1856.76C1350.59 1753.06 921.3 1610.97 880.17 1929.26C833.45 2290.7 848.26 2844.03 872.47 2953.98" stroke="#704702" stroke-opacity="0.890323" stroke-width="1.000000"/>
	</g>
	<g filter="url(#filter_847_1139_dd)">
		<path id="Vector 78 - Vector 79 - 484" d="M2667.62 405.7C2283.04 849.79 2427.87 1171.28 2255.43 1574.3C2117.48 1896.71 1786.48 1981.06 1564.65 1883.79C1364.68 1780.09 935.39 1637.99 894.25 1956.29C847.54 2317.73 862.34 2871.06 886.56 2981.01" stroke="#784C02" stroke-opacity="0.896774" stroke-width="1.000000"/>
	</g>
	<g filter="url(#filter_847_1141_dd)">
		<path id="Vector 78 - Vector 79 - 516" d="M2681.71 432.72C2297.12 876.82 2441.96 1198.3 2269.52 1601.32C2131.57 1923.73 1800.57 2008.09 1578.74 1910.81C1378.77 1807.11 949.48 1665.02 908.34 1983.31C861.63 2344.75 876.43 2898.08 900.65 3008.03" stroke="#805102" stroke-opacity="0.903226" stroke-width="1.000000"/>
	</g>
	<g filter="url(#filter_847_1143_dd)">
		<path id="Vector 78 - Vector 79 - 548" d="M2695.8 459.75C2311.22 903.84 2456.04 1225.32 2283.61 1628.34C2145.64 1950.76 1814.66 2035.11 1592.83 1937.84C1392.85 1834.14 963.57 1692.04 922.43 2010.33C875.71 2371.78 890.52 2925.11 914.74 3035.06" stroke="#885602" stroke-opacity="0.909677" stroke-width="1.000000"/>
	</g>
	<g filter="url(#filter_847_1145_dd)">
		<path id="Vector 78 - Vector 79 - 581" d="M2709.89 486.77C2325.31 930.87 2470.12 1252.35 2297.7 1655.37C2159.74 1977.78 1828.75 2062.13 1606.92 1964.86C1406.94 1861.16 977.66 1719.07 936.52 2037.36C889.8 2398.8 904.61 2952.13 928.83 3062.08" stroke="#905B02" stroke-opacity="0.916129" stroke-width="1.000000"/>
	</g>
	<g filter="url(#filter_847_1147_dd)">
		<path id="Vector 78 - Vector 79 - 613" d="M2723.97 513.8C2339.39 957.89 2484.22 1279.38 2311.78 1682.39C2173.83 2004.81 1842.84 2089.15 1621.01 1991.89C1421.03 1888.19 991.75 1746.09 950.61 2064.37C903.89 2425.83 918.7 2979.16 942.91 3089.11" stroke="#986003" stroke-opacity="0.922581" stroke-width="1.000000"/>
	</g>
	<g filter="url(#filter_847_1149_dd)">
		<path id="Vector 78 - Vector 79 - 645" d="M2738.06 540.82C2353.49 984.92 2498.31 1306.4 2325.87 1709.42C2187.92 2031.83 1856.92 2116.19 1635.1 2018.91C1435.12 1915.21 1005.84 1773.12 964.69 2091.4C917.98 2452.85 932.78 3006.18 957 3116.13" stroke="#A06503" stroke-opacity="0.929032" stroke-width="1.000000"/>
	</g>
	<g filter="url(#filter_847_1151_dd)">
		<path id="Vector 78 - Vector 79 - 677" d="M2752.15 567.84C2367.57 1011.95 2512.39 1333.43 2339.96 1736.44C2202.01 2058.86 1871.01 2143.21 1649.18 2045.94C1449.21 1942.24 1019.93 1800.14 978.78 2118.43C932.07 2479.87 946.87 3033.21 971.09 3143.16" stroke="#A86A03" stroke-opacity="0.935484" stroke-width="1.000000"/>
	</g>
	<g filter="url(#filter_847_1153_dd)">
		<path id="Vector 78 - Vector 79 - 710" d="M2766.24 594.87C2381.65 1038.97 2526.49 1360.45 2354.05 1763.47C2216.1 2085.87 1885.1 2170.24 1663.27 2072.96C1463.29 1969.26 1034.02 1827.17 992.87 2145.46C946.16 2506.89 960.96 3060.23 985.18 3170.18" stroke="#B06F03" stroke-opacity="0.941935" stroke-width="1.000000"/>
	</g>
	<g filter="url(#filter_847_1155_dd)">
		<path id="Vector 78 - Vector 79 - 742" d="M2780.33 621.89C2395.75 1066 2540.57 1387.48 2368.12 1790.49C2230.18 2112.9 1899.19 2197.26 1677.36 2099.99C1477.38 1996.29 1048.1 1854.19 1006.96 2172.48C960.24 2533.93 975.05 3087.26 999.27 3197.21" stroke="#B87403" stroke-opacity="0.948387" stroke-width="1.000000"/>
	</g>
	<g filter="url(#filter_847_1157_dd)">
		<path id="Vector 78 - Vector 79 - 774" d="M2794.42 648.92C2409.84 1093.02 2554.65 1414.5 2382.22 1817.52C2244.27 2139.93 1913.28 2224.29 1691.45 2127.01C1491.47 2023.31 1062.18 1881.22 1021.05 2199.51C974.33 2560.95 989.14 3114.28 1013.36 3224.23" stroke="#C07903" stroke-opacity="0.954839" stroke-width="1.000000"/>
	</g>
	<g filter="url(#filter_847_1159_dd)">
		<path id="Vector 78 - Vector 79 - 806" d="M2808.5 675.94C2423.93 1120.05 2568.75 1441.52 2396.31 1844.54C2258.36 2166.96 1927.37 2251.31 1705.54 2154.04C1505.56 2050.34 1076.28 1908.24 1035.14 2226.53C988.42 2587.98 1003.23 3141.31 1027.44 3251.26" stroke="#C97E03" stroke-opacity="0.961290" stroke-width="1.000000"/>
	</g>
	<g filter="url(#filter_847_1161_dd)">
		<path id="Vector 78 - Vector 79 - 839" d="M2822.59 702.97C2438.02 1147.06 2582.84 1468.55 2410.39 1871.57C2272.45 2193.98 1941.45 2278.33 1719.62 2181.06C1519.65 2077.36 1090.37 1935.27 1049.23 2253.56C1002.51 2615 1017.32 3168.33 1041.54 3278.28" stroke="#D18303" stroke-opacity="0.967742" stroke-width="1.000000"/>
	</g>
	<g filter="url(#filter_847_1163_dd)">
		<path id="Vector 78 - Vector 79 - 871" d="M2836.68 729.99C2452.1 1174.09 2596.93 1495.57 2424.49 1898.59C2286.54 2221.01 1955.54 2305.36 1733.71 2208.09C1533.73 2104.38 1104.46 1962.29 1063.31 2280.58C1016.6 2642.03 1031.41 3195.36 1055.62 3305.31" stroke="#D98804" stroke-opacity="0.974194" stroke-width="1.000000"/>
	</g>
	<g filter="url(#filter_847_1165_dd)">
		<path id="Vector 78 - Vector 79 - 903" d="M2850.77 757.02C2466.19 1201.12 2611.02 1522.6 2438.58 1925.62C2300.62 2248.03 1969.63 2332.37 1747.8 2235.11C1547.82 2131.4 1118.54 1989.32 1077.41 2307.61C1030.68 2669.05 1045.5 3222.38 1069.71 3332.33" stroke="#E18D04" stroke-opacity="0.980645" stroke-width="1.000000"/>
	</g>
	<g filter="url(#filter_847_1167_dd)">
		<path id="Vector 78 - Vector 79 - 935" d="M2864.86 784.04C2480.28 1228.14 2625.1 1549.62 2452.65 1952.64C2314.71 2275.06 1983.72 2359.4 1761.89 2262.13C1561.91 2158.44 1132.63 2016.34 1091.49 2334.62C1044.78 2696.08 1059.57 3249.41 1083.8 3359.35" stroke="#E99204" stroke-opacity="0.987097" stroke-width="1.000000"/>
	</g>
	<g filter="url(#filter_847_1169_dd)">
		<path id="Vector 78 - Vector 79 - 968" d="M2878.95 811.07C2494.37 1255.17 2639.19 1576.65 2466.75 1979.67C2328.8 2302.08 1997.81 2386.44 1775.98 2289.15C1576 2185.46 1146.72 2043.37 1105.57 2361.65C1058.87 2723.1 1073.67 3276.43 1097.89 3386.38" stroke="#F19704" stroke-opacity="0.993548" stroke-width="1.000000"/>
	</g>
</svg>
