<svg width="390" height="1043" viewBox="0 0 390 1043" fill="none" xmlns="http://www.w3.org/2000/svg">
<path d="M-353.912 712.098C-271.329 392.184 -122.499 217.477 -1.06003 355.899C131.657 507.176 352.926 448.2 435.699 224.25" stroke="#282828"/>
<path d="M-201.648 840.741C-128.474 518.544 15.1717 339.551 140.615 474.355C277.708 621.679 497.153 556.244 573.329 329.965" stroke="#F99C04"/>
<path d="M-345.898 718.869C-263.808 398.827 -115.248 223.892 6.40446 362.126C139.355 513.198 360.532 453.88 442.96 229.803" stroke="#332E26"/>
<path d="M-337.883 725.64C-256.287 405.472 -107.998 230.307 13.8681 368.354C147.051 519.221 368.137 459.562 450.219 235.358" stroke="#3E3424"/>
<path d="M-329.869 732.41C-248.767 412.117 -100.748 236.724 21.3308 374.583C154.747 525.244 375.74 465.244 457.476 240.914" stroke="#493A22"/>
<path d="M-321.855 739.181C-241.247 418.763 -93.4984 243.142 28.7926 380.812C162.441 531.268 383.341 470.927 464.731 246.471" stroke="#544020"/>
<path d="M-313.841 745.952C-233.727 425.41 -86.2497 249.561 36.2536 387.043C170.134 537.292 390.94 476.61 471.984 252.029" stroke="#5F461E"/>
<path d="M-305.827 752.723C-226.208 432.058 -79.0015 255.982 43.7136 393.274C177.825 543.316 398.538 482.294 479.236 257.588" stroke="#6A4C1C"/>
<path d="M-297.813 759.494C-218.688 438.706 -71.7539 262.403 51.1728 399.506C185.516 549.341 406.134 487.979 486.485 263.148" stroke="#75531A"/>
<path d="M-289.799 766.264C-211.169 445.355 -64.5069 268.825 58.6311 405.739C193.205 555.367 413.729 493.664 493.733 268.71" stroke="#805919"/>
<path d="M-281.785 773.035C-203.65 452.005 -57.2606 275.249 66.0886 411.972C200.893 561.393 421.321 499.35 500.978 274.273" stroke="#8B5F17"/>
<path d="M-273.771 779.806C-196.132 458.656 -50.0147 281.674 73.5451 418.207C208.58 567.419 428.912 505.036 508.222 279.837" stroke="#966515"/>
<path d="M-265.757 786.576C-188.613 465.307 -42.7695 288.101 81.0008 424.442C216.266 573.446 436.501 510.724 515.464 285.402" stroke="#A16B13"/>
<path d="M-257.743 793.347C-181.095 471.959 -35.5248 294.528 88.4556 430.678C223.95 579.473 444.089 516.411 522.703 290.968" stroke="#AC7111"/>
<path d="M-249.73 800.117C-173.577 478.612 -28.2807 300.956 95.9096 436.915C231.633 585.501 451.675 522.1 529.941 296.535" stroke="#B7770F"/>
<path d="M-241.716 806.888C-166.059 485.265 -21.0372 307.386 103.363 443.153C239.316 591.53 459.259 527.789 537.177 302.104" stroke="#C27D0D"/>
<path d="M-233.702 813.659C-158.542 491.92 -13.7943 313.817 110.815 449.392C246.996 597.559 466.841 533.479 544.412 307.674" stroke="#CD840C"/>
<path d="M-225.689 820.429C-151.025 498.574 -6.55195 320.249 118.266 455.632C254.676 603.588 474.422 539.169 551.644 313.245" stroke="#D88A0A"/>
<path d="M-217.675 827.2C-143.508 505.23 0.689839 326.682 125.717 461.872C262.355 609.618 482 544.86 558.874 318.817" stroke="#E39008"/>
<path d="M-209.662 833.97C-135.991 511.886 7.93107 333.116 133.166 468.113C270.032 615.648 489.578 550.551 566.102 324.39" stroke="#EE9606"/>
<path d="M-345.898 718.869C-263.808 398.827 -115.248 223.892 6.40446 362.126C139.355 513.198 360.532 453.88 442.96 229.803" stroke="#332E26"/>
<path d="M-337.883 725.64C-256.287 405.472 -107.998 230.307 13.8681 368.354C147.051 519.221 368.137 459.562 450.219 235.358" stroke="#3E3424"/>
<path d="M-329.869 732.41C-248.767 412.117 -100.748 236.724 21.3308 374.583C154.747 525.244 375.74 465.244 457.476 240.914" stroke="#493A22"/>
<path d="M-321.855 739.181C-241.247 418.763 -93.4984 243.142 28.7926 380.812C162.441 531.268 383.341 470.927 464.731 246.471" stroke="#544020"/>
<path d="M-313.841 745.952C-233.727 425.41 -86.2497 249.561 36.2536 387.043C170.134 537.292 390.94 476.61 471.984 252.029" stroke="#5F461E"/>
<path d="M-305.827 752.723C-226.208 432.058 -79.0015 255.982 43.7136 393.274C177.825 543.316 398.538 482.294 479.236 257.588" stroke="#6A4C1C"/>
<path d="M-297.813 759.494C-218.688 438.706 -71.7539 262.403 51.1728 399.506C185.516 549.341 406.134 487.979 486.485 263.148" stroke="#75531A"/>
<path d="M-289.799 766.264C-211.169 445.355 -64.5069 268.825 58.6311 405.739C193.205 555.367 413.729 493.664 493.733 268.71" stroke="#805919"/>
<path d="M-281.785 773.035C-203.65 452.005 -57.2606 275.249 66.0886 411.972C200.893 561.393 421.321 499.35 500.978 274.273" stroke="#8B5F17"/>
<path d="M-273.771 779.806C-196.132 458.656 -50.0147 281.674 73.5451 418.207C208.58 567.419 428.912 505.036 508.222 279.837" stroke="#966515"/>
<path d="M-265.757 786.576C-188.613 465.307 -42.7695 288.101 81.0008 424.442C216.266 573.446 436.501 510.724 515.464 285.402" stroke="#A16B13"/>
<path d="M-257.743 793.347C-181.095 471.959 -35.5248 294.528 88.4556 430.678C223.95 579.473 444.089 516.411 522.703 290.968" stroke="#AC7111"/>
<path d="M-249.73 800.117C-173.577 478.612 -28.2807 300.956 95.9096 436.915C231.633 585.501 451.675 522.1 529.941 296.535" stroke="#B7770F"/>
<path d="M-241.716 806.888C-166.059 485.265 -21.0372 307.386 103.363 443.153C239.316 591.53 459.259 527.789 537.177 302.104" stroke="#C27D0D"/>
<path d="M-233.702 813.659C-158.542 491.92 -13.7943 313.817 110.815 449.392C246.996 597.559 466.841 533.479 544.412 307.674" stroke="#CD840C"/>
<path d="M-225.689 820.429C-151.025 498.574 -6.55195 320.249 118.266 455.632C254.676 603.588 474.422 539.169 551.644 313.245" stroke="#D88A0A"/>
<path d="M-217.675 827.2C-143.508 505.23 0.689839 326.682 125.717 461.872C262.355 609.618 482 544.86 558.874 318.817" stroke="#E39008"/>
<path d="M-209.662 833.97C-135.991 511.886 7.93107 333.116 133.166 468.113C270.032 615.648 489.578 550.551 566.102 324.39" stroke="#EE9606"/>
</svg>
