<svg width="24" height="18" viewBox="0 0 24 18" fill="none" xmlns="http://www.w3.org/2000/svg">
<path fill-rule="evenodd" clip-rule="evenodd" d="M11.8122 2.95294C8.37243 2.95294 5.57694 5.74843 5.57694 9.18824H8.69458L4.53772 13.3451L0.380859 9.18824H3.49851C3.49851 4.5949 7.2189 0.874512 11.8122 0.874512C13.4438 0.874512 14.9611 1.35255 16.2393 2.16314L14.722 3.68039C13.8595 3.21275 12.8618 2.95294 11.8122 2.95294ZM14.9299 9.18824L19.0867 5.03137L23.2436 9.18824H20.126C20.126 13.7816 16.4056 17.502 11.8122 17.502C10.1807 17.502 8.66341 17.0239 7.38517 16.2133L8.90243 14.6961C9.76498 15.1637 10.7626 15.4235 11.8122 15.4235C15.252 15.4235 18.0475 12.628 18.0475 9.18824H14.9299Z" fill="white"/>
</svg>
