<svg width="26" height="26" viewBox="0 0 26 26" fill="none" xmlns="http://www.w3.org/2000/svg">
<path fill-rule="evenodd" clip-rule="evenodd" d="M23.2042 12.5648C23.2042 18.3012 18.5485 22.9569 12.8121 22.9569C7.07561 22.9569 2.41992 18.3012 2.41992 12.5648C2.41992 6.82829 7.07561 2.17261 12.8121 2.17261C18.5485 2.17261 23.2042 6.82829 23.2042 12.5648ZM9.69443 14.903C10.4115 14.903 10.9935 14.321 10.9935 13.604C10.9935 12.8869 10.4115 12.305 9.69443 12.305C8.97737 12.305 8.39541 12.8869 8.39541 13.604C8.39541 14.321 8.97737 14.903 9.69443 14.903ZM14.6307 13.604C14.6307 12.8869 15.2127 12.305 15.9297 12.305C16.6468 12.305 17.2287 12.8869 17.2287 13.604C17.2287 14.321 16.6468 14.903 15.9297 14.903C15.2127 14.903 14.6307 14.321 14.6307 13.604ZM18.5278 8.4079C15.514 8.4079 12.8744 6.78673 11.4195 4.37574C11.8664 4.303 12.334 4.25104 12.8121 4.25104C15.8258 4.25104 18.4654 5.87222 19.9203 8.2832C19.4735 8.35594 19.0058 8.4079 18.5278 8.4079ZM4.93482 9.93555C6.71188 8.92751 8.08365 7.28555 8.73835 5.32143C6.9613 6.32947 5.58953 7.97143 4.93482 9.93555ZM20.7829 10.2369C21.0011 10.9748 21.1258 11.7542 21.1258 12.5648C21.1258 17.1477 17.395 20.8785 12.8121 20.8785C8.22914 20.8785 4.49835 17.1477 4.49835 12.5648C4.49835 12.547 4.49956 12.5293 4.50074 12.512C4.50302 12.4786 4.5052 12.4467 4.49835 12.4193C7.20031 11.4008 9.37227 9.31202 10.4635 6.65163C12.3756 8.98986 15.275 10.4863 18.5278 10.4863C19.3072 10.4863 20.0554 10.3928 20.7829 10.2369Z" fill="white"/>
</svg>
