<svg width="28" height="25" viewBox="0 0 28 25" fill="none" xmlns="http://www.w3.org/2000/svg">
<path d="M27.6108 0.273765C27.4559 0.139975 27.2674 0.0509958 27.0656 0.0164137C26.8638 -0.0181684 26.6565 0.00295726 26.4658 0.0775147L1.1333 9.99127C0.774285 10.1309 0.470334 10.3833 0.26721 10.7106C0.0640858 11.0379 -0.0272168 11.4224 0.0070479 11.806C0.0413126 12.1897 0.19929 12.5519 0.457196 12.838C0.715103 13.1241 1.05898 13.3187 1.43705 13.3925L8.0008 14.6813V22C7.99951 22.3987 8.11798 22.7885 8.34086 23.119C8.56373 23.4496 8.88074 23.7055 9.2508 23.8538C9.62029 24.0046 10.0266 24.0409 10.417 23.9577C10.8073 23.8746 11.1636 23.6759 11.4396 23.3875L14.6046 20.105L19.6258 24.5C19.9881 24.8214 20.4553 24.9992 20.9396 25C21.1518 24.9998 21.3626 24.9665 21.5646 24.9013C21.8945 24.7966 22.1912 24.6073 22.4252 24.3522C22.6593 24.0971 22.8224 23.7852 22.8983 23.4475L27.9721 1.37501C28.0174 1.17595 28.0078 0.96829 27.9442 0.77429C27.8805 0.58029 27.7653 0.407266 27.6108 0.273765ZM19.9683 4.77377L8.76955 12.7938L2.56955 11.5775L19.9683 4.77377ZM10.0008 22V16.065L13.0996 18.7825L10.0008 22ZM20.9421 23L10.6071 13.9375L25.4821 3.27626L20.9421 23Z" fill="white"/>
</svg>
